<svg xmlns="http://www.w3.org/2000/svg" xmlns:xlink="http://www.w3.org/1999/xlink" width="840" zoomAndPan="magnify" viewBox="0 0 630 419.999985" height="560" preserveAspectRatio="xMidYMid meet" version="1.0"><defs><clipPath id="f4946a9967"><path d="M 139 29.632812 L 489 29.632812 L 489 233 L 139 233 Z M 139 29.632812 " clip-rule="nonzero"/></clipPath><clipPath id="04f766bcb6"><path d="M 110.039062 62 L 520 62 L 520 390.382812 L 110.039062 390.382812 Z M 110.039062 62 " clip-rule="nonzero"/></clipPath></defs><path fill="#fcd34f" d="M 247.246094 382.011719 L 246.867188 384.394531 C 246.867188 384.46875 246.808594 384.527344 246.734375 384.527344 L 228.058594 383.84375 C 227.738281 383.84375 227.433594 383.714844 227.207031 383.492188 L 223.292969 380.804688 C 223.164062 380.679688 222.949219 380.769531 222.949219 380.945312 L 222.628906 384.46875 C 222.628906 384.542969 222.566406 384.605469 222.492188 384.605469 L 217.140625 384.117188 C 217.070312 384.117188 217.011719 384.0625 217.003906 383.996094 C 216.476562 379.761719 217.554688 375.878906 218.078125 372.195312 L 217.207031 372.195312 L 202.746094 332.351562 L 197.851562 340.683594 L 195.125 373.703125 L 206.789062 379.328125 C 207.355469 379.660156 207.703125 380.269531 207.703125 380.925781 L 207.550781 383.84375 C 207.550781 384.023438 207.402344 384.171875 207.222656 384.171875 L 189.972656 383.773438 C 189.761719 383.773438 189.558594 383.6875 189.410156 383.539062 L 184.253906 380.445312 C 184.214844 380.40625 184.148438 380.433594 184.148438 380.488281 L 183.71875 384.199219 C 183.71875 384.382812 183.570312 384.527344 183.386719 384.527344 L 179.679688 384.082031 C 179.503906 384.082031 179.355469 383.941406 179.347656 383.765625 C 179.109375 379.574219 179.121094 376.914062 179.421875 373.457031 L 181.035156 311.460938 L 139.269531 303.164062 C 137.132812 302.730469 135.507812 301.007812 135.160156 298.855469 C 134.09375 292.316406 134.1875 288.753906 135.839844 283.296875 L 134.933594 278.1875 L 134.371094 244.765625 C 134.289062 240.210938 134.515625 236.304688 136.714844 232.316406 L 140.121094 226.988281 L 143.621094 220.296875 C 143.707031 220.160156 143.875 220.097656 144.03125 220.140625 L 145.089844 219.316406 L 146.320312 214.425781 C 143.464844 214 141.941406 212.503906 141.394531 210.859375 L 138.636719 210.066406 C 138.511719 210.066406 138.390625 209.980469 138.371094 209.855469 C 133.90625 183.941406 163.917969 184.097656 164.683594 199.785156 C 164.839844 200.0625 165.011719 200.332031 165.191406 200.59375 C 165.375 200.855469 165.570312 201.109375 165.773438 201.355469 L 168.226562 204.277344 C 168.953125 205.144531 168.847656 206.4375 167.992188 207.175781 L 166.90625 208.109375 C 166.730469 208.261719 166.628906 208.484375 166.628906 208.71875 L 166.628906 212.484375 C 166.628906 214.175781 165.421875 215.621094 163.757812 215.925781 L 161.089844 216.414062 L 161.5625 224.25 C 161.683594 224.320312 161.144531 225.199219 161.21875 225.324219 L 163.269531 228.785156 L 167.765625 236.023438 C 170.714844 241 172.695312 245.871094 172.675781 251.65625 L 172.652344 259.023438 L 173.738281 260.640625 L 192.058594 261.707031 C 192.988281 261.761719 193.921875 261.71875 194.839844 261.582031 L 203.984375 260.21875 C 204.628906 260.1875 205.269531 260.296875 205.867188 260.535156 L 208.917969 261.746094 C 209.695312 262.054688 210.378906 262.574219 210.882812 263.246094 L 215.828125 269.824219 C 215.886719 269.917969 215.910156 270.019531 215.914062 270.121094 C 215.914062 270.128906 215.910156 270.132812 215.910156 270.140625 C 215.910156 270.316406 215.839844 270.480469 215.703125 270.59375 C 215.644531 270.648438 215.574219 270.691406 215.492188 270.714844 C 215.394531 270.742188 215.289062 270.765625 215.175781 270.789062 C 215.125 270.796875 215.078125 270.804688 215.027344 270.8125 C 214.964844 270.820312 214.898438 270.824219 214.832031 270.832031 C 214.667969 270.847656 214.496094 270.847656 214.3125 270.839844 C 214.308594 270.839844 214.304688 270.839844 214.304688 270.839844 C 213.828125 270.816406 213.289062 270.695312 212.695312 270.417969 C 212.472656 270.316406 212.246094 270.1875 212.011719 270.03125 C 211.90625 269.964844 211.800781 269.894531 211.691406 269.8125 C 211.613281 269.753906 211.535156 269.695312 211.453125 269.628906 C 211.246094 269.464844 211.039062 269.285156 210.824219 269.074219 C 210.457031 268.707031 209.996094 268.445312 209.5 268.300781 L 206.988281 267.574219 C 206.628906 267.46875 206.25 267.578125 205.992188 267.847656 C 205.921875 267.925781 205.835938 268.011719 205.746094 268.097656 C 205.71875 268.121094 205.691406 268.148438 205.667969 268.171875 C 205.59375 268.242188 205.511719 268.316406 205.421875 268.394531 C 205.390625 268.421875 205.359375 268.445312 205.328125 268.472656 C 205.230469 268.558594 205.121094 268.644531 205.007812 268.734375 C 204.984375 268.753906 204.957031 268.773438 204.933594 268.792969 C 204.632812 269.019531 204.289062 269.253906 203.894531 269.484375 C 203.890625 269.484375 203.890625 269.484375 203.886719 269.484375 C 203.699219 269.59375 203.496094 269.699219 203.285156 269.804688 C 203.253906 269.820312 203.222656 269.832031 203.191406 269.847656 C 203 269.941406 202.796875 270.027344 202.585938 270.113281 C 202.550781 270.128906 202.515625 270.140625 202.480469 270.15625 C 201.941406 270.363281 201.339844 270.542969 200.683594 270.671875 C 200.628906 270.683594 200.570312 270.691406 200.515625 270.703125 C 200.164062 270.765625 199.796875 270.820312 199.410156 270.851562 C 199.394531 270.851562 199.382812 270.855469 199.367188 270.855469 C 198.984375 270.886719 198.578125 270.894531 198.15625 270.886719 C 198.0625 270.882812 197.964844 270.878906 197.867188 270.875 C 197.4375 270.859375 196.996094 270.828125 196.53125 270.765625 C 195.378906 270.609375 194.210938 270.617188 193.078125 270.875 C 192.125 271.09375 190.863281 271.382812 189.4375 271.710938 C 188.945312 271.820312 188.4375 271.9375 187.917969 272.058594 C 187.578125 272.132812 187.238281 272.210938 186.894531 272.292969 C 185.976562 272.5 185.03125 272.71875 184.089844 272.933594 C 183.898438 272.976562 183.710938 273.019531 183.523438 273.0625 C 183.273438 273.121094 183.019531 273.175781 182.769531 273.234375 C 181.894531 273.433594 181.035156 273.632812 180.214844 273.820312 C 179.875 273.898438 179.546875 273.972656 179.222656 274.046875 C 178.855469 274.132812 178.496094 274.214844 178.152344 274.292969 C 178.019531 274.320312 177.898438 274.351562 177.769531 274.378906 C 177.175781 274.515625 176.621094 274.640625 176.132812 274.753906 C 174.96875 275.019531 173.769531 275.046875 172.601562 274.835938 L 170.816406 279.097656 L 169 282.277344 L 208.402344 305.78125 C 211.941406 307.777344 214.585938 311.046875 215.796875 314.925781 L 235.625 372.902344 L 234.890625 372.902344 L 245.894531 379.652344 C 246.730469 380.140625 247.246094 381.039062 247.246094 382.011719 Z M 493.101562 281.78125 L 494.433594 237.949219 C 494.429688 234.625 494.34375 232.070312 492.277344 229.464844 L 488.097656 224.195312 L 485.488281 218.417969 C 485.332031 218.160156 485.019531 218.046875 484.734375 218.136719 L 484.773438 217.824219 L 484.550781 217.042969 C 486.511719 216.832031 487.738281 214.683594 488.492188 213.078125 C 488.847656 212.316406 489.457031 211.667969 490.269531 211.460938 C 492.296875 210.941406 492.429688 209.3125 492.125 207.089844 C 492.011719 206.269531 492.175781 205.445312 492.609375 204.738281 C 494.152344 202.207031 493.136719 198.496094 491.445312 197.1875 C 490.847656 196.722656 490.5 196.011719 490.359375 195.269531 C 488.90625 187.429688 482.121094 185.726562 473.214844 187.285156 C 473.214844 187.285156 465.550781 186.761719 465.820312 197.410156 C 465.582031 197.992188 465.253906 198.527344 464.824219 198.984375 L 460.863281 203.171875 C 460.070312 204.007812 460.230469 205.378906 461.210938 205.984375 C 461.945312 206.441406 463.125 206.777344 463.125 206.777344 L 463.289062 210.660156 C 463.15625 211.984375 463.910156 213.238281 465.140625 213.746094 L 468.300781 215.046875 L 466.289062 223.648438 L 466.226562 223.667969 C 466.289062 223.648438 466.210938 224.535156 466.09375 224.804688 L 466.082031 224.828125 L 466.226562 227.511719 L 462.222656 236.652344 C 461.40625 238.320312 460.984375 240.152344 460.984375 242.011719 L 461.296875 252.441406 L 450.410156 260.273438 C 450.132812 260.503906 449.773438 260.613281 449.410156 260.585938 L 423.160156 258.007812 C 423.027344 257.992188 422.902344 258.078125 422.867188 258.207031 L 422.136719 258.875 L 415.023438 256.574219 L 420.210938 249.980469 C 420.550781 249.59375 420.785156 249.222656 420.398438 248.882812 C 420.015625 248.542969 419.683594 248.949219 419.339844 249.335938 L 413.085938 255.949219 L 412.550781 255.777344 C 411.726562 255.507812 410.824219 255.632812 410.097656 256.109375 L 403.769531 260.285156 C 402.9375 260.835938 402.34375 261.683594 402.113281 262.65625 L 400.914062 267.695312 L 400.652344 268.800781 C 400.570312 269.148438 400.867188 269.472656 401.21875 269.421875 L 407.386719 268.519531 C 407.679688 268.476562 407.976562 268.542969 408.21875 268.710938 C 408.277344 268.753906 408.347656 268.800781 408.417969 268.851562 C 408.417969 268.851562 408.421875 268.851562 408.421875 268.851562 C 408.488281 268.894531 408.5625 268.941406 408.640625 268.992188 C 408.671875 269.011719 408.699219 269.027344 408.730469 269.050781 C 408.796875 269.089844 408.871094 269.132812 408.945312 269.175781 C 408.996094 269.207031 409.046875 269.238281 409.101562 269.269531 C 409.167969 269.308594 409.242188 269.347656 409.316406 269.386719 C 409.386719 269.425781 409.457031 269.464844 409.53125 269.503906 C 409.601562 269.539062 409.675781 269.574219 409.75 269.613281 C 409.835938 269.65625 409.925781 269.699219 410.019531 269.742188 C 410.09375 269.777344 410.167969 269.808594 410.242188 269.84375 C 410.347656 269.890625 410.453125 269.933594 410.558594 269.980469 C 410.636719 270.011719 410.714844 270.042969 410.796875 270.074219 C 410.910156 270.121094 411.03125 270.164062 411.152344 270.210938 C 411.234375 270.238281 411.316406 270.269531 411.402344 270.296875 C 411.53125 270.339844 411.660156 270.382812 411.792969 270.421875 C 411.882812 270.449219 411.96875 270.476562 412.0625 270.5 C 412.199219 270.539062 412.339844 270.574219 412.480469 270.609375 C 412.574219 270.632812 412.667969 270.65625 412.765625 270.679688 C 412.914062 270.710938 413.0625 270.738281 413.214844 270.769531 C 413.316406 270.785156 413.414062 270.804688 413.519531 270.820312 C 413.671875 270.847656 413.832031 270.867188 413.992188 270.886719 C 414.097656 270.898438 414.203125 270.914062 414.3125 270.925781 C 414.476562 270.941406 414.644531 270.949219 414.8125 270.960938 C 414.925781 270.96875 415.035156 270.976562 415.148438 270.980469 C 415.324219 270.984375 415.5 270.984375 415.679688 270.980469 C 415.792969 270.980469 415.90625 270.980469 416.023438 270.976562 C 416.207031 270.972656 416.398438 270.957031 416.589844 270.941406 C 416.703125 270.929688 416.816406 270.925781 416.933594 270.914062 C 417.140625 270.890625 417.355469 270.855469 417.570312 270.824219 C 417.671875 270.808594 417.773438 270.796875 417.878906 270.777344 C 418.195312 270.722656 418.523438 270.652344 418.851562 270.566406 L 419.390625 271.863281 C 419.347656 272.019531 419.449219 272.179688 419.609375 272.203125 L 448.773438 274.363281 C 450.996094 274.667969 453.246094 274.125 455.089844 272.847656 L 461.328125 270.308594 L 462.136719 282.207031 L 422.574219 307.796875 C 419.363281 309.601562 416.957031 312.554688 415.835938 316.058594 L 393.519531 372.179688 C 393.480469 372.300781 393.574219 372.425781 393.703125 372.425781 L 395.117188 373.058594 L 384.378906 379.828125 C 383.226562 380.503906 382.800781 381.046875 382.800781 382.378906 L 382.769531 384.554688 C 382.769531 384.742188 382.925781 384.894531 383.113281 384.894531 L 402.773438 384.082031 C 402.90625 384.082031 403.03125 384.03125 403.125 383.9375 L 407.089844 380.425781 L 407.152344 384.710938 C 407.152344 384.792969 407.214844 384.855469 407.296875 384.855469 L 412.410156 384.492188 C 412.492188 384.492188 412.558594 384.425781 412.558594 384.347656 C 412.789062 380.90625 412.195312 376.0625 411.992188 372.144531 L 412.667969 372.144531 C 412.832031 372.144531 412.980469 372.046875 413.042969 371.890625 L 428.753906 337.515625 L 428.867188 338.710938 L 434.136719 373.300781 L 423.070312 379.707031 C 421.921875 380.382812 421.183594 380.617188 421.183594 381.949219 L 421.183594 384.5625 C 421.183594 384.792969 421.371094 384.980469 421.601562 384.980469 L 440.671875 384.085938 C 440.800781 384.085938 440.929688 384.03125 441.023438 383.9375 L 445.765625 380.523438 L 446.527344 384.09375 C 446.527344 384.210938 446.625 384.308594 446.746094 384.308594 L 451.011719 384.515625 C 451.128906 384.515625 451.226562 384.417969 451.226562 384.300781 C 451.554688 380.222656 450.316406 376.453125 450.074219 372.949219 L 451.554688 311.269531 L 490.476562 302.203125 C 492.421875 301.789062 493.960938 300.269531 494.351562 298.316406 C 495.660156 291.738281 494.789062 287.347656 493.101562 281.78125 Z M 493.101562 281.78125 " fill-opacity="1" fill-rule="nonzero"/><path fill="#e67d22" d="M 323.898438 91.171875 C 324.136719 90.960938 324.308594 90.679688 324.371094 90.355469 C 324.308594 90.679688 324.136719 90.960938 323.898438 91.171875 Z M 393.367188 95.539062 L 389.199219 91.882812 C 389.078125 91.78125 388.945312 91.710938 388.804688 91.660156 C 388.332031 91.484375 387.789062 91.609375 387.433594 92 C 387.402344 92.039062 387.363281 92.070312 387.332031 92.113281 C 387.15625 92.363281 387.011719 92.617188 386.878906 92.875 C 386.253906 94.09375 386.074219 95.390625 386.050781 96.339844 C 386.03125 97.066406 385.820312 97.761719 385.457031 98.375 C 385.308594 98.617188 385.148438 98.851562 384.953125 99.0625 L 381.636719 102.746094 C 381.546875 102.839844 381.410156 102.839844 381.316406 102.769531 C 381.277344 102.738281 381.246094 102.699219 381.234375 102.644531 L 380.929688 101.601562 L 380.769531 101.03125 C 380.742188 100.9375 380.738281 100.84375 380.726562 100.75 C 380.703125 100.523438 380.703125 100.292969 380.746094 100.070312 C 380.960938 98.980469 380.859375 98.054688 380.671875 97.355469 C 380.5625 96.949219 380.199219 96.753906 379.84375 96.773438 C 379.574219 96.789062 379.3125 96.921875 379.160156 97.195312 L 378.042969 99.230469 L 377.78125 99.707031 C 377.730469 99.800781 377.695312 99.902344 377.648438 100 C 377.503906 100.289062 377.359375 100.582031 377.246094 100.882812 L 375.09375 106.738281 L 374.550781 106.753906 C 374.375 106.546875 374.066406 106.539062 373.871094 106.726562 L 353.894531 128.203125 C 353.417969 128.667969 352.617188 128.527344 352.328125 127.933594 L 345.601562 113.636719 C 343.203125 108.636719 339.152344 104.765625 334.011719 102.6875 L 323.539062 95.582031 L 322.617188 91.582031 L 322.867188 90.953125 C 323.195312 90.925781 323.503906 90.785156 323.734375 90.578125 C 323.976562 90.363281 324.144531 90.085938 324.210938 89.757812 C 324.519531 88.273438 324.882812 87.359375 325.003906 85.808594 C 325.09375 84.691406 325.125 83.558594 325.117188 82.417969 C 325.113281 82.171875 325.121094 81.925781 325.117188 81.679688 C 325.117188 81.679688 325.117188 81.675781 325.117188 81.675781 C 326.011719 79.894531 325.558594 77.9375 325.558594 75.894531 C 325.558594 75.1875 325.503906 74.476562 325.378906 73.757812 C 324.167969 66.632812 318.433594 63.75 311.09375 65.046875 C 303.765625 66.351562 299.796875 70.578125 301.007812 77.707031 C 301.203125 78.863281 300.316406 80.691406 300.792969 81.695312 C 300.34375 83.871094 301.59375 86.742188 306.125 88.066406 L 304.316406 95.582031 L 304.296875 95.59375 L 292.542969 104.113281 C 288.113281 106.136719 284.464844 109.566406 282.164062 113.878906 L 270.875 133.753906 C 270.667969 134.136719 270.222656 134.292969 269.828125 134.136719 L 250.074219 124.453125 C 249.601562 124.265625 249.070312 124.5 248.882812 124.964844 L 247.949219 125.269531 C 247.949219 125.269531 247.945312 125.269531 247.945312 125.269531 C 247.902344 125.207031 247.855469 125.132812 247.808594 125.066406 C 247.015625 123.910156 245.902344 122.203125 245.035156 120.851562 C 244.820312 120.515625 244.617188 120.199219 244.441406 119.925781 C 243.957031 119.171875 243.304688 118.554688 242.519531 118.125 L 240.300781 116.902344 L 237.699219 115.464844 L 234.230469 106.585938 C 234.136719 106.234375 233.773438 106.027344 233.417969 106.121094 L 207.242188 113.652344 C 206.875 113.746094 206.664062 114.121094 206.765625 114.472656 L 219.195312 155.378906 C 219.285156 155.714844 219.621094 155.917969 219.96875 155.84375 L 245.304688 150.183594 C 245.675781 150.109375 245.898438 149.738281 245.808594 149.363281 L 243.730469 139.996094 L 265.417969 147.667969 C 266.152344 147.984375 266.957031 148.078125 267.738281 147.945312 L 275.804688 146.558594 C 276.878906 146.371094 277.828125 145.765625 278.464844 144.878906 L 286.78125 135.976562 L 289.925781 179.96875 C 289.945312 180.214844 290.152344 180.410156 290.402344 180.410156 L 293.078125 180.410156 L 290.085938 217.957031 C 289.964844 219.589844 289.785156 221.234375 289.5625 222.855469 L 280.511719 281.613281 L 280.71875 281.613281 L 272.921875 285.871094 C 272.054688 286.292969 271.503906 287.167969 271.503906 288.128906 L 271.226562 289.453125 C 271.226562 289.640625 271.378906 289.789062 271.5625 289.789062 L 289.894531 289.382812 C 290 289.382812 290.089844 289.34375 290.15625 289.261719 L 292.238281 286.984375 L 293.980469 289.453125 C 294.046875 289.546875 294.148438 289.59375 294.261719 289.59375 L 297.519531 289.617188 C 297.675781 289.617188 297.824219 289.515625 297.855469 289.355469 C 298.3125 287.128906 297.328125 283.945312 297.105469 280.664062 L 297.757812 280.664062 C 297.886719 280.664062 298 280.570312 298.019531 280.441406 L 306.003906 221.539062 L 312.796875 181.519531 C 312.816406 181.390625 312.90625 181.277344 313.039062 181.25 L 318.296875 180.242188 C 318.472656 180.203125 318.660156 180.304688 318.699219 180.492188 L 326.878906 219.957031 C 327.121094 221.132812 327.277344 222.316406 327.351562 223.511719 L 330.644531 280.199219 C 330.65625 280.386719 330.804688 280.523438 330.988281 280.523438 L 332.164062 280.523438 C 331.867188 283.796875 331.335938 286.667969 331.886719 288.972656 C 331.933594 289.148438 332.09375 289.261719 332.269531 289.261719 L 334.460938 289.683594 C 334.582031 289.683594 334.703125 289.625 334.769531 289.523438 L 337.019531 286.824219 L 339.269531 289.253906 C 339.335938 289.347656 339.449219 289.394531 339.570312 289.394531 L 356.589844 289.667969 C 356.871094 289.667969 357.09375 289.445312 357.09375 289.164062 L 357.457031 287.09375 C 357.457031 286.90625 357.34375 286.730469 357.175781 286.644531 L 348.542969 282.140625 L 342.285156 219.933594 C 342.230469 219.132812 342.144531 218.328125 342.023438 217.535156 L 338.265625 181.363281 L 339.523438 181.363281 C 340.109375 181.363281 340.585938 180.894531 340.605469 180.316406 L 341.667969 138.941406 L 345.421875 142.085938 C 346.820312 143.308594 348.609375 143.988281 350.464844 143.988281 L 353.359375 143.988281 C 355.558594 143.988281 357.648438 143.035156 359.101562 141.386719 L 382.804688 116.449219 C 382.953125 116.269531 382.953125 116 382.792969 115.824219 L 382.542969 115.042969 L 391.136719 106.785156 C 391.164062 106.761719 391.183594 106.730469 391.207031 106.707031 C 392.09375 105.824219 392.703125 104.71875 392.996094 103.511719 C 393.046875 103.296875 393.109375 103.085938 393.144531 102.867188 L 393.953125 97.132812 C 393.964844 97.054688 393.957031 96.980469 393.957031 96.902344 C 393.960938 96.5625 393.875 96.234375 393.699219 95.949219 C 393.605469 95.800781 393.5 95.65625 393.367188 95.539062 Z M 493.140625 198.058594 C 492.542969 197.597656 492.195312 196.886719 492.054688 196.140625 C 490.601562 188.300781 481.9375 184.078125 473.035156 185.636719 C 473.035156 185.636719 463.878906 186.5625 465.820312 197.410156 C 466.378906 196.046875 467.050781 194.765625 467.808594 193.546875 L 477.640625 197.023438 C 478.296875 197.253906 478.75 197.855469 478.792969 198.550781 L 479.058594 202.917969 C 479.070312 203.089844 479.175781 203.242188 479.328125 203.316406 L 480.800781 204.007812 C 480.988281 204.097656 481.210938 204.054688 481.347656 203.902344 L 482.679688 202.457031 C 488.667969 201.40625 490 207.804688 483.0625 211.867188 L 484.550781 217.042969 C 486.511719 216.832031 488.15625 215.933594 488.910156 214.328125 C 489.269531 213.566406 489.878906 212.917969 490.691406 212.710938 C 492.71875 212.191406 494.125 210.183594 493.820312 207.964844 C 493.707031 207.144531 493.871094 206.320312 494.304688 205.609375 C 495.847656 203.078125 494.832031 199.371094 493.140625 198.058594 Z M 493.140625 198.058594 " fill-opacity="1" fill-rule="nonzero"/><g clip-path="url(#f4946a9967)"><path fill="#e3efd1" d="M 317.34375 182.230469 L 320.539062 197.363281 L 312.328125 197.363281 L 314.398438 182.859375 C 314.417969 182.730469 314.511719 182.621094 314.636719 182.589844 L 316.949219 181.988281 C 317.125 181.941406 317.304688 182.054688 317.34375 182.230469 Z M 436.03125 30.519531 L 436.03125 196.804688 C 436.03125 197.113281 435.78125 197.363281 435.472656 197.363281 L 341.980469 197.363281 L 339.6875 181.902344 L 340.941406 181.902344 C 341.53125 181.902344 342.003906 181.433594 342.023438 180.855469 L 342.546875 141.199219 L 346.023438 144.257812 C 347.417969 145.484375 349.214844 146.160156 351.070312 146.160156 L 353.960938 146.160156 C 356.164062 146.160156 358.253906 145.210938 359.707031 143.558594 L 383.351562 116.558594 C 383.5 116.382812 383.5 116.113281 383.339844 115.933594 L 382.542969 115.042969 L 391.136719 106.785156 C 391.164062 106.761719 391.183594 106.730469 391.207031 106.707031 C 392.09375 105.824219 392.703125 104.71875 392.996094 103.511719 C 393.046875 103.296875 393.109375 103.085938 393.144531 102.867188 L 393.953125 97.132812 C 393.964844 97.054688 393.957031 96.980469 393.957031 96.902344 C 393.960938 96.5625 393.875 96.234375 393.699219 95.949219 C 393.605469 95.800781 393.5 95.65625 393.367188 95.539062 L 389.199219 91.882812 C 389.078125 91.78125 388.945312 91.710938 388.804688 91.660156 C 388.332031 91.484375 387.789062 91.609375 387.433594 92 C 387.402344 92.039062 387.363281 92.070312 387.332031 92.113281 C 387.15625 92.363281 387.011719 92.617188 386.878906 92.875 C 386.253906 94.09375 386.074219 95.390625 386.050781 96.339844 C 386.03125 97.066406 385.820312 97.761719 385.457031 98.375 C 385.308594 98.617188 385.148438 98.851562 384.953125 99.0625 L 381.636719 102.746094 C 381.546875 102.839844 381.410156 102.839844 381.316406 102.769531 C 381.277344 102.738281 381.246094 102.699219 381.234375 102.644531 L 380.929688 101.601562 L 380.769531 101.03125 C 380.742188 100.9375 380.738281 100.84375 380.726562 100.75 C 380.703125 100.523438 380.703125 100.292969 380.746094 100.070312 C 380.960938 98.980469 380.859375 98.054688 380.671875 97.355469 C 380.5625 96.949219 380.199219 96.753906 379.84375 96.773438 C 379.574219 96.789062 379.3125 96.921875 379.160156 97.195312 L 378.042969 99.230469 L 377.78125 99.707031 C 377.730469 99.800781 377.695312 99.902344 377.648438 100 C 377.503906 100.289062 377.359375 100.582031 377.246094 100.882812 L 375.09375 106.738281 L 374.59375 106.179688 C 374.414062 105.972656 374.109375 105.964844 373.910156 106.152344 L 354.78125 124.980469 C 354.308594 125.449219 353.503906 125.308594 353.214844 124.710938 L 346.765625 111.253906 C 344.367188 106.253906 340.191406 102.328125 335.054688 100.25 L 323.539062 95.582031 L 322.617188 91.582031 L 323.027344 91.546875 C 323.351562 91.515625 323.660156 91.378906 323.894531 91.171875 C 324.136719 90.957031 324.304688 90.679688 324.371094 90.351562 C 324.632812 89.074219 324.808594 87.769531 324.933594 86.445312 C 324.960938 86.242188 324.984375 86.035156 325.003906 85.808594 C 325.09375 84.691406 325.125 83.558594 325.117188 82.417969 C 325.113281 82.171875 325.121094 81.925781 325.117188 81.679688 C 325.117188 81.679688 325.117188 81.675781 325.117188 81.675781 C 326.320312 79.289062 326.804688 76.539062 326.328125 73.742188 C 325.117188 66.617188 318.1875 61.898438 310.847656 63.191406 C 303.515625 64.5 298.542969 71.324219 299.757812 78.449219 C 299.953125 79.609375 300.316406 80.691406 300.792969 81.695312 C 300.34375 83.871094 301.59375 86.742188 306.125 88.066406 L 304.316406 95.582031 L 304.304688 95.589844 L 290.675781 101.820312 C 286.238281 103.847656 282.59375 107.28125 280.296875 111.585938 L 269.96875 130.949219 C 269.761719 131.332031 269.316406 131.492188 268.921875 131.332031 L 249.644531 123.46875 C 249.167969 123.285156 248.636719 123.515625 248.453125 123.984375 L 247.945312 125.269531 C 247.902344 125.207031 247.855469 125.132812 247.808594 125.066406 C 247.015625 123.910156 245.902344 122.203125 245.035156 120.851562 C 244.820312 120.515625 244.617188 120.199219 244.441406 119.925781 C 243.957031 119.171875 243.304688 118.554688 242.519531 118.125 L 240.300781 116.902344 L 237.699219 115.464844 L 237.691406 115.453125 L 235.019531 105.582031 C 234.925781 105.230469 234.566406 105.019531 234.214844 105.113281 L 205.566406 112.582031 C 205.203125 112.675781 204.992188 113.046875 205.09375 113.40625 L 217.550781 156.929688 C 217.644531 157.261719 217.984375 157.464844 218.324219 157.394531 L 246.6875 151.378906 C 247.058594 151.300781 247.289062 150.925781 247.191406 150.558594 L 244.65625 141.191406 L 266.984375 150.75 C 267.71875 151.066406 268.523438 151.160156 269.304688 151.03125 L 277.375 149.640625 C 278.445312 149.453125 279.398438 148.847656 280.03125 147.960938 L 285.636719 140.035156 L 287.761719 181.460938 C 287.78125 181.703125 287.988281 181.902344 288.238281 181.902344 L 290.910156 181.902344 L 289.738281 197.363281 L 186.886719 197.363281 C 186.578125 197.363281 186.328125 197.113281 186.328125 196.804688 L 186.328125 30.519531 C 186.328125 30.210938 186.578125 29.960938 186.886719 29.960938 L 435.476562 29.960938 C 435.78125 29.960938 436.03125 30.210938 436.03125 30.519531 Z M 225.523438 183.910156 C 225.523438 184.027344 225.621094 184.125 225.738281 184.125 L 232.949219 184.125 C 233.070312 184.125 233.164062 184.027344 233.164062 183.910156 L 233.164062 176.699219 C 233.164062 176.578125 233.070312 176.484375 232.949219 176.484375 L 225.738281 176.484375 C 225.621094 176.484375 225.523438 176.578125 225.523438 176.699219 Z M 212.027344 183.910156 C 212.027344 184.027344 212.121094 184.125 212.238281 184.125 L 219.453125 184.125 C 219.570312 184.125 219.667969 184.027344 219.667969 183.910156 L 219.667969 176.699219 C 219.667969 176.578125 219.570312 176.484375 219.453125 176.484375 L 212.238281 176.484375 C 212.121094 176.484375 212.027344 176.578125 212.027344 176.699219 Z M 198.742188 176.484375 C 198.625 176.484375 198.527344 176.578125 198.527344 176.699219 L 198.527344 183.910156 C 198.527344 184.027344 198.625 184.125 198.742188 184.125 L 205.953125 184.125 C 206.070312 184.125 206.167969 184.027344 206.167969 183.910156 L 206.167969 176.699219 C 206.167969 176.578125 206.070312 176.484375 205.953125 176.484375 Z M 256.867188 65.125 C 256.867188 64.609375 256.449219 64.191406 255.933594 64.191406 L 207.339844 64.191406 C 206.824219 64.191406 206.40625 64.609375 206.40625 65.125 C 206.40625 65.640625 206.824219 66.058594 207.339844 66.058594 L 255.933594 66.058594 C 256.449219 66.058594 256.867188 65.640625 256.867188 65.125 Z M 256.867188 53.320312 C 256.867188 52.804688 256.449219 52.386719 255.933594 52.386719 L 207.339844 52.386719 C 206.824219 52.386719 206.40625 52.804688 206.40625 53.320312 C 206.40625 53.835938 206.824219 54.253906 207.339844 54.253906 L 255.933594 54.253906 C 256.449219 54.253906 256.867188 53.835938 256.867188 53.320312 Z M 324.371094 90.355469 C 324.308594 90.679688 324.136719 90.960938 323.898438 91.171875 C 324.136719 90.960938 324.308594 90.679688 324.371094 90.355469 Z M 361.6875 59.527344 C 361.6875 59.359375 361.554688 59.222656 361.386719 59.222656 L 354.507812 59.222656 C 354.339844 59.222656 354.203125 59.359375 354.203125 59.527344 L 354.203125 77.492188 C 354.203125 77.660156 354.339844 77.796875 354.507812 77.796875 L 361.386719 77.796875 C 361.554688 77.796875 361.6875 77.660156 361.6875 77.492188 Z M 378.414062 50.199219 C 378.414062 50.03125 378.277344 49.894531 378.109375 49.894531 L 371.230469 49.894531 C 371.0625 49.894531 370.929688 50.03125 370.929688 50.199219 L 370.929688 77.492188 C 370.929688 77.660156 371.0625 77.796875 371.230469 77.796875 L 378.109375 77.796875 C 378.277344 77.796875 378.414062 77.660156 378.414062 77.492188 Z M 404.378906 77.492188 C 404.378906 77.660156 404.515625 77.796875 404.679688 77.796875 L 411.5625 77.796875 C 411.726562 77.796875 411.863281 77.660156 411.863281 77.492188 L 411.863281 48.332031 C 411.863281 48.167969 411.726562 48.03125 411.5625 48.03125 L 404.679688 48.03125 C 404.515625 48.03125 404.378906 48.167969 404.378906 48.332031 Z M 394.835938 77.796875 C 395.003906 77.796875 395.140625 77.660156 395.140625 77.492188 L 395.140625 55.796875 C 395.140625 55.628906 395.003906 55.492188 394.835938 55.492188 L 387.957031 55.492188 C 387.789062 55.492188 387.652344 55.628906 387.652344 55.796875 L 387.652344 77.492188 C 387.652344 77.660156 387.789062 77.796875 387.957031 77.796875 Z M 415.617188 169.328125 C 415.617188 168.8125 415.199219 168.394531 414.683594 168.394531 L 366.09375 168.394531 C 365.578125 168.394531 365.160156 168.8125 365.160156 169.328125 C 365.160156 169.84375 365.578125 170.261719 366.09375 170.261719 L 414.683594 170.261719 C 415.199219 170.261719 415.617188 169.84375 415.617188 169.328125 Z M 415.617188 157.523438 C 415.617188 157.007812 415.199219 156.589844 414.683594 156.589844 L 366.09375 156.589844 C 365.578125 156.589844 365.160156 157.007812 365.160156 157.523438 C 365.160156 158.039062 365.578125 158.457031 366.09375 158.457031 L 414.683594 158.457031 C 415.199219 158.457031 415.617188 158.039062 415.617188 157.523438 Z M 485.578125 218.089844 C 485.421875 217.832031 485.109375 217.71875 484.824219 217.808594 L 484.773438 217.824219 L 466.289062 223.648438 L 466.226562 223.667969 C 465.949219 223.757812 465.722656 223.960938 465.609375 224.230469 L 465.597656 224.253906 L 465.597656 224.257812 L 464.507812 226.800781 L 465.585938 226.636719 L 466.175781 226.550781 L 467.972656 226.277344 C 468.007812 226.273438 468.042969 226.285156 468.078125 226.292969 C 468.164062 226.3125 468.246094 226.351562 468.292969 226.433594 L 470.09375 229.6875 C 470.164062 229.820312 470.320312 229.882812 470.464844 229.835938 L 488 223.976562 L 488.984375 223.648438 Z M 161.5625 224.25 C 161.507812 224.21875 161.457031 224.183594 161.394531 224.164062 L 145.089844 219.316406 L 143.847656 218.945312 C 143.691406 218.898438 143.523438 218.960938 143.433594 219.101562 L 139.019531 226.003906 L 140.402344 226.453125 L 158.484375 232.296875 C 158.691406 232.363281 158.914062 232.25 158.980469 232.042969 L 160.453125 227.449219 C 160.5 227.308594 160.644531 227.226562 160.789062 227.257812 L 162.621094 227.6875 L 163.917969 227.996094 L 161.867188 224.535156 C 161.796875 224.410156 161.683594 224.320312 161.5625 224.25 Z M 161.5625 224.25 " fill-opacity="1" fill-rule="nonzero"/></g><path fill="#097575" d="M 362.300781 291.234375 L 362.300781 332.929688 C 362.300781 333.460938 361.867188 333.890625 361.335938 333.890625 L 265.65625 333.890625 C 265.125 333.890625 264.691406 333.460938 264.691406 332.929688 L 264.691406 291.234375 C 264.691406 290.703125 265.125 290.273438 265.65625 290.273438 L 270.847656 290.273438 C 270.855469 290.273438 270.863281 290.277344 270.875 290.277344 L 290.457031 290.277344 C 290.464844 290.277344 290.472656 290.273438 290.484375 290.273438 L 293.726562 290.273438 C 293.734375 290.273438 293.742188 290.277344 293.75 290.277344 L 297.902344 290.277344 C 297.90625 290.277344 297.910156 290.273438 297.917969 290.273438 L 331.167969 290.273438 C 331.175781 290.273438 331.179688 290.277344 331.1875 290.277344 L 335.289062 290.277344 C 335.296875 290.277344 335.304688 290.273438 335.3125 290.273438 L 338.601562 290.273438 C 338.609375 290.273438 338.617188 290.277344 338.625 290.277344 L 358.023438 290.277344 C 358.03125 290.277344 358.039062 290.273438 358.050781 290.273438 L 361.335938 290.273438 C 361.867188 290.273438 362.300781 290.703125 362.300781 291.234375 Z M 354.507812 77.796875 L 361.386719 77.796875 C 361.554688 77.796875 361.6875 77.660156 361.6875 77.492188 L 361.6875 59.527344 C 361.6875 59.359375 361.554688 59.222656 361.386719 59.222656 L 354.507812 59.222656 C 354.339844 59.222656 354.203125 59.359375 354.203125 59.527344 L 354.203125 77.492188 C 354.203125 77.660156 354.339844 77.796875 354.507812 77.796875 Z M 387.957031 77.796875 L 394.835938 77.796875 C 395.003906 77.796875 395.140625 77.660156 395.140625 77.492188 L 395.140625 55.796875 C 395.140625 55.628906 395.003906 55.492188 394.835938 55.492188 L 387.957031 55.492188 C 387.789062 55.492188 387.652344 55.628906 387.652344 55.796875 L 387.652344 77.492188 C 387.652344 77.660156 387.789062 77.796875 387.957031 77.796875 Z M 371.230469 77.796875 L 378.109375 77.796875 C 378.277344 77.796875 378.414062 77.660156 378.414062 77.492188 L 378.414062 50.199219 C 378.414062 50.03125 378.277344 49.894531 378.109375 49.894531 L 371.230469 49.894531 C 371.0625 49.894531 370.929688 50.03125 370.929688 50.199219 L 370.929688 77.492188 C 370.929688 77.660156 371.0625 77.796875 371.230469 77.796875 Z M 404.679688 77.796875 L 411.5625 77.796875 C 411.726562 77.796875 411.863281 77.660156 411.863281 77.492188 L 411.863281 48.332031 C 411.863281 48.167969 411.726562 48.03125 411.5625 48.03125 L 404.679688 48.03125 C 404.515625 48.03125 404.378906 48.167969 404.378906 48.332031 L 404.378906 77.492188 C 404.378906 77.660156 404.515625 77.796875 404.679688 77.796875 Z M 366.09375 158.457031 L 414.683594 158.457031 C 415.199219 158.457031 415.617188 158.039062 415.617188 157.523438 C 415.617188 157.007812 415.199219 156.589844 414.683594 156.589844 L 366.09375 156.589844 C 365.578125 156.589844 365.160156 157.007812 365.160156 157.523438 C 365.160156 158.039062 365.578125 158.457031 366.09375 158.457031 Z M 415.617188 169.328125 C 415.617188 168.8125 415.199219 168.394531 414.683594 168.394531 L 366.09375 168.394531 C 365.578125 168.394531 365.160156 168.8125 365.160156 169.328125 C 365.160156 169.84375 365.578125 170.261719 366.09375 170.261719 L 414.683594 170.261719 C 415.199219 170.261719 415.617188 169.84375 415.617188 169.328125 Z M 255.933594 52.386719 L 207.339844 52.386719 C 206.824219 52.386719 206.40625 52.804688 206.40625 53.320312 C 206.40625 53.835938 206.824219 54.253906 207.339844 54.253906 L 255.933594 54.253906 C 256.449219 54.253906 256.867188 53.835938 256.867188 53.320312 C 256.867188 52.804688 256.449219 52.386719 255.933594 52.386719 Z M 255.933594 64.191406 L 207.339844 64.191406 C 206.824219 64.191406 206.40625 64.609375 206.40625 65.125 C 206.40625 65.640625 206.824219 66.058594 207.339844 66.058594 L 255.933594 66.058594 C 256.449219 66.058594 256.867188 65.640625 256.867188 65.125 C 256.867188 64.609375 256.449219 64.191406 255.933594 64.191406 Z M 198.742188 184.125 L 205.953125 184.125 C 206.070312 184.125 206.167969 184.027344 206.167969 183.910156 L 206.167969 176.699219 C 206.167969 176.578125 206.070312 176.484375 205.953125 176.484375 L 198.742188 176.484375 C 198.625 176.484375 198.527344 176.578125 198.527344 176.699219 L 198.527344 183.910156 C 198.527344 184.027344 198.625 184.125 198.742188 184.125 Z M 219.453125 184.125 C 219.570312 184.125 219.667969 184.027344 219.667969 183.910156 L 219.667969 176.699219 C 219.667969 176.578125 219.570312 176.484375 219.453125 176.484375 L 212.238281 176.484375 C 212.121094 176.484375 212.027344 176.578125 212.027344 176.699219 L 212.027344 183.910156 C 212.027344 184.027344 212.121094 184.125 212.238281 184.125 Z M 232.949219 184.125 C 233.070312 184.125 233.164062 184.027344 233.164062 183.910156 L 233.164062 176.699219 C 233.164062 176.578125 233.070312 176.484375 232.949219 176.484375 L 225.738281 176.484375 C 225.621094 176.484375 225.523438 176.578125 225.523438 176.699219 L 225.523438 183.910156 C 225.523438 184.027344 225.621094 184.125 225.738281 184.125 Z M 496.378906 281.609375 L 458.785156 281.609375 L 450.824219 286.09375 L 451.097656 289.347656 L 452.410156 304.894531 L 491.15625 304.894531 L 492.382812 304.636719 C 492.597656 304.589844 492.808594 304.523438 493.011719 304.453125 C 493.015625 304.445312 493.019531 304.441406 493.019531 304.4375 L 497.429688 288.667969 C 497.355469 286.171875 497.039062 283.78125 496.378906 281.609375 Z M 449.570312 316.101562 L 444.988281 316.101562 C 444.628906 316.101562 444.339844 315.824219 444.339844 315.488281 L 444.339844 309.617188 L 413.117188 309.617188 C 412.578125 310.539062 412.125 311.511719 411.796875 312.539062 L 392.417969 373.050781 C 392.378906 373.175781 392.472656 373.300781 392.597656 373.300781 L 414.113281 373.300781 C 414.28125 373.300781 414.429688 373.199219 414.488281 373.046875 L 428.753906 337.515625 L 428.867188 338.710938 L 432.9375 372.949219 L 434.089844 372.980469 L 450.121094 373.40625 L 452.066406 373.457031 L 452.445312 349.820312 L 451.027344 333.210938 Z M 444.339844 305.886719 L 444.339844 304.578125 C 444.339844 304.238281 444.628906 304.894531 444.988281 304.894531 L 448.613281 304.894531 L 447.484375 291.683594 L 447.183594 288.144531 L 418.53125 304.277344 C 417.707031 304.742188 416.9375 305.28125 416.230469 305.886719 Z M 178.300781 285.574219 L 171.261719 281.609375 L 133.664062 281.609375 C 133.058594 283.613281 132.660156 285.835938 132.445312 288.164062 L 134.84375 296.753906 L 136.042969 301.039062 L 136.992188 304.4375 C 137.070312 304.707031 137.328125 304.894531 137.621094 304.894531 L 176.664062 304.894531 L 178.117188 287.714844 Z M 216.785156 309.617188 L 185.675781 309.617188 L 185.675781 315.488281 C 185.675781 315.824219 185.382812 316.101562 185.023438 316.101562 L 179.511719 316.101562 L 177.445312 340.207031 L 177.980469 373.457031 L 179.425781 373.421875 L 195.183594 373 L 197.109375 372.949219 L 201.179688 338.710938 L 201.292969 337.515625 L 215.65625 373.300781 L 237.117188 373.300781 L 218.382812 313.128906 C 217.996094 311.886719 217.449219 310.714844 216.785156 309.617188 Z M 185.675781 305.507812 L 185.675781 305.886719 L 213.664062 305.886719 C 212.84375 305.167969 211.953125 304.523438 210.992188 303.980469 L 181.941406 287.625 L 181.75 289.882812 L 180.46875 304.894531 L 185.023438 304.894531 C 185.382812 304.894531 185.675781 305.171875 185.675781 305.507812 Z M 244.65625 141.191406 L 243.925781 140.878906 L 242.929688 140.453125 C 242.472656 140.257812 242.257812 139.746094 242.4375 139.277344 L 243.246094 137.222656 L 238.21875 121.636719 C 237.96875 120.867188 237.492188 120.210938 236.914062 119.648438 C 235.847656 118.605469 235.507812 117.378906 235.449219 116.371094 C 235.394531 115.410156 236.429688 114.765625 237.273438 115.230469 L 237.695312 115.464844 L 237.691406 115.453125 L 235.019531 105.582031 C 234.925781 105.230469 234.566406 105.019531 234.214844 105.113281 L 205.566406 112.582031 C 205.203125 112.675781 204.992188 113.046875 205.09375 113.40625 L 217.550781 156.929688 C 217.644531 157.261719 217.984375 157.464844 218.324219 157.394531 L 246.6875 151.378906 C 247.058594 151.300781 247.289062 150.925781 247.191406 150.558594 Z M 307.417969 154.019531 L 322.578125 154.019531 L 323.539062 95.585938 L 323.535156 95.582031 L 316.542969 112.902344 C 316.433594 113.175781 316.0625 113.210938 315.902344 112.96875 L 304.316406 95.582031 L 304.304688 95.589844 L 304.316406 95.582031 Z M 307.417969 154.019531 " fill-opacity="1" fill-rule="nonzero"/><g clip-path="url(#04f766bcb6)"><path fill="#000000" d="M 452.066406 373.457031 C 452.304688 376.964844 452.394531 381.0625 452.066406 385.140625 C 452.066406 385.257812 451.96875 385.355469 451.851562 385.355469 L 445.492188 385.355469 C 445.375 385.355469 445.277344 385.257812 445.277344 385.140625 L 445.277344 381.722656 L 441.84375 385.15625 C 441.75 385.25 441.625 385.300781 441.492188 385.300781 L 421.121094 385.300781 C 420.890625 385.300781 420.703125 385.113281 420.703125 384.882812 L 420.703125 382.273438 C 420.703125 380.9375 421.410156 379.703125 422.5625 379.03125 L 432.9375 372.949219 L 434.089844 372.980469 L 450.121094 373.40625 Z M 412.0625 373.300781 L 393.664062 373.300781 L 383.886719 379.03125 C 382.734375 379.703125 382.027344 380.9375 382.027344 382.273438 L 382.027344 384.960938 C 382.027344 385.148438 382.179688 385.300781 382.367188 385.300781 L 402.816406 385.300781 C 402.949219 385.300781 403.074219 385.25 403.167969 385.15625 L 406.601562 381.722656 L 406.601562 385.210938 C 406.601562 385.289062 406.667969 385.355469 406.746094 385.355469 L 413.246094 385.355469 C 413.324219 385.355469 413.390625 385.289062 413.390625 385.210938 C 413.621094 381.769531 413.640625 377.21875 413.441406 373.300781 Z M 420.949219 249.859375 C 421.292969 249.472656 421.253906 248.882812 420.867188 248.542969 C 420.484375 248.203125 419.894531 248.238281 419.550781 248.625 L 413.085938 255.949219 L 415.023438 256.574219 Z M 137.765625 210.859375 L 141.394531 210.859375 C 140.542969 208.304688 142.046875 205.414062 144.542969 205.742188 L 144.542969 205.738281 L 144.546875 205.738281 L 145.355469 207 C 145.421875 207.035156 145.476562 207.0625 145.542969 207.101562 L 147.746094 207.101562 C 147.851562 207.101562 147.941406 207.027344 147.957031 206.921875 L 148.375 204.644531 C 148.410156 204.4375 148.554688 204.269531 148.75 204.195312 L 163.988281 198.59375 C 164.035156 198.667969 164.085938 198.738281 164.132812 198.8125 L 164.148438 198.847656 C 164.222656 198.996094 164.316406 199.132812 164.394531 199.277344 C 164.492188 199.457031 164.59375 199.632812 164.679688 199.816406 L 164.667969 199.761719 C 164.671875 199.769531 164.675781 199.777344 164.683594 199.785156 C 166.210938 181.640625 131.070312 182.714844 137.5 210.648438 C 137.53125 210.769531 137.640625 210.859375 137.765625 210.859375 Z M 133.664062 281.609375 L 172.582031 281.609375 L 172.601562 274.835938 C 172.195312 274.765625 171.792969 274.664062 171.398438 274.535156 L 168.417969 273.558594 C 167.054688 273.113281 165.820312 272.34375 164.820312 271.316406 L 158.269531 264.582031 L 169.945312 254.996094 L 172.652344 259.023438 L 172.675781 251.65625 C 172.695312 245.871094 171.144531 240.1875 168.195312 235.207031 L 163.917969 227.996094 L 162.621094 227.6875 L 160.789062 227.257812 C 160.644531 227.226562 160.5 227.308594 160.453125 227.449219 L 158.980469 232.042969 C 158.914062 232.25 158.691406 232.363281 158.484375 232.296875 L 140.402344 226.453125 L 139.019531 226.003906 L 135.613281 231.328125 C 133.414062 235.320312 132.300781 239.820312 132.382812 244.375 L 133.054688 281.609375 Z M 208.425781 379.582031 L 197.109375 372.949219 L 195.183594 373 L 179.425781 373.421875 L 177.980469 373.457031 C 177.679688 376.914062 177.722656 380.847656 177.960938 385.039062 C 177.972656 385.214844 178.117188 385.355469 178.292969 385.355469 L 184.4375 385.355469 C 184.621094 385.355469 184.769531 385.207031 184.769531 385.023438 L 184.769531 381.867188 C 184.769531 381.8125 184.832031 381.789062 184.871094 381.824219 L 188.113281 385.066406 C 188.261719 385.214844 188.464844 385.300781 188.679688 385.300781 L 209.015625 385.300781 C 209.195312 385.300781 209.34375 385.152344 209.34375 384.972656 L 209.34375 381.179688 C 209.34375 380.523438 208.996094 379.914062 208.425781 379.582031 Z M 246.667969 379.324219 L 236.382812 373.300781 L 216.527344 373.300781 C 216.003906 376.984375 216.113281 381 216.640625 385.234375 C 216.648438 385.300781 216.707031 385.355469 216.777344 385.355469 L 223.308594 385.355469 C 223.382812 385.355469 223.445312 385.292969 223.445312 385.21875 L 223.445312 382.203125 C 223.445312 382.027344 223.660156 381.9375 223.785156 382.0625 L 226.671875 384.949219 C 226.894531 385.175781 227.203125 385.300781 227.519531 385.300781 L 247.882812 385.300781 C 247.957031 385.300781 248.019531 385.238281 248.019531 385.164062 L 248.019531 381.6875 C 248.019531 380.714844 247.503906 379.816406 246.667969 379.324219 Z M 300.792969 81.695312 C 301.164062 79.878906 302.742188 78.5625 304.578125 79.121094 L 306.078125 87.421875 L 306.164062 87.90625 L 306.203125 88.09375 L 308.90625 90.640625 C 309.941406 91.628906 311.964844 92.429688 313.390625 92.429688 L 322.617188 91.582031 L 323.027344 91.546875 C 323.351562 91.515625 323.660156 91.378906 323.894531 91.171875 C 324.136719 90.957031 324.304688 90.679688 324.371094 90.351562 C 324.632812 89.074219 324.808594 87.769531 324.933594 86.445312 C 324.960938 86.242188 324.984375 86.035156 325.003906 85.808594 L 321.675781 86.003906 L 312.375 86.566406 C 311.636719 86.628906 310.929688 86.257812 310.566406 85.613281 L 307.589844 80.773438 C 307.03125 79.804688 306.808594 78.664062 306.9375 77.554688 L 307.414062 73.527344 C 307.542969 72.453125 308.542969 71.699219 309.613281 71.886719 L 315.425781 72.882812 C 316.507812 73.070312 317.625 72.847656 318.558594 72.25 L 321.488281 70.394531 C 322.261719 69.90625 323.269531 70.308594 323.519531 71.175781 C 324.507812 74.664062 325.03125 78.199219 325.117188 81.679688 C 325.117188 81.675781 325.117188 81.675781 325.117188 81.675781 C 326.320312 79.289062 326.804688 76.539062 326.328125 73.742188 C 325.117188 66.617188 318.1875 61.898438 310.847656 63.191406 C 303.515625 64.5 298.542969 71.324219 299.757812 78.449219 C 299.953125 79.609375 300.316406 80.691406 300.792969 81.695312 Z M 383.339844 115.933594 L 382.542969 115.042969 L 375.09375 106.738281 L 374.59375 106.179688 C 374.414062 105.972656 374.109375 105.964844 373.910156 106.152344 L 354.78125 124.980469 C 354.308594 125.449219 353.503906 125.308594 353.214844 124.710938 L 346.765625 111.253906 C 344.367188 106.253906 340.191406 102.328125 335.054688 100.25 L 323.539062 95.582031 L 323.539062 95.585938 L 322.578125 154.019531 L 307.417969 154.019531 L 304.316406 95.582031 L 304.304688 95.589844 L 290.675781 101.820312 C 286.238281 103.847656 282.59375 107.28125 280.296875 111.585938 L 269.96875 130.949219 C 269.761719 131.332031 269.316406 131.492188 268.921875 131.332031 L 249.644531 123.46875 C 249.167969 123.285156 248.636719 123.515625 248.453125 123.984375 L 247.945312 125.269531 L 243.445312 136.714844 L 243.246094 137.222656 L 242.4375 139.277344 C 242.257812 139.746094 242.472656 140.257812 242.929688 140.453125 L 243.925781 140.878906 L 244.65625 141.191406 L 266.984375 150.75 C 267.71875 151.066406 268.523438 151.160156 269.304688 151.03125 L 277.375 149.640625 C 278.445312 149.453125 279.398438 148.847656 280.03125 147.960938 L 285.636719 140.035156 L 287.761719 181.460938 C 287.78125 181.703125 287.988281 181.902344 288.238281 181.902344 L 290.910156 181.902344 L 289.738281 197.363281 L 288.242188 217.117188 C 288.117188 218.753906 287.941406 220.386719 287.71875 222.015625 L 279.492188 281.609375 L 279.695312 281.609375 L 271.953125 285.34375 C 271.085938 285.761719 270.535156 286.636719 270.535156 287.597656 L 270.535156 289.9375 C 270.535156 290.117188 270.671875 290.257812 270.847656 290.273438 C 270.855469 290.273438 270.863281 290.277344 270.875 290.277344 L 290.457031 290.277344 C 290.464844 290.277344 290.472656 290.273438 290.484375 290.273438 C 290.574219 290.265625 290.664062 290.226562 290.722656 290.152344 L 292.207031 288.316406 L 293.472656 290.132812 C 293.53125 290.21875 293.625 290.265625 293.726562 290.273438 C 293.734375 290.273438 293.742188 290.277344 293.75 290.277344 L 297.902344 290.277344 C 297.90625 290.277344 297.910156 290.273438 297.917969 290.273438 C 298.074219 290.265625 298.207031 290.164062 298.238281 290.011719 C 298.691406 287.78125 298.722656 284.890625 298.496094 281.609375 L 299.152344 281.609375 C 299.28125 281.609375 299.390625 281.515625 299.414062 281.390625 L 308.902344 221.40625 L 312.328125 197.363281 L 314.398438 182.859375 C 314.417969 182.730469 314.511719 182.621094 314.636719 182.589844 L 316.949219 181.988281 C 317.125 181.941406 317.304688 182.054688 317.34375 182.230469 L 320.539062 197.363281 L 325.085938 218.898438 C 325.335938 220.070312 325.492188 221.257812 325.558594 222.453125 L 328.910156 281.285156 C 328.917969 281.46875 329.070312 281.609375 329.253906 281.609375 L 330.429688 281.609375 C 330.128906 284.886719 330.253906 287.679688 330.808594 289.984375 C 330.847656 290.152344 330.996094 290.265625 331.167969 290.273438 C 331.175781 290.273438 331.179688 290.277344 331.1875 290.277344 L 335.289062 290.277344 C 335.296875 290.277344 335.304688 290.273438 335.3125 290.273438 C 335.429688 290.265625 335.535156 290.210938 335.601562 290.117188 L 336.882812 288.316406 L 338.328125 290.132812 C 338.394531 290.21875 338.496094 290.265625 338.601562 290.273438 C 338.609375 290.273438 338.617188 290.277344 338.625 290.277344 L 358.023438 290.277344 C 358.03125 290.277344 358.039062 290.273438 358.050781 290.273438 C 358.316406 290.257812 358.527344 290.042969 358.527344 289.773438 L 358.527344 286.34375 C 358.527344 286.148438 358.414062 285.972656 358.242188 285.886719 L 349.363281 281.609375 L 345.027344 218.589844 C 344.972656 217.789062 344.886719 216.988281 344.769531 216.191406 L 341.980469 197.363281 L 339.6875 181.902344 L 340.941406 181.902344 C 341.53125 181.902344 342.003906 181.433594 342.023438 180.855469 L 342.546875 141.199219 L 346.023438 144.257812 C 347.417969 145.484375 349.214844 146.160156 351.070312 146.160156 L 353.960938 146.160156 C 356.164062 146.160156 358.253906 145.210938 359.707031 143.558594 L 383.351562 116.558594 C 383.5 116.382812 383.5 116.113281 383.339844 115.933594 Z M 519.875 243.332031 L 500.503906 315.636719 C 500.429688 315.910156 500.171875 316.101562 499.875 316.101562 L 479.421875 316.101562 L 479.421875 380.347656 C 484.078125 381.382812 487.867188 384.710938 489.53125 389.09375 C 489.652344 389.414062 489.402344 389.761719 489.0625 389.761719 L 463.65625 389.761719 C 463.3125 389.761719 463.0625 389.414062 463.183594 389.09375 C 464.847656 384.710938 468.636719 381.378906 473.292969 380.34375 L 473.292969 316.101562 L 453.355469 316.101562 L 459.550781 389.484375 C 459.574219 389.773438 459.34375 390.023438 459.054688 390.023438 L 456.332031 390.023438 C 456.074219 390.023438 455.859375 389.824219 455.839844 389.566406 L 452.445312 349.820312 L 451.027344 333.210938 L 449.570312 316.101562 L 444.988281 316.101562 C 444.628906 316.101562 444.339844 315.824219 444.339844 315.488281 L 444.339844 309.617188 L 380.113281 309.617188 L 370.816406 389.582031 C 370.789062 389.832031 370.578125 390.023438 370.324219 390.023438 L 367.617188 390.023438 C 367.320312 390.023438 367.089844 389.761719 367.125 389.46875 L 380.09375 276.953125 C 380.128906 276.65625 380.382812 276.429688 380.683594 276.429688 L 394.011719 276.429688 L 394.011719 271.402344 L 386.496094 270.246094 C 386.257812 270.210938 386.09375 269.988281 386.132812 269.75 L 386.714844 265.953125 C 386.75 265.71875 386.972656 265.554688 387.210938 265.589844 L 400.914062 267.695312 L 400.652344 268.800781 C 400.570312 269.148438 400.867188 269.472656 401.21875 269.421875 L 406.8125 268.601562 L 408.417969 268.851562 C 409.808594 269.773438 413.710938 271.886719 418.851562 270.566406 L 418.882812 270.457031 L 422.136719 258.875 L 422.585938 257.277344 C 422.621094 257.148438 422.746094 257.066406 422.878906 257.082031 L 447.886719 258.1875 C 448.25 258.214844 448.609375 258.101562 448.886719 257.871094 L 458.761719 250.285156 L 458.753906 241.09375 C 458.753906 239.234375 459.175781 237.402344 459.988281 235.734375 L 464.507812 226.800781 L 465.585938 226.636719 L 466.175781 226.550781 L 467.972656 226.277344 C 468.007812 226.273438 468.042969 226.285156 468.078125 226.292969 C 468.164062 226.3125 468.246094 226.351562 468.292969 226.433594 L 470.09375 229.6875 C 470.164062 229.820312 470.320312 229.882812 470.464844 229.835938 L 488 223.976562 L 488.984375 223.648438 L 493.164062 228.917969 C 495.230469 231.519531 496.355469 234.746094 496.359375 238.070312 L 496.378906 281.609375 L 458.785156 281.609375 L 458.777344 273.183594 L 456.511719 274.640625 C 454.667969 275.917969 452.417969 276.460938 450.195312 276.15625 L 427.191406 273.679688 L 426.835938 276.007812 C 426.800781 276.246094 426.578125 276.40625 426.339844 276.371094 L 416.949219 274.929688 L 416.949219 276.429688 L 449.464844 276.429688 C 449.773438 276.429688 450.027344 276.667969 450.054688 276.972656 L 450.824219 286.09375 L 451.097656 289.347656 L 452.410156 304.894531 L 492.390625 304.894531 C 492.679688 304.894531 492.933594 304.714844 493.011719 304.453125 C 493.015625 304.445312 493.019531 304.441406 493.019531 304.4375 L 497.429688 288.667969 L 510.1875 243.023438 C 510.265625 242.753906 510.523438 242.566406 510.816406 242.566406 L 519.242188 242.566406 C 519.667969 242.566406 519.976562 242.945312 519.875 243.332031 Z M 448.613281 304.894531 L 447.484375 291.683594 L 447.183594 288.144531 L 447.035156 286.410156 L 382.847656 286.410156 L 380.550781 305.886719 L 444.339844 305.886719 L 444.339844 304.578125 C 444.339844 304.238281 444.628906 304.894531 444.988281 304.894531 Z M 248.984375 276.9375 L 261.988281 389.425781 C 262.003906 389.574219 261.886719 389.703125 261.738281 389.703125 L 258.539062 389.703125 C 258.410156 389.703125 258.304688 389.609375 258.289062 389.484375 L 248.96875 309.617188 L 185.675781 309.617188 L 185.675781 315.488281 C 185.675781 315.824219 185.382812 316.101562 185.023438 316.101562 L 179.511719 316.101562 L 177.445312 340.207031 L 173.222656 389.476562 C 173.210938 389.605469 173.105469 389.703125 172.972656 389.703125 L 169.757812 389.703125 C 169.613281 389.703125 169.496094 389.578125 169.507812 389.433594 L 175.714844 316.101562 L 157.652344 316.101562 L 157.652344 380.347656 C 162.421875 381.40625 166.285156 384.875 167.878906 389.421875 C 167.9375 389.585938 167.816406 389.761719 167.644531 389.761719 C 164.71875 389.761719 144.457031 389.761719 141.53125 389.761719 C 141.359375 389.761719 141.238281 389.585938 141.296875 389.421875 C 142.890625 384.878906 146.753906 381.410156 151.523438 380.347656 L 151.523438 316.101562 L 130.140625 316.101562 C 129.839844 316.101562 129.582031 315.910156 129.507812 315.636719 L 110.140625 243.332031 C 110.035156 242.945312 110.347656 242.566406 110.769531 242.566406 L 119.195312 242.566406 C 119.492188 242.566406 119.75 242.753906 119.824219 243.023438 L 132.445312 288.164062 L 134.84375 296.753906 L 136.042969 301.039062 L 136.992188 304.4375 C 137.070312 304.707031 137.328125 304.894531 137.621094 304.894531 L 176.664062 304.894531 L 178.117188 287.714844 L 178.300781 285.574219 L 179.027344 276.953125 C 179.054688 276.660156 179.300781 276.429688 179.597656 276.429688 L 181.09375 276.429688 C 180.902344 276.429688 180.75 276.277344 180.75 276.089844 L 180.75 273.695312 C 185.101562 272.703125 190.355469 271.5 193.078125 270.875 C 194.210938 270.617188 195.378906 270.609375 196.53125 270.765625 C 198.601562 271.046875 200.324219 270.839844 201.71875 270.417969 L 212.695312 270.417969 C 213.878906 270.96875 214.871094 270.890625 215.492188 270.714844 C 215.65625 270.667969 215.769531 270.554688 215.839844 270.417969 L 217.078125 270.417969 C 217.21875 270.417969 217.347656 270.332031 217.398438 270.199219 L 231.628906 233.964844 C 231.679688 233.835938 231.808594 233.75 231.949219 233.75 L 239.125 233.75 C 239.363281 233.75 239.53125 233.984375 239.449219 234.210938 L 223.988281 276.207031 C 223.941406 276.34375 223.8125 276.429688 223.667969 276.429688 L 248.417969 276.429688 C 248.707031 276.429688 248.949219 276.648438 248.984375 276.9375 Z M 248.527344 305.886719 L 246.234375 286.410156 L 182.046875 286.410156 L 181.941406 287.625 L 181.75 289.882812 L 180.46875 304.894531 L 185.023438 304.894531 C 185.382812 304.894531 185.675781 305.171875 185.675781 305.507812 L 185.675781 305.886719 Z M 248.527344 305.886719 " fill-opacity="1" fill-rule="nonzero"/></g></svg>