<svg xmlns="http://www.w3.org/2000/svg" xmlns:xlink="http://www.w3.org/1999/xlink" width="840" zoomAndPan="magnify" viewBox="0 0 630 419.999985" height="560" preserveAspectRatio="xMidYMid meet" version="1.0"><defs><clipPath id="5f0db00157"><path d="M 70 161 L 392 161 L 392 354.675781 L 70 354.675781 Z M 70 161 " clip-rule="nonzero"/></clipPath><clipPath id="f66ecf85d3"><path d="M 77 65.175781 L 560 65.175781 L 560 346 L 77 346 Z M 77 65.175781 " clip-rule="nonzero"/></clipPath><clipPath id="83a0b63add"><path d="M 70 155 L 520 155 L 520 354.675781 L 70 354.675781 Z M 70 155 " clip-rule="nonzero"/></clipPath></defs><g clip-path="url(#5f0db00157)"><path fill="#e67d22" d="M 391.761719 346.453125 L 389.285156 347.839844 C 389.109375 347.929688 388.902344 347.863281 388.8125 347.6875 L 387.078125 344.535156 C 387.054688 344.535156 387.046875 344.53125 387.019531 344.53125 L 383.289062 350.089844 C 383.132812 350.320312 382.878906 350.460938 382.59375 350.472656 L 372.96875 350.769531 C 372.683594 350.78125 372.441406 350.546875 372.441406 350.261719 L 372.265625 348.363281 C 372.265625 348.214844 372.328125 348.074219 372.441406 347.976562 C 372.441406 347.976562 374.6875 345.179688 375.117188 344.71875 C 376.503906 343.230469 377.628906 341.511719 378.445312 339.636719 L 379.445312 337.3125 C 379.65625 336.824219 379.648438 336.265625 379.421875 335.78125 L 373.023438 323.316406 L 370.535156 318.472656 L 365.917969 309.472656 L 364.789062 307.273438 C 364.25 306.121094 363.847656 304.914062 363.582031 303.667969 L 363.5 303.3125 L 361.484375 294.488281 L 360.246094 293.050781 L 359.207031 294.488281 L 357.007812 304.339844 C 356.667969 305.464844 356.488281 306.625 356.4375 307.800781 C 356.414062 308.351562 356.371094 308.917969 356.339844 309.472656 C 356.339844 309.476562 356.339844 309.476562 356.339844 309.476562 C 356.257812 310.894531 356.144531 312.332031 356.007812 313.792969 C 356 313.863281 355.996094 313.933594 355.988281 314 C 355.769531 316.222656 355.488281 318.496094 355.148438 320.808594 C 355.097656 321.144531 355.046875 321.480469 354.996094 321.820312 C 354.875 322.605469 354.75 323.398438 354.613281 324.195312 C 354.578125 324.414062 354.535156 324.640625 354.496094 324.863281 C 353.925781 328.164062 353.25 331.542969 352.464844 335.007812 C 352.457031 335.035156 352.453125 335.066406 352.445312 335.097656 C 352.085938 336.675781 351.714844 338.265625 351.316406 339.878906 C 351.109375 340.714844 351.015625 341.585938 351.050781 342.449219 L 351.097656 343.605469 C 351.121094 346.933594 351.082031 349.351562 350.566406 352.429688 C 350.558594 352.671875 350.359375 352.867188 350.105469 352.867188 L 348.367188 353.003906 C 348.113281 353.003906 347.902344 352.804688 347.902344 352.539062 L 347.738281 348.554688 C 347.664062 348.53125 347.664062 348.53125 347.59375 348.503906 L 343.160156 352.648438 C 343.074219 352.753906 342.945312 352.816406 342.8125 352.816406 L 333.660156 353.085938 C 333.316406 353.085938 333.03125 352.800781 333.03125 352.457031 L 333.128906 349.539062 C 333.128906 349.3125 333.25 349.101562 333.449219 348.988281 L 336.039062 347.03125 L 337.195312 346.371094 C 338.0625 345.875 338.890625 345.289062 339.640625 344.628906 L 341.570312 342.957031 C 342.910156 341.796875 343.695312 340.125 343.734375 338.355469 L 344.03125 325.265625 L 344.09375 322.488281 L 344.15625 319.804688 L 344.304688 313.121094 L 344.386719 309.472656 L 344.46875 305.820312 C 344.488281 304.980469 344.535156 304.136719 344.609375 303.296875 L 345.375 294.488281 L 345.6875 293.78125 C 345.410156 293.78125 345.1875 293.546875 345.203125 293.269531 L 350.582031 237.992188 L 336.640625 250.015625 C 336.574219 250.070312 336.476562 250.070312 336.414062 250.011719 L 334.902344 250.339844 L 332.796875 252.070312 C 332.269531 252.378906 331.796875 252.753906 331.367188 253.179688 C 331.199219 253.351562 330.992188 253.550781 330.757812 253.757812 C 330.742188 253.773438 330.726562 253.785156 330.707031 253.800781 C 330.464844 254.011719 330.191406 254.234375 329.890625 254.445312 C 329.726562 254.558594 329.554688 254.671875 329.378906 254.777344 C 329.34375 254.796875 329.308594 254.820312 329.269531 254.839844 C 329.125 254.925781 328.976562 255.003906 328.824219 255.078125 C 328.78125 255.101562 328.738281 255.125 328.695312 255.144531 C 328.503906 255.234375 328.308594 255.316406 328.109375 255.386719 C 328.089844 255.394531 328.066406 255.398438 328.046875 255.40625 C 327.871094 255.464844 327.6875 255.515625 327.503906 255.558594 C 327.445312 255.570312 327.386719 255.582031 327.328125 255.59375 C 327.15625 255.628906 326.984375 255.652344 326.804688 255.664062 C 326.761719 255.667969 326.722656 255.675781 326.679688 255.675781 C 326.464844 255.6875 326.246094 255.683594 326.027344 255.660156 C 325.972656 255.65625 325.917969 255.644531 325.867188 255.636719 C 325.691406 255.613281 325.515625 255.578125 325.339844 255.53125 C 325.273438 255.511719 325.210938 255.496094 325.144531 255.476562 C 324.917969 255.402344 324.6875 255.316406 324.457031 255.199219 C 324.117188 255.023438 323.761719 254.878906 323.378906 254.855469 L 321.4375 254.691406 C 321.207031 254.667969 320.980469 254.695312 320.757812 254.722656 C 320.570312 254.75 320.386719 254.792969 320.207031 254.847656 C 320.042969 254.898438 319.875 254.933594 319.71875 255.011719 C 318.792969 255.496094 317.128906 256.179688 315.785156 255.859375 C 315.324219 255.75 315.214844 255.144531 315.578125 254.867188 L 315.785156 254.703125 C 315.402344 254.757812 315.039062 254.777344 314.707031 254.777344 C 314.636719 254.777344 314.574219 254.769531 314.515625 254.75 C 314.507812 254.746094 314.5 254.738281 314.488281 254.734375 C 314.441406 254.714844 314.398438 254.691406 314.359375 254.664062 C 314.355469 254.660156 314.355469 254.65625 314.351562 254.652344 C 314.179688 254.515625 314.101562 254.277344 314.160156 254.058594 C 314.160156 254.058594 314.160156 254.058594 314.160156 254.054688 C 314.191406 253.949219 314.253906 253.847656 314.355469 253.765625 L 317.066406 251.671875 C 317.539062 251.296875 318.054688 251.011719 318.617188 250.800781 L 325.074219 248.410156 L 328.632812 244.765625 L 328.046875 243.632812 C 327.972656 243.566406 327.96875 243.449219 328.039062 243.378906 L 339.199219 232.953125 L 323.335938 232.503906 C 323.140625 232.503906 322.980469 232.34375 322.980469 232.148438 L 322.351562 229.335938 C 322.1875 229.496094 322.015625 229.640625 321.84375 229.773438 C 321.808594 229.804688 321.769531 229.824219 321.734375 229.851562 C 321.59375 229.957031 321.453125 230.054688 321.3125 230.140625 C 321.285156 230.160156 321.257812 230.171875 321.226562 230.191406 C 321.074219 230.28125 320.917969 230.363281 320.761719 230.4375 C 320.75 230.441406 320.738281 230.449219 320.726562 230.453125 C 318.914062 231.285156 317.113281 230.933594 316.191406 230.640625 C 316.171875 230.636719 316.152344 230.628906 316.128906 230.621094 C 316.027344 230.589844 315.933594 230.554688 315.855469 230.527344 C 315.644531 230.449219 315.425781 230.386719 315.203125 230.359375 L 311.949219 229.957031 C 311.773438 229.9375 311.597656 229.902344 311.425781 229.851562 L 309.308594 229.242188 C 308.664062 229.058594 308.589844 228.160156 309.203125 227.882812 C 309.761719 227.632812 310.425781 227.480469 311.164062 227.457031 C 311.472656 227.449219 311.78125 227.40625 312.066406 227.300781 L 313.898438 226.617188 C 314.160156 226.519531 314.199219 226.167969 313.964844 226.019531 L 312.050781 224.777344 C 311.65625 224.476562 311.171875 224.292969 310.675781 224.304688 C 309.648438 224.332031 308.660156 224.105469 307.824219 223.804688 C 306.917969 223.476562 306.992188 222.171875 307.929688 221.957031 L 311.292969 221.296875 C 311.671875 221.222656 312.054688 221.195312 312.441406 221.214844 L 316.625 221.453125 C 317.199219 221.484375 317.765625 221.632812 318.285156 221.882812 L 322.351562 223.855469 L 323.027344 222.21875 C 323.027344 222.050781 323.148438 221.902344 323.3125 221.871094 L 336.601562 219.308594 C 338.398438 218.957031 340.082031 218.179688 341.515625 217.046875 L 349.085938 211.113281 C 349.109375 208.304688 349.695312 205.53125 350.820312 202.953125 L 352.148438 197.835938 C 352.324219 197.429688 352.648438 197.101562 353.054688 196.914062 L 352.910156 196.070312 L 352.230469 190.664062 C 352.171875 190.679688 352.121094 190.707031 352.058594 190.722656 C 350.859375 191.023438 349.5625 190.636719 348.777344 189.730469 C 348.324219 189.199219 347.898438 188.652344 347.507812 188.085938 C 347.4375 187.984375 347.308594 187.9375 347.179688 187.953125 C 344.246094 188.355469 342.855469 185.945312 344.871094 183.039062 C 344.949219 182.921875 344.980469 182.78125 344.941406 182.648438 C 344.71875 181.847656 344.558594 181.03125 344.449219 180.203125 C 343.539062 180.152344 344.050781 178.910156 343.855469 177.816406 C 343.804688 177.546875 343.796875 177.261719 343.808594 176.976562 C 343.140625 176.445312 342.273438 176.179688 342.28125 175.332031 C 342.292969 174.3125 342.957031 173.734375 343.625 173.078125 C 344.59375 172.113281 343.460938 171.226562 344.316406 170.289062 C 344.960938 169.582031 346.28125 169.90625 346.910156 169.183594 C 347.265625 168.769531 347.257812 168.164062 347.433594 167.640625 C 347.800781 166.523438 348.46875 166.332031 349.578125 166.730469 C 350.066406 166.902344 350.539062 167.257812 351.050781 167.171875 C 351.605469 167.078125 351.9375 166.523438 352.261719 166.0625 C 353.109375 164.863281 354.460938 163.566406 355.738281 164.820312 C 355.980469 165.054688 356.167969 165.355469 356.441406 165.550781 C 357.648438 166.417969 358.996094 163.808594 360.382812 165.363281 C 361.398438 166.496094 361.5 167.316406 363.308594 166.972656 C 364.023438 166.835938 364.789062 166.644531 365.453125 166.945312 C 366.464844 167.410156 366.3125 168.625 366.386719 169.738281 C 366.417969 170.230469 366.789062 170.277344 367.277344 170.371094 C 367.761719 170.464844 368.265625 170.375 368.75 170.476562 C 369.546875 170.644531 370 170.964844 370.050781 171.777344 C 370.121094 172.863281 369.140625 173.78125 369.707031 174.714844 C 369.914062 175.058594 370.273438 175.273438 370.609375 175.492188 C 371.226562 175.894531 371.824219 176.371094 372.15625 177.03125 C 372.488281 177.6875 372.488281 178.558594 371.984375 179.097656 C 371.625 179.480469 371.082031 179.632812 370.644531 179.929688 C 370.226562 180.21875 370.085938 180.6875 370.46875 181.15625 C 370.597656 181.320312 370.789062 181.417969 370.941406 181.554688 C 371.261719 181.84375 371.386719 182.324219 371.253906 182.734375 C 370.914062 183.777344 369.75 182.832031 369.566406 183.988281 C 369.398438 185.03125 370.4375 186.226562 368.695312 186.6875 C 367.929688 186.890625 367.441406 186.585938 366.679688 186.8125 C 366.011719 187.011719 365.882812 187.589844 365.589844 188.132812 C 365.28125 188.695312 365.140625 189.660156 364.523438 189.859375 L 365.109375 190.886719 L 365.308594 191.136719 C 365.566406 191.027344 365.867188 191.070312 366.082031 191.246094 C 371.902344 196.070312 373.453125 204.578125 373.566406 212.160156 L 374.523438 235.699219 L 376.203125 242.085938 C 376.902344 244.738281 377.253906 247.46875 377.253906 250.210938 L 377.277344 292.320312 C 377.277344 292.589844 377.058594 292.804688 376.792969 292.804688 L 375.386719 294.488281 L 375.832031 300.191406 C 375.859375 300.515625 375.90625 300.839844 375.964844 301.164062 C 375.988281 301.28125 376.011719 301.402344 376.039062 301.519531 C 376.082031 301.714844 376.132812 301.910156 376.1875 302.101562 C 376.230469 302.246094 376.269531 302.386719 376.316406 302.53125 C 376.40625 302.792969 376.503906 303.054688 376.617188 303.308594 C 376.617188 303.3125 376.617188 303.3125 376.617188 303.3125 C 376.789062 303.699219 376.976562 304.074219 377.199219 304.4375 C 377.683594 305.222656 378.128906 306.011719 378.558594 306.800781 C 378.597656 306.878906 378.640625 306.957031 378.683594 307.03125 C 379.113281 307.839844 379.519531 308.652344 379.898438 309.472656 C 379.898438 309.472656 379.898438 309.472656 379.898438 309.476562 C 380.871094 311.566406 381.695312 313.714844 382.429688 315.976562 C 382.460938 316.070312 382.492188 316.171875 382.523438 316.265625 C 382.753906 316.988281 382.980469 317.71875 383.195312 318.464844 C 383.441406 319.316406 383.679688 320.195312 383.914062 321.085938 C 383.9375 321.1875 383.964844 321.289062 383.992188 321.390625 C 384.445312 323.148438 384.878906 324.988281 385.316406 326.933594 C 385.351562 327.101562 385.390625 327.269531 385.425781 327.4375 C 385.640625 328.390625 385.851562 329.367188 386.070312 330.375 C 386.070312 330.375 386.070312 330.378906 386.070312 330.378906 C 386.214844 331.042969 386.355469 331.714844 386.503906 332.40625 C 386.609375 332.902344 386.773438 333.390625 386.996094 333.847656 L 387.964844 335.847656 C 390.039062 339.410156 391.085938 342.171875 391.9375 345.980469 C 392.015625 346.160156 391.9375 346.367188 391.761719 346.453125 Z M 156 215.8125 C 156.175781 216.113281 156.261719 216.457031 156.25 216.804688 L 156.019531 223.921875 C 156 224.578125 155.632812 225.171875 155.058594 225.484375 L 153.289062 226.449219 L 151.464844 232.957031 C 151.457031 233.046875 151.386719 233.125 151.296875 233.144531 L 133.207031 236.289062 C 133.105469 236.308594 133.011719 236.226562 133.019531 236.125 L 135.3125 219.914062 L 126.902344 213.644531 L 123.996094 235.054688 L 127.683594 298.167969 L 132.261719 343.785156 C 132.265625 343.851562 132.210938 343.90625 132.144531 343.90625 L 130.082031 343.90625 L 134.632812 351.324219 C 134.898438 351.726562 135.039062 352.199219 135.039062 352.679688 L 135.160156 353.910156 C 135.160156 353.976562 135.105469 354.03125 135.039062 354.03125 L 125.160156 353.792969 C 125.113281 353.792969 125.074219 353.769531 125.050781 353.730469 L 123.503906 351.53125 L 122.257812 353.929688 C 122.238281 353.972656 122.195312 354 122.148438 354 L 121.078125 353.824219 C 121.019531 353.824219 120.972656 353.785156 120.957031 353.730469 C 120.210938 350.46875 121.957031 347.074219 122.722656 343.8125 L 119.089844 343.8125 C 119.027344 343.8125 118.976562 343.765625 118.972656 343.703125 L 112.53125 257.9375 C 112.515625 257.78125 112.367188 257.671875 112.210938 257.707031 L 108.269531 258.261719 C 108.164062 258.285156 108.082031 258.371094 108.066406 258.476562 L 94.09375 343.558594 C 94.074219 343.683594 93.96875 343.773438 93.84375 343.773438 L 92.519531 344.929688 C 92.597656 345.300781 92.664062 345.65625 92.714844 346.003906 C 92.722656 346.042969 92.726562 346.078125 92.730469 346.113281 C 92.777344 346.425781 92.816406 346.734375 92.847656 347.039062 C 92.847656 347.054688 92.847656 347.066406 92.851562 347.082031 C 92.914062 347.742188 92.9375 348.390625 92.929688 349.050781 C 92.914062 350.363281 92.769531 351.71875 92.546875 353.332031 C 92.527344 353.472656 92.40625 353.578125 92.261719 353.578125 L 88.972656 354.113281 C 88.816406 354.113281 88.691406 353.984375 88.691406 353.828125 L 88.523438 352 L 85.574219 353.371094 C 85.351562 353.59375 85.050781 353.71875 84.734375 353.71875 L 71.273438 353.65625 C 71.117188 353.65625 70.988281 353.527344 70.988281 353.371094 L 71.453125 351.871094 C 71.453125 351.296875 71.75 350.765625 72.234375 350.464844 L 80.046875 344.929688 L 79.214844 343.898438 C 79.058594 343.898438 78.941406 343.761719 78.964844 343.605469 L 95.933594 234.597656 L 94.402344 225.34375 L 90.578125 228.480469 C 89.628906 229.386719 88.320312 229.8125 87.019531 229.636719 L 81.234375 229.394531 C 79.402344 229.144531 77.933594 227.761719 77.570312 225.953125 L 76.664062 221.367188 C 76.351562 219.792969 77.121094 218.878906 77.882812 217.46875 L 87.902344 199.804688 C 89.925781 196.058594 93.140625 193.09375 97.039062 191.382812 L 103.335938 187.0625 L 104.710938 181.695312 C 101.96875 181.582031 100.503906 179.125 100.914062 177.335938 C 99.371094 174.691406 99.144531 172.933594 98.378906 169.820312 C 98.15625 168.914062 98.527344 167.976562 99.296875 167.457031 C 103.773438 164.441406 107.527344 162.953125 113.199219 161.761719 C 114.25 161.542969 115.339844 162.085938 115.695312 163.097656 C 116.492188 165.371094 117.363281 167.46875 117.574219 169.957031 C 117.773438 170.601562 117.972656 171.25 118.148438 171.902344 C 118.175781 172.015625 118.277344 172.089844 118.390625 172.097656 C 122.210938 172.402344 122.894531 176.585938 119.558594 177.757812 C 119.4375 177.800781 119.355469 177.917969 119.371094 178.046875 C 119.488281 178.921875 119.582031 179.800781 119.652344 180.683594 C 119.738281 181.789062 119.109375 182.839844 118.070312 183.21875 C 117.824219 183.308594 117.554688 183.394531 117.289062 183.480469 L 118.421875 186.730469 L 124.574219 191.128906 C 127.933594 192.769531 130.734375 195.359375 132.636719 198.578125 L 140.480469 208.601562 L 153.109375 207.894531 C 153.207031 207.882812 153.292969 207.964844 153.285156 208.0625 L 154.261719 212.839844 Z M 134.121094 209.4375 C 134.023438 209.453125 133.949219 209.53125 133.941406 209.628906 C 133.949219 209.53125 134.023438 209.453125 134.121094 209.4375 Z M 134.121094 209.4375 " fill-opacity="1" fill-rule="nonzero"/></g><path fill="#fcd34f" d="M 303.507812 351.136719 L 303.59375 352.476562 C 303.59375 352.695312 303.40625 352.882812 303.175781 352.882812 L 288.582031 352.828125 C 288.441406 352.828125 288.308594 352.761719 288.230469 352.640625 L 287.195312 350.6875 C 287.164062 350.632812 287.085938 350.632812 287.042969 350.679688 L 285.285156 352.71875 C 285.207031 352.816406 285.085938 352.871094 284.957031 352.871094 L 281.40625 352.484375 C 281.199219 352.484375 281.011719 352.332031 280.988281 352.121094 C 280.738281 350.003906 281.140625 347.910156 281.417969 345.484375 C 281.433594 345.351562 281.453125 345.21875 281.464844 345.078125 L 281.113281 345.144531 C 281.046875 345.15625 280.980469 345.113281 280.960938 345.046875 L 272.933594 312.523438 L 272.933594 312.703125 L 261.953125 344.398438 L 269.125 349.730469 C 269.523438 350.003906 269.753906 350.457031 269.753906 350.941406 L 269.910156 352.519531 C 269.910156 352.726562 269.742188 352.890625 269.535156 352.890625 L 263.859375 352.871094 C 263.011719 352.871094 262.175781 352.75 261.359375 352.527344 L 254.460938 350.621094 C 254.242188 350.558594 254.085938 350.347656 254.085938 350.117188 L 253.800781 347.890625 C 253.757812 347.648438 253.46875 347.539062 253.273438 347.679688 L 251.367188 349.167969 C 251.277344 349.257812 251.132812 349.277344 251.023438 349.210938 L 248.039062 346.503906 C 247.917969 346.4375 247.863281 346.292969 247.90625 346.160156 C 248.6875 343.960938 250.015625 342.328125 251.378906 340.84375 C 251.453125 340.757812 251.53125 340.667969 251.609375 340.585938 L 251.144531 340.421875 L 261.128906 294.34375 L 212.804688 293.695312 C 212.539062 293.695312 212.308594 293.507812 212.261719 293.253906 L 200.222656 237.160156 C 200.15625 236.820312 200.417969 236.5 200.761719 236.5 L 206.226562 236.359375 C 206.488281 236.359375 206.710938 236.535156 206.765625 236.796875 L 217.277344 286.640625 C 217.332031 286.894531 217.550781 287.082031 217.816406 287.082031 L 221.894531 287.082031 C 220.328125 281.308594 220.660156 274.777344 222.5 269.367188 L 222.511719 269.367188 L 222.082031 242.375 C 222.179688 236.214844 224.128906 230.21875 227.675781 225.175781 L 230.125 222.234375 L 230.332031 221.878906 L 232.523438 216.636719 C 232.789062 216.261719 233.273438 216.140625 233.683594 216.339844 L 233.804688 215.953125 L 235.972656 211.953125 C 235.53125 211.726562 235.152344 211.445312 234.832031 211.125 C 234.832031 211.125 234.828125 211.125 234.828125 211.125 C 234.738281 211.03125 234.664062 210.929688 234.582031 210.832031 C 234.519531 210.761719 234.449219 210.691406 234.394531 210.613281 C 234.292969 210.476562 234.210938 210.332031 234.128906 210.1875 C 234.105469 210.144531 234.074219 210.105469 234.050781 210.066406 C 233.972656 209.917969 233.914062 209.765625 233.855469 209.609375 C 233.839844 209.566406 233.816406 209.527344 233.800781 209.484375 C 233.746094 209.335938 233.710938 209.183594 233.675781 209.03125 C 233.664062 208.984375 233.648438 208.9375 233.636719 208.890625 C 233.601562 208.714844 233.585938 208.539062 233.574219 208.363281 C 233.574219 208.339844 233.566406 208.316406 233.566406 208.292969 C 233.558594 208.101562 233.5625 207.910156 233.582031 207.722656 C 233.582031 207.71875 233.582031 207.714844 233.582031 207.714844 C 233.582031 207.710938 233.582031 207.710938 233.582031 207.710938 L 233.570312 207.710938 C 229.902344 198.125 236.492188 193.863281 243.863281 193.960938 C 248.820312 194.027344 253.195312 196.5625 253.195312 201.242188 C 253.195312 202.160156 253.027344 203.160156 252.664062 204.242188 C 252.664062 204.242188 252.664062 204.242188 252.664062 204.246094 C 252.675781 204.730469 252.675781 205.210938 252.664062 205.683594 C 252.664062 205.925781 252.742188 206.15625 252.886719 206.355469 C 254.804688 208.945312 255.175781 211.359375 252.488281 211.976562 C 252.09375 212.0625 251.785156 212.394531 251.695312 212.789062 C 251.496094 213.617188 251.367188 214.167969 251.15625 214.808594 C 250.824219 215.789062 249.945312 216.503906 248.910156 216.589844 C 248.511719 216.625 248.117188 216.636719 247.730469 216.636719 L 247.257812 222.476562 L 250.054688 226.949219 C 250.054688 226.949219 250.804688 233.304688 250.78125 234.054688 L 250.328125 243.132812 L 255.640625 248.046875 C 256.378906 248.808594 257.359375 249.257812 258.417969 249.324219 C 258.417969 249.324219 283.339844 249.765625 283.339844 249.910156 L 284.175781 250.230469 L 288.882812 249.445312 C 289.972656 249.269531 291.074219 249.535156 291.964844 250.171875 L 296.164062 253.191406 L 297.730469 254.316406 L 297.804688 254.371094 C 297.90625 254.4375 297.96875 254.570312 297.96875 254.691406 L 297.96875 257.65625 C 297.96875 257.851562 297.839844 258.019531 297.652344 258.050781 C 297.101562 258.171875 295.945312 258.304688 295.027344 257.664062 C 294.65625 257.402344 294.226562 257.203125 293.773438 257.09375 L 292.097656 256.695312 C 292.058594 256.6875 292.019531 256.6875 291.980469 256.679688 C 291.6875 256.621094 291.394531 256.589844 291.101562 256.59375 C 291.09375 256.59375 291.089844 256.59375 291.082031 256.59375 C 290.792969 256.59375 290.503906 256.625 290.21875 256.679688 C 290 256.722656 289.785156 256.777344 289.570312 256.847656 C 289.351562 256.921875 289.132812 257.007812 288.925781 257.113281 C 288.414062 257.378906 287.757812 257.660156 286.964844 257.894531 C 286.171875 258.125 285.238281 258.308594 284.175781 258.382812 L 283.21875 261.421875 C 283.21875 261.566406 283.097656 261.6875 282.953125 261.6875 L 278.976562 261.765625 L 255.683594 262.933594 C 254.871094 263.019531 254.054688 262.953125 253.261719 262.734375 L 250.394531 261.917969 L 249.710938 270.292969 L 275.746094 280.054688 C 278.53125 281.046875 280.570312 283.4375 281.109375 286.34375 L 293.925781 342.320312 C 293.9375 342.398438 293.894531 342.464844 293.816406 342.476562 L 291.828125 342.996094 L 301.800781 348.683594 C 302.683594 349.199219 303.507812 350.113281 303.507812 351.136719 Z M 553.765625 163.902344 C 552.855469 166.820312 551.472656 169.4375 549.699219 171.792969 C 549.265625 172.371094 548.910156 173.003906 548.679688 173.6875 L 546.773438 179.410156 L 547.109375 180.265625 C 547.289062 180.347656 547.378906 180.550781 547.316406 180.742188 L 538.613281 207.660156 C 538.089844 209.277344 536.90625 210.601562 535.355469 211.304688 L 529.386719 214.019531 C 527.859375 214.710938 526.113281 214.738281 524.566406 214.097656 L 504.332031 206.847656 C 504.171875 206.78125 503.992188 206.894531 503.984375 207.066406 L 501.910156 236.964844 L 508.867188 343.589844 L 517.121094 348.519531 C 517.8125 349.003906 518.226562 349.796875 518.226562 350.644531 L 518.675781 352.464844 C 518.675781 352.71875 518.472656 352.921875 518.21875 352.921875 L 506.4375 352.96875 C 506.148438 352.96875 505.867188 352.863281 505.652344 352.671875 L 504.28125 351.527344 C 504.019531 351.296875 503.628906 351.296875 503.367188 351.53125 L 502.40625 352.386719 C 502.191406 352.582031 501.90625 352.6875 501.617188 352.6875 L 497.808594 352.558594 C 497.554688 352.558594 497.347656 352.355469 497.347656 352.101562 C 496.824219 348.867188 497.367188 345.613281 497.972656 342.1875 L 497.265625 342.1875 C 497.09375 342.1875 496.945312 342.054688 496.929688 341.882812 L 489.535156 259.335938 C 489.515625 259.15625 489.375 259.019531 489.195312 259.007812 L 484.429688 258.617188 C 484.238281 258.605469 484.074219 258.742188 484.050781 258.933594 L 474.257812 341.671875 C 474.238281 341.84375 474.09375 341.972656 473.921875 341.972656 L 473.082031 341.972656 C 473.683594 345.398438 474.386719 348.265625 473.863281 351.5 C 473.863281 351.753906 473.660156 351.960938 473.40625 351.960938 L 470.105469 352.570312 C 469.8125 352.570312 469.53125 352.460938 469.316406 352.269531 L 468.355469 351.410156 C 467.945312 351.046875 467.277344 351.046875 466.867188 351.410156 L 465.617188 352.515625 C 465.398438 352.707031 465.121094 352.8125 464.828125 352.8125 L 453.414062 352.90625 C 453.160156 352.90625 452.957031 352.699219 452.957031 352.445312 L 452.945312 351.46875 C 452.945312 350.621094 453.355469 349.828125 454.050781 349.34375 L 462.753906 342.953125 L 462.140625 342.953125 C 461.941406 342.953125 461.785156 342.78125 461.804688 342.582031 L 472.375 236.628906 L 468.726562 210.078125 C 468.707031 209.859375 468.433594 209.765625 468.285156 209.933594 L 456.585938 224.113281 C 455.832031 224.964844 454.726562 225.425781 453.589844 225.359375 L 446.632812 224.953125 C 445.355469 224.878906 444.207031 224.152344 443.59375 223.03125 L 433.453125 205.179688 C 433.332031 204.949219 433.40625 204.664062 433.625 204.523438 L 433.902344 203.621094 L 429.839844 197.527344 C 429.558594 197.109375 429.4375 196.609375 429.492188 196.109375 L 429.777344 193.445312 C 429.84375 192.835938 430.164062 192.289062 430.660156 191.933594 L 436.382812 187.835938 L 433.882812 175.910156 C 433.925781 175.839844 433.949219 175.792969 433.992188 175.722656 L 448.195312 170.886719 C 448.265625 170.925781 448.304688 170.945312 448.378906 170.984375 L 454.292969 190.710938 C 454.261719 190.78125 454.242188 190.824219 454.210938 190.890625 L 441.453125 196.449219 C 441.386719 197.273438 441.3125 198.117188 441.230469 198.917969 L 442.4375 199.1875 C 442.675781 199.03125 442.996094 199.109375 443.140625 199.351562 L 449.742188 210.785156 C 449.9375 211.117188 450.410156 211.140625 450.640625 210.832031 L 463.097656 194.675781 C 465.476562 191.488281 468.757812 189.082031 472.515625 187.769531 L 478.839844 184.800781 L 479.167969 184.371094 L 479.601562 180.164062 C 478.398438 179.492188 477.738281 179.453125 476.484375 179.199219 C 476.261719 179.15625 476.128906 178.921875 476.203125 178.710938 L 476.769531 177.105469 C 477.332031 175.515625 477.648438 173.960938 476.429688 172.753906 C 474.890625 171.230469 473.910156 169.070312 474.5 166.109375 C 475.785156 159.75 481.660156 155.746094 489.453125 156.800781 C 494.265625 157.492188 496.25 159.191406 496.683594 163.527344 C 496.683594 163.535156 496.683594 163.542969 496.679688 163.550781 C 497.207031 164.554688 497.695312 165.558594 498.113281 166.574219 C 498.167969 166.621094 498.210938 166.660156 498.261719 166.707031 C 500.945312 167.492188 501.761719 169.308594 499.695312 170.886719 C 499.621094 170.945312 499.582031 171.039062 499.605469 171.128906 C 499.859375 172.1875 500.050781 173.257812 500.175781 174.332031 C 500.320312 175.566406 499.726562 176.769531 498.671875 177.417969 C 497.0625 178.40625 495.222656 178.894531 493.210938 179.023438 L 493.910156 184.371094 L 493.875 185.730469 L 501.601562 189.742188 C 504.03125 190.644531 506.398438 191.714844 508.6875 192.9375 L 527.082031 201.414062 C 527.410156 201.597656 527.828125 201.457031 527.976562 201.109375 L 537.238281 175.902344 C 537.324219 175.699219 537.5625 175.605469 537.761719 175.699219 L 538.273438 175.441406 L 539.515625 173.25 C 540.097656 172.21875 540.386719 171.046875 540.34375 169.867188 L 540.183594 165.269531 C 540.175781 165.039062 540.183594 164.808594 540.203125 164.582031 C 540.203125 164.578125 540.203125 164.574219 540.203125 164.570312 C 540.242188 164.128906 540.328125 163.695312 540.46875 163.273438 C 540.535156 163.066406 540.613281 162.859375 540.703125 162.660156 L 542.089844 159.621094 C 542.339844 159.078125 542.730469 158.609375 543.226562 158.269531 C 543.867188 157.828125 544.808594 157.179688 545.601562 156.632812 C 546.285156 156.164062 547.207031 156.734375 547.078125 157.554688 C 546.953125 158.332031 546.671875 159.289062 546.074219 160.308594 C 545.746094 160.871094 545.605469 161.527344 545.691406 162.171875 L 545.914062 163.902344 Z M 437.503906 190.710938 L 438.542969 189.582031 C 438.820312 189.277344 439.027344 188.917969 439.195312 188.542969 C 439.289062 188.339844 439.390625 188.152344 439.496094 187.976562 C 439.390625 188.152344 439.289062 188.339844 439.195312 188.542969 C 439.027344 188.917969 438.820312 189.277344 438.542969 189.582031 Z M 437.503906 190.710938 " fill-opacity="1" fill-rule="nonzero"/><g clip-path="url(#f66ecf85d3)"><path fill="#097575" d="M 435.070312 109.363281 L 435.070312 173.917969 L 432.328125 174.753906 C 432.25 174.777344 432.207031 174.859375 432.234375 174.9375 L 435.070312 183.757812 L 435.070312 188.773438 L 430.660156 191.933594 C 430.164062 192.289062 429.84375 192.835938 429.777344 193.445312 L 429.492188 196.109375 C 429.4375 196.609375 429.558594 197.109375 429.839844 197.527344 L 433.902344 203.621094 L 432.574219 204.472656 C 432.355469 204.613281 432.28125 204.898438 432.402344 205.128906 L 435.070312 210 L 435.070312 329.152344 C 435.070312 329.828125 434.519531 330.378906 433.839844 330.378906 L 386.070312 330.378906 C 385.117188 325.9375 384.230469 322.039062 383.195312 318.464844 C 382.269531 315.261719 381.21875 312.316406 379.898438 309.472656 L 394.757812 309.472656 C 395.464844 309.472656 396.035156 308.902344 396.035156 308.199219 L 396.035156 304.585938 C 396.035156 303.882812 395.464844 303.3125 394.757812 303.3125 L 376.617188 303.3125 C 376.183594 302.324219 375.917969 301.269531 375.832031 300.191406 L 375.386719 294.488281 L 378.132812 294.488281 C 378.402344 294.488281 378.621094 294.269531 378.621094 294 L 378.621094 262.367188 L 418.496094 262.367188 L 418.496094 129.78125 L 320.207031 129.78125 L 320.207031 206.363281 L 303.632812 206.363281 L 303.632812 109.363281 C 303.632812 108.6875 304.183594 108.136719 304.863281 108.136719 L 433.839844 108.136719 C 434.519531 108.136719 435.070312 108.6875 435.070312 109.363281 Z M 337.074219 270.355469 L 303.632812 270.355469 L 303.632812 329.152344 C 303.632812 329.828125 304.183594 330.378906 304.863281 330.378906 L 343.914062 330.378906 L 344.09375 322.488281 L 343.554688 318.488281 Z M 303.632812 267.050781 L 336.582031 267.050781 L 336.105469 263.855469 L 303.632812 263.855469 Z M 365.917969 309.472656 L 356.339844 309.472656 C 356.171875 312.390625 355.882812 315.394531 355.476562 318.480469 C 354.972656 322.324219 354.289062 326.292969 353.457031 330.378906 L 376.648438 330.378906 L 370.535156 318.472656 Z M 357.238281 303.3125 L 363.5 303.3125 L 361.484375 294.488281 L 359.207031 294.488281 Z M 339.210938 262.367188 L 344.675781 302.53125 L 345.375 294.488281 L 345.285156 294.488281 C 345.007812 294.488281 344.785156 294.253906 344.800781 293.972656 L 347.421875 262.367188 Z M 317.066406 251.671875 C 317.539062 251.296875 318.054688 251.011719 318.617188 250.800781 L 320.207031 250.214844 L 320.207031 244.507812 L 308.199219 244.507812 L 306.59375 252.28125 L 311.988281 252.28125 C 312.207031 252.28125 312.386719 252.457031 312.386719 252.675781 L 312.386719 254.375 L 314.167969 254.382812 C 314.101562 254.175781 314.148438 253.933594 314.355469 253.765625 Z M 181.933594 142.808594 L 170.84375 142.808594 C 170.457031 142.808594 170.101562 142.609375 169.902344 142.28125 C 169.703125 141.957031 169.6875 141.546875 169.859375 141.207031 L 173.382812 134.292969 C 173.460938 134.140625 173.402344 134.003906 173.359375 133.9375 C 173.320312 133.867188 173.222656 133.757812 173.042969 133.757812 L 168.902344 133.757812 C 168.398438 133.757812 167.921875 134.039062 167.679688 134.476562 L 163.425781 142.238281 C 163.230469 142.589844 162.859375 142.808594 162.457031 142.808594 L 152.386719 142.808594 L 152.386719 168.824219 L 181.933594 168.824219 C 183.097656 168.824219 184.042969 167.875 184.042969 166.710938 L 184.042969 144.921875 C 184.042969 143.757812 183.097656 142.808594 181.933594 142.808594 Z M 215.558594 103.792969 L 215.558594 201.703125 C 215.558594 202.078125 215.253906 202.382812 214.878906 202.382812 L 136.804688 202.382812 L 134.179688 197.941406 C 132.277344 194.722656 129.476562 192.132812 126.117188 190.492188 L 118.421875 186.730469 L 117.289062 183.480469 C 117.554688 183.394531 117.824219 183.308594 118.070312 183.21875 C 119.109375 182.839844 119.738281 181.789062 119.652344 180.683594 C 119.582031 179.800781 119.488281 178.921875 119.371094 178.046875 C 119.355469 177.917969 119.4375 177.800781 119.558594 177.757812 C 122.894531 176.585938 122.210938 172.402344 118.390625 172.097656 C 118.277344 172.089844 118.175781 172.015625 118.148438 171.902344 C 117.972656 171.25 117.773438 170.601562 117.574219 169.957031 C 117.875 167.515625 117.394531 164.390625 116.59375 162.121094 C 116.238281 161.105469 115.148438 160.5625 114.097656 160.785156 C 112.859375 161.046875 111.582031 161.347656 110.300781 161.679688 L 110.300781 103.792969 C 110.300781 103.417969 110.605469 103.113281 110.980469 103.113281 L 214.878906 103.113281 C 215.253906 103.113281 215.558594 103.417969 215.558594 103.792969 Z M 186.25 144.921875 C 186.25 142.542969 184.3125 140.605469 181.933594 140.605469 L 172.640625 140.605469 L 175.351562 135.285156 C 175.753906 134.480469 175.710938 133.542969 175.234375 132.777344 C 174.761719 132.011719 173.941406 131.554688 173.042969 131.554688 L 168.902344 131.554688 C 167.589844 131.554688 166.382812 132.265625 165.75 133.414062 L 161.804688 140.605469 L 151.285156 140.605469 L 151.285156 137.335938 C 151.285156 136.960938 150.976562 136.652344 150.601562 136.652344 L 135.59375 136.652344 C 135.21875 136.652344 134.910156 136.960938 134.910156 137.335938 L 134.910156 171.785156 C 134.910156 172.160156 135.21875 172.46875 135.59375 172.46875 L 150.601562 172.46875 C 150.976562 172.46875 151.285156 172.160156 151.285156 171.785156 L 151.285156 171.027344 L 181.933594 171.027344 C 184.3125 171.027344 186.25 169.089844 186.25 166.710938 Z M 420.960938 77.382812 L 78 77.382812 L 78 66.476562 C 78 65.871094 78.488281 65.382812 79.09375 65.382812 L 419.867188 65.175781 C 420.472656 65.175781 420.960938 65.664062 420.960938 66.265625 Z M 87.828125 70.902344 C 87.828125 69.625 86.792969 68.589844 85.515625 68.589844 C 84.238281 68.589844 83.203125 69.625 83.203125 70.902344 C 83.203125 72.179688 84.238281 73.214844 85.515625 73.214844 C 86.792969 73.214844 87.828125 72.179688 87.828125 70.902344 Z M 99.394531 70.902344 C 99.394531 69.625 98.359375 68.589844 97.082031 68.589844 C 95.804688 68.589844 94.769531 69.625 94.769531 70.902344 C 94.769531 72.179688 95.804688 73.214844 97.082031 73.214844 C 98.359375 73.214844 99.394531 72.179688 99.394531 70.902344 Z M 110.960938 70.902344 C 110.960938 69.625 109.925781 68.589844 108.648438 68.589844 C 107.371094 68.589844 106.335938 69.625 106.335938 70.902344 C 106.335938 72.179688 107.371094 73.214844 108.648438 73.214844 C 109.925781 73.214844 110.960938 72.179688 110.960938 70.902344 Z M 487.492188 104.332031 L 468.503906 91.789062 L 468.503906 117.5 C 468.503906 117.875 468.808594 118.175781 469.179688 118.175781 L 507.769531 118.175781 C 508.144531 118.175781 508.445312 117.875 508.445312 117.5 L 508.445312 91.789062 L 489.457031 104.332031 C 488.863281 104.726562 488.089844 104.726562 487.492188 104.332031 Z M 540.84375 150.0625 C 540.25 150.453125 539.476562 150.453125 538.878906 150.0625 L 519.890625 137.515625 L 519.890625 163.226562 C 519.890625 163.601562 520.195312 163.902344 520.566406 163.902344 L 540.300781 163.902344 C 540.386719 163.476562 540.523438 163.058594 540.703125 162.660156 L 542.089844 159.621094 C 542.339844 159.078125 542.730469 158.609375 543.226562 158.269531 C 543.867188 157.828125 544.808594 157.179688 545.601562 156.632812 C 546.285156 156.164062 547.207031 156.734375 547.078125 157.554688 C 546.953125 158.332031 546.671875 159.289062 546.074219 160.308594 C 545.746094 160.871094 545.605469 161.527344 545.691406 162.171875 L 545.914062 163.902344 L 559.15625 163.902344 C 559.53125 163.902344 559.832031 163.601562 559.832031 163.226562 L 559.832031 137.515625 Z M 453.375 90.6875 L 439.121094 90.6875 C 438.511719 90.6875 438.019531 91.179688 438.019531 91.789062 C 438.019531 92.394531 438.511719 92.890625 439.121094 92.890625 L 453.375 92.890625 C 453.984375 92.890625 454.476562 92.394531 454.476562 91.789062 C 454.476562 91.179688 453.984375 90.6875 453.375 90.6875 Z M 453.375 97.28125 L 445.917969 97.28125 C 445.308594 97.28125 444.816406 97.777344 444.816406 98.382812 C 444.816406 98.992188 445.308594 99.488281 445.917969 99.488281 L 453.375 99.488281 C 453.984375 99.488281 454.476562 98.992188 454.476562 98.382812 C 454.476562 97.777344 453.984375 97.28125 453.375 97.28125 Z M 502.929688 135.328125 L 488.675781 135.328125 C 488.066406 135.328125 487.574219 135.820312 487.574219 136.429688 C 487.574219 137.035156 488.066406 137.53125 488.675781 137.53125 L 502.929688 137.53125 C 503.539062 137.53125 504.03125 137.035156 504.03125 136.429688 C 504.03125 135.820312 503.539062 135.328125 502.929688 135.328125 Z M 502.929688 141.921875 L 495.46875 141.921875 C 494.859375 141.921875 494.367188 142.417969 494.367188 143.023438 C 494.367188 143.632812 494.859375 144.128906 495.46875 144.128906 L 502.929688 144.128906 C 503.539062 144.128906 504.03125 143.632812 504.03125 143.023438 C 504.03125 142.417969 503.539062 141.921875 502.929688 141.921875 Z M 287.535156 127.433594 L 229.292969 127.433594 C 228.683594 127.433594 228.191406 127.925781 228.191406 128.535156 C 228.191406 129.144531 228.683594 129.636719 229.292969 129.636719 L 287.535156 129.636719 C 288.144531 129.636719 288.636719 129.144531 288.636719 128.535156 C 288.636719 127.925781 288.144531 127.433594 287.535156 127.433594 Z M 287.535156 143.109375 L 229.292969 143.109375 C 228.683594 143.109375 228.191406 143.605469 228.191406 144.210938 C 228.191406 144.820312 228.683594 145.316406 229.292969 145.316406 L 287.535156 145.316406 C 288.144531 145.316406 288.636719 144.820312 288.636719 144.210938 C 288.636719 143.605469 288.144531 143.109375 287.535156 143.109375 Z M 288.636719 159.890625 C 288.636719 159.28125 288.144531 158.789062 287.535156 158.789062 L 229.292969 158.789062 C 228.683594 158.789062 228.191406 159.28125 228.191406 159.890625 C 228.191406 160.5 228.683594 160.992188 229.292969 160.992188 L 287.535156 160.992188 C 288.144531 160.992188 288.636719 160.5 288.636719 159.890625 Z M 339.710938 157.78125 C 334.539062 157.78125 330.328125 153.574219 330.328125 148.402344 C 330.328125 143.230469 334.539062 139.019531 339.710938 139.019531 C 344.882812 139.019531 349.089844 143.230469 349.089844 148.402344 C 349.089844 153.574219 344.882812 157.78125 339.710938 157.78125 Z M 339.710938 155.578125 C 343.667969 155.578125 346.886719 152.359375 346.886719 148.402344 C 346.886719 144.445312 343.667969 141.222656 339.710938 141.222656 C 335.753906 141.222656 332.535156 144.445312 332.535156 148.402344 C 332.535156 152.359375 335.753906 155.578125 339.710938 155.578125 Z M 342.738281 149.320312 L 343.949219 148.105469 C 344.367188 147.6875 344.574219 147.144531 344.574219 146.59375 C 344.574219 146.046875 344.367188 145.5 343.949219 145.082031 C 343.113281 144.25 341.757812 144.25 340.925781 145.082031 L 339.710938 146.296875 L 338.5 145.082031 C 337.660156 144.25 336.308594 144.25 335.472656 145.082031 C 335.054688 145.5 334.847656 146.046875 334.847656 146.59375 C 334.847656 147.144531 335.054688 147.6875 335.472656 148.105469 L 339.710938 152.34375 Z M 408.015625 226.265625 C 408.015625 231.4375 403.808594 235.644531 398.636719 235.644531 C 393.464844 235.644531 389.253906 231.4375 389.253906 226.265625 C 389.253906 221.089844 393.464844 216.882812 398.636719 216.882812 C 403.808594 216.882812 408.015625 221.089844 408.015625 226.265625 Z M 405.8125 226.265625 C 405.8125 222.308594 402.59375 219.085938 398.636719 219.085938 C 394.679688 219.085938 391.457031 222.308594 391.457031 226.265625 C 391.457031 230.222656 394.679688 233.441406 398.636719 233.441406 C 402.59375 233.441406 405.8125 230.222656 405.8125 226.265625 Z M 399.851562 222.945312 L 398.636719 224.160156 L 397.421875 222.945312 C 396.585938 222.113281 395.230469 222.113281 394.398438 222.945312 C 393.980469 223.363281 393.773438 223.910156 393.773438 224.457031 C 393.773438 225.007812 393.980469 225.550781 394.398438 225.96875 L 395.613281 227.183594 L 398.636719 230.210938 L 401.664062 227.183594 L 402.875 225.96875 C 403.292969 225.550781 403.5 225.007812 403.5 224.457031 C 403.5 223.910156 403.292969 223.363281 402.875 222.945312 C 402.039062 222.113281 400.683594 222.113281 399.851562 222.945312 Z M 408.015625 168.191406 C 408.015625 168.800781 407.523438 169.292969 406.914062 169.292969 L 399.144531 169.292969 L 388.585938 176.839844 C 388.394531 176.976562 388.167969 177.046875 387.945312 177.046875 C 387.726562 177.046875 387.511719 176.984375 387.324219 176.855469 C 386.941406 176.597656 386.761719 176.128906 386.875 175.679688 L 388.453125 169.292969 L 379.78125 169.292969 C 379.171875 169.292969 378.675781 168.800781 378.675781 168.191406 L 378.675781 148.402344 C 378.675781 147.792969 379.171875 147.300781 379.78125 147.300781 L 406.914062 147.300781 C 407.523438 147.300781 408.015625 147.792969 408.015625 148.402344 Z M 405.8125 149.503906 L 380.882812 149.503906 L 380.882812 167.089844 L 389.859375 167.089844 C 390.199219 167.089844 390.515625 167.246094 390.726562 167.511719 C 390.933594 167.78125 391.011719 168.128906 390.929688 168.457031 L 389.730469 173.316406 L 398.152344 167.296875 C 398.335938 167.160156 398.5625 167.089844 398.792969 167.089844 L 405.8125 167.089844 Z M 385.664062 159.398438 L 400.84375 159.398438 C 401.453125 159.398438 401.945312 158.90625 401.945312 158.296875 C 401.945312 157.6875 401.453125 157.195312 400.84375 157.195312 L 385.664062 157.195312 C 385.054688 157.195312 384.5625 157.6875 384.5625 158.296875 C 384.5625 158.90625 385.054688 159.398438 385.664062 159.398438 Z M 248.976562 223.3125 L 247.261719 222.480469 L 247.253906 222.480469 L 233.804688 215.953125 L 233.800781 215.953125 L 233.574219 215.84375 C 233.167969 215.648438 232.679688 215.769531 232.414062 216.140625 L 228.988281 221.140625 L 230.378906 221.773438 L 244.019531 227.957031 C 244.226562 228.058594 244.476562 228.015625 244.640625 227.855469 L 246.886719 225.683594 C 247.023438 225.546875 247.222656 225.5 247.40625 225.554688 L 249.578125 226.1875 L 250.398438 226.429688 L 249.691406 224.144531 C 249.578125 223.78125 249.320312 223.480469 248.976562 223.3125 Z M 283.023438 285.0625 C 282.480469 282.164062 280.4375 279.769531 277.660156 278.777344 L 265.304688 274.367188 L 262.460938 273.351562 L 251.304688 269.371094 L 251.300781 269.367188 L 220.550781 269.367188 C 218.710938 274.777344 218.949219 280.410156 220.523438 286.191406 L 260.101562 286.191406 C 260.253906 286.191406 260.390625 286.253906 260.492188 286.351562 C 260.589844 286.453125 260.652344 286.589844 260.652344 286.742188 L 260.652344 294.816406 C 260.652344 295.121094 260.40625 295.367188 260.101562 295.367188 L 258.664062 295.367188 L 254.125 318.546875 L 249.855469 340.339844 L 251.378906 340.84375 L 252.191406 341.113281 L 255.371094 342.164062 L 261.972656 344.34375 L 262.933594 344.664062 L 271.707031 318.535156 L 272.585938 315.921875 L 272.582031 315.746094 L 273.25 318.535156 L 279.730469 345.671875 C 279.746094 345.742188 279.8125 345.785156 279.882812 345.773438 L 281.417969 345.484375 L 292.210938 343.472656 L 292.550781 343.410156 L 293.390625 343.253906 L 294.796875 342.992188 C 294.871094 342.976562 294.921875 342.90625 294.90625 342.832031 L 289.90625 318.523438 Z M 280.113281 249.136719 L 280.105469 249.777344 L 280.089844 250.898438 L 280.046875 254.246094 L 279.996094 258.078125 L 279.949219 261.746094 L 279.9375 262.445312 L 283.917969 262.371094 C 284.0625 262.367188 284.175781 262.25 284.175781 262.105469 L 284.175781 249.433594 C 284.175781 249.289062 284.058594 249.167969 283.914062 249.167969 Z M 131.472656 297.148438 L 126.148438 234.722656 L 94.15625 234.722656 L 81.730469 318.65625 L 77.886719 344.636719 C 77.863281 344.792969 77.984375 344.929688 78.140625 344.929688 L 94.90625 344.929688 C 95.03125 344.929688 95.136719 344.839844 95.15625 344.714844 L 99.492188 318.644531 L 109.25 259.953125 C 109.265625 259.847656 109.347656 259.761719 109.453125 259.738281 L 111.132812 259.363281 C 111.285156 259.332031 111.4375 259.441406 111.453125 259.597656 L 115.210938 318.636719 L 116.878906 344.820312 C 116.882812 344.882812 116.933594 344.929688 116.996094 344.929688 L 120.628906 344.929688 C 120.628906 344.929688 120.628906 344.929688 120.628906 344.925781 L 131.546875 344.925781 L 131.550781 344.929688 L 133.613281 344.929688 C 133.679688 344.929688 133.730469 344.875 133.730469 344.808594 L 132.488281 318.625 Z M 154.507812 206.75 L 140.480469 208.601562 L 134.121094 209.4375 C 134.023438 209.453125 133.949219 209.53125 133.941406 209.628906 L 133.300781 218.414062 L 133.097656 221.226562 L 131.859375 238.226562 C 131.851562 238.328125 131.941406 238.410156 132.042969 238.390625 L 152.566406 234.441406 C 152.660156 234.421875 152.726562 234.347656 152.734375 234.253906 L 153.289062 226.449219 L 152.925781 226.644531 C 152.476562 226.890625 151.941406 226.917969 151.472656 226.71875 L 147.765625 225.148438 C 147.300781 224.929688 147.019531 224.449219 147.042969 223.9375 L 147.308594 218.71875 C 147.332031 218.253906 147.683594 217.871094 148.144531 217.820312 C 148.792969 217.753906 149.78125 217.742188 150.894531 218.035156 C 151.238281 218.128906 151.605469 218.085938 151.902344 217.882812 L 153.949219 216.484375 L 154.261719 212.839844 L 154.683594 206.914062 C 154.691406 206.816406 154.605469 206.738281 154.507812 206.75 Z M 374.515625 235.488281 L 375.890625 235.488281 L 375.511719 210.675781 C 375.394531 203.089844 371.984375 195.703125 366.164062 190.878906 C 365.949219 190.703125 365.644531 190.660156 365.390625 190.769531 L 365.109375 190.886719 L 352.910156 196.070312 L 352.761719 196.132812 C 352.355469 196.316406 352.03125 196.644531 351.851562 197.054688 L 349.730469 202.722656 C 348.605469 205.300781 348.023438 208.074219 348 210.882812 L 341.382812 216.121094 C 339.945312 217.253906 338.261719 218.03125 336.46875 218.382812 L 335.042969 218.664062 L 328.8125 219.886719 L 322.640625 221.101562 C 322.472656 221.132812 322.351562 221.28125 322.351562 221.449219 L 322.351562 233.171875 C 322.351562 233.367188 322.511719 233.527344 322.707031 233.527344 L 337.242188 233.527344 L 329.507812 241.265625 L 327.375 243.402344 C 327.304688 243.472656 327.308594 243.585938 327.382812 243.652344 L 328.335938 244.5 L 328.632812 244.765625 L 334.902344 250.339844 L 336.199219 251.496094 C 336.265625 251.550781 336.363281 251.554688 336.425781 251.496094 L 349.222656 240.609375 L 350.425781 239.582031 L 355.238281 235.488281 Z M 374.515625 235.488281 " fill-opacity="1" fill-rule="nonzero"/></g><path fill="#e3efd1" d="M 93.421875 227.6875 L 94.15625 234.722656 L 81.730469 318.65625 L 78 318.660156 L 78 229.425781 C 78.625 229.976562 79.40625 230.351562 80.269531 230.46875 L 87.191406 231.398438 C 88.492188 231.574219 89.804688 231.148438 90.753906 230.238281 Z M 111.132812 259.363281 L 109.453125 259.738281 C 109.347656 259.761719 109.265625 259.847656 109.25 259.953125 L 99.492188 318.644531 L 115.210938 318.636719 L 111.453125 259.597656 C 111.4375 259.441406 111.285156 259.332031 111.132812 259.363281 Z M 265.304688 274.367188 L 277.660156 278.777344 C 280.4375 279.769531 282.480469 282.164062 283.023438 285.0625 L 289.90625 318.523438 L 303.632812 318.515625 L 303.632812 270.355469 L 265.894531 270.355469 Z M 236.941406 318.558594 L 254.125 318.546875 L 258.664062 295.367188 L 236.941406 295.367188 Z M 272.585938 315.921875 L 271.707031 318.535156 L 273.25 318.535156 L 272.582031 315.746094 Z M 78 77.382812 L 420.960938 77.382812 L 420.960938 108.136719 L 304.863281 108.136719 C 304.183594 108.136719 303.632812 108.6875 303.632812 109.363281 L 303.632812 206.363281 L 285.210938 206.363281 C 284.960938 206.363281 284.742188 206.53125 284.683594 206.777344 L 275.609375 243.835938 C 275.523438 244.175781 275.78125 244.507812 276.132812 244.507812 L 298.449219 244.507812 L 296.84375 252.28125 L 294.898438 252.28125 L 291.964844 250.171875 C 291.074219 249.535156 289.972656 249.269531 288.882812 249.445312 L 284.175781 250.230469 L 284.175781 249.433594 C 284.175781 249.289062 284.058594 249.167969 283.914062 249.167969 L 280.113281 249.136719 L 259.820312 247.867188 C 258.769531 247.800781 257.78125 247.34375 257.050781 246.585938 L 252.46875 241.824219 L 252.816406 233.640625 C 252.847656 232.894531 252.71875 232.148438 252.4375 231.457031 L 250.398438 226.429688 L 249.691406 224.144531 C 249.578125 223.78125 249.320312 223.480469 248.976562 223.3125 L 247.261719 222.480469 L 247.257812 222.476562 L 247.730469 216.636719 C 248.117188 216.636719 248.511719 216.625 248.910156 216.589844 C 249.945312 216.503906 250.824219 215.789062 251.15625 214.808594 C 251.367188 214.167969 251.496094 213.617188 251.695312 212.789062 C 251.785156 212.394531 252.09375 212.0625 252.488281 211.976562 C 255.175781 211.359375 254.804688 208.945312 252.886719 206.355469 C 252.742188 206.15625 252.664062 205.925781 252.664062 205.683594 C 252.675781 205.210938 252.675781 204.730469 252.664062 204.246094 C 256.339844 197.375 249.914062 192.863281 243.984375 192.789062 C 236.613281 192.691406 228.386719 198.058594 233.574219 207.714844 L 233.582031 207.714844 C 233.417969 209.234375 234.199219 211.050781 235.972656 211.953125 L 233.804688 215.953125 L 233.800781 215.953125 L 233.574219 215.84375 C 233.167969 215.648438 232.679688 215.769531 232.414062 216.140625 L 228.988281 221.140625 L 226.613281 224.296875 C 223.066406 229.339844 221.117188 235.332031 221.015625 241.496094 L 220.554688 269.367188 L 220.550781 269.367188 C 218.710938 274.777344 218.949219 280.410156 220.523438 286.191406 L 218.453125 286.191406 C 218.191406 286.191406 217.964844 286.007812 217.914062 285.75 L 207.695312 236.027344 C 207.640625 235.769531 207.414062 235.585938 207.152344 235.585938 L 199.21875 235.585938 C 198.871094 235.585938 198.609375 235.90625 198.679688 236.246094 L 210.542969 294.925781 C 210.59375 295.183594 210.820312 295.367188 211.085938 295.367188 L 232.59375 295.367188 L 232.59375 318.5625 L 132.488281 318.625 L 131.472656 297.148438 L 126.148438 234.722656 L 128.320312 217.023438 L 133.097656 221.226562 L 131.859375 238.226562 C 131.851562 238.328125 131.941406 238.410156 132.042969 238.390625 L 152.566406 234.441406 C 152.660156 234.421875 152.726562 234.347656 152.734375 234.253906 L 153.289062 226.449219 L 155.058594 225.484375 C 155.632812 225.171875 156 224.578125 156.019531 223.921875 L 156.25 216.804688 C 156.261719 216.457031 156.175781 216.113281 156 215.8125 L 154.261719 212.839844 L 154.683594 206.914062 C 154.691406 206.816406 154.605469 206.738281 154.507812 206.75 L 140.480469 208.601562 L 136.804688 202.382812 L 214.878906 202.382812 C 215.253906 202.382812 215.558594 202.078125 215.558594 201.703125 L 215.558594 103.792969 C 215.558594 103.417969 215.253906 103.113281 214.878906 103.113281 L 110.980469 103.113281 C 110.605469 103.113281 110.300781 103.417969 110.300781 103.792969 L 110.300781 161.679688 C 105.703125 162.863281 101.003906 164.53125 97.503906 166.890625 C 96.730469 167.410156 96.363281 168.347656 96.585938 169.25 C 97.347656 172.367188 98.824219 175.042969 100.914062 177.335938 C 100.503906 179.125 101.96875 181.582031 104.710938 181.695312 L 103.335938 187.0625 L 95.816406 190.363281 C 91.917969 192.074219 88.703125 195.035156 86.679688 198.78125 L 78 214.847656 Z M 228.191406 128.535156 C 228.191406 129.144531 228.683594 129.636719 229.292969 129.636719 L 287.535156 129.636719 C 288.144531 129.636719 288.636719 129.144531 288.636719 128.535156 C 288.636719 127.925781 288.144531 127.433594 287.535156 127.433594 L 229.292969 127.433594 C 228.683594 127.433594 228.191406 127.925781 228.191406 128.535156 Z M 228.191406 144.210938 C 228.191406 144.820312 228.683594 145.316406 229.292969 145.316406 L 287.535156 145.316406 C 288.144531 145.316406 288.636719 144.820312 288.636719 144.210938 C 288.636719 143.605469 288.144531 143.109375 287.535156 143.109375 L 229.292969 143.109375 C 228.683594 143.109375 228.191406 143.605469 228.191406 144.210938 Z M 228.191406 159.890625 C 228.191406 160.5 228.683594 160.992188 229.292969 160.992188 L 287.535156 160.992188 C 288.144531 160.992188 288.636719 160.5 288.636719 159.890625 C 288.636719 159.28125 288.144531 158.789062 287.535156 158.789062 L 229.292969 158.789062 C 228.683594 158.789062 228.191406 159.28125 228.191406 159.890625 Z M 254.394531 264.925781 L 251.527344 264.113281 L 251.304688 269.371094 L 262.460938 273.351562 L 263.832031 264.308594 L 256.816406 265.121094 C 256.003906 265.214844 255.183594 265.148438 254.394531 264.925781 Z M 133.941406 209.628906 C 133.949219 209.53125 134.023438 209.453125 134.121094 209.4375 C 134.023438 209.453125 133.949219 209.53125 133.941406 209.628906 Z M 267.027344 263.9375 L 266.480469 267.050781 L 303.632812 267.050781 L 303.632812 263.855469 L 267.769531 263.855469 Z M 405.8125 226.265625 C 405.8125 230.222656 402.59375 233.441406 398.636719 233.441406 C 394.679688 233.441406 391.457031 230.222656 391.457031 226.265625 C 391.457031 222.308594 394.679688 219.085938 398.636719 219.085938 C 402.59375 219.085938 405.8125 222.308594 405.8125 226.265625 Z M 403.5 224.457031 C 403.5 223.910156 403.292969 223.363281 402.875 222.945312 C 402.039062 222.113281 400.683594 222.113281 399.851562 222.945312 L 398.636719 224.160156 L 397.421875 222.945312 C 396.585938 222.113281 395.230469 222.113281 394.398438 222.945312 C 393.980469 223.363281 393.773438 223.910156 393.773438 224.457031 C 393.773438 225.007812 393.980469 225.550781 394.398438 225.96875 L 395.613281 227.183594 L 398.636719 230.210938 L 401.664062 227.183594 L 402.875 225.96875 C 403.292969 225.550781 403.5 225.007812 403.5 224.457031 Z M 320.207031 129.78125 L 418.496094 129.78125 L 418.496094 262.367188 L 378.621094 262.367188 L 378.621094 250 C 378.621094 247.257812 378.265625 244.527344 377.570312 241.875 L 375.890625 235.488281 L 375.511719 210.675781 C 375.394531 203.089844 371.984375 195.703125 366.164062 190.878906 C 365.949219 190.703125 365.644531 190.660156 365.390625 190.769531 L 365.109375 190.886719 L 364.523438 189.859375 C 365.140625 189.660156 365.699219 189.296875 366.007812 188.730469 C 366.300781 188.191406 366.429688 187.609375 367.097656 187.410156 C 367.859375 187.183594 368.6875 187.65625 369.457031 187.457031 C 371.199219 186.996094 369.976562 185.457031 370.144531 184.414062 C 370.328125 183.257812 371.847656 183.964844 372.1875 182.921875 C 372.324219 182.511719 372.195312 182.03125 371.878906 181.742188 C 371.726562 181.601562 371.535156 181.503906 371.40625 181.34375 C 371.023438 180.871094 371.40625 180.253906 371.828125 179.96875 C 372.261719 179.667969 372.804688 179.519531 373.167969 179.132812 C 373.667969 178.59375 373.667969 177.722656 373.335938 177.066406 C 373.003906 176.410156 372.40625 175.929688 371.789062 175.527344 C 371.453125 175.308594 371.09375 175.09375 370.886719 174.75 C 370.320312 173.816406 371.175781 172.648438 371.105469 171.558594 C 371.054688 170.746094 370.417969 170.007812 369.621094 169.839844 C 369.136719 169.738281 368.628906 169.828125 368.144531 169.734375 C 367.660156 169.644531 367.289062 169.59375 367.257812 169.101562 C 367.183594 167.988281 366.972656 166.664062 365.960938 166.203125 C 365.296875 165.898438 364.53125 166.089844 363.816406 166.226562 C 362.007812 166.574219 361.90625 165.753906 360.890625 164.617188 C 359.503906 163.066406 358.191406 165.613281 356.988281 164.75 C 356.710938 164.550781 356.527344 164.253906 356.285156 164.015625 C 355.003906 162.761719 353.234375 163.78125 352.386719 164.980469 C 352.0625 165.441406 351.730469 165.996094 351.175781 166.089844 C 350.664062 166.175781 350.191406 165.820312 349.703125 165.644531 C 348.59375 165.25 347.222656 165.917969 346.851562 167.035156 C 346.679688 167.554688 346.6875 168.164062 346.328125 168.578125 C 345.703125 169.300781 344.382812 168.972656 343.734375 169.683594 C 342.878906 170.621094 343.777344 172.070312 342.804688 173.03125 C 342.140625 173.691406 341.476562 174.269531 341.464844 175.285156 C 341.457031 176.136719 341.96875 176.914062 342.632812 177.445312 C 342.625 177.730469 342.632812 178.015625 342.679688 178.28125 C 342.878906 179.378906 343.539062 180.152344 344.449219 180.203125 C 344.558594 181.03125 344.71875 181.847656 344.941406 182.648438 C 344.980469 182.78125 344.949219 182.921875 344.871094 183.039062 C 342.855469 185.945312 344.246094 188.355469 347.179688 187.953125 C 347.308594 187.9375 347.4375 187.984375 347.507812 188.085938 C 347.898438 188.652344 348.324219 189.199219 348.777344 189.730469 C 349.5625 190.636719 350.859375 191.023438 352.058594 190.722656 C 352.121094 190.707031 352.171875 190.679688 352.230469 190.664062 L 352.910156 196.070312 L 352.761719 196.132812 C 352.355469 196.316406 352.03125 196.644531 351.851562 197.054688 L 349.730469 202.722656 C 348.605469 205.300781 348.023438 208.074219 348 210.882812 L 341.382812 216.121094 C 339.945312 217.253906 338.261719 218.03125 336.46875 218.382812 L 335.042969 218.664062 L 337.890625 207.035156 C 337.976562 206.691406 337.71875 206.363281 337.367188 206.363281 L 320.207031 206.363281 Z M 408.015625 226.265625 C 408.015625 221.089844 403.808594 216.882812 398.636719 216.882812 C 393.464844 216.882812 389.253906 221.089844 389.253906 226.265625 C 389.253906 231.4375 393.464844 235.644531 398.636719 235.644531 C 403.808594 235.644531 408.015625 231.4375 408.015625 226.265625 Z M 378.675781 168.191406 C 378.675781 168.800781 379.171875 169.292969 379.78125 169.292969 L 388.453125 169.292969 L 386.875 175.679688 C 386.761719 176.128906 386.941406 176.597656 387.324219 176.855469 C 387.511719 176.984375 387.726562 177.046875 387.945312 177.046875 C 388.167969 177.046875 388.394531 176.976562 388.585938 176.839844 L 399.144531 169.292969 L 406.914062 169.292969 C 407.523438 169.292969 408.015625 168.800781 408.015625 168.191406 L 408.015625 148.402344 C 408.015625 147.792969 407.523438 147.300781 406.914062 147.300781 L 379.78125 147.300781 C 379.171875 147.300781 378.675781 147.792969 378.675781 148.402344 Z M 330.328125 148.402344 C 330.328125 153.574219 334.539062 157.78125 339.710938 157.78125 C 344.882812 157.78125 349.089844 153.574219 349.089844 148.402344 C 349.089844 143.230469 344.882812 139.019531 339.710938 139.019531 C 334.539062 139.019531 330.328125 143.230469 330.328125 148.402344 Z M 336.199219 251.496094 L 334.902344 250.339844 L 332.796875 252.070312 C 332.269531 252.378906 331.796875 252.753906 331.367188 253.179688 C 331.019531 253.539062 330.511719 254.007812 329.890625 254.445312 L 337.351562 254.476562 C 337.796875 254.476562 338.175781 254.804688 338.242188 255.246094 L 339.210938 262.367188 L 347.421875 262.367188 L 349.222656 240.609375 L 336.425781 251.496094 C 336.363281 251.554688 336.265625 251.550781 336.199219 251.496094 Z M 332.535156 148.402344 C 332.535156 144.445312 335.753906 141.222656 339.710938 141.222656 C 343.667969 141.222656 346.886719 144.445312 346.886719 148.402344 C 346.886719 152.359375 343.667969 155.578125 339.710938 155.578125 C 335.753906 155.578125 332.535156 152.359375 332.535156 148.402344 Z M 334.847656 146.59375 C 334.847656 147.144531 335.054688 147.6875 335.472656 148.105469 L 339.710938 152.34375 L 342.738281 149.320312 L 343.949219 148.105469 C 344.367188 147.6875 344.574219 147.144531 344.574219 146.59375 C 344.574219 146.046875 344.367188 145.5 343.949219 145.082031 C 343.113281 144.25 341.757812 144.25 340.925781 145.082031 L 339.710938 146.296875 L 338.5 145.082031 C 337.660156 144.25 336.308594 144.25 335.472656 145.082031 C 335.054688 145.5 334.847656 146.046875 334.847656 146.59375 Z M 389.859375 167.089844 L 380.882812 167.089844 L 380.882812 149.503906 L 405.8125 149.503906 L 405.8125 167.089844 L 398.792969 167.089844 C 398.5625 167.089844 398.335938 167.160156 398.152344 167.296875 L 389.730469 173.316406 L 390.929688 168.457031 C 391.011719 168.128906 390.933594 167.78125 390.726562 167.511719 C 390.515625 167.246094 390.199219 167.089844 389.859375 167.089844 Z M 385.664062 159.398438 L 400.84375 159.398438 C 401.453125 159.398438 401.945312 158.90625 401.945312 158.296875 C 401.945312 157.6875 401.453125 157.195312 400.84375 157.195312 L 385.664062 157.195312 C 385.054688 157.195312 384.5625 157.6875 384.5625 158.296875 C 384.5625 158.90625 385.054688 159.398438 385.664062 159.398438 Z M 331.402344 233.527344 L 329.507812 241.265625 L 337.242188 233.527344 Z M 328.289062 244.507812 L 320.207031 244.507812 L 320.207031 250.214844 L 325.074219 248.410156 L 328.632812 244.765625 L 328.335938 244.5 C 328.320312 244.5 328.304688 244.507812 328.289062 244.507812 Z M 489.457031 104.332031 L 508.445312 91.789062 L 468.503906 91.789062 L 487.492188 104.332031 C 488.089844 104.726562 488.863281 104.726562 489.457031 104.332031 Z M 540.84375 150.0625 L 559.832031 137.515625 L 519.890625 137.515625 L 538.878906 150.0625 C 539.476562 150.453125 540.25 150.453125 540.84375 150.0625 Z M 151.285156 137.335938 L 151.285156 140.605469 L 161.804688 140.605469 L 165.75 133.414062 C 166.382812 132.265625 167.589844 131.554688 168.902344 131.554688 L 173.042969 131.554688 C 173.941406 131.554688 174.761719 132.011719 175.234375 132.777344 C 175.710938 133.542969 175.753906 134.480469 175.351562 135.285156 L 172.640625 140.605469 L 181.933594 140.605469 C 184.3125 140.605469 186.25 142.542969 186.25 144.921875 L 186.25 166.710938 C 186.25 169.089844 184.3125 171.027344 181.933594 171.027344 L 151.285156 171.027344 L 151.285156 171.785156 C 151.285156 172.160156 150.976562 172.46875 150.601562 172.46875 L 135.59375 172.46875 C 135.21875 172.46875 134.910156 172.160156 134.910156 171.785156 L 134.910156 137.335938 C 134.910156 136.960938 135.21875 136.652344 135.59375 136.652344 L 150.601562 136.652344 C 150.976562 136.652344 151.285156 136.960938 151.285156 137.335938 Z M 152.386719 168.824219 L 181.933594 168.824219 C 183.097656 168.824219 184.042969 167.875 184.042969 166.710938 L 184.042969 144.921875 C 184.042969 143.757812 183.097656 142.808594 181.933594 142.808594 L 170.84375 142.808594 C 170.457031 142.808594 170.101562 142.609375 169.902344 142.28125 C 169.703125 141.957031 169.6875 141.546875 169.859375 141.207031 L 173.382812 134.292969 C 173.460938 134.140625 173.402344 134.003906 173.359375 133.9375 C 173.320312 133.867188 173.222656 133.757812 173.042969 133.757812 L 168.902344 133.757812 C 168.398438 133.757812 167.921875 134.039062 167.679688 134.476562 L 163.425781 142.238281 C 163.230469 142.589844 162.859375 142.808594 162.457031 142.808594 L 152.386719 142.808594 Z M 363.582031 303.667969 L 363.5 303.3125 L 357.238281 303.3125 L 357.007812 304.339844 C 356.667969 305.464844 356.488281 306.625 356.4375 307.800781 C 356.414062 308.351562 356.371094 308.917969 356.339844 309.472656 L 365.917969 309.472656 L 364.789062 307.273438 C 364.25 306.121094 363.847656 304.914062 363.582031 303.667969 Z M 394.757812 303.3125 L 376.617188 303.3125 C 376.789062 303.699219 376.976562 304.074219 377.199219 304.4375 C 378.222656 306.101562 379.109375 307.769531 379.898438 309.472656 L 394.757812 309.472656 C 395.464844 309.472656 396.035156 308.902344 396.035156 308.199219 L 396.035156 304.585938 C 396.035156 303.882812 395.464844 303.3125 394.757812 303.3125 Z M 85.515625 73.214844 C 86.792969 73.214844 87.828125 72.179688 87.828125 70.902344 C 87.828125 69.625 86.792969 68.589844 85.515625 68.589844 C 84.238281 68.589844 83.203125 69.625 83.203125 70.902344 C 83.203125 72.179688 84.238281 73.214844 85.515625 73.214844 Z M 97.082031 73.214844 C 98.359375 73.214844 99.394531 72.179688 99.394531 70.902344 C 99.394531 69.625 98.359375 68.589844 97.082031 68.589844 C 95.804688 68.589844 94.769531 69.625 94.769531 70.902344 C 94.769531 72.179688 95.804688 73.214844 97.082031 73.214844 Z M 108.648438 73.214844 C 109.925781 73.214844 110.960938 72.179688 110.960938 70.902344 C 110.960938 69.625 109.925781 68.589844 108.648438 68.589844 C 107.371094 68.589844 106.335938 69.625 106.335938 70.902344 C 106.335938 72.179688 107.371094 73.214844 108.648438 73.214844 Z M 330.371094 211.441406 L 289.113281 211.441406 C 288.929688 211.441406 288.769531 211.566406 288.726562 211.746094 L 282.070312 238.933594 C 282.007812 239.183594 282.195312 239.425781 282.457031 239.425781 L 323.714844 239.425781 C 323.898438 239.425781 324.054688 239.300781 324.101562 239.125 L 325.472656 233.527344 L 322.707031 233.527344 C 322.511719 233.527344 322.351562 233.367188 322.351562 233.171875 L 322.351562 229.335938 C 321.660156 230.003906 320.929688 230.414062 320.207031 230.660156 C 318.328125 231.304688 316.542969 230.785156 315.855469 230.527344 C 315.644531 230.449219 315.425781 230.386719 315.203125 230.359375 L 311.949219 229.957031 C 311.773438 229.9375 311.597656 229.902344 311.425781 229.851562 L 309.308594 229.242188 C 308.664062 229.058594 308.589844 228.160156 309.203125 227.882812 C 309.761719 227.632812 310.425781 227.480469 311.164062 227.457031 C 311.472656 227.449219 311.78125 227.40625 312.066406 227.300781 L 313.898438 226.617188 C 314.160156 226.519531 314.199219 226.167969 313.964844 226.019531 L 312.050781 224.777344 C 311.65625 224.476562 311.171875 224.292969 310.675781 224.304688 C 309.648438 224.332031 308.660156 224.105469 307.824219 223.804688 C 306.917969 223.476562 306.992188 222.171875 307.929688 221.957031 L 311.292969 221.296875 C 311.671875 221.222656 312.054688 221.195312 312.441406 221.214844 L 316.625 221.453125 C 317.199219 221.484375 317.765625 221.632812 318.285156 221.882812 L 320.207031 222.816406 L 322.351562 223.855469 L 322.351562 221.449219 C 322.351562 221.28125 322.472656 221.132812 322.640625 221.101562 L 328.8125 219.886719 L 330.757812 211.933594 C 330.820312 211.683594 330.628906 211.441406 330.371094 211.441406 Z M 546.773438 179.410156 L 538.273438 175.441406 L 537.707031 175.175781 C 537.503906 175.082031 537.265625 175.175781 537.179688 175.378906 L 527.011719 199.175781 C 526.863281 199.519531 526.449219 199.664062 526.121094 199.480469 L 509.796875 190.75 C 507.511719 189.523438 505.144531 188.457031 502.710938 187.554688 L 493.910156 184.371094 L 479.167969 184.371094 L 471.730469 186.898438 C 467.972656 188.210938 464.691406 190.617188 462.3125 193.808594 L 450.832031 209.199219 C 450.601562 209.507812 450.128906 209.484375 449.933594 209.152344 L 443.417969 198.132812 C 443.273438 197.886719 442.957031 197.8125 442.714844 197.964844 L 441.230469 198.917969 L 435.070312 202.871094 L 433.902344 203.621094 L 432.574219 204.472656 C 432.355469 204.613281 432.28125 204.898438 432.402344 205.128906 L 435.070312 210 L 443.140625 224.746094 C 443.753906 225.867188 444.902344 226.59375 446.179688 226.667969 L 453.136719 227.074219 C 454.273438 227.140625 455.378906 226.679688 456.132812 225.828125 L 467.503906 212.976562 C 467.648438 212.808594 467.921875 212.898438 467.941406 213.121094 L 469.832031 236.269531 L 503.820312 236.269531 L 505.289062 208.628906 C 505.296875 208.453125 505.476562 208.339844 505.636719 208.40625 L 524.621094 216.273438 C 526.167969 216.914062 527.914062 216.882812 529.441406 216.191406 L 535.410156 213.480469 C 536.960938 212.777344 538.140625 211.453125 538.667969 209.832031 L 548.183594 180.445312 C 548.242188 180.257812 548.15625 180.054688 547.976562 179.96875 Z M 436.382812 187.835938 L 437.503906 190.710938 L 438.542969 189.582031 C 438.820312 189.277344 439.027344 188.917969 439.195312 188.542969 C 439.648438 187.550781 440.226562 186.875 440.90625 186.453125 C 441.503906 186.082031 442.265625 186.566406 442.195312 187.265625 L 441.824219 190.902344 C 441.824219 190.902344 441.683594 193.574219 441.453125 196.449219 L 455.925781 191.777344 C 456.003906 191.75 456.046875 191.667969 456.023438 191.59375 L 449.066406 169.804688 C 449.042969 169.726562 448.960938 169.6875 448.882812 169.710938 L 435.070312 173.917969 L 432.328125 174.753906 C 432.25 174.777344 432.207031 174.859375 432.234375 174.9375 L 435.070312 183.757812 Z M 436.382812 187.835938 " fill-opacity="1" fill-rule="nonzero"/><g clip-path="url(#83a0b63add)"><path fill="#000000" d="M 233.574219 207.714844 C 228.386719 198.058594 236.613281 192.691406 243.984375 192.789062 C 249.914062 192.863281 256.339844 197.375 252.664062 204.246094 C 252.636719 203.125 252.539062 201.992188 252.378906 200.84375 L 244.164062 200.191406 C 243.652344 200.148438 243.164062 200.425781 242.929688 200.886719 L 240.09375 206.53125 L 240.078125 206.558594 C 240.019531 206.714844 239.878906 206.824219 239.714844 206.847656 L 238.511719 207.019531 C 238.371094 207.039062 238.246094 206.976562 238.148438 206.882812 C 238.117188 206.855469 238.082031 206.839844 238.058594 206.804688 L 237.164062 205.367188 C 234.953125 204.890625 233.757812 206.136719 233.582031 207.714844 Z M 302.613281 348.730469 L 293.390625 343.253906 L 292.550781 343.410156 L 292.210938 343.472656 L 281.417969 345.484375 L 280.234375 345.707031 C 279.953125 348.3125 279.917969 350.75 280.1875 352.980469 C 280.210938 353.191406 280.394531 353.347656 280.609375 353.347656 L 285.425781 353.347656 C 285.550781 353.347656 285.671875 353.292969 285.75 353.191406 L 286.878906 351.785156 C 286.917969 351.734375 286.996094 351.738281 287.03125 351.792969 L 287.902344 353.15625 C 287.980469 353.277344 288.113281 353.347656 288.253906 353.347656 L 303.609375 353.347656 C 303.839844 353.347656 304.027344 353.164062 304.027344 352.929688 L 304.027344 351.214844 C 304.027344 350.195312 303.488281 349.25 302.613281 348.730469 Z M 269.757812 349.410156 L 262.933594 344.664062 L 261.972656 344.34375 L 255.371094 342.164062 L 252.191406 341.113281 L 251.378906 340.84375 L 250.328125 340.496094 C 248.890625 342.050781 247.636719 344.382812 246.820312 346.707031 C 246.773438 346.832031 246.828125 346.972656 246.941406 347.039062 L 251.234375 349.5625 C 251.34375 349.628906 251.484375 349.609375 251.574219 349.519531 L 252.945312 348.511719 C 253.144531 348.367188 253.425781 348.480469 253.46875 348.71875 L 253.808594 350.507812 C 253.808594 350.742188 253.960938 350.945312 254.183594 351.007812 L 261.371094 353.007812 C 262.183594 353.234375 263.027344 353.347656 263.875 353.347656 L 270.023438 353.347656 C 270.226562 353.347656 270.394531 353.183594 270.394531 352.976562 L 270.394531 350.625 C 270.394531 350.140625 270.15625 349.6875 269.757812 349.410156 Z M 238.980469 344.925781 L 236.941406 344.925781 L 236.941406 295.367188 L 260.101562 295.367188 C 260.40625 295.367188 260.652344 295.121094 260.652344 294.816406 L 260.652344 286.742188 C 260.652344 286.589844 260.589844 286.453125 260.492188 286.351562 C 260.390625 286.253906 260.253906 286.191406 260.101562 286.191406 L 218.453125 286.191406 C 218.191406 286.191406 217.964844 286.007812 217.914062 285.75 L 207.695312 236.027344 C 207.640625 235.769531 207.414062 235.585938 207.152344 235.585938 L 199.21875 235.585938 C 198.871094 235.585938 198.609375 235.90625 198.679688 236.246094 L 210.542969 294.925781 C 210.59375 295.183594 210.820312 295.367188 211.085938 295.367188 L 232.59375 295.367188 L 232.59375 344.925781 L 230.5625 344.925781 C 225.914062 344.925781 222.144531 348.695312 222.144531 353.34375 L 247.398438 353.34375 C 247.398438 348.695312 243.628906 344.925781 238.980469 344.925781 Z M 222.5 269.367188 L 220.554688 269.367188 L 221.015625 241.496094 C 221.117188 235.332031 223.066406 229.339844 226.613281 224.296875 L 228.988281 221.140625 L 230.378906 221.773438 L 244.019531 227.957031 C 244.226562 228.058594 244.476562 228.015625 244.640625 227.855469 L 246.886719 225.683594 C 247.023438 225.546875 247.222656 225.5 247.40625 225.554688 L 249.578125 226.1875 L 250.398438 226.429688 L 252.4375 231.457031 C 252.71875 232.148438 252.847656 232.894531 252.816406 233.640625 L 252.46875 241.824219 L 257.050781 246.585938 C 257.78125 247.34375 258.769531 247.800781 259.820312 247.867188 L 280.113281 249.136719 L 280.105469 249.777344 L 280.089844 250.898438 L 280.046875 254.246094 L 279.996094 258.078125 L 279.949219 261.746094 L 279.9375 262.445312 L 283.917969 262.371094 C 284.0625 262.367188 284.175781 262.25 284.175781 262.105469 L 284.175781 258.382812 C 286.304688 258.238281 287.902344 257.644531 288.925781 257.113281 C 289.335938 256.902344 289.773438 256.765625 290.21875 256.679688 C 290.796875 256.566406 291.394531 256.558594 291.980469 256.679688 C 292.019531 256.6875 292.058594 256.6875 292.097656 256.695312 L 293.773438 257.09375 C 294.226562 257.203125 294.65625 257.402344 295.027344 257.664062 C 295.945312 258.304688 297.101562 258.171875 297.652344 258.050781 C 297.839844 258.019531 297.96875 257.851562 297.96875 257.65625 L 297.96875 254.691406 C 297.96875 254.570312 297.90625 254.4375 297.804688 254.371094 L 297.730469 254.316406 L 294.898438 252.28125 L 296.84375 252.28125 L 298.449219 244.507812 L 276.132812 244.507812 C 275.78125 244.507812 275.523438 244.175781 275.609375 243.835938 L 284.683594 206.777344 C 284.742188 206.53125 284.960938 206.363281 285.210938 206.363281 L 337.367188 206.363281 C 337.71875 206.363281 337.976562 206.691406 337.890625 207.035156 L 335.042969 218.664062 L 328.8125 219.886719 L 330.757812 211.933594 C 330.820312 211.683594 330.628906 211.441406 330.371094 211.441406 L 289.113281 211.441406 C 288.929688 211.441406 288.769531 211.566406 288.726562 211.746094 L 282.070312 238.933594 C 282.007812 239.183594 282.195312 239.425781 282.457031 239.425781 L 323.714844 239.425781 C 323.898438 239.425781 324.054688 239.300781 324.101562 239.125 L 325.472656 233.527344 L 331.402344 233.527344 L 329.507812 241.265625 L 327.375 243.402344 C 327.304688 243.472656 327.308594 243.585938 327.382812 243.652344 L 328.335938 244.5 C 328.320312 244.5 328.304688 244.507812 328.289062 244.507812 L 308.199219 244.507812 L 306.59375 252.28125 L 311.988281 252.28125 C 312.207031 252.28125 312.386719 252.457031 312.386719 252.675781 L 312.386719 254.375 L 314.167969 254.382812 C 314.234375 254.601562 314.429688 254.777344 314.707031 254.777344 C 315.039062 254.777344 315.402344 254.757812 315.785156 254.703125 L 315.578125 254.867188 C 315.214844 255.144531 315.324219 255.75 315.785156 255.859375 C 317.128906 256.179688 318.792969 255.496094 319.71875 255.011719 C 319.875 254.933594 320.042969 254.898438 320.207031 254.847656 C 320.605469 254.722656 321.019531 254.652344 321.4375 254.691406 L 323.378906 254.855469 C 323.761719 254.878906 324.117188 255.023438 324.457031 255.199219 C 326.507812 256.242188 328.488281 255.429688 329.890625 254.445312 L 337.351562 254.476562 C 337.796875 254.476562 338.175781 254.804688 338.242188 255.246094 L 339.210938 262.367188 L 344.675781 302.53125 L 344.609375 303.296875 C 344.609375 303.300781 344.609375 303.308594 344.609375 303.3125 C 344.535156 304.148438 344.488281 304.984375 344.46875 305.820312 L 344.386719 309.472656 L 344.183594 318.488281 L 344.09375 322.488281 L 343.554688 318.488281 L 337.074219 270.355469 L 265.894531 270.355469 L 265.304688 274.367188 L 262.460938 273.351562 L 263.832031 264.308594 L 256.816406 265.121094 C 256.003906 265.214844 255.183594 265.148438 254.394531 264.925781 L 251.527344 264.113281 L 251.304688 269.371094 L 251.300781 269.367188 Z M 266.480469 267.050781 L 336.582031 267.050781 L 336.105469 263.855469 L 267.769531 263.855469 L 267.027344 263.9375 Z M 136.804688 202.382812 L 140.480469 208.601562 L 134.121094 209.4375 C 134.023438 209.453125 133.949219 209.53125 133.941406 209.628906 L 133.300781 218.414062 L 133.097656 221.226562 L 128.320312 217.023438 L 126.148438 234.722656 L 94.15625 234.722656 L 93.421875 227.6875 L 90.753906 230.238281 C 89.804688 231.148438 88.492188 231.574219 87.191406 231.398438 L 80.269531 230.46875 C 79.40625 230.351562 78.625 229.976562 78 229.425781 C 77.300781 228.8125 76.796875 227.984375 76.605469 227.027344 L 75.695312 222.441406 C 75.382812 220.867188 75.628906 219.234375 76.394531 217.824219 L 78 214.847656 L 86.679688 198.78125 C 88.703125 195.035156 91.917969 192.074219 95.816406 190.363281 L 103.335938 187.0625 L 103.128906 187.859375 C 102.949219 188.566406 103.28125 189.304688 103.925781 189.636719 L 109.253906 192.386719 C 109.585938 192.558594 109.941406 192.679688 110.300781 192.75 C 111.289062 192.953125 112.328125 192.78125 113.214844 192.242188 L 118.011719 189.304688 C 118.640625 188.921875 118.914062 188.152344 118.671875 187.457031 L 118.421875 186.730469 L 126.117188 190.492188 C 129.476562 192.132812 132.277344 194.722656 134.179688 197.941406 Z M 117.816406 195.980469 L 117.316406 193.941406 C 117.242188 193.640625 116.878906 193.523438 116.648438 193.730469 C 116.140625 194.191406 115.382812 195.039062 115.023438 196.246094 C 114.875 196.742188 114.5625 197.167969 114.15625 197.488281 L 111.582031 199.523438 L 112.0625 197.902344 C 112.144531 197.625 112.210938 197.347656 112.253906 197.0625 C 112.347656 196.472656 112.488281 195.480469 112.402344 195.246094 C 112.28125 195.050781 112.082031 195.007812 111.859375 195.097656 C 111.859375 195.097656 110.867188 195.46875 110.300781 196.492188 C 110.179688 196.707031 110.070312 196.941406 110.003906 197.21875 C 109.921875 197.550781 109.703125 197.824219 109.429688 198.027344 C 108.609375 198.652344 107.042969 200.039062 106.675781 201.785156 C 106.585938 202.207031 106.324219 202.566406 105.964844 202.804688 L 104.300781 203.902344 L 108.90625 209.804688 L 112.179688 206.863281 L 116.621094 202.382812 L 116.6875 202.316406 C 117.183594 201.816406 117.492188 201.160156 117.558594 200.457031 L 117.894531 197.027344 C 117.929688 196.675781 117.902344 196.320312 117.816406 195.980469 Z M 100.914062 177.335938 C 101.167969 176.230469 102.132812 175.382812 103.945312 175.515625 L 104.753906 176.335938 L 105.273438 176.863281 L 106.132812 176.566406 L 106.097656 175.726562 L 105.9375 171.660156 C 105.894531 170.628906 106.558594 169.695312 107.550781 169.398438 L 110.300781 168.574219 L 116.472656 166.722656 C 116.878906 167.792969 117.238281 168.871094 117.574219 169.957031 C 117.875 167.515625 117.394531 164.390625 116.59375 162.121094 C 116.238281 161.105469 115.148438 160.5625 114.097656 160.785156 C 112.859375 161.046875 111.582031 161.347656 110.300781 161.679688 C 105.703125 162.863281 101.003906 164.53125 97.503906 166.890625 C 96.730469 167.410156 96.363281 168.347656 96.585938 169.25 C 97.347656 172.367188 98.824219 175.042969 100.914062 177.335938 Z M 131.550781 344.929688 L 131.546875 344.925781 L 120.628906 344.925781 C 120.628906 344.929688 120.628906 344.929688 120.628906 344.929688 C 119.863281 348.191406 119.859375 351.453125 120.605469 354.714844 C 120.621094 354.769531 120.667969 354.808594 120.726562 354.808594 L 122.589844 354.808594 C 122.636719 354.808594 122.679688 354.78125 122.699219 354.738281 L 123.558594 352.855469 L 124.570312 354.746094 C 124.59375 354.785156 124.632812 354.808594 124.679688 354.808594 L 136.03125 354.808594 C 136.097656 354.808594 136.152344 354.753906 136.152344 354.691406 L 136.152344 352.703125 C 136.152344 352.222656 136.011719 351.75 135.746094 351.347656 Z M 80.046875 344.929688 L 70.925781 350.59375 C 70.441406 350.894531 70.144531 351.425781 70.144531 352 L 70.144531 354.109375 C 70.144531 354.265625 70.269531 354.390625 70.425781 354.390625 L 84.929688 354.390625 C 85.246094 354.390625 85.546875 354.265625 85.769531 354.042969 L 88.058594 352.855469 L 88.058594 354.246094 C 88.058594 354.402344 88.183594 354.527344 88.339844 354.527344 L 92.273438 354.527344 C 92.414062 354.527344 92.535156 354.421875 92.554688 354.28125 C 92.800781 352.496094 92.945312 350.746094 92.929688 349.050781 C 92.917969 347.636719 92.796875 346.257812 92.519531 344.929688 Z M 342.632812 177.445312 C 342.625 177.730469 342.632812 178.015625 342.679688 178.28125 C 342.878906 179.378906 343.539062 180.152344 344.449219 180.203125 C 344.824219 180.222656 345.234375 180.132812 345.679688 179.871094 C 346.015625 179.675781 346.285156 179.382812 346.539062 179.074219 C 347.027344 178.476562 347.457031 177.808594 348.171875 177.585938 C 349.460938 177.179688 350.96875 178.460938 352.128906 177.769531 C 352.871094 177.328125 353.933594 175.796875 355.394531 175.722656 C 355.574219 175.714844 355.742188 175.734375 355.910156 175.75 L 356.699219 178.128906 C 356.988281 178.996094 357.855469 179.542969 358.765625 179.425781 L 358.890625 176.992188 L 359.039062 176.789062 C 361.410156 175.34375 363.929688 179.410156 360.625 183.015625 L 364.523438 189.859375 C 365.140625 189.660156 365.699219 189.296875 366.007812 188.730469 C 366.300781 188.191406 366.429688 187.609375 367.097656 187.410156 C 367.859375 187.183594 368.6875 187.65625 369.457031 187.457031 C 371.199219 186.996094 369.976562 185.457031 370.144531 184.414062 C 370.328125 183.257812 371.847656 183.964844 372.1875 182.921875 C 372.324219 182.511719 372.195312 182.03125 371.878906 181.742188 C 371.726562 181.601562 371.535156 181.503906 371.40625 181.34375 C 371.023438 180.871094 371.40625 180.253906 371.828125 179.96875 C 372.261719 179.667969 372.804688 179.519531 373.167969 179.132812 C 373.667969 178.59375 373.667969 177.722656 373.335938 177.066406 C 373.003906 176.410156 372.40625 175.929688 371.789062 175.527344 C 371.453125 175.308594 371.09375 175.09375 370.886719 174.75 C 370.320312 173.816406 371.175781 172.648438 371.105469 171.558594 C 371.054688 170.746094 370.417969 170.007812 369.621094 169.839844 C 369.136719 169.738281 368.628906 169.828125 368.144531 169.734375 C 367.660156 169.644531 367.289062 169.59375 367.257812 169.101562 C 367.183594 167.988281 366.972656 166.664062 365.960938 166.203125 C 365.296875 165.898438 364.53125 166.089844 363.816406 166.226562 C 362.007812 166.574219 361.90625 165.753906 360.890625 164.617188 C 359.503906 163.066406 358.191406 165.613281 356.988281 164.75 C 356.710938 164.550781 356.527344 164.253906 356.285156 164.015625 C 355.003906 162.761719 353.234375 163.78125 352.386719 164.980469 C 352.0625 165.441406 351.730469 165.996094 351.175781 166.089844 C 350.664062 166.175781 350.191406 165.820312 349.703125 165.644531 C 348.59375 165.25 347.222656 165.917969 346.851562 167.035156 C 346.679688 167.554688 346.6875 168.164062 346.328125 168.578125 C 345.703125 169.300781 344.382812 168.972656 343.734375 169.683594 C 342.878906 170.621094 343.777344 172.070312 342.804688 173.03125 C 342.140625 173.691406 341.476562 174.269531 341.464844 175.285156 C 341.457031 176.136719 341.96875 176.914062 342.632812 177.445312 Z M 387.964844 335.847656 L 382.535156 343.34375 C 381.910156 344.207031 380.910156 344.71875 379.847656 344.71875 L 375.117188 344.71875 C 374.6875 345.179688 374.234375 345.621094 373.75 346.039062 L 371.800781 347.726562 C 371.6875 347.820312 371.625 347.960938 371.625 348.109375 L 371.625 350.855469 C 371.625 351.140625 371.867188 351.371094 372.152344 351.359375 L 382.984375 350.996094 C 383.269531 350.988281 383.523438 350.84375 383.679688 350.613281 L 387.039062 345.523438 C 387.0625 345.523438 387.070312 345.523438 387.09375 345.523438 L 388.570312 348.265625 C 388.65625 348.441406 388.867188 348.507812 389.042969 348.417969 L 392.515625 346.734375 C 392.691406 346.644531 392.769531 346.4375 392.691406 346.261719 C 391.835938 342.449219 390.335938 338.945312 387.964844 335.847656 Z M 350.308594 343.921875 L 347.152344 345.191406 L 342.921875 346.890625 C 341.738281 347.367188 340.453125 347.539062 339.179688 347.390625 L 336.039062 347.03125 L 332.675781 348.960938 C 332.480469 349.074219 332.355469 349.28125 332.355469 349.511719 L 332.355469 352.828125 C 332.355469 353.171875 332.640625 353.453125 332.984375 353.453125 L 343.578125 353.453125 C 343.710938 353.453125 343.839844 353.394531 343.925781 353.289062 L 347.304688 349.160156 C 347.378906 349.1875 347.378906 349.1875 347.453125 349.210938 L 347.453125 352.992188 C 347.453125 353.257812 347.660156 353.453125 347.914062 353.453125 L 350.515625 353.453125 C 350.769531 353.453125 350.964844 353.257812 350.976562 353.011719 C 351.492188 349.9375 351.457031 346.789062 351.097656 343.605469 Z M 378.132812 294.488281 C 378.402344 294.488281 378.621094 294.269531 378.621094 294 L 378.621094 250 C 378.621094 247.257812 378.265625 244.527344 377.570312 241.875 L 375.890625 235.488281 L 355.238281 235.488281 L 350.425781 239.582031 L 349.222656 240.609375 L 347.421875 262.367188 L 344.800781 293.972656 C 344.785156 294.253906 345.007812 294.488281 345.285156 294.488281 Z M 476.109375 177.578125 L 475.542969 179.179688 C 475.464844 179.390625 475.597656 179.625 475.816406 179.671875 C 477.074219 179.921875 478.335938 180.085938 479.601562 180.164062 C 481.824219 180.300781 484.0625 180.167969 486.316406 179.734375 C 486.78125 179.644531 487.183594 179.339844 487.40625 178.921875 L 489.402344 175.214844 C 488.964844 175.242188 488.578125 175.203125 488.214844 175.136719 C 484.3125 174.421875 484.546875 168.796875 487.976562 168.992188 L 488.304688 169.285156 C 488.894531 169.820312 489.683594 169.636719 490.359375 169.214844 C 492.636719 167.796875 495.558594 165.832031 496.675781 163.542969 C 496.679688 163.546875 496.679688 163.546875 496.679688 163.550781 C 496.683594 163.542969 496.683594 163.535156 496.683594 163.527344 C 497.605469 159.285156 495.042969 156.234375 490.230469 155.546875 C 482.4375 154.492188 475.246094 158.246094 473.207031 166.355469 C 472.613281 169.3125 473.59375 171.476562 475.132812 172.996094 C 476.355469 174.203125 476.671875 175.988281 476.109375 177.578125 Z M 518.273438 348.820312 L 510 343.039062 L 503.820312 236.269531 L 469.832031 236.269531 L 460.539062 342.671875 C 460.519531 342.871094 460.675781 343.039062 460.875 343.039062 L 461.488281 343.039062 L 453.214844 348.820312 C 452.523438 349.304688 452.109375 350.097656 452.109375 350.945312 L 452.109375 353.007812 C 452.109375 353.261719 452.316406 353.46875 452.566406 353.46875 L 465.316406 353.46875 C 465.605469 353.46875 465.886719 353.359375 466.101562 353.167969 L 467.074219 352.308594 C 467.335938 352.078125 467.726562 352.078125 467.984375 352.308594 L 468.945312 353.164062 C 469.164062 353.359375 469.445312 353.46875 469.738281 353.46875 L 474.105469 353.46875 C 474.359375 353.46875 474.566406 353.261719 474.566406 353.007812 C 475.085938 349.773438 475.167969 346.464844 474.566406 343.039062 L 475.402344 343.039062 C 475.574219 343.039062 475.722656 342.910156 475.742188 342.742188 L 485.121094 260.339844 C 485.144531 260.148438 485.308594 260.007812 485.5 260.019531 L 488.003906 260.167969 C 488.179688 260.175781 488.324219 260.316406 488.339844 260.492188 L 495.882812 342.734375 C 495.902344 342.90625 496.046875 343.039062 496.222656 343.039062 L 496.925781 343.039062 C 496.324219 346.464844 496.402344 349.773438 496.925781 353.007812 C 496.925781 353.261719 497.132812 353.46875 497.382812 353.46875 L 501.753906 353.46875 C 502.042969 353.46875 502.324219 353.359375 502.542969 353.164062 L 503.503906 352.308594 C 503.765625 352.078125 504.15625 352.078125 504.417969 352.308594 L 505.386719 353.167969 C 505.605469 353.359375 505.886719 353.46875 506.175781 353.46875 L 518.921875 353.46875 C 519.175781 353.46875 519.382812 353.261719 519.382812 353.007812 L 519.382812 350.945312 C 519.382812 350.097656 518.96875 349.304688 518.273438 348.820312 Z M 518.273438 348.820312 " fill-opacity="1" fill-rule="nonzero"/></g></svg>