<svg xmlns="http://www.w3.org/2000/svg" xmlns:xlink="http://www.w3.org/1999/xlink" width="840" zoomAndPan="magnify" viewBox="0 0 630 419.999985" height="560" preserveAspectRatio="xMidYMid meet" version="1.0"><defs><clipPath id="dd8f715784"><path d="M 107 68.738281 L 504 68.738281 L 504 306 L 107 306 Z M 107 68.738281 " clip-rule="nonzero"/></clipPath><clipPath id="27fcf27004"><path d="M 75.203125 78 L 554.453125 78 L 554.453125 333 L 75.203125 333 Z M 75.203125 78 " clip-rule="nonzero"/></clipPath><clipPath id="839ac73833"><path d="M 99 114 L 554.453125 114 L 554.453125 351.488281 L 99 351.488281 Z M 99 114 " clip-rule="nonzero"/></clipPath></defs><path fill="#fcd34f" d="M 551.363281 210.601562 L 553.179688 166.019531 C 553.226562 163.152344 552.523438 160.320312 551.140625 157.804688 L 546.164062 147.34375 C 545.546875 146.21875 544.183594 145.734375 542.992188 146.214844 L 542.066406 145.535156 C 541.367188 143.777344 540.238281 140.949219 539.488281 139.140625 C 541.816406 137.960938 543.050781 136.046875 543.347656 134.304688 L 543.425781 134.335938 C 545.324219 131.847656 545.550781 129.632812 545.796875 126.398438 C 545.882812 125.246094 545.496094 124.097656 544.789062 123.183594 C 539.503906 116.324219 533.667969 114.140625 525.609375 115.972656 C 523.402344 116.476562 520.707031 117.34375 520.707031 120.3125 C 520.707031 121.644531 520.929688 125.457031 520.910156 125.449219 L 520.929688 125.457031 C 520.804688 126.101562 520.667969 126.742188 520.570312 127.386719 C 520.445312 128.167969 520.09375 128.902344 519.539062 129.46875 C 515.257812 133.84375 515.933594 135.9375 519.558594 136.605469 C 519.753906 136.640625 519.902344 136.804688 519.90625 137.003906 C 519.925781 138.953125 520.125 140.960938 520.75 142.816406 C 521.003906 143.566406 521.710938 144.070312 522.5 144.070312 L 525.246094 144.070312 L 525.246094 152.359375 L 524.273438 154.039062 C 523.6875 154.277344 523.210938 154.722656 522.941406 155.292969 L 520.847656 159.976562 C 519.0625 163.964844 518.863281 167.578125 518.675781 171.949219 L 518.488281 176.378906 L 513.019531 180.324219 C 512.566406 180.617188 511.980469 180.582031 511.566406 180.242188 L 492.453125 163.96875 C 492.203125 163.765625 491.839844 163.800781 491.632812 164.046875 L 491.199219 163.652344 L 487.273438 156.511719 L 484.222656 151.496094 C 483.875 150.925781 483.027344 151.0625 482.851562 151.707031 C 482.625 152.542969 482.671875 153.515625 482.964844 154.464844 C 483.113281 154.960938 483.105469 155.488281 482.957031 155.980469 L 482.515625 157.429688 C 482.460938 157.597656 482.242188 157.636719 482.132812 157.496094 L 480.167969 154.953125 C 479.84375 154.535156 479.628906 154.035156 479.59375 153.503906 C 479.417969 151.089844 478.320312 149.144531 477.730469 148.351562 C 477.722656 148.335938 477.703125 148.332031 477.691406 148.316406 C 477.488281 148.066406 477.195312 147.933594 476.894531 147.933594 C 476.867188 147.929688 476.839844 147.945312 476.8125 147.945312 C 476.691406 147.953125 476.570312 147.964844 476.457031 148.011719 C 476.316406 148.070312 476.183594 148.160156 476.070312 148.28125 L 473.46875 151.109375 C 473.03125 151.582031 472.855469 152.242188 473.007812 152.871094 L 475.75 164.449219 C 475.925781 165.179688 476.34375 165.828125 476.941406 166.285156 L 484.292969 171.949219 L 483.925781 173.417969 C 483.730469 173.648438 483.746094 173.988281 483.957031 174.199219 L 508.199219 197.859375 L 496.605469 205.628906 C 496.484375 205.71875 496.457031 205.886719 496.542969 206.011719 L 496.578125 207.070312 L 495.242188 207.585938 L 492.058594 208.820312 L 484.535156 199.324219 C 484.421875 199.144531 484.1875 199.09375 484.007812 199.207031 L 462.523438 212.941406 C 462.34375 213.054688 462.292969 213.289062 462.40625 213.46875 L 478.457031 240.660156 C 478.570312 240.839844 478.804688 240.890625 478.984375 240.777344 L 501.273438 226.828125 C 501.453125 226.714844 501.503906 226.476562 501.390625 226.300781 L 500.351562 221.9375 L 504.351562 217.933594 L 505.628906 218.332031 C 505.71875 218.457031 505.890625 218.484375 506.015625 218.394531 L 517.15625 210.085938 L 502.609375 268.734375 C 502.152344 270.546875 502.183594 272.4375 502.710938 274.226562 L 520.359375 335.390625 C 520.402344 335.511719 520.527344 335.578125 520.648438 335.546875 L 524.746094 336.285156 L 511.316406 345.484375 C 510.535156 346.019531 510.074219 346.90625 510.074219 347.855469 L 510.511719 348.773438 C 510.511719 349.121094 510.789062 349.414062 511.136719 349.414062 L 518.109375 349 C 518.9375 349 519.753906 348.941406 520.570312 348.84375 L 525.214844 348.371094 L 525.117188 349.75 C 525.117188 349.996094 525.304688 350.183594 525.550781 350.183594 L 541.734375 350.320312 C 541.847656 350.320312 541.960938 350.273438 542.039062 350.195312 L 544.152344 348.035156 L 545.632812 349.847656 C 545.71875 349.960938 545.84375 350.015625 545.988281 350.015625 L 548.621094 349.804688 C 548.832031 349.804688 549.023438 349.660156 549.054688 349.445312 C 549.917969 344.828125 549.792969 341.039062 548.585938 336.890625 L 549.949219 336.890625 C 550.09375 336.890625 550.21875 336.765625 550.21875 336.621094 L 548.988281 279.460938 C 548.976562 278.386719 549.023438 277.3125 549.121094 276.25 L 551.226562 241.25 C 551.386719 239.628906 551.441406 238.007812 551.394531 236.375 L 551.355469 210.601562 Z M 530.878906 246.300781 C 530.808594 246.304688 530.738281 246.328125 530.675781 246.363281 C 530.738281 246.328125 530.808594 246.308594 530.878906 246.300781 Z M 534.082031 341.796875 C 533.523438 339.625 532.09375 335.011719 530.953125 333.144531 L 532.699219 332.671875 C 532.824219 332.640625 532.902344 332.515625 532.867188 332.394531 L 519.480469 274.78125 C 519.234375 273.597656 519.3125 272.367188 519.683594 271.214844 L 530.480469 246.613281 C 530.519531 246.496094 530.589844 246.417969 530.675781 246.363281 C 530.800781 246.289062 530.953125 246.28125 531.089844 246.332031 C 531.023438 246.304688 530.953125 246.296875 530.882812 246.300781 C 531.136719 246.28125 531.402344 246.453125 531.394531 246.769531 L 533.703125 279.535156 C 533.679688 280.734375 533.722656 281.917969 533.847656 283.105469 L 537.242188 335.773438 C 537.253906 335.90625 537.367188 336.019531 537.5 336.019531 L 539.257812 337.585938 L 539.257812 337.589844 Z M 361.128906 220.367188 C 361.765625 221.027344 361.25 222.082031 360.292969 222.066406 L 358.28125 222.039062 L 350.035156 221.921875 C 349.546875 221.914062 349.066406 221.949219 348.585938 222.019531 C 347.953125 222.117188 346.894531 222.230469 345.710938 222.164062 C 343.785156 222.21875 341.117188 221.835938 339.675781 219.601562 L 336.792969 217.820312 L 334.117188 216.164062 L 333.113281 217.03125 C 332.957031 217.269531 332.632812 217.324219 332.410156 217.144531 L 318.363281 203.960938 C 316.808594 202.742188 315.445312 201.300781 314.316406 199.675781 L 305.027344 186.550781 L 301.382812 201.820312 L 301.378906 201.820312 L 313.230469 274.488281 C 313.519531 276.078125 313.511719 277.707031 313.210938 279.292969 L 306.242188 330.800781 C 306.210938 330.976562 306.039062 331.085938 305.867188 331.046875 L 304.835938 331.660156 L 304.101562 333.941406 C 303.832031 334.761719 304.148438 335.65625 304.863281 336.136719 L 311.261719 340.429688 L 312.917969 342.417969 C 313.132812 342.5625 313.265625 342.796875 313.265625 343.066406 L 313.050781 345.710938 C 313.050781 345.921875 312.886719 346.101562 312.671875 346.101562 L 303.335938 346.078125 C 302.8125 346.101562 302.285156 346.023438 301.792969 345.84375 L 298.082031 344.257812 C 297.734375 344.132812 297.445312 343.875 297.296875 343.527344 L 296.273438 341.347656 C 296.183594 341.136719 295.519531 341.214844 295.382812 341.394531 L 294.453125 342.648438 C 294.382812 342.75 294.261719 342.792969 294.136719 342.773438 L 292.480469 342.375 C 292.449219 342.363281 292.414062 342.351562 292.394531 342.328125 C 292.292969 342.285156 292.226562 342.183594 292.226562 342.058594 C 292.226562 338.714844 291.386719 335.867188 293.027344 333.207031 C 293.164062 332.992188 293.273438 332.78125 293.375 332.546875 C 293.464844 332.332031 293.542969 332.097656 293.578125 331.863281 L 294.011719 329.167969 L 292.136719 327.550781 C 291.980469 327.515625 291.875 327.367188 291.894531 327.207031 L 298.273438 281.265625 C 298.414062 280.15625 298.414062 279.03125 298.269531 277.917969 L 291.398438 230.425781 C 291.355469 230.15625 291.042969 230.019531 290.816406 230.175781 L 286.992188 231.757812 C 286.894531 231.824219 286.832031 231.933594 286.828125 232.050781 L 283.589844 327.285156 C 283.585938 327.378906 283.507812 327.457031 283.414062 327.457031 L 281.121094 328.316406 L 280.582031 333.207031 C 280.515625 333.855469 280.714844 334.503906 281.152344 334.996094 L 284.921875 338.40625 L 287.507812 342.460938 C 287.867188 342.851562 288.054688 343.367188 288.054688 343.890625 L 288.128906 345.488281 C 288.128906 345.84375 287.839844 346.136719 287.480469 346.136719 L 276.417969 345.910156 C 276.074219 345.910156 275.75 345.789062 275.492188 345.574219 L 273.066406 343.535156 C 272.886719 343.386719 272.699219 343.28125 272.492188 343.203125 C 272.46875 343.195312 272.445312 343.179688 272.421875 343.171875 C 272.414062 343.171875 272.40625 343.171875 272.398438 343.167969 L 271.789062 343.601562 C 271.523438 343.789062 271.191406 343.859375 270.875 343.796875 L 269.128906 343.082031 C 269.011719 343.074219 268.914062 342.980469 268.902344 342.863281 C 268.582031 339.234375 268.917969 336.875 269.699219 334.503906 C 269.699219 334.429688 269.421875 331.339844 269.148438 328.316406 L 267.214844 327.730469 C 267.117188 327.730469 267.035156 327.652344 267.035156 327.550781 L 268.269531 229.992188 C 268.269531 227.566406 268.460938 225.144531 268.84375 222.75 L 271.488281 202.238281 L 270.324219 173.9375 L 262.410156 189 C 262.144531 189.542969 261.746094 190.011719 261.253906 190.363281 L 259.167969 192.195312 C 258.054688 192.992188 256.59375 193.101562 255.371094 192.484375 L 251.253906 189.964844 C 250.105469 189.382812 249.34375 188.238281 249.253906 186.949219 L 249.195312 184.492188 C 249.140625 183.726562 249.328125 182.960938 249.734375 182.304688 L 262.460938 161.816406 C 260.265625 148.238281 269.789062 141.164062 276.054688 137.726562 L 275.394531 134.023438 C 275.238281 133.308594 275.488281 132.457031 276.207031 132.300781 L 280.921875 131.691406 C 281.574219 123.957031 286.855469 121.644531 293.582031 121.835938 C 295.957031 121.90625 298.242188 122.355469 300.21875 123.15625 L 300.222656 123.15625 C 300.226562 123.15625 300.230469 123.160156 300.234375 123.160156 C 300.578125 123.300781 300.910156 123.453125 301.234375 123.613281 C 301.28125 123.636719 301.324219 123.660156 301.371094 123.679688 C 301.644531 123.820312 301.914062 123.972656 302.179688 124.125 C 306.664062 126.757812 308.714844 129.574219 306.144531 135.578125 C 306.085938 135.921875 306.039062 136.265625 305.964844 136.605469 C 305.851562 137.144531 305.851562 137.699219 306.015625 138.226562 C 307.746094 143.707031 305.910156 143.839844 303.363281 143.648438 C 302.972656 144.773438 302.367188 145.867188 301.769531 146.792969 C 306.597656 151.507812 311.550781 156.792969 310.605469 165.167969 L 320.308594 188.121094 C 321.246094 190.246094 322.566406 192.195312 324.210938 193.859375 L 339.722656 206.242188 C 339.890625 206.398438 339.910156 206.65625 339.777344 206.84375 L 339.890625 207.445312 L 341.289062 208.617188 L 345.835938 212.421875 C 346.574219 213.039062 347.464844 213.472656 348.429688 213.683594 L 354.972656 215.113281 C 355.871094 215.308594 356.683594 215.753906 357.300781 216.394531 Z M 361.128906 220.367188 " fill-opacity="1" fill-rule="nonzero"/><path fill="#e67d22" d="M 164.375 181.953125 L 145.34375 149.242188 C 145.21875 149.03125 144.949219 148.960938 144.738281 149.097656 L 143.804688 149.195312 L 143.804688 149.191406 L 143.808594 149.191406 L 141.816406 143.816406 C 141.773438 143.699219 141.714844 143.589844 141.660156 143.480469 C 141.621094 143.40625 141.597656 143.328125 141.554688 143.257812 L 140.867188 142.082031 L 139.347656 139.484375 C 139.207031 139.242188 138.988281 139.105469 138.757812 139.042969 C 138.265625 138.90625 137.6875 139.15625 137.550781 139.734375 C 137.476562 140.070312 137.425781 140.394531 137.390625 140.703125 C 137.28125 141.65625 137.332031 142.382812 137.335938 142.394531 L 137.128906 142.273438 L 136.703125 142.023438 C 136.824219 139.984375 136.671875 138.019531 136.292969 136.117188 C 136.171875 135.484375 136.023438 134.859375 135.851562 134.242188 C 135.761719 133.941406 135.875 133.625 136.121094 133.425781 C 138.386719 131.53125 136.996094 129.496094 134.835938 127.921875 C 134.191406 127.449219 133.484375 127.019531 132.777344 126.644531 C 132.652344 126.578125 132.550781 126.480469 132.480469 126.355469 C 132.480469 126.351562 132.476562 126.351562 132.472656 126.34375 C 132.261719 125.964844 132.027344 125.597656 131.804688 125.214844 L 131.8125 125.207031 L 131.8125 125.203125 C 131.8125 123.75 130.949219 122.578125 130.539062 121.46875 C 128.660156 116.414062 124.757812 116.570312 119.433594 117.777344 C 111.425781 119.589844 104.058594 126.003906 111.144531 137.21875 L 111.199219 137.195312 C 111.199219 137.195312 111.203125 137.195312 111.203125 137.199219 C 111.445312 138.882812 112.664062 140.519531 114.714844 141.171875 C 115.164062 141.316406 115.640625 141.429688 116.167969 141.46875 L 116.171875 141.46875 L 116.1875 141.472656 L 114.542969 145.226562 L 108.210938 151.769531 L 103.738281 153.875 C 99.175781 156.054688 95.394531 159.589844 92.925781 163.996094 L 77.953125 191.5 C 77.183594 192.863281 77.050781 194.484375 77.5625 195.953125 L 78.867188 200.410156 C 79.515625 202.253906 81.125 203.609375 83.050781 203.945312 L 102.242188 200.34375 L 104.488281 221.050781 L 103.476562 330.816406 C 103.476562 330.914062 103.554688 330.992188 103.65625 330.992188 L 105.355469 330.992188 L 100.71875 340.488281 C 100.382812 341.191406 100.335938 341.996094 100.570312 342.734375 L 100.882812 343.753906 C 101.207031 344.761719 102.136719 345.441406 103.199219 345.441406 L 112.726562 345.878906 C 113.5 345.878906 114.226562 345.511719 114.675781 344.882812 L 116.015625 343.0625 C 116.507812 342.390625 116.699219 341.5625 116.574219 340.757812 L 114.742188 331.480469 L 116.027344 331.480469 C 116.128906 331.480469 116.207031 331.414062 116.207031 331.3125 L 124.296875 236.765625 C 124.308594 236.632812 124.398438 236.5 124.53125 236.441406 L 126.449219 235.5625 C 126.648438 235.484375 126.882812 235.574219 126.960938 235.785156 L 142.597656 272.585938 C 143.066406 273.90625 143.257812 275.324219 143.144531 276.722656 L 137.503906 332.429688 C 137.484375 332.753906 137.742188 333.042969 138.074219 333.042969 L 138.691406 333.042969 C 137.808594 336.21875 137.488281 339.417969 138.257812 343.078125 C 138.371094 343.613281 138.851562 343.984375 139.398438 343.984375 L 162.160156 344.574219 C 162.785156 344.574219 163.289062 344.070312 163.289062 343.453125 L 163.484375 341.925781 C 163.484375 341.5 163.238281 341.109375 162.855469 340.917969 L 148.617188 333.800781 L 150.324219 333.332031 C 150.601562 333.332031 150.847656 333.117188 150.882812 332.828125 L 157.566406 276.328125 C 157.824219 274.234375 157.667969 272.109375 157.097656 270.074219 L 142.746094 221.050781 L 145.273438 184.410156 L 149.835938 189.113281 C 150.574219 190.007812 151.421875 190.789062 152.363281 191.449219 L 156.890625 194.617188 C 157.417969 194.984375 158.113281 195.03125 158.683594 194.726562 L 164.128906 190.980469 C 164.742188 190.664062 165.113281 190.015625 165.066406 189.324219 L 164.621094 182.734375 C 164.609375 182.457031 164.519531 182.1875 164.375 181.953125 Z M 96.800781 185.183594 L 97.835938 183.195312 L 97.824219 183.21875 L 98.550781 181.820312 L 98.550781 181.824219 L 99.054688 186.585938 L 97.617188 186.753906 L 97.625 186.753906 L 95.878906 186.957031 Z M 312.070312 163.9375 L 312.054688 163.902344 C 312.019531 163.8125 311.976562 163.726562 311.929688 163.644531 C 311.5625 162.839844 311.113281 162.082031 310.613281 161.363281 C 310.292969 160.90625 309.957031 160.460938 309.59375 160.046875 C 308.273438 158.523438 306.652344 157.261719 304.816406 156.355469 L 303.433594 155.667969 L 297.984375 152.976562 L 297.980469 152.980469 L 297.878906 148.851562 L 299.164062 149.140625 C 299.625 149.242188 300.101562 149.082031 300.394531 148.710938 C 300.5625 148.5 300.769531 148.234375 300.988281 147.929688 C 301.234375 147.59375 301.5 147.210938 301.769531 146.792969 C 302.3125 147.152344 302.859375 147.535156 303.40625 147.929688 C 306.199219 149.953125 308.929688 152.464844 310.582031 155.667969 C 311.796875 158.023438 312.429688 160.753906 312.070312 163.9375 Z M 275.566406 138 L 275.824219 139.179688 C 275.664062 139.484375 275.53125 139.804688 275.449219 140.144531 L 274.121094 145.773438 C 273.992188 146.3125 273.738281 146.8125 273.375 147.226562 L 272.757812 147.929688 L 271.464844 149.414062 L 270.230469 148.40625 C 270.007812 148.222656 269.679688 148.277344 269.527344 148.523438 L 262.265625 160.28125 L 261.175781 162.042969 C 259.5 151.683594 265.015625 144.703125 270.507812 140.449219 C 272.214844 139.128906 273.917969 138.066406 275.402344 137.253906 Z M 298.765625 135.195312 C 295.785156 135.804688 292.445312 136.160156 289.316406 136.011719 L 289.074219 134.894531 L 288.933594 134.257812 L 288.363281 131.636719 L 288.136719 130.617188 C 288.058594 130.25 287.832031 129.957031 287.535156 129.773438 C 287.253906 129.601562 286.90625 129.527344 286.558594 129.605469 L 281.035156 130.8125 L 279.859375 131.070312 C 280.507812 123.332031 287.390625 120.191406 294.117188 120.386719 C 296.488281 120.453125 298.777344 120.90625 300.753906 121.703125 C 300.761719 121.707031 300.765625 121.707031 300.769531 121.710938 C 301.109375 121.851562 301.445312 122.003906 301.769531 122.164062 C 301.816406 122.183594 301.859375 122.207031 301.902344 122.230469 C 302.179688 122.371094 302.449219 122.519531 302.710938 122.675781 C 307.199219 125.308594 309.714844 130.058594 306.144531 135.578125 C 306.289062 134.730469 306.398438 133.875 306.453125 133.003906 C 306.464844 132.859375 306.480469 132.714844 306.488281 132.570312 C 305.476562 133.191406 303.953125 133.820312 302.113281 134.367188 C 301.839844 134.449219 301.554688 134.527344 301.265625 134.605469 C 300.476562 134.820312 299.632812 135.015625 298.765625 135.195312 Z M 298.765625 135.195312 " fill-opacity="1" fill-rule="nonzero"/><g clip-path="url(#dd8f715784)"><path fill="#e3efd1" d="M 370.375 147.289062 L 370.375 112.855469 C 370.375 112.5 370.085938 112.214844 369.730469 112.214844 L 271.152344 112.214844 C 270.796875 112.214844 270.507812 112.5 270.507812 112.855469 L 270.507812 140.449219 C 272.214844 139.128906 273.917969 138.066406 275.402344 137.253906 L 274.597656 133.578125 C 274.441406 132.863281 274.894531 132.152344 275.613281 131.996094 L 279.859375 131.070312 C 280.507812 123.332031 287.390625 120.191406 294.117188 120.386719 C 296.488281 120.453125 298.777344 120.90625 300.753906 121.703125 C 300.761719 121.707031 300.765625 121.707031 300.769531 121.710938 C 301.109375 121.851562 301.445312 122.003906 301.769531 122.164062 C 301.816406 122.183594 301.859375 122.207031 301.902344 122.230469 C 302.179688 122.371094 302.449219 122.519531 302.710938 122.675781 C 307.199219 125.308594 309.714844 130.058594 306.144531 135.578125 C 306.085938 135.921875 306.039062 136.265625 305.964844 136.605469 C 305.851562 137.144531 305.851562 137.699219 306.015625 138.226562 C 307.746094 143.707031 305.910156 143.839844 303.363281 143.648438 C 302.972656 144.773438 302.367188 145.867188 301.769531 146.792969 C 302.3125 147.152344 302.859375 147.535156 303.40625 147.929688 L 369.730469 147.929688 C 370.085938 147.929688 370.375 147.644531 370.375 147.289062 Z M 357.0625 136.472656 L 323.84375 136.472656 L 323.84375 134.234375 L 357.0625 134.234375 Z M 357.0625 126.515625 L 323.84375 126.515625 L 323.84375 124.277344 L 357.0625 124.277344 Z M 305.050781 190.367188 L 305.765625 191.386719 L 304.898438 191.386719 Z M 351.042969 188.648438 C 351.203125 188.324219 351.53125 188.121094 351.890625 188.121094 L 370.375 188.230469 L 370.375 156.3125 C 370.375 155.957031 370.085938 155.667969 369.730469 155.667969 L 310.582031 155.667969 C 311.796875 158.023438 312.429688 160.753906 312.070312 163.9375 L 321.695312 185.691406 C 322.628906 187.800781 323.933594 189.730469 325.5625 191.386719 L 349.707031 191.386719 Z M 323.84375 167.734375 L 357.0625 167.734375 L 357.0625 169.972656 L 323.84375 169.972656 Z M 323.84375 179.925781 L 323.84375 177.691406 L 357.0625 177.691406 L 357.0625 179.925781 Z M 273.269531 104.476562 L 371.851562 104.476562 C 372.207031 104.476562 372.496094 104.1875 372.496094 103.832031 L 372.496094 69.402344 C 372.496094 69.046875 372.207031 68.757812 371.851562 68.757812 L 273.269531 68.757812 C 272.914062 68.757812 272.628906 69.046875 272.628906 69.402344 L 272.628906 103.832031 C 272.628906 104.1875 272.914062 104.476562 273.269531 104.476562 Z M 323.84375 80.824219 L 357.0625 80.824219 L 357.0625 83.0625 L 323.84375 83.0625 Z M 323.84375 90.777344 L 357.0625 90.777344 L 357.0625 93.015625 L 323.84375 93.015625 Z M 289.359375 87.78125 C 287.824219 86.941406 286.773438 85.328125 286.773438 83.457031 C 286.773438 80.71875 288.992188 78.5 291.730469 78.5 C 294.46875 78.5 296.6875 80.71875 296.6875 83.457031 C 296.6875 85.328125 295.636719 86.941406 294.101562 87.78125 C 297.3125 88.792969 299.636719 91.792969 299.636719 95.339844 L 283.820312 95.339844 C 283.820312 91.792969 286.152344 88.792969 289.359375 87.78125 Z M 396.039062 191.386719 L 499.417969 191.386719 L 482.765625 174.609375 C 482.554688 174.398438 482.539062 174.058594 482.730469 173.824219 L 484.292969 171.949219 L 477.691406 166.867188 L 477.691406 179.058594 L 394.542969 179.058594 L 394.542969 121.144531 L 404.238281 121.144531 L 404.238281 176.820312 L 412.90625 176.820312 L 412.90625 141.113281 L 422.601562 141.113281 L 422.601562 176.820312 L 431.269531 176.820312 L 431.269531 127.625 L 440.964844 127.625 L 440.964844 176.820312 L 449.632812 176.820312 L 449.632812 141.113281 L 459.328125 141.113281 L 459.328125 176.820312 L 467.996094 176.820312 L 467.996094 117.023438 L 477.691406 117.023438 L 477.691406 148.316406 C 477.703125 148.332031 477.722656 148.335938 477.730469 148.351562 C 478.320312 149.144531 479.417969 151.089844 479.59375 153.503906 C 479.628906 154.035156 479.84375 154.535156 480.167969 154.953125 L 482.132812 157.496094 C 482.242188 157.636719 482.460938 157.597656 482.515625 157.429688 L 482.957031 155.980469 C 483.105469 155.488281 483.113281 154.960938 482.964844 154.464844 C 482.671875 153.515625 482.625 152.542969 482.851562 151.707031 C 483.027344 151.0625 483.875 150.925781 484.222656 151.496094 L 487.273438 156.511719 L 491.199219 163.652344 L 491.644531 163.113281 C 491.851562 162.867188 492.214844 162.832031 492.464844 163.035156 L 502.613281 171.34375 L 502.613281 69.402344 C 502.613281 69.046875 502.324219 68.757812 501.96875 68.757812 L 383.289062 68.757812 C 382.933594 68.757812 382.644531 69.046875 382.644531 69.402344 L 382.644531 188.296875 L 395.875 188.375 C 396.574219 188.378906 397.03125 189.109375 396.722656 189.738281 Z M 478.085938 78.675781 C 478.417969 78.65625 478.695312 78.933594 478.695312 79.265625 L 478.695312 89.636719 C 478.695312 90.125 479.265625 90.398438 479.644531 90.085938 L 487.691406 83.53125 C 487.945312 83.324219 488.335938 83.363281 488.53125 83.628906 C 490.015625 85.660156 490.898438 88.160156 490.898438 90.863281 C 490.898438 98.058594 484.667969 103.800781 477.304688 102.988281 C 471.722656 102.371094 467.183594 97.835938 466.566406 92.25 C 465.777344 85.097656 471.175781 79.011719 478.085938 78.675781 Z M 442.832031 78.675781 C 443.003906 78.636719 443.179688 78.738281 443.230469 78.90625 L 446.097656 88.175781 C 446.136719 88.289062 446.230469 88.375 446.351562 88.398438 L 457.9375 90.652344 C 457.980469 90.660156 458.011719 90.699219 458.011719 90.746094 C 458.011719 96.058594 454.679688 100.917969 449.605469 102.5 C 441.09375 105.152344 433.261719 98.863281 433.261719 90.746094 C 433.261719 84.878906 437.347656 79.953125 442.832031 78.675781 Z M 394.542969 80.75 L 421.074219 80.75 L 421.074219 82.988281 L 394.542969 82.988281 Z M 394.542969 90.707031 L 421.074219 90.707031 L 421.074219 92.941406 L 394.542969 92.941406 Z M 394.542969 100.902344 L 421.074219 100.902344 L 421.074219 103.140625 L 394.542969 103.140625 Z M 193.578125 99.34375 C 193.578125 98.757812 194.117188 98.21875 194.871094 98.125 L 194.871094 101.175781 C 193.929688 100.613281 193.578125 100.027344 193.578125 99.34375 Z M 196.277344 109.160156 L 196.277344 105.730469 C 197.101562 106.296875 197.523438 106.976562 197.523438 107.703125 C 197.523438 108.433594 197.007812 108.972656 196.277344 109.160156 Z M 255 68.757812 L 154.695312 68.757812 C 154.339844 68.757812 154.050781 69.046875 154.050781 69.402344 L 154.050781 162.234375 L 165.660156 182.4375 C 165.804688 182.675781 165.890625 182.945312 165.910156 183.222656 L 166.347656 189.808594 C 166.390625 190.453125 166.066406 191.050781 165.523438 191.386719 L 251.9375 191.386719 L 250.367188 190.589844 C 249.214844 190.007812 248.457031 188.863281 248.367188 187.578125 L 248.144531 184.457031 C 248.089844 183.6875 248.277344 182.921875 248.683594 182.269531 L 255.644531 171 L 255.644531 69.402344 C 255.644531 69.046875 255.355469 68.757812 255 68.757812 Z M 194.964844 95.210938 L 194.964844 94.460938 C 194.964844 94.203125 195.175781 94.015625 195.410156 94.015625 L 195.808594 94.015625 C 196.042969 94.015625 196.253906 94.203125 196.253906 94.460938 L 196.253906 95.234375 C 198.367188 95.421875 199.988281 96.480469 200.621094 96.949219 C 200.90625 97.113281 200.859375 97.535156 200.761719 97.699219 L 199.402344 99.671875 C 199.214844 99.933594 198.957031 99.957031 198.765625 99.8125 C 198.601562 99.742188 197.359375 98.875 196.253906 98.429688 L 196.253906 101.738281 C 198.085938 102.46875 201.234375 104.042969 201.234375 107.234375 C 201.234375 109.652344 199.308594 111.789062 196.207031 112.074219 L 196.207031 114.515625 C 196.207031 114.75 195.996094 114.9375 195.761719 114.9375 L 195.363281 114.9375 C 195.128906 114.9375 194.917969 114.75 194.917969 114.515625 L 194.917969 112.074219 C 192.332031 111.882812 190.902344 110.78125 190.40625 110.289062 C 190.171875 110.054688 190.078125 109.960938 190.289062 109.628906 L 191.300781 107.84375 C 191.511719 107.46875 191.863281 107.304688 192.191406 107.539062 C 192.261719 107.585938 193.695312 108.550781 194.917969 108.949219 L 194.941406 105.144531 C 192.898438 104.324219 190.171875 102.65625 190.171875 99.859375 C 190.171875 97.511719 191.839844 95.515625 194.964844 95.210938 Z M 241.179688 114 L 225.40625 130.835938 C 225.199219 131.058594 224.910156 131.1875 224.609375 131.191406 C 224.296875 131.179688 224.011719 131.078125 223.800781 130.863281 L 212.890625 119.988281 L 194.828125 139.699219 C 194.621094 139.925781 194.328125 140.054688 194.019531 140.058594 C 194.015625 140.058594 194.011719 140.058594 194.003906 140.058594 C 193.703125 140.058594 193.410156 139.9375 193.199219 139.71875 L 181.816406 127.910156 L 172.742188 135.726562 L 172.742188 168.140625 L 230.160156 168.140625 L 226.164062 164.296875 C 225.71875 163.871094 225.707031 163.160156 226.132812 162.714844 C 226.5625 162.269531 227.273438 162.257812 227.714844 162.683594 L 233.804688 168.542969 C 234.03125 168.761719 234.15625 169.0625 234.148438 169.378906 C 234.140625 169.691406 234 169.988281 233.761719 170.195312 L 227.226562 175.871094 C 227.015625 176.058594 226.753906 176.148438 226.492188 176.148438 C 226.179688 176.148438 225.871094 176.015625 225.648438 175.761719 C 225.242188 175.296875 225.292969 174.589844 225.757812 174.183594 L 230.140625 170.378906 L 170.503906 170.378906 L 170.503906 98.835938 L 166.570312 102.925781 C 166.144531 103.371094 165.433594 103.382812 164.988281 102.957031 C 164.542969 102.527344 164.53125 101.820312 164.960938 101.375 L 170.816406 95.285156 C 171.035156 95.058594 171.328125 94.925781 171.652344 94.945312 C 171.964844 94.953125 172.261719 95.089844 172.46875 95.328125 L 178.144531 101.863281 C 178.550781 102.332031 178.5 103.039062 178.035156 103.441406 C 177.824219 103.625 177.5625 103.714844 177.300781 103.714844 C 176.988281 103.714844 176.679688 103.585938 176.457031 103.332031 L 172.742188 99.054688 L 172.742188 132.777344 L 181.15625 125.523438 C 181.605469 125.136719 182.28125 125.167969 182.691406 125.59375 L 193.984375 137.308594 L 212.03125 117.617188 C 212.238281 117.394531 212.527344 117.261719 212.832031 117.257812 C 213.144531 117.234375 213.429688 117.367188 213.644531 117.582031 L 224.5625 128.464844 L 239.546875 112.472656 C 239.96875 112.023438 240.675781 111.996094 241.125 112.421875 C 241.578125 112.84375 241.601562 113.550781 241.179688 114 Z M 215.792969 286.058594 L 229.199219 286.058594 L 228.976562 288.699219 L 203.507812 288.699219 L 203.285156 286.058594 Z M 404.355469 303.039062 L 428.738281 303.039062 L 428.046875 305.679688 L 405.050781 305.679688 Z M 387.527344 192.691406 L 354.839844 192.5 C 354.539062 192.5 354.261719 192.648438 354.128906 192.882812 L 345.703125 209.933594 C 345.453125 210.375 345.8125 210.894531 346.378906 210.914062 L 379.246094 211.996094 C 379.566406 212.003906 379.859375 211.847656 379.992188 211.59375 L 388.234375 193.65625 C 388.46875 193.207031 388.09375 192.695312 387.527344 192.691406 Z M 362.058594 199.609375 C 361.746094 200.390625 360.9375 201.046875 360.003906 201.375 C 361.496094 201.847656 362.203125 203.136719 361.617188 204.617188 L 353.429688 204.378906 C 354.015625 202.894531 355.71875 201.675781 357.546875 201.304688 C 356.894531 200.929688 356.617188 200.242188 356.925781 199.457031 C 357.378906 198.3125 358.894531 197.421875 360.3125 197.460938 C 361.730469 197.503906 362.511719 198.464844 362.058594 199.609375 Z M 376.164062 203.375 L 365.335938 203.179688 C 365.070312 203.171875 364.859375 202.953125 364.863281 202.6875 C 364.867188 202.421875 365.089844 202.210938 365.355469 202.214844 L 376.179688 202.414062 C 376.449219 202.417969 376.660156 202.636719 376.65625 202.902344 C 376.648438 203.167969 376.429688 203.378906 376.164062 203.375 Z M 377.898438 199.613281 L 367.074219 199.417969 C 366.804688 199.410156 366.59375 199.191406 366.601562 198.925781 C 366.605469 198.660156 366.824219 198.449219 367.089844 198.453125 L 377.917969 198.652344 C 378.183594 198.65625 378.394531 198.875 378.390625 199.140625 C 378.386719 199.40625 378.164062 199.617188 377.898438 199.613281 Z M 503.390625 227.460938 L 478.703125 243.070312 C 478.527344 243.183594 478.289062 243.128906 478.175781 242.949219 L 459.585938 213.546875 C 459.472656 213.367188 459.527344 213.132812 459.707031 213.019531 L 484.390625 197.410156 C 484.570312 197.296875 484.808594 197.351562 484.917969 197.53125 L 492.058594 208.820312 L 490.789062 209.3125 L 485.203125 211.25 C 484.351562 211.542969 484.300781 212.726562 485.125 213.09375 C 486.222656 213.585938 487.660156 213.976562 489.113281 213.640625 C 489.730469 213.5 490.382812 213.550781 490.945312 213.839844 C 492.140625 214.453125 493.28125 214.863281 494.519531 215.082031 C 495.027344 215.175781 495.5625 215.226562 496.117188 215.242188 L 500.351562 221.9375 L 503.511719 226.933594 C 503.625 227.113281 503.570312 227.347656 503.390625 227.460938 Z M 117.597656 163.914062 L 108.183594 151.78125 L 107.449219 150.835938 L 114.542969 145.226562 L 116.269531 147.773438 L 124.636719 160.125 L 119.886719 159.875 L 117.957031 163.875 C 117.890625 164.019531 117.695312 164.039062 117.597656 163.914062 Z M 131.339844 159.636719 L 127.382812 160.1875 L 132.636719 150.671875 L 134.535156 152.296875 L 135.964844 153.523438 L 134.476562 154.347656 C 134.300781 154.460938 134.234375 154.683594 134.316406 154.875 L 136.410156 159.683594 L 133.96875 163.859375 C 133.925781 163.929688 133.855469 163.964844 133.78125 163.964844 C 133.710938 163.960938 133.636719 163.925781 133.597656 163.851562 Z M 139.125 173.984375 L 142.328125 209.066406 C 142.359375 209.378906 142.125 209.660156 141.8125 209.6875 L 116.265625 212.019531 C 115.949219 212.050781 115.671875 211.820312 115.644531 211.503906 L 114.589844 199.960938 C 115.121094 199.851562 115.636719 199.652344 116.105469 199.355469 L 121.753906 195.769531 C 122.058594 195.578125 122.238281 195.238281 122.222656 194.875 L 121.945312 187.949219 C 121.917969 187.441406 121.503906 187.042969 120.996094 187.019531 C 119.867188 186.964844 118.640625 187.5625 118.027344 187.914062 C 117.75 188.070312 117.429688 188.117188 117.117188 188.054688 L 113.433594 187.3125 L 113.3125 185.972656 L 113.207031 184.847656 L 112.4375 176.421875 C 112.410156 176.109375 112.640625 175.832031 112.953125 175.800781 L 138.503906 173.46875 C 138.816406 173.4375 139.09375 173.671875 139.125 173.984375 Z M 139.125 173.984375 " fill-opacity="1" fill-rule="nonzero"/></g><g clip-path="url(#27fcf27004)"><path fill="#097575" d="M 357.0625 126.515625 L 323.84375 126.515625 L 323.84375 124.277344 L 357.0625 124.277344 Z M 357.0625 134.234375 L 323.84375 134.234375 L 323.84375 136.472656 L 357.0625 136.472656 Z M 357.0625 167.734375 L 323.84375 167.734375 L 323.84375 169.972656 L 357.0625 169.972656 Z M 357.0625 177.691406 L 323.84375 177.691406 L 323.84375 179.925781 L 357.0625 179.925781 Z M 294.101562 87.78125 C 295.636719 86.941406 296.6875 85.328125 296.6875 83.457031 C 296.6875 80.71875 294.46875 78.5 291.730469 78.5 C 288.992188 78.5 286.773438 80.71875 286.773438 83.457031 C 286.773438 85.328125 287.824219 86.941406 289.359375 87.78125 C 286.152344 88.792969 283.820312 91.792969 283.820312 95.339844 L 299.636719 95.339844 C 299.636719 91.792969 297.3125 88.792969 294.101562 87.78125 Z M 357.0625 80.824219 L 323.84375 80.824219 L 323.84375 83.0625 L 357.0625 83.0625 Z M 357.0625 90.777344 L 323.84375 90.777344 L 323.84375 93.015625 L 357.0625 93.015625 Z M 477.691406 166.867188 L 476.941406 166.285156 C 476.34375 165.828125 475.925781 165.179688 475.75 164.449219 L 473.007812 152.871094 C 472.855469 152.242188 473.03125 151.582031 473.46875 151.109375 L 476.070312 148.28125 C 476.515625 147.800781 477.28125 147.816406 477.691406 148.316406 L 477.691406 117.023438 L 467.996094 117.023438 L 467.996094 176.820312 L 459.328125 176.820312 L 459.328125 141.113281 L 449.632812 141.113281 L 449.632812 176.820312 L 440.964844 176.820312 L 440.964844 127.625 L 431.269531 127.625 L 431.269531 176.820312 L 422.601562 176.820312 L 422.601562 141.113281 L 412.90625 141.113281 L 412.90625 176.820312 L 404.238281 176.820312 L 404.238281 121.144531 L 394.542969 121.144531 L 394.542969 179.058594 L 477.691406 179.058594 Z M 421.074219 80.75 L 394.542969 80.75 L 394.542969 82.988281 L 421.074219 82.988281 Z M 421.074219 90.707031 L 394.542969 90.707031 L 394.542969 92.941406 L 421.074219 92.941406 Z M 421.074219 100.902344 L 394.542969 100.902344 L 394.542969 103.140625 L 421.074219 103.140625 Z M 449.605469 102.5 C 454.679688 100.917969 458.011719 96.058594 458.011719 90.746094 C 458.011719 90.699219 457.980469 90.660156 457.9375 90.652344 L 446.351562 88.398438 C 446.230469 88.375 446.136719 88.289062 446.097656 88.175781 L 443.230469 78.90625 C 443.179688 78.738281 443.003906 78.636719 442.832031 78.675781 C 437.347656 79.953125 433.261719 84.878906 433.261719 90.746094 C 433.261719 98.863281 441.09375 105.152344 449.605469 102.5 Z M 490.898438 90.863281 C 490.898438 88.160156 490.015625 85.660156 488.53125 83.628906 C 488.335938 83.363281 487.945312 83.324219 487.691406 83.53125 L 479.644531 90.085938 C 479.265625 90.398438 478.695312 90.125 478.695312 89.636719 L 478.695312 79.265625 C 478.695312 78.933594 478.417969 78.65625 478.085938 78.675781 C 471.175781 79.011719 465.777344 85.097656 466.566406 92.25 C 467.183594 97.835938 471.722656 102.371094 477.304688 102.988281 C 484.667969 103.800781 490.898438 98.058594 490.898438 90.863281 Z M 239.546875 112.472656 L 224.5625 128.464844 L 213.644531 117.582031 C 213.429688 117.367188 213.144531 117.234375 212.832031 117.257812 C 212.527344 117.261719 212.238281 117.394531 212.03125 117.617188 L 193.984375 137.308594 L 182.691406 125.59375 C 182.28125 125.167969 181.605469 125.136719 181.15625 125.523438 L 172.742188 132.777344 L 172.742188 99.054688 L 176.457031 103.332031 C 176.679688 103.585938 176.988281 103.714844 177.300781 103.714844 C 177.5625 103.714844 177.824219 103.625 178.035156 103.441406 C 178.5 103.039062 178.550781 102.332031 178.144531 101.863281 L 172.46875 95.328125 C 172.261719 95.089844 171.964844 94.953125 171.652344 94.945312 C 171.328125 94.925781 171.035156 95.058594 170.816406 95.285156 L 164.960938 101.375 C 164.53125 101.820312 164.542969 102.527344 164.988281 102.957031 C 165.433594 103.382812 166.144531 103.371094 166.570312 102.925781 L 170.503906 98.835938 L 170.503906 170.378906 L 230.140625 170.378906 L 225.757812 174.183594 C 225.292969 174.589844 225.242188 175.296875 225.648438 175.761719 C 225.871094 176.015625 226.179688 176.148438 226.492188 176.148438 C 226.753906 176.148438 227.015625 176.058594 227.226562 175.871094 L 233.761719 170.195312 C 234 169.988281 234.140625 169.691406 234.148438 169.378906 C 234.15625 169.0625 234.03125 168.761719 233.804688 168.542969 L 227.714844 162.683594 C 227.273438 162.257812 226.5625 162.269531 226.132812 162.714844 C 225.707031 163.160156 225.71875 163.871094 226.164062 164.296875 L 230.160156 168.140625 L 172.742188 168.140625 L 172.742188 135.726562 L 181.816406 127.910156 L 193.199219 139.71875 C 193.410156 139.9375 193.703125 140.058594 194.003906 140.058594 C 194.011719 140.058594 194.015625 140.058594 194.019531 140.058594 C 194.328125 140.054688 194.621094 139.925781 194.828125 139.699219 L 212.890625 119.988281 L 223.800781 130.863281 C 224.011719 131.078125 224.296875 131.179688 224.609375 131.191406 C 224.910156 131.1875 225.199219 131.058594 225.40625 130.835938 L 241.179688 114 C 241.601562 113.550781 241.578125 112.84375 241.125 112.421875 C 240.675781 111.996094 239.96875 112.023438 239.546875 112.472656 Z M 190.171875 99.859375 C 190.171875 97.511719 191.839844 95.515625 194.964844 95.210938 L 194.964844 94.460938 C 194.964844 94.203125 195.175781 94.015625 195.410156 94.015625 L 195.808594 94.015625 C 196.042969 94.015625 196.253906 94.203125 196.253906 94.460938 L 196.253906 95.234375 C 198.367188 95.421875 199.988281 96.480469 200.621094 96.949219 C 200.90625 97.113281 200.859375 97.535156 200.761719 97.699219 L 199.402344 99.671875 C 199.214844 99.933594 198.957031 99.957031 198.765625 99.8125 C 198.601562 99.742188 197.359375 98.875 196.253906 98.429688 L 196.253906 101.738281 C 198.085938 102.46875 201.234375 104.042969 201.234375 107.234375 C 201.234375 109.652344 199.308594 111.789062 196.207031 112.074219 L 196.207031 114.515625 C 196.207031 114.75 195.996094 114.9375 195.761719 114.9375 L 195.363281 114.9375 C 195.128906 114.9375 194.917969 114.75 194.917969 114.515625 L 194.917969 112.074219 C 192.332031 111.882812 190.902344 110.78125 190.40625 110.289062 C 190.171875 110.054688 190.078125 109.960938 190.289062 109.628906 L 191.300781 107.84375 C 191.511719 107.46875 191.863281 107.304688 192.191406 107.539062 C 192.261719 107.585938 193.695312 108.550781 194.917969 108.949219 L 194.941406 105.144531 C 192.898438 104.324219 190.171875 102.65625 190.171875 99.859375 Z M 196.277344 109.160156 C 197.007812 108.972656 197.523438 108.433594 197.523438 107.703125 C 197.523438 106.976562 197.101562 106.296875 196.277344 105.730469 Z M 193.578125 99.34375 C 193.578125 100.027344 193.929688 100.613281 194.871094 101.175781 L 194.871094 98.125 C 194.117188 98.21875 193.578125 98.757812 193.578125 99.34375 Z M 231.765625 261.179688 C 228.640625 263.355469 225.785156 266.582031 223.410156 270.4375 C 225.257812 262.414062 225.375 253.503906 223.09375 244.746094 C 223.039062 244.546875 222.765625 244.5 222.65625 244.675781 C 218.753906 250.792969 216.476562 258.792969 215.902344 267.367188 C 214.816406 259.632812 212.320312 251.953125 208.25 245.335938 C 208.152344 245.175781 207.894531 245.222656 207.863281 245.410156 C 206.5625 253.136719 207.195312 261.929688 209.417969 270.429688 C 207.113281 266.699219 204.253906 263.371094 200.902344 260.84375 C 200.785156 260.753906 200.613281 260.863281 200.640625 261.007812 C 201.859375 267.382812 205.058594 273.890625 209.375 279.273438 L 223.589844 279.273438 C 227.589844 274.519531 230.714844 268.277344 231.941406 261.292969 C 231.957031 261.199219 231.847656 261.125 231.765625 261.179688 Z M 433.242188 269.128906 C 428.503906 272.351562 424.390625 277.3125 421.433594 283.046875 C 424.519531 273.347656 425.171875 262.144531 422.1875 251.574219 C 422.15625 251.464844 422 251.441406 421.945312 251.539062 C 417.726562 258.773438 415.53125 268.164062 415.445312 277.875 C 413.789062 269.171875 410.253906 260.332031 404.761719 252.875 C 404.707031 252.800781 404.589844 252.832031 404.582031 252.921875 C 403.898438 261.449219 405.859375 271.359375 409.78125 280.703125 C 406.613281 276.410156 402.523438 272.648438 397.675781 270.058594 C 397.542969 269.988281 397.375 270.117188 397.417969 270.265625 C 399.398438 277.335938 404.394531 284.339844 410.867188 289.574219 L 422.804688 289.574219 C 428.101562 284.265625 432.195312 277.117188 433.480469 269.28125 C 433.5 269.15625 433.351562 269.054688 433.242188 269.128906 Z M 360.3125 197.460938 C 358.894531 197.421875 357.378906 198.3125 356.925781 199.457031 C 356.617188 200.242188 356.894531 200.929688 357.546875 201.304688 C 355.71875 201.675781 354.015625 202.894531 353.429688 204.378906 L 361.617188 204.617188 C 362.203125 203.136719 361.496094 201.847656 360.003906 201.375 C 360.9375 201.046875 361.746094 200.390625 362.058594 199.609375 C 362.511719 198.464844 361.730469 197.503906 360.3125 197.460938 Z M 377.917969 198.652344 L 367.089844 198.453125 C 366.824219 198.449219 366.605469 198.660156 366.601562 198.925781 C 366.59375 199.191406 366.804688 199.410156 367.074219 199.417969 L 377.898438 199.613281 C 378.164062 199.617188 378.386719 199.40625 378.390625 199.140625 C 378.394531 198.875 378.183594 198.65625 377.917969 198.652344 Z M 376.179688 202.414062 L 365.355469 202.214844 C 365.089844 202.210938 364.867188 202.421875 364.863281 202.6875 C 364.859375 202.953125 365.070312 203.171875 365.335938 203.179688 L 376.164062 203.375 C 376.429688 203.378906 376.648438 203.167969 376.65625 202.902344 C 376.660156 202.636719 376.449219 202.417969 376.179688 202.414062 Z M 552.71875 156.90625 L 546.753906 146.046875 C 546.136719 144.921875 544.773438 144.4375 543.582031 144.917969 L 542.066406 145.535156 L 525.246094 152.359375 L 523.460938 153.082031 C 522.875 153.320312 522.402344 153.765625 522.128906 154.335938 L 520.035156 159.019531 C 518.25 163.007812 517.238281 167.304688 517.050781 171.671875 L 516.863281 176.105469 L 512.902344 178.65625 C 512.453125 178.949219 511.867188 178.914062 511.449219 178.574219 L 502.613281 171.34375 L 492.464844 163.035156 C 492.214844 162.832031 491.851562 162.867188 491.644531 163.113281 L 491.199219 163.652344 L 484.292969 171.949219 L 482.730469 173.824219 C 482.539062 174.058594 482.554688 174.398438 482.765625 174.609375 L 499.417969 191.386719 L 506.15625 198.175781 L 495.882812 205.636719 C 495.761719 205.726562 495.734375 205.894531 495.824219 206.015625 L 496.578125 207.070312 L 504.351562 217.933594 L 505.378906 219.363281 C 505.46875 219.488281 505.640625 219.515625 505.761719 219.425781 L 514.753906 212.699219 L 516.90625 211.089844 L 518.246094 210.085938 L 554.050781 210.085938 L 554.757812 165.121094 C 554.800781 162.253906 554.097656 159.421875 552.71875 156.90625 Z M 165.910156 183.222656 L 166.347656 189.808594 C 166.390625 190.453125 166.066406 191.050781 165.523438 191.386719 C 165.484375 191.410156 165.457031 191.441406 165.414062 191.464844 L 158.027344 195.816406 C 157.457031 196.113281 156.765625 196.066406 156.238281 195.699219 L 151.714844 192.53125 C 150.769531 191.871094 149.917969 191.089844 149.179688 190.203125 L 146.570312 187.054688 L 144.617188 220.636719 L 102.636719 220.636719 L 100.675781 201.988281 L 81.621094 204.476562 C 79.6875 204.148438 78.085938 202.796875 77.429688 200.949219 L 75.703125 196.0625 C 75.1875 194.59375 75.324219 192.96875 76.089844 191.613281 L 92.074219 163.144531 C 94.550781 158.734375 98.324219 155.199219 102.886719 153.019531 L 107.449219 150.835938 L 108.183594 151.78125 L 117.597656 163.914062 C 117.695312 164.039062 117.890625 164.019531 117.957031 163.875 L 119.886719 159.875 L 124.636719 160.125 L 125.804688 161.394531 C 125.9375 161.535156 126.160156 161.535156 126.292969 161.390625 L 127.382812 160.1875 L 131.339844 159.636719 L 133.597656 163.851562 C 133.636719 163.925781 133.710938 163.960938 133.78125 163.964844 C 133.855469 163.964844 133.925781 163.929688 133.96875 163.859375 L 136.410156 159.683594 L 134.316406 154.875 C 134.234375 154.683594 134.300781 154.460938 134.476562 154.347656 L 135.964844 153.523438 L 140.554688 150.988281 L 140.902344 150.796875 L 143.804688 149.191406 L 143.808594 149.191406 L 145.5 148.253906 C 145.703125 148.121094 145.980469 148.1875 146.101562 148.402344 L 154.050781 162.234375 L 165.660156 182.4375 C 165.804688 182.675781 165.890625 182.945312 165.910156 183.222656 Z M 99.054688 186.589844 L 98.554688 181.816406 L 98.550781 181.824219 L 97.835938 183.195312 L 95.878906 186.949219 L 97.617188 186.753906 Z M 142.328125 209.066406 L 139.125 173.984375 C 139.09375 173.671875 138.816406 173.4375 138.503906 173.46875 L 112.953125 175.800781 C 112.640625 175.832031 112.410156 176.109375 112.4375 176.421875 L 113.207031 184.847656 L 105.742188 187.425781 L 103.738281 188.117188 L 104.933594 198.539062 L 106.378906 198.800781 L 112.890625 199.980469 C 113.457031 200.085938 114.035156 200.074219 114.589844 199.960938 L 115.644531 211.503906 C 115.671875 211.820312 115.949219 212.050781 116.265625 212.019531 L 141.8125 209.6875 C 142.125 209.660156 142.359375 209.378906 142.328125 209.066406 Z M 303.339844 201.820312 L 269.8125 201.820312 L 266.476562 222.679688 C 266.09375 225.074219 265.902344 227.496094 265.902344 229.921875 L 265.902344 328.140625 C 265.902344 328.238281 265.980469 328.316406 266.078125 328.316406 L 284.175781 328.316406 C 284.273438 328.316406 284.351562 328.242188 284.355469 328.148438 L 287.84375 233.167969 C 287.847656 233.046875 287.910156 232.9375 288.007812 232.871094 L 289.722656 231.703125 C 289.949219 231.546875 290.261719 231.683594 290.300781 231.957031 L 296.292969 277.96875 C 296.4375 279.078125 296.4375 280.203125 296.296875 281.3125 L 290.347656 328.039062 C 290.328125 328.195312 290.433594 328.34375 290.589844 328.382812 L 294.011719 329.167969 L 304.835938 331.660156 L 306.375 332.015625 C 306.550781 332.054688 306.722656 331.941406 306.753906 331.769531 L 316.660156 279.945312 C 316.964844 278.359375 316.96875 276.730469 316.679688 275.140625 Z M 274.597656 133.578125 C 274.441406 132.863281 274.894531 132.152344 275.613281 131.996094 L 279.859375 131.070312 L 281.035156 130.8125 L 286.558594 129.605469 C 286.90625 129.527344 287.253906 129.601562 287.535156 129.773438 C 287.832031 129.957031 288.058594 130.25 288.136719 130.617188 L 288.363281 131.636719 L 288.933594 134.257812 L 289.074219 134.894531 L 289.316406 136.011719 L 289.925781 138.792969 L 290.65625 142.132812 L 291.828125 147.496094 L 291.925781 147.929688 L 292.058594 148.550781 C 292.21875 149.269531 291.761719 149.976562 291.046875 150.132812 L 282.398438 152.023438 L 281.980469 151.5 L 279.757812 151.5 L 279.859375 151.289062 C 280.0625 150.863281 280.351562 150.484375 280.710938 150.175781 L 282.75 148.429688 L 283.332031 147.929688 L 283.851562 147.484375 C 284.179688 147.203125 284.464844 146.871094 284.691406 146.503906 L 287.410156 142.117188 L 287.523438 141.9375 C 287.78125 141.519531 287.835938 141.007812 287.671875 140.546875 L 287.558594 140.21875 L 287.050781 138.792969 L 285.929688 135.621094 L 285.808594 135.28125 L 285.710938 135.007812 C 285.707031 134.996094 285.699219 134.988281 285.695312 134.976562 C 285.636719 134.820312 285.554688 134.683594 285.457031 134.558594 C 285.382812 134.464844 285.296875 134.394531 285.207031 134.320312 C 284.804688 133.984375 284.261719 133.839844 283.726562 134 L 280.890625 134.851562 C 280.683594 134.914062 280.488281 135.011719 280.292969 135.105469 C 280.183594 135.15625 280.074219 135.210938 279.96875 135.273438 C 279.757812 135.398438 279.546875 135.535156 279.359375 135.699219 L 276.746094 137.992188 C 276.363281 138.328125 276.058594 138.734375 275.824219 139.179688 L 275.566406 138 L 275.402344 137.253906 Z M 279.136719 134.359375 C 279.015625 133.808594 278.46875 133.457031 277.917969 133.578125 C 277.367188 133.699219 277.015625 134.246094 277.136719 134.796875 C 277.257812 135.347656 277.804688 135.699219 278.355469 135.578125 C 278.90625 135.457031 279.257812 134.910156 279.136719 134.359375 Z M 279.136719 134.359375 " fill-opacity="1" fill-rule="nonzero"/></g><g clip-path="url(#839ac73833)"><path fill="#000000" d="M 229.734375 279.570312 L 229.199219 286.058594 L 203.285156 286.058594 L 202.75 279.570312 C 202.734375 279.410156 202.863281 279.273438 203.023438 279.273438 L 229.460938 279.273438 C 229.621094 279.273438 229.746094 279.410156 229.734375 279.570312 Z M 208.308594 346.371094 C 208.320312 346.515625 208.4375 346.625 208.582031 346.625 L 223.914062 346.625 C 224.054688 346.625 224.175781 346.515625 224.1875 346.371094 L 228.976562 288.699219 L 203.507812 288.699219 Z M 432.074219 289.574219 L 401.019531 289.574219 C 400.925781 289.574219 400.855469 289.664062 400.882812 289.753906 L 404.355469 303.039062 L 428.738281 303.039062 L 432.214844 289.753906 C 432.238281 289.664062 432.171875 289.574219 432.074219 289.574219 Z M 405.804688 308.570312 C 405.820312 308.632812 405.878906 308.675781 405.945312 308.675781 L 414.773438 308.675781 L 407.617188 345.855469 C 407.503906 346.460938 407.898438 347.046875 408.507812 347.164062 C 408.578125 347.175781 408.648438 347.183594 408.71875 347.183594 C 409.242188 347.183594 409.710938 346.8125 409.816406 346.277344 L 417.050781 308.675781 L 417.089844 308.675781 L 424.328125 346.277344 C 424.429688 346.8125 424.898438 347.183594 425.425781 347.183594 C 425.492188 347.183594 425.566406 347.175781 425.636719 347.164062 C 426.242188 347.046875 426.640625 346.460938 426.523438 345.855469 L 419.371094 308.675781 L 427.152344 308.675781 C 427.21875 308.675781 427.273438 308.632812 427.292969 308.570312 L 428.046875 305.679688 L 405.050781 305.679688 Z M 396.722656 189.738281 L 396.039062 191.386719 L 381.535156 226.277344 L 388.574219 226.277344 C 389.394531 226.277344 390.054688 226.941406 390.054688 227.757812 L 390.054688 234.980469 C 390.054688 235.796875 389.394531 236.460938 388.574219 236.460938 L 357.132812 236.460938 L 357.132812 338.96875 L 365.898438 338.96875 C 367.941406 338.96875 369.597656 340.625 369.597656 342.667969 L 369.597656 346.671875 L 335.707031 346.671875 L 335.707031 342.667969 C 335.707031 340.625 337.363281 338.96875 339.410156 338.96875 L 348.175781 338.96875 L 348.175781 236.460938 L 316.730469 236.460938 C 315.914062 236.460938 315.25 235.796875 315.25 234.980469 L 315.25 227.757812 C 315.25 226.941406 315.914062 226.277344 316.730469 226.277344 L 321.128906 226.277344 L 321.128906 221.785156 C 321.128906 221.511719 321.351562 221.289062 321.625 221.289062 L 335.097656 221.289062 L 336.792969 217.820312 L 339.675781 219.601562 C 341.117188 221.835938 343.785156 222.21875 345.710938 222.164062 C 346.894531 222.230469 347.953125 222.117188 348.585938 222.019531 C 349.066406 221.949219 349.546875 221.914062 350.035156 221.921875 L 358.28125 222.039062 L 360.292969 222.066406 C 361.25 222.082031 361.765625 221.027344 361.128906 220.367188 L 357.300781 216.394531 C 356.683594 215.753906 355.871094 215.308594 354.972656 215.113281 L 348.429688 213.683594 C 347.464844 213.472656 346.574219 213.039062 345.835938 212.421875 L 341.289062 208.617188 L 349.707031 191.386719 L 351.042969 188.648438 C 351.203125 188.324219 351.53125 188.121094 351.890625 188.121094 L 370.375 188.230469 L 382.644531 188.296875 L 395.875 188.375 C 396.574219 188.378906 397.03125 189.109375 396.722656 189.738281 Z M 387.527344 192.691406 L 354.839844 192.5 C 354.539062 192.5 354.261719 192.648438 354.128906 192.882812 L 345.703125 209.933594 C 345.453125 210.375 345.8125 210.894531 346.378906 210.914062 L 379.246094 211.996094 C 379.566406 212.003906 379.859375 211.847656 379.992188 211.59375 L 388.234375 193.65625 C 388.46875 193.207031 388.09375 192.695312 387.527344 192.691406 Z M 551.207031 277.171875 C 551.105469 278.238281 551.058594 279.304688 551.070312 280.375 L 551.695312 337.316406 C 551.699219 337.464844 551.578125 337.585938 551.429688 337.585938 L 550.0625 337.585938 C 551.269531 341.738281 550.988281 346.226562 550.132812 350.847656 C 550.09375 351.054688 549.910156 351.207031 549.699219 351.207031 L 545.4375 351.207031 C 545.300781 351.207031 545.171875 351.140625 545.089844 351.03125 L 544 349.570312 L 542.492188 351.078125 C 542.410156 351.160156 542.300781 351.207031 542.183594 351.207031 L 524.546875 351.207031 C 524.308594 351.207031 524.113281 351.011719 524.113281 350.769531 L 524.113281 349.769531 L 520.878906 350.179688 C 520.066406 350.285156 519.246094 350.335938 518.425781 350.335938 L 509.34375 350.324219 C 508.992188 350.324219 508.710938 350.039062 508.710938 349.691406 L 508.710938 347.644531 C 508.710938 346.699219 509.175781 345.8125 509.957031 345.277344 L 522.195312 336.878906 L 519.820312 337.527344 C 519.699219 337.558594 519.570312 337.488281 519.53125 337.363281 L 500.796875 273.742188 C 500.269531 271.957031 500.234375 270.0625 500.691406 268.257812 L 514.753906 212.699219 L 516.90625 211.089844 L 518.246094 210.085938 L 554.050781 210.085938 L 554.761719 237.335938 C 554.804688 238.960938 554.746094 240.585938 554.589844 242.207031 Z M 521.957031 275.644531 L 534.578125 333.269531 C 534.605469 333.390625 534.53125 333.515625 534.40625 333.546875 L 532.65625 334.027344 C 533.796875 335.886719 534.59375 337.929688 535.152344 340.101562 L 539.257812 337.589844 L 539.261719 337.585938 L 536.859375 337.585938 C 536.722656 337.585938 536.609375 337.484375 536.59375 337.347656 L 530.984375 282.921875 C 530.863281 281.734375 530.8125 280.542969 530.832031 279.347656 L 531.394531 246.773438 C 531.398438 246.542969 531.257812 246.390625 531.089844 246.332031 C 530.953125 246.28125 530.800781 246.289062 530.675781 246.363281 C 530.589844 246.417969 530.519531 246.5 530.480469 246.617188 L 522.160156 272.082031 C 521.785156 273.230469 521.714844 274.457031 521.957031 275.644531 Z M 520.929688 125.457031 C 521.140625 124.367188 521.382812 123.277344 521.664062 122.191406 L 533.386719 125.0625 C 534.296875 125.285156 534.949219 126.082031 534.992188 127.019531 L 535.179688 131.082031 L 535.238281 132.375 C 535.242188 132.484375 535.324219 132.574219 535.429688 132.597656 L 537.042969 132.933594 C 537.144531 132.953125 537.246094 132.90625 537.300781 132.816406 L 537.726562 132.085938 L 538.425781 130.886719 C 541.972656 129.246094 543.816406 131.558594 543.347656 134.304688 L 543.425781 134.335938 C 545.324219 131.847656 546.609375 129.085938 546.855469 125.851562 C 546.941406 124.699219 546.554688 123.550781 545.847656 122.636719 C 540.5625 115.777344 532.378906 113.332031 524.324219 115.167969 C 522.117188 115.667969 519.824219 117.257812 519.824219 120.226562 C 519.824219 121.558594 520.40625 124.507812 520.910156 125.449219 Z M 111.203125 137.199219 C 110.933594 135.359375 111.804688 133.484375 114.007812 132.828125 L 115.179688 134.464844 C 115.277344 134.601562 115.453125 134.652344 115.609375 134.59375 L 117.535156 133.863281 C 117.691406 133.804688 117.789062 133.644531 117.769531 133.476562 L 117.144531 128.246094 C 117.015625 127.167969 117.652344 126.144531 118.675781 125.78125 L 129.730469 121.882812 C 130.449219 122.976562 131.140625 124.089844 131.804688 125.21875 L 131.8125 125.207031 L 131.8125 125.203125 L 131.816406 125.199219 C 131.816406 123.75 131.582031 122.480469 131.171875 121.375 L 131.175781 121.371094 L 131.167969 121.363281 C 129.285156 116.300781 123.574219 114.765625 118.242188 115.972656 C 110.238281 117.785156 101.839844 127.996094 111.140625 137.21875 Z M 164.179688 340.886719 L 150.175781 333.894531 L 151.160156 333.894531 C 151.445312 333.894531 151.6875 333.683594 151.722656 333.398438 L 158.898438 276.195312 C 159.160156 274.101562 159.003906 271.980469 158.433594 269.949219 L 144.617188 220.636719 L 102.636719 220.636719 L 101.984375 331.90625 C 101.984375 332.003906 102.066406 332.085938 102.167969 332.085938 L 103.859375 332.085938 L 99.371094 341.585938 C 99.035156 342.289062 98.984375 343.09375 99.21875 343.832031 L 99.539062 344.847656 C 99.859375 345.855469 100.792969 346.539062 101.847656 346.539062 L 114.09375 346.539062 C 114.863281 346.539062 115.589844 346.171875 116.046875 345.546875 L 117.386719 343.714844 C 117.871094 343.050781 118.074219 342.222656 117.945312 341.414062 L 116.46875 332.085938 L 117.753906 332.085938 C 117.851562 332.085938 117.929688 332.015625 117.9375 331.921875 L 125.027344 237.691406 C 125.039062 237.550781 125.128906 237.425781 125.261719 237.367188 L 126.28125 236.933594 C 126.480469 236.847656 126.710938 236.945312 126.792969 237.144531 L 139.894531 273.402344 C 140.375 274.726562 140.5625 276.136719 140.453125 277.542969 L 135.988281 333.28125 C 135.964844 333.613281 136.226562 333.894531 136.558594 333.894531 L 137.167969 333.894531 C 136.28125 337.078125 136.320312 340.523438 137.09375 344.175781 C 137.203125 344.710938 137.6875 345.089844 138.230469 345.089844 L 163.679688 345.089844 C 164.300781 345.089844 164.804688 344.585938 164.804688 343.960938 L 164.804688 341.894531 C 164.804688 341.46875 164.5625 341.078125 164.179688 340.886719 Z M 278.355469 135.578125 C 278.90625 135.457031 279.257812 134.910156 279.136719 134.359375 C 279.015625 133.808594 278.46875 133.457031 277.917969 133.578125 C 277.367188 133.699219 277.015625 134.246094 277.136719 134.796875 C 277.257812 135.347656 277.804688 135.699219 278.355469 135.578125 Z M 311.261719 340.429688 C 310.957031 341.582031 307.144531 341.863281 303.351562 340.339844 C 298.074219 337.925781 293.027344 333.207031 293.027344 333.207031 C 291.386719 335.867188 291.507812 339.636719 291.507812 342.980469 C 291.585938 343.070312 291.609375 343.183594 291.675781 343.25 C 291.699219 343.269531 291.730469 343.28125 291.765625 343.292969 L 294.226562 343.773438 C 294.347656 343.796875 294.472656 343.753906 294.539062 343.652344 L 295.488281 342.332031 C 295.625 342.152344 295.902344 342.175781 295.992188 342.386719 L 297 344.613281 C 297.144531 344.960938 297.4375 345.21875 297.78125 345.339844 L 301.941406 346.851562 C 302.433594 347.03125 302.960938 347.109375 303.488281 347.085938 L 313.652344 346.683594 C 313.867188 346.683594 314.035156 346.503906 314.035156 346.292969 L 314.035156 342.710938 C 314.035156 342.445312 313.898438 342.207031 313.6875 342.0625 Z M 284.921875 338.40625 C 284.976562 339.355469 284.226562 340.152344 283.277344 340.152344 L 279.058594 340.152344 C 277.808594 340.152344 276.597656 339.691406 275.660156 338.851562 L 269.699219 334.503906 C 268.917969 336.875 268.179688 340.355469 268.503906 343.984375 C 268.511719 344.101562 268.609375 344.199219 268.726562 344.207031 L 270.472656 344.550781 C 270.789062 344.613281 271.121094 344.542969 271.386719 344.355469 L 271.996094 343.921875 L 272.003906 343.921875 C 272.007812 343.921875 272.011719 343.925781 272.019531 343.925781 C 272.042969 343.933594 272.0625 343.949219 272.089844 343.957031 C 272.296875 344.035156 272.484375 344.140625 272.660156 344.289062 L 275.066406 346.660156 C 275.324219 346.871094 275.648438 346.996094 275.996094 346.996094 L 288.332031 346.996094 C 288.691406 346.996094 288.980469 346.707031 288.980469 346.347656 L 288.980469 343.808594 C 288.980469 343.28125 288.789062 342.769531 288.433594 342.375 Z M 332.367188 217.859375 C 332.589844 218.039062 332.914062 217.980469 333.070312 217.746094 L 334.117188 216.164062 L 334.164062 216.097656 L 339.6875 207.753906 L 339.890625 207.445312 L 340.261719 206.886719 C 340.394531 206.695312 340.375 206.4375 340.207031 206.28125 L 325.597656 191.429688 C 325.585938 191.414062 325.574219 191.398438 325.5625 191.386719 C 323.933594 189.730469 322.628906 187.800781 321.695312 185.691406 L 312.070312 163.9375 L 312.054688 163.902344 C 312.019531 163.8125 311.976562 163.726562 311.929688 163.644531 C 311.5625 162.839844 311.113281 162.082031 310.613281 161.363281 C 310.292969 160.90625 309.957031 160.460938 309.59375 160.046875 C 308.273438 158.523438 306.652344 157.261719 304.816406 156.355469 L 303.433594 155.667969 L 297.984375 152.976562 L 297.980469 152.980469 L 297.03125 155.667969 L 295.421875 160.207031 L 293.460938 165.738281 L 293.433594 165.828125 L 293.328125 165.699219 L 285.3125 155.667969 L 282.398438 152.023438 L 281.980469 151.5 L 276.519531 151.5 L 275.832031 152.996094 L 273.648438 151.207031 L 271.464844 149.414062 L 270.230469 148.40625 C 270.007812 148.222656 269.679688 148.277344 269.527344 148.523438 L 262.265625 160.28125 L 261.175781 162.042969 L 255.644531 171 L 248.683594 182.269531 C 248.277344 182.921875 248.089844 183.6875 248.144531 184.457031 L 248.367188 187.578125 C 248.457031 188.863281 249.214844 190.007812 250.367188 190.589844 L 251.9375 191.386719 L 255.773438 193.332031 C 256.992188 193.949219 258.453125 193.839844 259.566406 193.042969 L 262.011719 191.296875 C 262.503906 190.945312 262.902344 190.476562 263.167969 189.929688 L 269.371094 177.324219 L 269.808594 201.820312 L 303.339844 201.820312 L 304.898438 191.386719 L 305.050781 190.367188 L 305.765625 191.386719 L 312.65625 201.238281 C 313.789062 202.859375 315.152344 204.300781 316.707031 205.523438 Z M 332.367188 217.859375 " fill-opacity="1" fill-rule="nonzero"/></g></svg>