<svg xmlns="http://www.w3.org/2000/svg" fill="currentColor" viewBox="0 0 16 16">
    <path d="M6.8,5.3l-1.2,2C5.5,7.6,5.7,7.9,6,7.9h0.8L6,9c-0.2,0.3,0,0.6,0.3,0.6h1.1l0.4-0.8H7.1L8,7.1H6.7l0.8-1.4L6.8,5.3z M8,7.1 h0.8v2.8H8l-0.4,0.8h1.2h0.8h0.8V9.9H9.6V7.1h0.8V6.3H8V7.1z M3.2,5.9v4.4H4V5.9H3.2z M11.2,5.9v0.4h-0.4v0.8h0.4v0.8h-0.8v0.8h0.8 v2H12v-2h1.2v1.2h-0.8c0.1,0.5,0.1,0.8,0.6,0.8c0.6,0,1-0.4,1-1v-1c0-0.4-0.4-0.8-0.8-0.8V7.1c0-0.4-0.4-0.8-0.8-0.8H12V5.9H11.2z M14,6.3c-0.2,0-0.4,0.2-0.4,0.4v0.4H14c0.2,0,0.4-0.2,0.4-0.4S14.2,6.3,14,6.3z M2,7.1v0.8c0,0.8-0.2,1.6-0.4,1.7l0.1,0.8 c1-0.1,1-1.9,1-2.5V7.1H2z M4.4,7.1v0.8c0,0.4,0,1.8,0.5,2.3l0.6-0.6c-0.1-0.1-0.3-1-0.3-1.7V7.1H4.4z M12,7.1h0.4v0.8H12V7.1z M6,9.9l-0.4,0.8h1.2l0.4-0.8H6z"/>
</svg>