<svg xmlns="http://www.w3.org/2000/svg" xmlns:xlink="http://www.w3.org/1999/xlink" width="840" zoomAndPan="magnify" viewBox="0 0 630 419.999985" height="560" preserveAspectRatio="xMidYMid meet" version="1.0"><defs><clipPath id="31372fad44"><path d="M 70.796875 66.585938 L 559 66.585938 L 559 353 L 70.796875 353 Z M 70.796875 66.585938 " clip-rule="nonzero"/></clipPath><clipPath id="3828b93c7e"><path d="M 99 118 L 541 118 L 541 353.085938 L 99 353.085938 Z M 99 118 " clip-rule="nonzero"/></clipPath></defs><path fill="#e67d22" d="M 451.269531 159.726562 L 429.207031 168.625 C 428.964844 168.722656 428.683594 168.601562 428.585938 168.351562 L 425.597656 164.691406 L 425.578125 164.738281 L 422.933594 168.753906 L 423.035156 169.898438 C 423.1875 170.027344 423.222656 170.246094 423.125 170.421875 L 408.972656 193.042969 C 407.863281 195.089844 405.71875 196.363281 403.390625 196.363281 L 398.894531 196.363281 C 397.371094 196.363281 395.902344 195.816406 394.746094 194.828125 L 388.339844 189.503906 L 384.667969 212.414062 L 399.34375 339.371094 C 399.375 339.609375 399.191406 339.816406 398.953125 339.816406 L 398.039062 339.816406 L 409.179688 346.902344 C 409.953125 347.335938 410.441406 348.164062 410.441406 349.066406 L 410.511719 350.414062 C 410.511719 350.695312 410.285156 350.925781 410 350.925781 L 391.859375 350.109375 C 391.664062 350.109375 391.480469 349.992188 391.402344 349.804688 L 389.921875 348.171875 C 389.835938 348.019531 389.617188 348.019531 389.53125 348.171875 L 387.320312 350.351562 C 387.230469 350.496094 387.070312 350.59375 386.894531 350.59375 L 383.894531 350.863281 C 383.613281 350.863281 383.382812 350.636719 383.382812 350.351562 L 383.929688 339.757812 L 383.121094 339.757812 C 382.914062 339.757812 382.742188 339.605469 382.71875 339.398438 L 369.207031 235.039062 L 350.234375 339.722656 C 350.203125 339.886719 350.070312 339.996094 349.910156 339.996094 L 349.15625 339.996094 C 349.84375 343.457031 349.886719 346.859375 349.355469 350.582031 C 349.308594 350.832031 349.101562 351.015625 348.84375 351.015625 L 345.425781 350.773438 C 345.253906 350.773438 345.089844 350.683594 344.992188 350.53125 L 343.324219 348.277344 C 343.226562 348.125 343.007812 348.125 342.921875 348.277344 L 341.460938 350.828125 C 341.375 350.980469 341.210938 351.078125 341.039062 351.078125 L 323.042969 350.835938 C 322.757812 350.835938 322.542969 350.609375 322.542969 350.335938 L 322.542969 349.101562 C 322.542969 347.9375 323.152344 346.847656 324.164062 346.25 L 334.832031 340.191406 L 334.550781 340.191406 L 350.742188 213.199219 L 348.03125 197.722656 L 345.132812 199.269531 C 343.152344 200.316406 341 201 338.777344 201.273438 L 335.042969 201.730469 C 333.957031 201.859375 332.898438 201.347656 332.332031 200.414062 L 328.367188 194.304688 C 327.898438 193.542969 327.832031 192.59375 328.179688 191.777344 L 339.816406 162.585938 C 341.515625 158.328125 343.195312 157.410156 347.355469 155.492188 L 355.113281 151.199219 L 359.417969 146.222656 L 360.5 142.785156 L 360.691406 142.183594 L 360.648438 142.152344 L 360.613281 142.128906 C 360.53125 142.101562 360.460938 142.058594 360.382812 142.03125 C 360.089844 141.921875 359.804688 141.808594 359.546875 141.671875 C 359.414062 141.601562 359.300781 141.515625 359.175781 141.4375 C 358.984375 141.316406 358.792969 141.199219 358.621094 141.0625 C 358.5 140.96875 358.398438 140.867188 358.289062 140.765625 C 358.136719 140.625 357.984375 140.488281 357.851562 140.339844 C 357.753906 140.226562 357.664062 140.113281 357.574219 139.996094 C 357.457031 139.839844 357.339844 139.6875 357.238281 139.527344 C 357.160156 139.402344 357.089844 139.277344 357.019531 139.148438 C 356.933594 138.988281 356.851562 138.828125 356.78125 138.660156 C 356.722656 138.527344 356.667969 138.390625 356.621094 138.253906 C 356.5625 138.09375 356.515625 137.933594 356.472656 137.773438 C 356.4375 137.628906 356.398438 137.484375 356.375 137.34375 C 356.347656 137.191406 356.332031 137.042969 356.316406 136.890625 C 356.300781 136.742188 356.28125 136.589844 356.28125 136.441406 C 356.277344 136.410156 356.273438 136.378906 356.273438 136.347656 C 356.273438 136.160156 356.289062 135.976562 356.308594 135.792969 C 356.3125 135.753906 356.308594 135.714844 356.3125 135.675781 C 356.3125 135.671875 356.3125 135.671875 356.3125 135.667969 C 353.070312 124.601562 360.925781 120.671875 368.792969 120.519531 C 374.78125 120.40625 380.457031 121.886719 380.457031 127.589844 C 380.457031 128.625 380.609375 129.730469 380.1875 130.902344 C 380.1875 130.90625 380.1875 130.90625 380.1875 130.90625 C 380.21875 131.929688 380.230469 132.929688 380.199219 133.898438 C 380.195312 133.933594 380.203125 133.972656 380.210938 134.007812 C 380.214844 134.03125 380.214844 134.058594 380.222656 134.082031 C 380.242188 134.136719 380.269531 134.191406 380.304688 134.238281 C 380.617188 134.640625 380.890625 135.042969 381.121094 135.433594 C 381.953125 136.851562 382.25 138.15625 381.964844 139.144531 C 381.960938 139.160156 381.953125 139.171875 381.949219 139.1875 C 381.753906 139.820312 381.3125 140.316406 380.617188 140.628906 C 380.265625 140.785156 379.855469 140.902344 379.367188 140.957031 C 379.308594 140.960938 379.253906 140.992188 379.210938 141.03125 C 379.179688 141.066406 379.152344 141.101562 379.140625 141.148438 C 378.957031 141.792969 378.746094 142.417969 378.523438 143.03125 C 378.433594 143.269531 378.339844 143.496094 378.246094 143.730469 C 378.035156 144.253906 377.820312 144.78125 377.574219 145.285156 C 377.441406 145.554688 377.234375 145.765625 376.992188 145.921875 C 376.707031 146.113281 376.367188 146.226562 376.011719 146.226562 L 375.648438 146.226562 L 375.746094 147.234375 L 375.835938 148.09375 L 375.835938 148.097656 L 380.292969 152.867188 L 387.222656 155.839844 C 391.351562 157.515625 394.703125 160.683594 396.617188 164.710938 L 402.914062 178.246094 C 403.109375 178.628906 403.652344 178.660156 403.902344 178.3125 L 414.660156 162.554688 C 414.8125 162.347656 415.128906 162.316406 415.3125 162.488281 L 415.964844 162.308594 L 416.714844 158.722656 L 417.3125 155.828125 C 417.445312 155.199219 417.769531 154.636719 418.234375 154.199219 C 418.277344 154.15625 418.316406 154.109375 418.359375 154.070312 L 419.976562 152.703125 L 420.679688 152.109375 L 416.316406 138.582031 C 416.21875 138.332031 416.335938 138.050781 416.585938 137.953125 L 439.058594 129.425781 C 439.308594 129.328125 439.582031 129.449219 439.679688 129.699219 L 451.542969 159.105469 C 451.640625 159.355469 451.519531 159.640625 451.269531 159.726562 Z M 250.539062 203.667969 C 250.886719 205.671875 250.726562 207.738281 250.0625 209.675781 L 248.667969 213.703125 C 248.242188 214.933594 247.621094 216.085938 246.828125 217.121094 L 240.84375 225.839844 L 242.6875 238.609375 C 243.425781 241.320312 243.828125 244.105469 243.875 246.914062 L 247.253906 331.738281 C 247.253906 331.933594 247.101562 332.097656 246.902344 332.097656 L 245.820312 333.097656 L 244.960938 338.964844 C 244.90625 339.332031 244.90625 339.703125 244.972656 340.0625 C 245.570312 343.675781 245.042969 346.335938 244.507812 350.296875 C 244.441406 350.765625 244.027344 351.125 243.5625 351.125 L 241.472656 351.957031 C 241.148438 351.957031 240.898438 351.695312 240.898438 351.371094 L 240.535156 347.324219 C 240.535156 347.097656 240.253906 346.988281 240.089844 347.160156 L 235.535156 351.371094 C 235.328125 351.597656 235.035156 351.730469 234.726562 351.730469 L 220.703125 351.871094 C 220.246094 351.871094 219.878906 351.5 219.878906 351.042969 L 220.222656 349.167969 C 220.222656 348.296875 220.679688 347.480469 221.429688 347.035156 L 224.441406 344.4375 L 232.074219 339.84375 C 232.519531 339.582031 232.792969 339.09375 232.792969 338.582031 L 232.792969 333.097656 L 231.660156 332.378906 C 231.476562 332.378906 231.324219 332.226562 231.3125 332.039062 L 226.507812 253.671875 C 226.496094 253.585938 225.597656 253.5625 225.597656 253.648438 L 219.527344 331.628906 C 219.515625 331.84375 219.332031 332.007812 219.125 332.007812 L 217.226562 333.097656 L 216.367188 338.964844 C 216.3125 339.332031 216.363281 339.699219 216.378906 340.0625 C 216.53125 344.523438 216.257812 346.496094 215.722656 350.457031 C 215.660156 350.925781 215.246094 351.285156 214.777344 351.285156 L 212.746094 351.726562 C 212.421875 351.726562 212.171875 351.464844 212.171875 351.136719 L 212.023438 346.660156 C 212.023438 346.429688 211.742188 346.324219 211.578125 346.496094 L 206.535156 350.746094 C 206.328125 350.976562 206.035156 351.105469 205.730469 351.105469 L 192.40625 351.285156 C 191.949219 351.285156 191.582031 350.914062 191.582031 350.457031 L 191.539062 349.035156 C 191.539062 348.164062 191.996094 347.347656 192.75 346.902344 L 195.847656 344.4375 L 203.476562 339.84375 C 203.925781 339.582031 204.195312 339.09375 204.195312 338.582031 L 204.195312 333.09375 L 203.359375 332.398438 C 203.132812 332.398438 202.945312 332.203125 202.957031 331.972656 L 205.582031 243.820312 C 205.625 241.894531 205.800781 239.980469 206.105469 238.085938 L 210.292969 214.644531 L 209.457031 209.855469 L 191.160156 217.648438 C 190.878906 217.757812 190.5625 217.613281 190.441406 217.332031 L 189.316406 217.3125 L 185.789062 220.6875 C 184.953125 221.480469 183.886719 221.96875 182.742188 222.089844 L 177.238281 222.621094 L 177.238281 222.625 L 172.796875 224.277344 L 171.398438 224.800781 C 171.265625 224.847656 171.128906 224.859375 170.992188 224.890625 C 170.003906 225.125 168.96875 224.925781 168.15625 224.304688 C 168.125 224.28125 168.089844 224.269531 168.058594 224.246094 L 164.625 221.523438 L 158.628906 216.769531 L 157.089844 217.335938 C 156.972656 217.519531 156.722656 217.574219 156.535156 217.464844 L 152.976562 215.003906 C 152.792969 214.886719 152.738281 214.644531 152.847656 214.460938 L 153.183594 213.90625 L 138.117188 204.488281 L 136.914062 214.449219 L 148.097656 278.96875 C 148.664062 282.34375 148.535156 285.792969 147.730469 289.113281 L 135.90625 341.140625 L 142.8125 346.144531 C 143.390625 346.578125 143.714844 347.253906 143.714844 347.972656 L 143.785156 349.945312 C 143.785156 350.25 143.546875 350.5 143.242188 350.5 L 136.089844 350.5 C 134.292969 350.5 132.742188 349.597656 131.085938 348.925781 L 127.378906 347.8125 C 127.390625 347.910156 127.421875 348.007812 127.421875 348.105469 L 127.148438 351.519531 C 127.148438 351.933594 126.8125 352.269531 126.398438 352.269531 L 110.570312 352.660156 C 110.351562 352.660156 110.15625 352.550781 110.046875 352.355469 L 108.890625 350.6875 C 108.769531 350.46875 108.464844 350.46875 108.34375 350.6875 L 107.441406 352.199219 C 107.332031 352.394531 107.136719 352.503906 106.917969 352.503906 L 103.277344 352.535156 C 103.003906 352.535156 102.753906 352.347656 102.679688 352.078125 C 101.699219 348.460938 102.824219 344.695312 103.835938 341.09375 L 101.878906 341.058594 C 101.703125 341.058594 101.574219 340.917969 101.582031 340.746094 L 108.640625 286.367188 C 108.695312 284.820312 108.652344 283.265625 108.523438 281.71875 L 102.839844 240.835938 C 102.710938 239.378906 102.65625 237.910156 102.65625 236.449219 L 102.289062 169.53125 C 102.289062 164.523438 103.964844 160.84375 107.675781 157.46875 L 111.015625 154.421875 L 114.492188 147.753906 L 114.496094 147.753906 L 114.949219 147.039062 L 116.417969 144.742188 C 114.90625 143.097656 114.097656 141.503906 113.789062 140.105469 C 113.140625 140.125 112.859375 139.355469 112.261719 138.929688 C 111.71875 138.558594 111.785156 138.132812 111.882812 137.492188 C 111.929688 137.195312 112.015625 136.773438 112.035156 136.464844 C 112.058594 135.867188 111.707031 135.292969 111.238281 134.914062 C 110.773438 134.53125 110.226562 134.25 109.78125 133.835938 C 109.007812 133.136719 109.171875 132.695312 109.269531 131.660156 C 109.367188 130.628906 109.964844 129.660156 110.847656 129.101562 C 111.457031 128.734375 112.363281 129.242188 112.832031 128.695312 C 113.59375 127.824219 113.320312 126.488281 113.605469 125.367188 C 113.953125 124.027344 114.53125 123.867188 115.902344 123.769531 C 116.761719 123.714844 117.644531 123.996094 118.480469 123.8125 C 119.898438 123.507812 120.003906 122.144531 121.015625 121.101562 C 122.070312 120.011719 123.59375 119.25 125.097656 119.511719 C 127.449219 119.914062 128.769531 122.15625 131.15625 122.125 C 132.167969 122.101562 133.167969 121.582031 134.148438 121.851562 C 135.769531 122.300781 136.269531 124.355469 137.847656 124.945312 C 138.238281 125.085938 138.664062 125.117188 139.035156 125.28125 C 140.207031 125.78125 139.925781 126.71875 139.824219 127.992188 C 139.738281 129.265625 139.871094 130.941406 140.65625 131.953125 C 140.960938 132.347656 141.386719 132.617188 141.765625 132.945312 C 142.667969 133.71875 143.390625 134.5 143.050781 135.640625 C 142.582031 137.21875 141.121094 137.710938 140.730469 139.367188 C 140.292969 139.0625 140.484375 138.542969 140.398438 138.019531 C 140.210938 136.976562 140.871094 135.933594 140.347656 134.957031 C 140.273438 134.8125 140.171875 134.683594 140.074219 134.5625 C 139.921875 134.398438 139.847656 134.246094 139.695312 134.09375 C 139.554688 133.953125 139.292969 133.855469 139.105469 133.78125 C 138.890625 133.691406 138.375 133.898438 138.15625 133.84375 C 138.167969 134.867188 138.136719 135.878906 138.015625 136.859375 C 138.003906 136.949219 138 137.042969 137.992188 137.132812 C 137.945312 137.769531 137.992188 138.414062 138.171875 139.023438 C 138.1875 139.070312 138.195312 139.121094 138.210938 139.167969 C 138.316406 139.480469 138.410156 139.78125 138.496094 140.070312 C 139.277344 142.703125 139.242188 144.332031 138.175781 145.078125 C 137.597656 145.480469 136.722656 145.632812 135.5 145.535156 C 135.371094 145.523438 135.242188 145.585938 135.164062 145.699219 C 135.160156 145.707031 135.148438 145.710938 135.144531 145.71875 C 135.039062 145.914062 134.917969 146.136719 134.796875 146.355469 C 134.503906 146.878906 134.1875 147.441406 133.867188 147.992188 C 133.601562 148.449219 133.339844 148.898438 133.105469 149.292969 C 132.949219 149.5625 132.734375 149.78125 132.5 149.972656 C 131.980469 150.394531 131.324219 150.628906 130.636719 150.574219 L 130.574219 152.554688 L 130.507812 154.851562 L 130.503906 154.851562 L 130.902344 160.898438 L 132.859375 164.640625 L 148.6875 177.792969 C 148.960938 178.035156 149.351562 178.085938 149.667969 177.914062 L 161.5625 171.402344 L 161.453125 171.238281 C 161.257812 170.945312 161.324219 170.542969 161.605469 170.335938 L 164.644531 167.667969 C 164.941406 167.4375 165.375 167.515625 165.59375 167.820312 L 166.632812 168.296875 L 169.019531 165.210938 L 172.519531 160.6875 C 172.519531 160.6875 172.519531 160.6875 172.523438 160.6875 C 172.75 160.394531 173.007812 160.113281 173.300781 159.875 C 173.304688 159.871094 173.304688 159.871094 173.304688 159.871094 L 175.914062 157.671875 C 176.4375 157.230469 177.28125 157.589844 177.261719 158.277344 C 177.242188 158.960938 177.019531 159.714844 176.421875 160.519531 C 176.339844 160.628906 176.296875 160.753906 176.238281 160.871094 C 176.085938 161.179688 175.976562 161.507812 175.960938 161.851562 L 175.863281 163.789062 L 179.4375 159.738281 C 179.414062 158.988281 179.554688 158.359375 179.773438 157.8125 C 180.015625 157.203125 180.359375 156.699219 180.746094 156.308594 C 181.183594 155.871094 181.65625 155.554688 182.058594 155.339844 C 182.484375 155.109375 182.988281 155.183594 183.363281 155.46875 C 183.4375 155.527344 183.515625 155.582031 183.582031 155.660156 L 184.671875 157.003906 L 185.160156 157.609375 C 185.207031 157.664062 185.234375 157.726562 185.269531 157.78125 C 185.542969 158.207031 185.628906 158.730469 185.484375 159.21875 L 183.175781 167.003906 L 183.167969 167.03125 C 183.160156 167.050781 183.152344 167.0625 183.148438 167.082031 C 182.972656 167.660156 182.710938 168.207031 182.367188 168.703125 C 182.226562 168.90625 182.066406 169.09375 181.898438 169.28125 C 181.859375 169.324219 181.828125 169.375 181.785156 169.417969 C 181.773438 169.433594 181.757812 169.441406 181.742188 169.457031 C 181.539062 169.664062 181.324219 169.859375 181.09375 170.039062 L 172.40625 176.648438 L 172.402344 176.644531 L 173.199219 179.085938 C 173.40625 179.378906 173.339844 179.78125 173.058594 180 L 169.835938 182.367188 C 169.53125 182.59375 169.105469 182.527344 168.890625 182.214844 L 168.550781 181.734375 L 150.230469 194.847656 L 159.359375 202.910156 C 159.476562 202.726562 159.726562 202.671875 159.914062 202.792969 L 164.296875 204.929688 C 164.484375 205.046875 164.546875 205.285156 164.429688 205.484375 L 164.957031 206.3125 L 171.160156 208.109375 L 173.21875 208.703125 L 174.371094 208.460938 L 184.855469 206.273438 L 185.679688 206.269531 C 185.570312 206 185.679688 205.703125 185.929688 205.5625 L 209.132812 192.96875 L 208.851562 186.371094 C 208.699219 182.910156 209.550781 180.308594 211.390625 177.371094 L 215.835938 169.445312 L 218.019531 163.800781 L 218.261719 163.714844 L 218.902344 155.570312 L 216.125 155.199219 C 215.300781 155.09375 214.65625 154.4375 214.546875 153.621094 C 214.277344 151.695312 214.089844 149.3125 214.125 147.777344 C 211 146.265625 211.96875 144.03125 215.136719 141.441406 L 215.429688 138.953125 C 215.113281 137.199219 215.691406 135.382812 216.996094 134.175781 C 221.121094 130.355469 224.410156 130.144531 229.113281 131.480469 C 235.515625 133.300781 239.871094 137.628906 243.617188 147.917969 C 244.136719 149.375 243.769531 151.03125 242.59375 152.042969 C 239.761719 154.46875 236.992188 156.484375 233.3125 157.378906 L 233.554688 158.28125 L 235.785156 164.15625 L 241.378906 170.40625 C 244.035156 173.375 245.820312 177.042969 246.515625 180.972656 Z M 132.097656 279.402344 L 124.960938 252.839844 C 124.894531 252.503906 123.433594 252.898438 123.433594 253.234375 L 120.980469 281.480469 C 120.980469 283.394531 120.875 285.3125 120.644531 287.207031 L 116.714844 340.628906 C 116.691406 340.78125 116.5625 340.890625 116.410156 340.890625 L 115.144531 342.160156 L 120.152344 344.707031 C 120.542969 341.714844 123.109375 336.875 124.722656 334.558594 L 122.28125 333.492188 C 122.164062 333.449219 122.097656 333.328125 122.117188 333.199219 L 132.226562 286.0625 C 132.609375 283.855469 132.566406 281.589844 132.097656 279.402344 Z M 303.785156 178.679688 L 303.785156 290.390625 L 305.960938 290.390625 L 305.960938 176.671875 C 305.414062 177.171875 304.863281 177.660156 304.324219 178.171875 C 304.136719 178.335938 303.964844 178.511719 303.785156 178.679688 Z M 304.429688 130.148438 C 304.394531 130.109375 304.378906 130.066406 304.359375 130.027344 C 304.167969 129.941406 303.976562 129.851562 303.785156 129.773438 L 303.785156 170.109375 C 304.484375 169.386719 305.207031 168.6875 305.960938 168.019531 L 305.960938 129.617188 C 305.550781 129.847656 305.152344 130.066406 304.738281 130.300781 C 304.667969 130.335938 304.53125 130.269531 304.429688 130.148438 Z M 295.746094 186.496094 C 295.554688 186.675781 295.371094 186.855469 295.175781 187.035156 C 295.121094 187.085938 294.949219 187.046875 294.78125 186.953125 C 294.777344 186.953125 294.777344 186.957031 294.773438 186.957031 C 294.773438 186.96875 294.78125 186.976562 294.78125 186.992188 C 294.800781 187.125 294.792969 187.230469 294.765625 187.25 C 294.429688 187.492188 294.125 187.710938 293.808594 187.941406 C 297.453125 214.714844 297.242188 257.390625 296.753906 290.390625 L 298.929688 290.390625 C 299.425781 256.984375 299.636719 213.667969 295.855469 186.804688 C 295.835938 186.691406 295.792969 186.59375 295.746094 186.496094 Z M 295.746094 186.496094 " fill-opacity="1" fill-rule="nonzero"/><path fill="#e3efd1" d="M 537.832031 210.363281 L 533.882812 200.296875 C 533.707031 199.90625 532.140625 199.328125 532.140625 199.328125 L 529.910156 192.144531 C 534.796875 187.964844 534.929688 181.8125 532.75 176.847656 C 534.132812 176.597656 535.429688 175.933594 536.441406 174.878906 C 539.171875 172.015625 539.238281 169.261719 536.148438 166.300781 C 533.066406 163.347656 530.3125 163.128906 527.582031 165.992188 C 526.371094 167.242188 525.628906 169.023438 525.574219 170.699219 C 518.171875 168.707031 509.449219 170.929688 511.058594 181.621094 C 511.058594 181.625 511.058594 181.628906 511.058594 181.628906 C 510.808594 181.898438 510.585938 182.160156 510.375 182.410156 C 510.308594 182.492188 510.246094 182.566406 510.183594 182.644531 C 510.042969 182.816406 509.910156 182.988281 509.785156 183.152344 C 509.726562 183.234375 509.667969 183.316406 509.609375 183.394531 C 509.496094 183.558594 509.390625 183.71875 509.289062 183.875 C 509.25 183.941406 509.203125 184.007812 509.164062 184.070312 C 508.921875 184.484375 508.734375 184.867188 508.617188 185.222656 C 508.597656 185.28125 508.585938 185.335938 508.570312 185.394531 C 508.539062 185.503906 508.511719 185.613281 508.492188 185.714844 C 508.480469 185.773438 508.476562 185.832031 508.472656 185.890625 C 508.460938 185.988281 508.449219 186.082031 508.453125 186.175781 C 508.453125 186.226562 508.457031 186.28125 508.460938 186.332031 C 508.46875 186.425781 508.480469 186.515625 508.496094 186.601562 C 508.507812 186.648438 508.519531 186.691406 508.535156 186.738281 C 508.5625 186.828125 508.59375 186.914062 508.632812 186.996094 C 508.648438 187.035156 508.667969 187.070312 508.6875 187.109375 C 508.738281 187.195312 508.792969 187.28125 508.859375 187.367188 C 508.878906 187.394531 508.898438 187.421875 508.921875 187.445312 C 509 187.539062 509.085938 187.625 509.183594 187.707031 C 509.203125 187.722656 509.21875 187.738281 509.234375 187.753906 C 509.476562 187.953125 509.769531 188.132812 510.113281 188.292969 C 510.121094 188.292969 510.125 188.296875 510.128906 188.296875 C 510.308594 188.378906 510.5 188.460938 510.710938 188.53125 C 510.796875 189.980469 510.90625 192.003906 511.375 193.605469 C 511.601562 194.355469 512.289062 194.855469 513.0625 194.855469 L 516.171875 194.855469 L 515.753906 199.011719 L 515.257812 203.921875 L 515.128906 203.957031 C 515.109375 203.960938 515.09375 203.976562 515.074219 203.984375 C 514.328125 204.257812 514.476562 205.453125 514.097656 206.195312 L 508.71875 216.558594 C 507.640625 218.636719 507.121094 220.609375 507.242188 222.960938 L 507.40625 226.257812 L 502.601562 229.90625 C 502.144531 230.257812 501.566406 230.417969 501 230.363281 L 490.453125 228.429688 C 490.320312 228.417969 490.203125 228.503906 490.167969 228.636719 L 489.777344 228.859375 L 489.78125 228.859375 L 481.644531 227.777344 C 481.363281 227.742188 481.085938 227.691406 480.808594 227.640625 C 480.804688 227.640625 480.800781 227.640625 480.800781 227.640625 C 480.332031 227.554688 479.867188 227.460938 479.402344 227.335938 L 469.617188 224.769531 C 468.496094 224.472656 467.320312 224.59375 466.277344 225.09375 L 454.585938 230.796875 C 454.492188 230.84375 454.414062 230.902344 454.34375 230.96875 C 454.273438 231.039062 454.214844 231.113281 454.167969 231.195312 C 454.167969 231.195312 454.167969 231.199219 454.167969 231.199219 C 454.074219 231.363281 454.03125 231.550781 454.03125 231.742188 C 454.03125 231.746094 454.03125 231.75 454.03125 231.75 C 454.03125 231.753906 454.03125 231.753906 454.03125 231.757812 L 444.753906 233.070312 C 444.484375 233.070312 444.234375 232.894531 444.136719 232.636719 L 432.035156 198.878906 C 431.9375 198.625 431.695312 198.453125 431.425781 198.453125 L 428.578125 198.011719 C 428.132812 198.011719 427.816406 198.449219 427.957031 198.875 L 441.066406 235.574219 C 441.152344 235.84375 441.402344 236.019531 441.683594 236.019531 L 479.289062 237.199219 L 479.296875 237.199219 L 485.914062 240.601562 L 486.871094 241.09375 L 486.894531 241.988281 C 486.851562 242.140625 486.960938 242.292969 487.113281 242.316406 L 500.667969 244.296875 C 501.898438 244.46875 503.160156 244.230469 504.238281 243.589844 L 507.953125 241.609375 L 508.222656 248.140625 L 465.742188 277.847656 C 464.621094 278.597656 463.957031 279.859375 463.957031 281.210938 L 463.476562 284.398438 C 463.476562 284.726562 463.683594 285.03125 463.988281 285.136719 L 465.167969 286.246094 L 464.480469 331.539062 C 464.4375 334.011719 463.273438 336.328125 461.3125 337.832031 L 454.273438 343.214844 L 454.269531 343.21875 L 449.671875 346.109375 C 448.421875 346.695312 447.617188 347.960938 447.617188 349.351562 L 447.824219 351.078125 C 447.824219 351.554688 448.214844 351.9375 448.683594 351.9375 L 465.101562 351.359375 C 465.339844 351.359375 465.566406 351.261719 465.71875 351.078125 L 471.160156 346.175781 C 471.34375 345.972656 471.683594 346.089844 471.683594 346.375 L 472.0625 351.460938 C 472.0625 351.601562 472.183594 351.722656 472.324219 351.722656 L 475.949219 351.875 C 476.078125 351.875 476.199219 351.789062 476.21875 351.65625 C 476.425781 350.414062 476.671875 349.15625 476.792969 347.890625 L 483.40625 347.183594 C 483.632812 347.183594 483.863281 347.074219 484.003906 346.902344 L 489.410156 342.246094 C 489.574219 342.050781 489.890625 342.171875 489.890625 342.421875 L 490.285156 346.902344 C 490.285156 347.335938 490.644531 347.695312 491.082031 347.695312 L 493.792969 347.699219 C 494.1875 347.699219 494.523438 347.414062 494.578125 347.035156 C 495.40625 341.855469 496.113281 337.40625 495.265625 331.597656 C 495.265625 331.597656 495.265625 331.59375 495.261719 331.59375 C 496.996094 320.71875 498.027344 309.605469 498.171875 298.15625 L 498.175781 298.152344 L 499.730469 297.886719 C 500.222656 298.0625 500.765625 297.800781 500.917969 297.300781 L 504.59375 280.273438 C 504.714844 279.882812 505 279.554688 505.367188 279.382812 L 533.667969 266.96875 C 535.628906 266.011719 537.109375 264.234375 537.640625 262.113281 C 538.871094 257.183594 538.808594 253.023438 536.847656 248.320312 L 538.855469 215.925781 C 539 214.007812 538.648438 212.105469 537.832031 210.363281 Z M 476.792969 335.589844 C 479.097656 325.597656 480.796875 314.132812 481.734375 302.703125 L 483.253906 329.769531 C 483.316406 330.925781 482.867188 332.054688 482.027344 332.851562 L 480.410156 334.375 L 477.042969 337.558594 C 476.976562 336.90625 476.890625 336.253906 476.792969 335.589844 Z M 216.363281 338.964844 C 216.308594 339.332031 216.308594 339.703125 216.375 340.0625 L 204.890625 344.710938 C 203.695312 345.1875 202.398438 345.351562 201.125 345.179688 L 195.847656 344.4375 L 198.269531 342.980469 L 199.367188 342.316406 L 203.476562 339.84375 C 203.921875 339.582031 204.195312 339.09375 204.195312 338.582031 L 204.195312 333.09375 L 217.222656 333.09375 Z M 244.960938 338.964844 C 244.90625 339.332031 244.90625 339.703125 244.972656 340.0625 L 233.488281 344.710938 C 232.292969 345.1875 230.996094 345.351562 229.722656 345.179688 L 224.441406 344.4375 L 232.074219 339.84375 C 232.519531 339.582031 232.792969 339.09375 232.792969 338.582031 L 232.792969 333.09375 L 245.820312 333.09375 Z M 215.136719 141.441406 C 215.375 140.699219 215.71875 139.820312 216.101562 138.953125 L 225.25 139.257812 C 226.078125 139.285156 226.839844 139.714844 227.296875 140.40625 L 229.929688 144.40625 C 235.5 142.414062 237.515625 148.796875 231.863281 151.925781 L 233.3125 157.378906 L 233.316406 157.378906 L 233.554688 158.285156 L 218.261719 163.710938 L 218.257812 163.714844 L 218.898438 155.570312 L 216.125 155.199219 C 215.300781 155.089844 214.660156 154.441406 214.546875 153.621094 C 214.5 153.296875 214.460938 152.953125 214.417969 152.609375 C 214.277344 151.363281 214.171875 150.035156 214.132812 148.910156 C 214.121094 148.5 214.113281 148.117188 214.121094 147.777344 C 210.996094 146.265625 211.96875 144.035156 215.136719 141.441406 Z M 224.515625 250.464844 L 222.601562 254.242188 C 222.300781 254.839844 221.6875 255.214844 221.019531 255.214844 L 212.636719 255.214844 C 211.867188 255.214844 211.1875 254.722656 210.949219 253.996094 L 210.027344 251.195312 C 209.695312 250.183594 209.679688 249.09375 209.988281 248.074219 L 211.175781 244.128906 C 211.375 243.480469 211.695312 242.871094 212.125 242.34375 L 216.132812 237.441406 L 226.507812 243.585938 L 225.003906 249.191406 C 224.886719 249.632812 224.722656 250.058594 224.515625 250.464844 Z M 184.855469 206.273438 L 189.316406 217.308594 L 185.789062 220.683594 C 184.957031 221.480469 183.882812 221.972656 182.738281 222.085938 L 179.5625 222.398438 L 177.238281 222.625 L 177.238281 222.621094 L 178.121094 213.761719 L 175.730469 212.324219 C 175.523438 212.199219 175.308594 212.09375 175.085938 211.996094 C 174.507812 211.75 173.886719 211.601562 173.25 211.582031 C 172.417969 211.558594 171.6875 211.242188 171.101562 210.859375 C 170.359375 210.375 170.589844 209.234375 171.457031 209.058594 L 173.214844 208.699219 L 173.484375 208.644531 L 174.371094 208.464844 L 174.371094 208.460938 L 184.851562 206.269531 Z M 184.855469 206.273438 " fill-opacity="1" fill-rule="nonzero"/><g clip-path="url(#31372fad44)"><path fill="#097575" d="M 263.292969 118.890625 C 262.988281 117.996094 263.226562 117.09375 263.828125 116.871094 C 267.40625 115.515625 271.273438 114.808594 275.164062 114.742188 C 279.054688 114.667969 282.96875 115.25 286.667969 116.417969 C 288.519531 116.992188 290.316406 117.71875 292.042969 118.566406 C 293.761719 119.433594 295.429688 120.371094 296.996094 121.460938 C 298.769531 122.664062 300.433594 124.007812 301.992188 125.453125 C 300.453125 123.140625 298.875 120.898438 297.195312 118.757812 L 295.351562 116.496094 C 294.726562 115.75 294.066406 115.039062 293.425781 114.316406 C 292.773438 113.601562 292.089844 112.917969 291.433594 112.214844 C 290.753906 111.527344 290.042969 110.878906 289.359375 110.203125 C 286.550781 107.574219 283.535156 105.1875 280.347656 103.015625 C 277.160156 100.84375 273.804688 98.90625 270.367188 97 C 269.796875 96.679688 269.652344 95.726562 270.050781 94.875 C 270.414062 94.097656 271.121094 93.679688 271.703125 93.867188 C 275.628906 95.09375 279.394531 96.882812 282.914062 99.09375 C 286.433594 101.296875 289.699219 103.941406 292.578125 106.949219 C 293.28125 107.71875 293.996094 108.472656 294.667969 109.265625 C 295.316406 110.078125 295.984375 110.875 296.605469 111.703125 C 296.71875 111.875 296.839844 112.039062 296.957031 112.207031 C 296.371094 110.746094 295.789062 109.285156 295.203125 107.824219 L 292.332031 100.472656 C 290.417969 95.585938 288.5 90.707031 286.585938 85.824219 C 284.65625 80.953125 282.6875 76.113281 280.824219 71.1875 C 280.515625 70.367188 281.210938 69.265625 282.382812 68.734375 C 283.449219 68.25 284.546875 68.417969 284.972656 69.089844 C 287.886719 73.632812 290.3125 78.445312 292.480469 83.355469 C 294.652344 88.261719 296.546875 93.28125 298.207031 98.367188 C 299.046875 100.910156 299.8125 103.472656 300.53125 106.046875 C 301.007812 107.871094 301.480469 109.6875 301.925781 111.515625 C 301.875 109.902344 301.859375 108.289062 301.863281 106.667969 C 301.863281 105.367188 301.9375 104.066406 302.007812 102.761719 C 302.0625 101.460938 302.179688 100.160156 302.3125 98.859375 C 302.835938 93.65625 303.804688 88.46875 305.34375 83.421875 C 306.878906 78.378906 308.96875 73.449219 311.894531 69.011719 C 312.378906 68.265625 313.65625 68.21875 314.753906 68.890625 C 315.753906 69.507812 316.277344 70.472656 316.019531 71.152344 C 314.257812 75.761719 312.738281 80.410156 311.492188 85.164062 C 310.332031 89.632812 309.410156 94.179688 308.652344 98.78125 C 308.984375 97.828125 309.328125 96.878906 309.667969 95.929688 C 311.742188 90.53125 314.402344 85.339844 317.582031 80.503906 C 320.761719 75.671875 324.449219 71.175781 328.667969 67.265625 C 329.371094 66.605469 330.664062 66.820312 331.566406 67.738281 C 332.386719 68.574219 332.617188 69.6875 332.144531 70.347656 C 328.917969 74.816406 325.800781 79.277344 322.988281 83.917969 C 320.171875 88.558594 317.648438 93.359375 315.4375 98.316406 L 313.832031 102.066406 L 312.34375 105.871094 C 311.871094 107.152344 311.394531 108.433594 310.945312 109.726562 L 309.660156 113.640625 C 309.273438 114.875 308.90625 116.117188 308.542969 117.363281 C 308.652344 117.140625 308.753906 116.917969 308.863281 116.695312 C 309.863281 114.617188 311.066406 112.644531 312.335938 110.707031 C 312.988281 109.75 313.644531 108.792969 314.375 107.894531 C 315.082031 106.976562 315.800781 106.0625 316.585938 105.210938 C 319.652344 101.726562 323.152344 98.628906 326.9375 95.988281 C 330.714844 93.335938 334.773438 91.121094 339.070312 89.546875 C 339.785156 89.273438 340.785156 90.007812 341.3125 91.179688 C 341.792969 92.25 341.734375 93.304688 341.207031 93.675781 C 337.613281 96.136719 334.074219 98.546875 330.710938 101.148438 C 327.34375 103.742188 324.140625 106.5 321.140625 109.480469 C 320.371094 110.207031 319.652344 110.984375 318.925781 111.753906 C 318.183594 112.511719 317.492188 113.316406 316.792969 114.117188 C 315.351562 115.683594 314.058594 117.382812 312.734375 119.078125 C 311.308594 120.953125 309.945312 122.902344 308.605469 124.898438 C 309.070312 124.464844 309.546875 124.039062 310.039062 123.628906 C 311.125 122.710938 312.289062 121.902344 313.464844 121.09375 C 314.667969 120.332031 315.902344 119.617188 317.183594 118.980469 C 319.738281 117.707031 322.441406 116.71875 325.222656 116.054688 C 328 115.390625 330.863281 115.035156 333.714844 115.171875 C 334.195312 115.191406 334.609375 115.972656 334.648438 116.914062 C 334.683594 117.773438 334.417969 118.464844 334.039062 118.5625 C 331.457031 119.21875 328.929688 119.839844 326.433594 120.582031 C 323.941406 121.328125 321.484375 122.179688 319.0625 123.152344 C 317.855469 123.640625 316.652344 124.15625 315.457031 124.699219 C 314.246094 125.21875 313.082031 125.832031 311.882812 126.40625 C 309.914062 127.40625 307.957031 128.496094 305.960938 129.617188 C 305.550781 129.847656 305.152344 130.066406 304.738281 130.300781 C 304.667969 130.335938 304.53125 130.269531 304.429688 130.148438 C 304.394531 130.109375 304.378906 130.066406 304.359375 130.027344 C 304.167969 129.941406 303.976562 129.851562 303.785156 129.773438 C 301.714844 128.929688 299.628906 128.601562 297.519531 128.457031 C 296.910156 128.453125 296.3125 128.429688 295.722656 128.398438 L 293.917969 128.449219 C 292.710938 128.507812 291.507812 128.582031 290.300781 128.71875 C 287.886719 128.976562 285.46875 129.351562 283.054688 129.796875 C 280.644531 130.25 278.230469 130.777344 275.851562 131.3125 C 275.460938 131.402344 274.84375 130.769531 274.484375 129.902344 C 274.15625 129.109375 274.191406 128.378906 274.542969 128.167969 C 276.914062 126.753906 279.453125 125.871094 282.050781 125.21875 C 284.648438 124.578125 287.324219 124.207031 290.03125 124.152344 C 291.378906 124.109375 292.746094 124.199219 294.101562 124.335938 L 295.921875 124.632812 C 295.734375 124.542969 295.542969 124.445312 295.351562 124.359375 C 293.71875 123.632812 292.101562 122.910156 290.429688 122.351562 C 288.78125 121.746094 287.105469 121.238281 285.417969 120.820312 C 282.046875 119.972656 278.617188 119.507812 275.15625 119.429688 C 271.691406 119.347656 268.214844 119.667969 264.6875 120.171875 C 264.164062 120.238281 263.566406 119.707031 263.292969 118.890625 Z M 317.773438 160.992188 C 314.902344 161.917969 312.230469 163.347656 309.75 165.054688 C 308.425781 165.960938 307.164062 166.957031 305.960938 168.019531 C 305.207031 168.6875 304.484375 169.386719 303.785156 170.109375 C 303.5 170.402344 303.210938 170.683594 302.941406 170.984375 C 301.921875 172.097656 300.976562 173.273438 300.089844 174.484375 C 299.246094 175.734375 298.398438 176.96875 297.691406 178.296875 C 296.96875 179.601562 296.324219 180.953125 295.78125 182.34375 C 295.816406 181.957031 295.851562 181.570312 295.878906 181.179688 C 296.019531 180.304688 296.15625 179.425781 296.316406 178.5625 C 296.59375 177.230469 296.828125 175.898438 297.179688 174.589844 C 297.480469 173.277344 297.820312 171.976562 298.195312 170.683594 C 298.929688 168.097656 299.773438 165.546875 300.691406 163.003906 C 301.648438 160.460938 302.601562 157.917969 303.570312 155.347656 C 303.707031 154.964844 303.285156 154.347656 302.550781 153.90625 C 301.742188 153.417969 300.859375 153.335938 300.570312 153.722656 C 298.847656 156.050781 297.46875 158.613281 296.332031 161.285156 C 295.804688 162.523438 295.34375 163.789062 294.933594 165.074219 C 294.433594 162.421875 293.765625 159.792969 292.867188 157.214844 C 291.757812 154.03125 290.3125 150.902344 288.265625 148.121094 C 287.960938 147.707031 286.976562 147.765625 285.929688 148.292969 C 284.785156 148.871094 283.980469 149.746094 284.128906 150.242188 C 285.027344 153.21875 285.933594 156.144531 286.769531 159.132812 C 287.597656 162.121094 288.378906 165.144531 289.152344 168.199219 L 290.308594 172.804688 C 290.710938 174.355469 291.113281 175.894531 291.523438 177.449219 C 291.636719 177.882812 291.753906 178.316406 291.871094 178.746094 C 291.242188 177.574219 290.519531 176.460938 289.785156 175.347656 C 288.984375 174.199219 288.128906 173.085938 287.222656 172.019531 C 285.402344 169.886719 283.382812 167.933594 281.210938 166.183594 C 279.035156 164.4375 276.710938 162.886719 274.203125 161.667969 C 273.832031 161.488281 273.1875 161.847656 272.6875 162.546875 C 272.140625 163.308594 271.957031 164.179688 272.28125 164.484375 C 274.238281 166.308594 276.234375 168.011719 278.175781 169.757812 C 280.117188 171.507812 282.015625 173.285156 283.855469 175.121094 C 284.777344 176.042969 285.6875 176.972656 286.578125 177.929688 C 287.5 178.859375 288.347656 179.855469 289.238281 180.828125 C 290.679688 182.460938 292.09375 184.15625 293.542969 185.878906 C 291.996094 184.976562 290.3125 184.3125 288.5625 183.863281 C 287.453125 183.554688 286.308594 183.390625 285.164062 183.242188 C 284.015625 183.125 282.855469 183.085938 281.699219 183.132812 C 279.390625 183.21875 277.097656 183.613281 274.90625 184.277344 C 272.714844 184.9375 270.613281 185.855469 268.726562 187.121094 C 268.445312 187.304688 268.460938 188.015625 268.789062 188.808594 C 269.148438 189.675781 269.726562 190.324219 270.070312 190.25 C 272.148438 189.792969 274.132812 189.253906 276.121094 188.804688 C 278.105469 188.355469 280.085938 187.972656 282.082031 187.695312 C 283.082031 187.550781 284.085938 187.4375 285.097656 187.359375 C 286.113281 187.234375 287.132812 187.222656 288.167969 187.171875 C 288.453125 187.160156 288.746094 187.167969 289.03125 187.164062 C 288.453125 187.367188 287.890625 187.601562 287.332031 187.859375 C 286.582031 188.246094 285.859375 188.691406 285.1875 189.195312 C 283.839844 190.195312 282.667969 191.402344 281.699219 192.722656 C 280.726562 194.039062 279.941406 195.472656 279.484375 197.039062 C 279.414062 197.269531 279.886719 197.769531 280.617188 198.214844 C 281.421875 198.703125 282.222656 198.960938 282.40625 198.792969 C 283.492188 197.761719 284.414062 196.691406 285.347656 195.664062 C 286.277344 194.632812 287.195312 193.636719 288.148438 192.683594 C 288.625 192.203125 289.113281 191.734375 289.617188 191.28125 C 290.101562 190.792969 290.644531 190.386719 291.175781 189.921875 C 291.988281 189.265625 292.871094 188.613281 293.808594 187.941406 C 294.125 187.710938 294.429688 187.492188 294.765625 187.25 C 294.792969 187.230469 294.800781 187.125 294.78125 186.992188 C 294.78125 186.976562 294.773438 186.96875 294.773438 186.957031 C 294.777344 186.957031 294.777344 186.953125 294.78125 186.953125 C 294.949219 187.046875 295.121094 187.085938 295.175781 187.035156 C 295.371094 186.855469 295.554688 186.675781 295.746094 186.496094 C 297.699219 184.644531 299.511719 182.804688 301.324219 181.027344 C 302.164062 180.246094 302.960938 179.445312 303.785156 178.679688 C 303.964844 178.511719 304.136719 178.335938 304.324219 178.171875 C 304.863281 177.660156 305.414062 177.171875 305.960938 176.671875 C 306.417969 176.253906 306.875 175.828125 307.335938 175.414062 C 309.363281 173.613281 311.429688 171.886719 313.542969 170.195312 C 315.664062 168.507812 317.835938 166.878906 319.992188 165.074219 C 320.308594 164.808594 320.179688 163.847656 319.660156 162.796875 C 319.097656 161.640625 318.25 160.832031 317.773438 160.992188 Z M 298.769531 300.417969 L 283.992188 300.417969 C 283.9375 301.886719 283.914062 303.34375 283.914062 304.816406 L 316.753906 304.816406 C 316.734375 303.34375 316.667969 301.875 316.582031 300.417969 Z M 162.097656 108.730469 L 171.597656 108.730469 C 171.597656 106.855469 170.511719 105.257812 168.941406 104.480469 C 169.902344 103.894531 170.597656 102.921875 170.808594 101.773438 L 177.746094 101.773438 C 177.957031 102.921875 178.652344 103.894531 179.613281 104.480469 C 178.042969 105.257812 176.957031 106.855469 176.957031 108.730469 L 186.457031 108.730469 C 186.457031 106.855469 185.367188 105.257812 183.800781 104.480469 C 184.957031 103.773438 185.738281 102.507812 185.738281 101.050781 C 185.738281 98.824219 183.933594 97.019531 181.707031 97.019531 C 180.222656 97.019531 178.945312 97.828125 178.242188 99.019531 C 177.789062 98.382812 177.179688 97.875 176.476562 97.523438 C 177.632812 96.816406 178.414062 95.550781 178.414062 94.09375 C 178.414062 91.867188 176.609375 90.0625 174.382812 90.0625 C 172.15625 90.0625 170.351562 91.867188 170.351562 94.09375 C 170.351562 95.550781 171.132812 96.816406 172.289062 97.523438 C 171.519531 97.902344 170.867188 98.472656 170.402344 99.1875 C 169.726562 97.90625 168.398438 97.019531 166.847656 97.019531 C 164.621094 97.019531 162.816406 98.824219 162.816406 101.050781 C 162.816406 102.507812 163.597656 103.773438 164.753906 104.480469 C 163.183594 105.257812 162.097656 106.855469 162.097656 108.730469 Z M 452.339844 96.71875 C 454.613281 96.71875 456.460938 94.875 456.460938 92.597656 C 456.460938 90.320312 454.613281 88.476562 452.339844 88.476562 C 450.0625 88.476562 448.214844 90.320312 448.214844 92.597656 C 448.214844 94.875 450.0625 96.71875 452.339844 96.71875 Z M 442.546875 107.042969 C 444.824219 107.042969 446.671875 105.199219 446.671875 102.921875 C 446.671875 100.644531 444.824219 98.800781 442.546875 98.800781 C 440.273438 98.800781 438.425781 100.644531 438.425781 102.921875 C 438.425781 105.199219 440.273438 107.042969 442.546875 107.042969 Z M 493.84375 130.015625 L 484.722656 129.980469 L 484.6875 139.101562 L 493.773438 139.136719 L 493.738281 148.226562 L 502.859375 148.261719 L 502.894531 139.140625 L 493.804688 139.105469 Z M 557.394531 213.265625 L 550.671875 213.265625 C 549.910156 213.265625 549.253906 213.804688 549.105469 214.554688 L 539.125 264.636719 C 538.976562 265.386719 538.320312 265.925781 537.558594 265.925781 L 537.328125 265.925781 C 536.734375 266.523438 536.042969 267.027344 535.273438 267.402344 L 521.84375 273.964844 L 519.710938 275.007812 L 514.011719 277.789062 L 519.710938 277.789062 L 519.710938 345.972656 L 516.304688 345.972656 C 512.628906 345.972656 509.652344 348.949219 509.652344 352.625 L 509.652344 352.796875 L 535.386719 352.796875 L 535.386719 352.625 C 535.386719 348.949219 532.410156 345.972656 528.734375 345.972656 L 525.328125 345.972656 L 525.328125 277.789062 L 546.371094 277.789062 C 547.128906 277.789062 547.78125 277.246094 547.914062 276.5 L 558.96875 215.15625 C 559.144531 214.171875 558.390625 213.265625 557.394531 213.265625 Z M 84.269531 246.882812 C 83.863281 246.882812 83.523438 246.585938 83.464844 246.183594 L 78.863281 213.992188 C 78.808594 213.589844 78.464844 213.292969 78.058594 213.292969 L 73.4375 213.292969 C 72.949219 213.292969 72.570312 213.722656 72.632812 214.210938 L 77.863281 254.941406 C 77.917969 255.347656 78.261719 255.652344 78.671875 255.652344 L 79.335938 255.652344 L 70.992188 341.804688 C 70.933594 342.402344 71.375 342.933594 71.972656 342.992188 C 72.007812 342.996094 72.042969 343 72.078125 343 C 72.632812 343 73.105469 342.578125 73.160156 342.015625 L 81.519531 255.652344 L 100.875 255.652344 L 100.117188 246.882812 Z M 194.238281 241.367188 L 199.453125 341.851562 C 199.460938 342.019531 199.425781 342.175781 199.367188 342.316406 L 198.269531 342.980469 C 197.738281 342.929688 197.308594 342.511719 197.28125 341.964844 L 192.859375 256.738281 L 155.742188 256.738281 L 151.316406 341.964844 C 151.289062 342.546875 150.808594 343 150.230469 343 C 150.214844 343 150.195312 343 150.175781 342.996094 C 149.574219 342.964844 149.113281 342.453125 149.144531 341.851562 L 154.359375 241.367188 L 151.511719 241.367188 C 151.015625 241.367188 150.613281 240.964844 150.613281 240.464844 L 150.613281 233.539062 C 150.613281 233.042969 151.015625 232.640625 151.511719 232.640625 L 197.085938 232.640625 C 197.582031 232.640625 197.988281 233.042969 197.988281 233.539062 L 197.988281 240.464844 C 197.988281 240.964844 197.582031 241.367188 197.085938 241.367188 Z M 192.746094 254.5625 L 192.0625 241.421875 C 192.0625 241.402344 192.070312 241.386719 192.070312 241.367188 L 156.527344 241.367188 C 156.527344 241.386719 156.535156 241.402344 156.535156 241.421875 L 155.855469 254.5625 Z M 269.164062 255.652344 C 269.539062 255.652344 269.855469 255.375 269.902344 255.003906 L 275.152344 214.132812 C 275.210938 213.6875 274.863281 213.292969 274.417969 213.292969 L 269.65625 213.292969 C 269.285156 213.292969 268.972656 213.566406 268.917969 213.933594 L 264.304688 246.246094 C 264.25 246.609375 263.9375 246.882812 263.566406 246.882812 L 246.832031 246.882812 L 246.957031 255.652344 L 266.191406 255.652344 L 274.628906 342.015625 C 274.683594 342.578125 275.15625 343 275.710938 343 C 275.746094 343 275.78125 342.996094 275.816406 342.992188 C 276.417969 342.933594 276.851562 342.402344 276.796875 341.804688 L 268.375 255.652344 Z M 486.800781 242.671875 L 489.921875 243.125 L 489.921875 244.921875 C 489.921875 245.648438 489.332031 246.238281 488.605469 246.238281 L 486.121094 246.238281 L 487.339844 261.710938 L 485.09375 263.21875 L 485.015625 262.253906 L 424.828125 262.253906 L 417.777344 351.730469 C 417.730469 352.304688 417.210938 352.742188 416.597656 352.742188 C 416.570312 352.742188 416.542969 352.738281 416.511719 352.738281 C 415.863281 352.695312 415.371094 352.171875 415.417969 351.574219 L 423.722656 246.238281 L 421.238281 246.238281 C 420.511719 246.238281 419.921875 245.648438 419.921875 244.921875 L 419.921875 238.429688 C 419.921875 237.703125 420.511719 237.113281 421.238281 237.113281 L 440.109375 237.113281 C 440.203125 237.164062 440.308594 237.199219 440.421875 237.199219 L 479.296875 237.199219 L 485.953125 240.625 L 486.871094 241.09375 L 486.871094 241.097656 L 486.574219 242.34375 C 486.539062 242.496094 486.644531 242.648438 486.800781 242.671875 Z M 484.84375 260.074219 L 483.761719 246.316406 C 483.757812 246.289062 483.769531 246.265625 483.773438 246.238281 L 426.074219 246.238281 C 426.074219 246.265625 426.085938 246.289062 426.082031 246.316406 L 425 260.074219 Z M 491.828125 348.710938 L 492.066406 351.730469 C 492.113281 352.304688 492.628906 352.742188 493.246094 352.742188 C 493.273438 352.742188 493.300781 352.738281 493.332031 352.738281 C 493.980469 352.695312 494.46875 352.171875 494.421875 351.574219 L 494.199219 348.710938 Z M 368.359375 179.941406 L 366.941406 181.777344 L 368.339844 181.535156 Z M 423.8125 169.582031 L 422.933594 168.753906 L 415.964844 162.308594 L 415.214844 161.613281 C 415.03125 161.4375 414.714844 161.472656 414.5625 161.675781 L 404.429688 176.035156 C 404.175781 176.382812 403.632812 176.351562 403.4375 175.96875 L 397.179688 162.820312 C 395.261719 158.792969 391.910156 155.625 387.785156 153.949219 L 381.515625 151.402344 L 381.515625 160.523438 L 381.40625 160.429688 C 381.40625 160.429688 381.402344 160.433594 381.398438 160.429688 L 377.269531 156.828125 C 377.136719 156.710938 376.953125 156.6875 376.792969 156.757812 L 374.90625 157.628906 L 374.179688 157.964844 L 373.921875 160.671875 C 373.882812 161.070312 373.890625 161.472656 373.941406 161.867188 L 376.148438 178.125 C 376.441406 178.050781 376.746094 177.984375 377.085938 177.941406 C 377.695312 177.851562 378.269531 178.246094 378.457031 178.832031 L 379.589844 182.523438 C 379.839844 183.328125 379.589844 184.199219 378.945312 184.753906 L 377.246094 186.234375 L 378.792969 197.597656 L 378.792969 197.640625 C 378.792969 197.75 378.75 197.859375 378.683594 197.945312 C 378.671875 197.945312 378.671875 197.957031 378.671875 197.957031 L 373.980469 202.84375 C 373.820312 203.019531 373.546875 203.03125 373.371094 202.878906 C 373.363281 202.867188 373.363281 202.867188 373.351562 202.855469 L 368.277344 197.828125 C 368.191406 197.75 368.148438 197.640625 368.148438 197.523438 L 368.148438 197.511719 L 368.234375 190.238281 L 361.878906 190.238281 L 359.386719 180.074219 L 368.398438 176.613281 L 368.5625 162.472656 C 368.5625 161.941406 368.488281 161.414062 368.339844 160.902344 L 367.671875 158.6875 L 365.203125 157.917969 L 364.203125 157.609375 C 364.046875 157.5625 363.875 157.609375 363.757812 157.726562 L 360.050781 161.625 L 360.011719 161.550781 C 360.007812 161.546875 360.003906 161.546875 360 161.542969 L 354.746094 151.402344 L 354.019531 150.007812 L 354.023438 150.003906 L 346.585938 153.414062 C 342.425781 155.332031 339.160156 158.769531 337.460938 163.027344 L 325.828125 192.222656 C 325.476562 193.039062 325.542969 193.984375 326.011719 194.746094 L 330.832031 202.726562 C 331.398438 203.660156 332.457031 204.171875 333.542969 204.042969 L 337.277344 203.585938 C 339.5 203.3125 341.652344 202.628906 343.632812 201.582031 L 346.53125 200.035156 L 348.128906 213.140625 L 386.980469 213.140625 L 389.242188 192.230469 L 395.621094 197.730469 C 396.777344 198.71875 398.246094 199.265625 399.769531 199.265625 L 404.265625 199.265625 C 406.59375 199.265625 408.738281 197.992188 409.847656 195.945312 L 423.902344 170.101562 C 424 169.929688 423.964844 169.710938 423.8125 169.582031 Z M 250.316406 214.441406 L 251.710938 210.40625 C 252.378906 208.476562 252.542969 206.410156 252.183594 204.402344 L 247.816406 179.847656 C 247.117188 175.914062 245.335938 172.253906 242.671875 169.273438 L 237.082031 163.023438 L 235.585938 163.632812 L 219.867188 170.027344 L 218.023438 166.664062 L 216.496094 167.742188 L 214.804688 168.929688 L 210.117188 176.398438 C 208.273438 179.335938 207.367188 182.757812 207.515625 186.222656 L 207.796875 192.816406 L 184.980469 205.265625 C 184.730469 205.402344 184.621094 205.703125 184.730469 205.964844 L 184.851562 206.269531 L 184.855469 206.273438 L 189.316406 217.308594 L 189.320312 217.3125 L 189.777344 218.445312 C 189.890625 218.726562 190.210938 218.863281 190.496094 218.757812 L 208.613281 211.855469 L 208.71875 214.347656 L 230.949219 214.347656 L 215.03125 236.34375 C 214.910156 236.511719 214.957031 236.75 215.136719 236.855469 L 216.132812 237.441406 L 226.507812 243.585938 L 227.648438 244.261719 C 227.722656 244.304688 227.8125 244.320312 227.894531 244.304688 C 227.976562 244.289062 228.050781 244.242188 228.105469 244.171875 L 241.070312 227.417969 L 242.476562 225.597656 L 248.472656 217.851562 C 249.269531 216.824219 249.890625 215.671875 250.316406 214.441406 Z M 250.316406 214.441406 " fill-opacity="1" fill-rule="nonzero"/></g><path fill="#fcd34f" d="M 430.96875 114.738281 L 463.917969 114.738281 C 464.199219 114.738281 464.425781 114.511719 464.425781 114.234375 L 464.425781 81.285156 C 464.425781 81.003906 464.199219 80.777344 463.917969 80.777344 L 430.96875 80.777344 C 430.691406 80.777344 430.464844 81.003906 430.464844 81.285156 L 430.464844 114.234375 C 430.464844 114.511719 430.691406 114.738281 430.96875 114.738281 Z M 452.339844 88.476562 C 454.613281 88.476562 456.460938 90.320312 456.460938 92.597656 C 456.460938 94.875 454.613281 96.71875 452.339844 96.71875 C 450.0625 96.71875 448.214844 94.875 448.214844 92.597656 C 448.214844 90.320312 450.0625 88.476562 452.339844 88.476562 Z M 442.546875 98.800781 C 444.824219 98.800781 446.671875 100.644531 446.671875 102.921875 C 446.671875 105.199219 444.824219 107.042969 442.546875 107.042969 C 440.273438 107.042969 438.425781 105.199219 438.425781 102.921875 C 438.425781 100.644531 440.273438 98.800781 442.546875 98.800781 Z M 195.003906 80.242188 L 154.773438 80.242188 C 154.324219 80.242188 153.960938 80.605469 153.960938 81.054688 L 153.960938 121.285156 C 153.960938 121.730469 154.324219 122.09375 154.773438 122.09375 L 195.003906 122.09375 C 195.449219 122.09375 195.8125 121.730469 195.8125 121.285156 L 195.8125 81.054688 C 195.8125 80.605469 195.449219 80.242188 195.003906 80.242188 Z M 176.957031 108.730469 C 176.957031 106.855469 178.042969 105.257812 179.613281 104.480469 C 178.652344 103.894531 177.957031 102.921875 177.746094 101.773438 L 170.808594 101.773438 C 170.597656 102.921875 169.902344 103.894531 168.941406 104.480469 C 170.511719 105.257812 171.597656 106.855469 171.597656 108.730469 L 162.097656 108.730469 C 162.097656 106.855469 163.183594 105.257812 164.753906 104.480469 C 163.597656 103.773438 162.816406 102.507812 162.816406 101.050781 C 162.816406 98.824219 164.621094 97.019531 166.847656 97.019531 C 168.398438 97.019531 169.726562 97.90625 170.402344 99.1875 C 170.867188 98.472656 171.519531 97.902344 172.289062 97.523438 C 171.132812 96.816406 170.351562 95.550781 170.351562 94.09375 C 170.351562 91.867188 172.15625 90.0625 174.382812 90.0625 C 176.609375 90.0625 178.414062 91.867188 178.414062 94.09375 C 178.414062 95.550781 177.632812 96.816406 176.476562 97.523438 C 177.179688 97.875 177.789062 98.382812 178.242188 99.019531 C 178.945312 97.828125 180.222656 97.019531 181.707031 97.019531 C 183.933594 97.019531 185.738281 98.824219 185.738281 101.050781 C 185.738281 102.507812 184.957031 103.773438 183.800781 104.480469 C 185.367188 105.257812 186.457031 106.855469 186.457031 108.730469 Z M 235.273438 75.800781 L 235.273438 98.585938 C 235.273438 99.035156 234.910156 99.398438 234.460938 99.398438 L 210.328125 99.398438 C 209.878906 99.398438 209.515625 99.035156 209.515625 98.585938 L 209.515625 75.800781 C 209.515625 75.355469 209.878906 74.992188 210.328125 74.992188 L 234.460938 74.992188 C 234.910156 74.992188 235.273438 75.355469 235.273438 75.800781 Z M 114.960938 100.359375 L 114.960938 75.824219 C 114.960938 75.378906 115.324219 75.015625 115.773438 75.015625 L 140.304688 75.015625 C 140.753906 75.015625 141.117188 75.378906 141.117188 75.824219 L 141.117188 100.359375 C 141.117188 100.804688 140.753906 101.167969 140.304688 101.167969 L 115.773438 101.167969 C 115.324219 101.167969 114.960938 100.804688 114.960938 100.359375 Z M 476.945312 156.054688 L 509.890625 156.054688 C 510.171875 156.054688 510.398438 155.828125 510.398438 155.550781 L 510.398438 122.601562 C 510.398438 122.320312 510.171875 122.09375 509.890625 122.09375 L 476.945312 122.09375 C 476.664062 122.09375 476.4375 122.320312 476.4375 122.601562 L 476.4375 155.550781 C 476.4375 155.828125 476.664062 156.054688 476.945312 156.054688 Z M 484.722656 129.980469 L 493.84375 130.015625 L 493.804688 139.105469 L 502.894531 139.140625 L 502.859375 148.261719 L 493.738281 148.226562 L 493.773438 139.136719 L 484.6875 139.101562 Z M 453.152344 159.871094 C 453.25 160.121094 453.125 160.398438 452.878906 160.496094 L 428.238281 170.125 C 427.992188 170.222656 427.710938 170.101562 427.613281 169.855469 L 425.597656 164.695312 L 425.597656 164.691406 L 426.933594 162.0625 C 427.277344 161.390625 427.816406 160.851562 428.453125 160.445312 C 430.097656 159.386719 430.457031 157.808594 430.472656 156.667969 C 430.480469 156.003906 429.738281 155.597656 429.164062 155.9375 L 423.519531 159.324219 L 420.75 152.050781 L 420.679688 152.109375 L 420.675781 152.101562 L 415.019531 137.628906 C 414.921875 137.382812 415.046875 137.101562 415.292969 137.007812 L 439.933594 127.375 C 440.179688 127.277344 440.460938 127.402344 440.558594 127.648438 Z M 168.550781 182.660156 L 151.644531 195.183594 L 159.933594 201.867188 C 159.929688 201.871094 159.925781 201.871094 159.925781 201.875 L 159.320312 202.875 L 152.796875 213.664062 L 152.230469 214.601562 L 139.078125 207.503906 L 139.078125 214.644531 L 99.511719 214.644531 L 99.511719 169.878906 C 99.511719 164.871094 101.621094 160.097656 105.324219 156.730469 L 108.671875 153.679688 L 110.773438 154.644531 L 127.128906 162.171875 C 127.222656 162.214844 127.320312 162.214844 127.410156 162.175781 C 127.496094 162.140625 127.566406 162.070312 127.601562 161.976562 L 128.8125 158.648438 C 128.824219 158.621094 128.851562 158.609375 128.878906 158.621094 L 130.804688 159.441406 L 132.242188 160.054688 L 134.199219 163.796875 L 148.742188 176.625 C 149.015625 176.867188 149.40625 176.914062 149.726562 176.742188 L 160.476562 170.972656 L 160.988281 171.714844 L 168.125 182.039062 Z M 539.246094 262.550781 C 538.921875 263.839844 538.246094 265 537.328125 265.925781 C 536.734375 266.523438 536.042969 267.027344 535.273438 267.402344 L 521.84375 273.964844 L 519.710938 275.007812 L 514.011719 277.789062 L 506.78125 281.324219 C 506.410156 281.503906 506.132812 281.828125 506.011719 282.222656 L 501.082031 298.1875 C 500.929688 298.683594 500.390625 298.953125 499.902344 298.777344 L 498.175781 298.152344 L 498.167969 298.152344 L 489.980469 295.199219 L 487.542969 294.320312 L 482.363281 292.449219 L 482.15625 292.375 L 481.136719 292.003906 L 465.265625 286.28125 L 465.167969 286.246094 L 463.386719 285.605469 C 463.074219 285.492188 462.867188 285.195312 462.867188 284.863281 L 462.867188 280.300781 C 462.867188 278.949219 463.539062 277.691406 464.65625 276.9375 L 485.09375 263.21875 L 487.339844 261.710938 L 507.628906 248.089844 L 538.113281 248.089844 C 540.082031 252.796875 540.484375 257.617188 539.246094 262.550781 Z M 539.246094 262.550781 " fill-opacity="1" fill-rule="nonzero"/><g clip-path="url(#3828b93c7e)"><path fill="#000000" d="M 316.753906 304.816406 C 317.070312 320.042969 314.664062 336.121094 309.886719 352.546875 L 290.335938 352.546875 C 285.949219 336.644531 283.804688 320.71875 283.914062 304.816406 Z M 298.769531 300.417969 L 316.582031 300.417969 C 316.570312 300.199219 316.558594 299.980469 316.546875 299.765625 C 316.472656 298.285156 316.351562 296.824219 316.199219 295.367188 C 316.039062 293.703125 315.839844 292.035156 315.601562 290.390625 L 284.621094 290.390625 C 284.46875 292.046875 284.339844 293.710938 284.242188 295.367188 C 284.144531 296.835938 284.066406 298.292969 284.011719 299.765625 C 284.003906 299.980469 284.003906 300.199219 283.992188 300.417969 Z M 356.3125 135.675781 C 356.3125 135.671875 356.3125 135.671875 356.3125 135.667969 C 356.605469 133.582031 358.285156 132.125 361.269531 133.363281 L 361.59375 134.621094 L 361.621094 134.722656 L 363.898438 134.722656 L 364.054688 134.128906 L 365.359375 129.167969 C 365.644531 128.082031 366.664062 127.355469 367.78125 127.441406 L 380.027344 128.367188 C 380.105469 129.230469 380.152344 130.074219 380.179688 130.90625 L 380.1875 130.902344 C 382.957031 123.214844 375.902344 118.546875 368.835938 118.691406 C 360.925781 118.855469 352.648438 124.699219 356.3125 135.675781 Z M 360 161.542969 C 360.003906 161.546875 360.007812 161.546875 360.011719 161.550781 C 360.035156 161.582031 360.082031 161.589844 360.109375 161.558594 L 363.757812 157.730469 C 363.757812 157.726562 363.757812 157.726562 363.757812 157.726562 C 363.875 157.609375 364.046875 157.5625 364.203125 157.609375 C 364.207031 157.613281 364.210938 157.609375 364.210938 157.609375 L 365.203125 157.917969 L 367.671875 158.6875 L 367.671875 158.691406 L 368.328125 160.855469 C 368.332031 160.871094 368.335938 160.886719 368.339844 160.902344 C 368.488281 161.414062 368.5625 161.941406 368.5625 162.472656 C 368.5625 162.492188 368.566406 162.515625 368.566406 162.539062 L 368.398438 176.617188 L 369.425781 176.222656 C 369.96875 176.015625 370.558594 176.429688 370.519531 177.007812 C 370.46875 177.714844 370.15625 178.613281 369.070312 179.296875 C 368.828125 179.453125 368.601562 179.628906 368.425781 179.855469 L 368.359375 179.941406 L 368.339844 181.535156 L 371.425781 180.992188 C 371.90625 180.898438 372.332031 180.632812 372.640625 180.246094 C 373.144531 179.609375 374.210938 178.621094 376.148438 178.125 L 373.945312 161.914062 C 373.945312 161.898438 373.945312 161.882812 373.941406 161.867188 C 373.890625 161.472656 373.882812 161.070312 373.921875 160.671875 C 373.921875 160.660156 373.921875 160.648438 373.921875 160.636719 L 374.175781 157.96875 L 374.179688 157.964844 L 374.90625 157.628906 L 376.789062 156.757812 C 376.789062 156.757812 376.792969 156.757812 376.792969 156.757812 C 376.953125 156.6875 377.136719 156.710938 377.269531 156.828125 L 381.398438 160.429688 C 381.402344 160.433594 381.40625 160.429688 381.40625 160.429688 C 381.453125 160.460938 381.511719 160.433594 381.511719 160.378906 L 381.511719 151.40625 L 375.835938 148.09375 L 375.835938 148.097656 L 375.578125 148.894531 L 373.15625 156.398438 L 367.722656 156.398438 L 360.617188 147.691406 L 359.421875 146.226562 L 359.402344 146.238281 L 354.023438 150.003906 L 354.019531 150.007812 L 354.746094 151.402344 Z M 373.328125 189.628906 C 372.871094 190.023438 372.296875 190.238281 371.695312 190.238281 L 368.234375 190.238281 L 368.148438 197.511719 L 368.148438 197.523438 C 368.148438 197.640625 368.191406 197.75 368.277344 197.828125 L 373.351562 202.855469 C 373.363281 202.867188 373.363281 202.867188 373.371094 202.878906 C 373.546875 203.03125 373.820312 203.019531 373.980469 202.84375 L 378.671875 197.957031 C 378.671875 197.957031 378.671875 197.945312 378.683594 197.945312 C 378.75 197.859375 378.792969 197.75 378.792969 197.640625 L 378.792969 197.597656 L 377.246094 186.234375 Z M 410.214844 346.40625 L 399.59375 340.410156 L 400.507812 340.410156 C 400.746094 340.410156 400.933594 340.203125 400.90625 339.964844 L 386.980469 213.144531 L 348.132812 213.144531 L 332.855469 340.410156 L 333.144531 340.410156 L 322.882812 346.53125 C 321.878906 347.132812 321.261719 348.214844 321.261719 349.386719 L 321.261719 351.148438 C 321.261719 351.425781 321.488281 351.652344 321.765625 351.652344 L 341.539062 351.652344 C 341.714844 351.652344 341.878906 351.558594 341.96875 351.410156 L 343.082031 349.578125 C 343.171875 349.425781 343.386719 349.425781 343.480469 349.574219 L 344.640625 351.417969 C 344.734375 351.5625 344.894531 351.652344 345.066406 351.652344 L 349.667969 351.652344 C 349.921875 351.652344 350.136719 351.464844 350.171875 351.214844 C 350.707031 347.496094 350.796875 343.867188 350.109375 340.410156 L 350.867188 340.410156 C 351.023438 340.410156 351.15625 340.296875 351.183594 340.140625 L 369.167969 239.214844 L 381.429688 340.054688 C 381.453125 340.257812 381.625 340.410156 381.828125 340.410156 L 382.632812 340.410156 L 382.632812 351.140625 C 382.632812 351.421875 382.863281 351.652344 383.144531 351.652344 L 387.671875 351.652344 C 387.84375 351.652344 388.007812 351.5625 388.101562 351.414062 L 389.28125 349.539062 C 389.375 349.394531 389.585938 349.394531 389.675781 349.539062 L 390.785156 351.347656 C 390.867188 351.535156 391.046875 351.652344 391.25 351.652344 L 410.96875 351.652344 C 411.25 351.652344 411.476562 351.421875 411.476562 351.140625 L 411.476562 348.570312 C 411.476562 347.675781 410.996094 346.847656 410.214844 346.40625 Z M 216.375 340.0625 L 204.890625 344.710938 C 203.695312 345.1875 202.398438 345.351562 201.125 345.179688 L 195.847656 344.4375 L 191.9375 346.789062 C 191.1875 347.234375 190.730469 348.050781 190.730469 348.921875 L 190.730469 351.449219 C 190.730469 351.90625 191.101562 352.277344 191.558594 352.277344 L 206.449219 352.277344 C 206.753906 352.277344 207.046875 352.144531 207.253906 351.917969 L 211.042969 347.789062 C 211.203125 347.617188 211.488281 347.726562 211.488281 347.953125 L 211.488281 351.6875 C 211.488281 352.015625 211.738281 352.277344 212.066406 352.277344 L 215.449219 352.277344 C 215.917969 352.277344 216.332031 351.917969 216.398438 351.449219 C 216.929688 347.492188 216.972656 343.691406 216.378906 340.082031 C 216.375 340.074219 216.375 340.070312 216.375 340.0625 Z M 246.832031 246.882812 L 246.808594 245.316406 C 246.769531 242.507812 246.371094 239.71875 245.625 237.011719 L 242.476562 225.597656 L 241.070312 227.417969 L 228.105469 244.171875 C 228.050781 244.242188 227.976562 244.289062 227.894531 244.304688 C 227.8125 244.320312 227.722656 244.304688 227.648438 244.261719 L 226.507812 243.585938 L 225.003906 249.191406 C 224.886719 249.632812 224.722656 250.058594 224.515625 250.464844 L 222.601562 254.242188 C 222.300781 254.839844 221.6875 255.214844 221.019531 255.214844 L 212.636719 255.214844 C 211.867188 255.214844 211.1875 254.722656 210.949219 253.996094 L 210.027344 251.195312 C 209.695312 250.183594 209.679688 249.09375 209.988281 248.074219 L 211.175781 244.128906 C 211.375 243.480469 211.695312 242.871094 212.125 242.34375 L 216.132812 237.441406 L 215.136719 236.855469 C 214.957031 236.75 214.910156 236.511719 215.03125 236.34375 L 230.949219 214.347656 L 208.71875 214.347656 L 204.929688 238.011719 C 204.625 239.90625 204.449219 241.824219 204.402344 243.746094 L 202.199219 332.675781 C 202.195312 332.90625 202.378906 333.09375 202.605469 333.09375 L 219.847656 333.09375 C 220.058594 333.09375 220.238281 332.929688 220.25 332.714844 L 225.867188 254.019531 C 225.871094 253.929688 226 253.933594 226.003906 254.019531 L 230.753906 332.765625 C 230.765625 332.949219 230.917969 333.09375 231.105469 333.09375 L 247.722656 333.09375 C 247.917969 333.09375 248.074219 332.933594 248.070312 332.738281 L 246.957031 255.652344 Z M 149.589844 278.039062 C 150.148438 281.414062 150.023438 284.863281 149.214844 288.183594 L 137.128906 340.507812 L 143.710938 345.566406 C 144.28125 346.003906 144.613281 346.683594 144.613281 347.402344 L 144.613281 350.910156 C 144.613281 351.210938 144.367188 351.457031 144.066406 351.457031 L 136.914062 351.457031 C 135.121094 351.457031 133.347656 351.109375 131.6875 350.433594 L 128.046875 348.953125 C 128.058594 349.050781 128.089844 349.148438 128.089844 349.25 L 128.089844 352.6875 C 128.089844 353.101562 127.75 353.441406 127.335938 353.441406 L 110.105469 353.441406 C 109.890625 353.441406 109.691406 353.324219 109.582031 353.140625 L 108.683594 351.621094 C 108.5625 351.410156 108.257812 351.410156 108.132812 351.621094 L 107.234375 353.140625 C 107.125 353.324219 106.925781 353.441406 106.710938 353.441406 L 102.859375 353.441406 C 102.582031 353.441406 102.332031 353.253906 102.261719 352.984375 C 101.28125 349.371094 101.308594 345.761719 102.320312 342.160156 L 100.363281 342.136719 C 100.191406 342.132812 100.054688 341.988281 100.066406 341.816406 L 103.28125 286.8125 C 103.332031 285.261719 103.292969 283.710938 103.160156 282.164062 L 100.875 255.652344 L 100.117188 246.882812 L 99.699219 242.027344 C 99.574219 240.570312 99.511719 239.109375 99.511719 237.644531 L 99.511719 214.644531 L 139.078125 214.644531 Z M 129.910156 279.589844 L 124.421875 254.078125 C 124.351562 253.746094 123.859375 253.796875 123.859375 254.136719 L 123.859375 281.613281 C 123.859375 283.527344 123.746094 285.4375 123.519531 287.339844 L 117.777344 342.070312 C 117.761719 342.226562 117.632812 342.34375 117.476562 342.339844 L 116.5625 342.328125 L 119.164062 343.535156 C 119.558594 340.546875 120.800781 337.078125 122.40625 334.757812 L 121 334.210938 C 120.878906 334.164062 120.8125 334.039062 120.835938 333.914062 L 130.046875 286.253906 C 130.429688 284.042969 130.382812 281.78125 129.910156 279.589844 Z M 215.136719 141.441406 C 215.375 140.699219 215.71875 139.820312 216.101562 138.953125 L 225.25 139.257812 C 226.078125 139.285156 226.839844 139.714844 227.296875 140.40625 L 229.929688 144.40625 C 235.5 142.414062 237.515625 148.796875 231.863281 151.925781 L 233.3125 157.378906 L 233.316406 157.378906 C 236.992188 156.480469 241.058594 154.585938 243.882812 152.152344 C 245.054688 151.144531 245.433594 149.484375 244.90625 148.03125 C 241.164062 137.738281 236.25 131.976562 229.847656 130.15625 C 225.148438 128.820312 220.3125 129.9375 216.195312 133.757812 C 214.890625 134.96875 214.308594 136.777344 214.621094 138.53125 Z M 110.585938 135.769531 C 111.050781 136.15625 111.449219 136.703125 111.417969 137.308594 C 111.402344 137.605469 111.285156 137.890625 111.238281 138.183594 C 111.144531 138.828125 111.4375 139.515625 111.972656 139.890625 C 112.582031 140.316406 113.144531 140.125 113.789062 140.105469 C 112.914062 136.117188 116.109375 133.695312 118.964844 136.175781 C 118.964844 136.175781 119.417969 136.273438 119.644531 136.320312 C 120.722656 136.546875 121.980469 135.882812 122.433594 134.894531 C 122.804688 134.097656 122.753906 133.125 123.238281 132.390625 C 123.671875 131.738281 124.523438 131.390625 125.289062 131.554688 C 125.679688 131.636719 126.03125 131.832031 126.417969 131.933594 C 127.398438 132.191406 128.644531 131.546875 128.660156 130.53125 C 128.667969 129.992188 128.355469 129.398438 128.652344 128.949219 C 129.003906 128.40625 129.882812 128.632812 130.320312 129.109375 C 130.761719 129.582031 131.011719 130.230469 131.539062 130.605469 C 132.078125 130.984375 132.863281 130.972656 133.394531 130.578125 C 134 130.125 134.300781 129.234375 135.042969 129.070312 C 135.574219 128.949219 136.132812 129.304688 136.390625 129.785156 C 136.648438 130.269531 136.667969 130.84375 136.613281 131.386719 C 136.582031 131.679688 136.574219 131.972656 136.589844 132.265625 C 136.617188 132.925781 137.128906 133.457031 137.808594 133.730469 C 137.917969 133.777344 138.035156 133.8125 138.152344 133.84375 C 138.15625 133.84375 138.164062 133.84375 138.167969 133.84375 C 138.382812 133.898438 138.601562 133.910156 138.808594 133.996094 C 138.992188 134.070312 139.164062 134.179688 139.308594 134.320312 C 139.46875 134.472656 139.632812 134.613281 139.777344 134.78125 C 139.878906 134.902344 139.976562 135.03125 140.050781 135.171875 C 140.574219 136.148438 139.898438 137.230469 140.082031 138.273438 C 140.175781 138.792969 140.433594 139.402344 140.863281 139.714844 C 141.261719 138.054688 142.941406 137.324219 143.414062 135.746094 C 143.753906 134.605469 143.078125 133.378906 142.171875 132.605469 C 141.796875 132.28125 141.371094 132.003906 141.066406 131.609375 C 140.28125 130.601562 140.492188 129.179688 140.585938 127.90625 C 140.675781 126.636719 140.441406 125.085938 139.269531 124.578125 C 138.890625 124.414062 138.46875 124.386719 138.082031 124.242188 C 136.503906 123.652344 136.066406 121.320312 134.441406 120.863281 C 133.46875 120.59375 132.460938 121.117188 131.453125 121.136719 C 129.066406 121.179688 127.445312 118.496094 125.09375 118.09375 C 123.59375 117.835938 122.066406 118.589844 121.007812 119.683594 C 120 120.726562 119.1875 122.15625 117.769531 122.460938 C 116.925781 122.640625 116.054688 122.363281 115.191406 122.417969 C 113.8125 122.511719 112.550781 123.558594 112.210938 124.898438 C 111.925781 126.023438 112.195312 127.359375 111.429688 128.234375 C 110.960938 128.769531 110.222656 128.964844 109.617188 129.34375 C 108.734375 129.890625 108.132812 130.867188 108.039062 131.898438 C 107.945312 132.929688 108.359375 134 109.125 134.699219 C 109.570312 135.105469 110.121094 135.386719 110.585938 135.769531 Z M 165.40625 204.796875 L 160.476562 201.742188 C 160.292969 201.625 160.050781 201.683594 159.933594 201.867188 C 159.929688 201.871094 159.925781 201.871094 159.925781 201.875 L 159.320312 202.875 L 152.796875 213.664062 L 152.230469 214.601562 L 151.898438 215.152344 C 151.785156 215.339844 151.84375 215.582031 152.027344 215.699219 L 156.953125 218.753906 C 157.144531 218.875 157.390625 218.8125 157.507812 218.625 L 158.628906 216.769531 L 158.628906 216.765625 L 164.949219 206.3125 L 164.953125 206.308594 L 165.535156 205.34375 C 165.648438 205.15625 165.589844 204.914062 165.40625 204.796875 Z M 244.972656 340.0625 L 233.488281 344.710938 C 232.292969 345.1875 230.996094 345.351562 229.722656 345.179688 L 224.441406 344.4375 L 220.535156 346.789062 C 219.785156 347.234375 219.328125 348.050781 219.328125 348.921875 L 219.328125 351.449219 C 219.328125 351.90625 219.695312 352.277344 220.152344 352.277344 L 235.046875 352.277344 C 235.351562 352.277344 235.644531 352.144531 235.851562 351.917969 L 239.636719 347.789062 C 239.800781 347.617188 240.085938 347.726562 240.085938 347.953125 L 240.085938 351.6875 C 240.085938 352.015625 240.335938 352.277344 240.660156 352.277344 L 244.046875 352.277344 C 244.515625 352.277344 244.929688 351.917969 244.992188 351.449219 C 245.449219 348.058594 245.519531 344.792969 245.164062 341.652344 C 245.105469 341.121094 245.058594 340.585938 244.972656 340.0625 Z M 130.503906 154.851562 L 114.496094 147.75 L 114.496094 147.753906 L 108.671875 153.679688 L 110.773438 154.644531 L 127.128906 162.171875 C 127.222656 162.214844 127.320312 162.214844 127.410156 162.175781 C 127.496094 162.140625 127.566406 162.070312 127.601562 161.976562 L 128.8125 158.648438 C 128.824219 158.621094 128.851562 158.609375 128.878906 158.621094 L 130.804688 159.441406 L 132.242188 160.054688 L 130.507812 154.851562 Z M 172.40625 176.648438 L 166.632812 168.296875 L 165.671875 166.90625 C 165.457031 166.59375 165.027344 166.523438 164.722656 166.75 L 160.515625 169.902344 C 160.230469 170.117188 160.164062 170.519531 160.367188 170.816406 L 160.476562 170.972656 L 160.988281 171.714844 L 168.125 182.039062 L 168.550781 182.660156 L 168.886719 183.144531 C 169.101562 183.457031 169.53125 183.527344 169.835938 183.300781 L 174.042969 180.148438 C 174.328125 179.933594 174.394531 179.527344 174.191406 179.234375 Z M 233.554688 158.285156 L 218.261719 163.710938 L 218.257812 163.714844 L 218.023438 163.796875 L 218.023438 163.800781 L 218.019531 163.808594 L 214.804688 168.929688 L 216.496094 167.742188 L 218.023438 166.664062 L 219.867188 170.027344 L 235.585938 163.632812 L 237.082031 163.023438 Z M 495.265625 331.597656 L 492.984375 333.292969 L 490.746094 334.957031 L 484.859375 339.335938 L 483.613281 339.324219 L 477.203125 339.261719 C 477.199219 339.1875 477.1875 339.105469 477.183594 339.03125 C 477.140625 338.539062 477.101562 338.050781 477.046875 337.554688 C 477.046875 337.554688 477.042969 337.554688 477.042969 337.554688 C 476.972656 336.902344 476.894531 336.25 476.796875 335.585938 L 476.792969 335.589844 L 472.539062 338.714844 L 466.25 343.328125 L 454.273438 343.214844 L 454.265625 343.214844 L 448.964844 345.707031 C 447.707031 346.300781 446.902344 347.5625 446.902344 348.953125 L 446.902344 351.839844 C 446.902344 352.316406 447.289062 352.703125 447.765625 352.703125 L 465.597656 352.703125 C 465.835938 352.703125 466.0625 352.597656 466.214844 352.414062 L 470.199219 347.683594 C 470.375 347.476562 470.714844 347.601562 470.714844 347.871094 L 470.714844 352.4375 C 470.714844 352.582031 470.835938 352.703125 470.984375 352.703125 L 476.402344 352.703125 C 476.535156 352.703125 476.648438 352.609375 476.671875 352.476562 C 476.878906 351.238281 477.042969 349.984375 477.160156 348.710938 L 484.214844 348.710938 C 484.449219 348.710938 484.667969 348.609375 484.816406 348.429688 L 488.84375 343.652344 C 489.007812 343.457031 489.324219 343.574219 489.324219 343.828125 L 489.324219 347.925781 C 489.324219 348.359375 489.675781 348.710938 490.113281 348.710938 L 494.570312 348.710938 C 494.957031 348.710938 495.292969 348.429688 495.351562 348.046875 C 496.183594 342.867188 496.109375 337.402344 495.265625 331.59375 Z M 511.058594 181.632812 C 511.339844 180.007812 511.789062 178.414062 512.375 176.847656 C 515.304688 179.007812 518.527344 180.601562 522.128906 181.460938 C 522.816406 181.625 523.40625 182.066406 523.71875 182.699219 L 524.824219 184.925781 C 524.933594 185.140625 525.238281 185.15625 525.363281 184.945312 L 526.828125 182.507812 C 531.242188 181.433594 533.386719 185.925781 529.230469 189.957031 L 529.910156 192.148438 C 529.910156 192.148438 529.910156 192.144531 529.910156 192.144531 C 534.804688 187.964844 536.34375 182.726562 534.164062 177.761719 C 535.546875 177.511719 536.839844 176.855469 537.855469 175.792969 C 540.589844 172.9375 540.304688 168.226562 537.21875 165.273438 C 534.132812 162.316406 529.414062 162.234375 526.679688 165.089844 C 525.472656 166.351562 524.855469 167.972656 524.808594 169.644531 C 517.40625 167.660156 508.019531 170.796875 511.058594 181.621094 C 511.058594 181.625 511.058594 181.628906 511.058594 181.632812 Z M 539.46875 210.804688 L 534.203125 199.535156 C 534.019531 199.144531 533.582031 198.941406 533.164062 199.054688 L 532.144531 199.332031 L 532.140625 199.332031 L 515.261719 203.925781 L 515.132812 203.960938 C 515.113281 203.964844 515.09375 203.976562 515.074219 203.984375 C 514.277344 204.21875 513.605469 204.765625 513.21875 205.503906 L 507.851562 215.859375 C 506.769531 217.941406 506.261719 220.277344 506.375 222.621094 L 506.539062 225.921875 L 502.882812 228.691406 C 502.425781 229.042969 501.851562 229.207031 501.277344 229.15625 L 490.179688 228.167969 C 490.046875 228.15625 489.925781 228.242188 489.894531 228.375 L 489.78125 228.859375 L 489.777344 228.859375 L 487.816406 237.113281 L 486.871094 241.09375 L 486.871094 241.097656 L 486.574219 242.34375 C 486.539062 242.496094 486.644531 242.648438 486.800781 242.671875 L 489.921875 243.125 L 500.816406 244.699219 C 502.050781 244.878906 503.308594 244.628906 504.382812 243.992188 L 507.339844 242.238281 L 507.628906 248.089844 L 538.113281 248.089844 L 540.488281 216.359375 C 540.628906 214.453125 540.28125 212.539062 539.46875 210.804688 Z M 479.289062 237.199219 L 479.125 237.113281 L 479.070312 237.085938 C 478.496094 236.789062 477.894531 236.554688 477.28125 236.355469 C 477.15625 236.316406 477.03125 236.265625 476.90625 236.230469 L 472.613281 235.003906 C 472.1875 234.882812 471.742188 234.855469 471.3125 234.9375 C 471.171875 234.960938 471.027344 235 470.890625 235.050781 C 470.746094 235.101562 470.582031 235.15625 470.40625 235.210938 C 470.234375 235.261719 470.050781 235.316406 469.851562 235.371094 C 469.710938 235.410156 469.5625 235.445312 469.410156 235.480469 C 469 235.578125 468.550781 235.667969 468.066406 235.734375 C 467.421875 235.824219 466.71875 235.875 465.972656 235.859375 C 464.589844 235.824219 463.074219 235.550781 461.566406 234.84375 C 461.53125 234.828125 461.5 234.816406 461.464844 234.800781 C 461.207031 234.675781 460.953125 234.539062 460.699219 234.386719 C 460.589844 234.324219 460.480469 234.269531 460.367188 234.222656 C 460.308594 234.199219 460.25 234.183594 460.1875 234.164062 C 460.113281 234.140625 460.039062 234.117188 459.960938 234.101562 C 459.742188 234.050781 459.519531 234.035156 459.292969 234.058594 L 456.558594 234.359375 C 456.28125 234.386719 456.003906 234.339844 455.757812 234.226562 C 455.511719 234.113281 455.296875 233.929688 455.140625 233.699219 L 454.191406 232.289062 C 454.078125 232.125 454.042969 231.9375 454.035156 231.75 L 445.753906 231.75 C 445.480469 231.75 445.238281 231.582031 445.140625 231.324219 L 433.011719 198.121094 C 432.917969 197.867188 432.671875 197.695312 432.398438 197.695312 L 427.585938 197.695312 C 427.140625 197.695312 426.828125 198.132812 426.96875 198.554688 L 439.804688 236.757812 C 439.855469 236.914062 439.972656 237.035156 440.109375 237.113281 C 440.203125 237.164062 440.308594 237.199219 440.421875 237.199219 L 479.296875 237.199219 Z M 479.289062 237.199219 " fill-opacity="1" fill-rule="nonzero"/></g></svg>