<svg xmlns="http://www.w3.org/2000/svg" xmlns:xlink="http://www.w3.org/1999/xlink" width="840" zoomAndPan="magnify" viewBox="0 0 630 419.999985" height="560" preserveAspectRatio="xMidYMid meet" version="1.0"><defs><clipPath id="efca89ba26"><path d="M 101.414062 42 L 528.914062 42 L 528.914062 372.75 L 101.414062 372.75 Z M 101.414062 42 " clip-rule="nonzero"/></clipPath></defs><path fill="#fcd34f" d="M 214.933594 133.867188 L 197.226562 139.816406 C 197.078125 139.863281 196.917969 139.785156 196.867188 139.632812 L 195 136.691406 L 191.777344 138.082031 L 191.773438 138.082031 L 191.484375 138.960938 C 191.542969 139.078125 191.511719 139.238281 191.402344 139.332031 L 179.121094 149.246094 C 178.378906 149.867188 177.449219 150.207031 176.476562 150.207031 L 172.148438 150.207031 C 170.996094 150.207031 169.894531 149.726562 169.125 148.875 L 163.355469 143.445312 L 162.761719 149.855469 L 165.558594 171.917969 C 165.589844 172.179688 165.398438 172.398438 165.148438 172.417969 L 162.21875 172.417969 L 170.917969 235.222656 C 170.925781 235.316406 170.855469 235.394531 170.765625 235.40625 L 169.90625 235.464844 L 169.945312 235.523438 C 170.195312 235.867188 170.515625 236.144531 170.898438 236.328125 L 176.191406 239.085938 C 176.28125 239.125 176.339844 239.214844 176.339844 239.316406 L 176.140625 241.4375 C 176.140625 241.589844 176.019531 241.699219 175.878906 241.699219 L 169.894531 241.578125 C 169.214844 241.578125 168.542969 241.5 167.894531 241.328125 L 165.21875 240.636719 L 165.21875 241.578125 L 162.3125 241.738281 C 162.273438 241.710938 162.242188 241.679688 162.203125 241.648438 C 162.011719 239.777344 162.992188 237.609375 163.101562 235.667969 L 162.589844 235.707031 C 162.511719 235.714844 162.429688 235.65625 162.421875 235.574219 L 157.894531 203.457031 C 157.753906 202.355469 157.542969 201.261719 157.253906 200.191406 L 150.953125 177.132812 C 150.925781 176.980469 150.773438 176.890625 150.632812 176.929688 L 147.257812 177.113281 C 147.167969 177.132812 147.097656 177.191406 147.066406 177.28125 L 136.875 201.242188 C 136.582031 201.996094 136.3125 202.757812 136.070312 203.519531 L 127.378906 235.96875 C 127.351562 236.066406 127.238281 236.136719 127.128906 236.117188 L 126.328125 235.988281 C 126.46875 238.0625 126.410156 239.964844 126.160156 241.816406 L 123.542969 241.949219 L 123.542969 241.003906 L 119.523438 241.550781 C 118.960938 241.667969 118.382812 241.730469 117.808594 241.730469 L 111.027344 241.828125 C 110.886719 241.828125 110.765625 241.71875 110.765625 241.566406 L 110.949219 239.40625 C 110.949219 239.308594 111.007812 239.207031 111.109375 239.167969 L 117.671875 236.027344 C 117.953125 235.910156 118.191406 235.730469 118.402344 235.507812 L 118.992188 234.867188 L 118.09375 234.71875 C 117.953125 234.695312 117.863281 234.566406 117.902344 234.425781 L 135.109375 174.09375 L 132.617188 174.222656 C 132.355469 174.242188 132.144531 174.035156 132.144531 173.773438 L 132.640625 157.59375 L 125.109375 161.058594 C 123.554688 161.699219 121.761719 161.136719 120.839844 159.726562 L 118.480469 156.894531 C 117.828125 155.894531 117.726562 154.632812 118.21875 153.550781 L 127.125 135.085938 C 128.6875 131.519531 130.246094 128.949219 133.820312 127.425781 L 139.839844 123.777344 L 140.210938 120.363281 L 140 120.222656 C 137.003906 120.402344 135.863281 118.328125 136.214844 116.648438 C 134.535156 114.601562 132.320312 110.589844 136.164062 108.957031 C 136.464844 108.828125 136.714844 108.617188 136.875 108.335938 C 141.679688 99.925781 152.238281 101.125 150.175781 108.644531 L 150.167969 108.652344 C 150.746094 110.667969 151.1875 112.832031 151.5 115.132812 C 151.570312 115.625 151.195312 116.03125 151.253906 116.542969 C 151.34375 117.375 151.433594 118.226562 151.503906 119.078125 C 151.542969 119.585938 151.6875 120.183594 151.226562 120.371094 L 151.789062 122.253906 L 151.789062 122.257812 L 157.847656 124.027344 C 161.753906 124.621094 165.269531 126.703125 167.671875 129.828125 L 174.628906 140.128906 C 174.679688 140.1875 174.757812 140.199219 174.828125 140.160156 L 187.414062 130.773438 C 187.5625 130.675781 187.773438 130.722656 187.855469 130.894531 L 188.355469 131.25 L 188.359375 131.25 L 192.023438 128.085938 L 188.15625 110.859375 C 188.105469 110.699219 188.1875 110.539062 188.335938 110.492188 L 205.9375 105.164062 C 206.089844 105.113281 206.25 105.195312 206.296875 105.34375 L 215.125 133.507812 C 215.175781 133.65625 215.09375 133.820312 214.933594 133.867188 Z M 266.429688 161.652344 C 266.808594 162.90625 266.121094 163.609375 265.289062 164.621094 L 263.167969 167.195312 C 262.035156 168.566406 260.65625 169.125 259.050781 168.351562 L 258.742188 168.222656 L 262.316406 184.582031 C 262.347656 184.722656 262.246094 184.863281 262.097656 184.871094 L 259.523438 185.335938 L 260.539062 237.273438 C 260.539062 237.34375 260.476562 237.402344 260.410156 237.402344 L 259.515625 238.167969 L 259.457031 238.644531 L 259.195312 240.835938 C 259.164062 241.105469 259.191406 241.378906 259.269531 241.636719 L 259.457031 242.242188 C 259.476562 242.394531 259.289062 242.832031 259.316406 242.980469 C 259.769531 245.105469 259.347656 246.441406 259.085938 248.59375 C 259.085938 248.707031 258.996094 248.804688 258.875 248.804688 L 257.292969 248.679688 C 257.171875 248.679688 257.082031 248.589844 257.082031 248.46875 L 256.992188 245.769531 L 253.789062 248.382812 C 253.679688 248.523438 253.507812 248.613281 253.316406 248.613281 L 245.921875 248.832031 C 245.671875 248.832031 245.472656 248.632812 245.472656 248.382812 L 245.59375 247.277344 C 245.59375 247.117188 245.671875 246.976562 245.804688 246.886719 L 250.722656 243.75 C 250.75 243.730469 250.742188 243.414062 250.773438 243.386719 C 250.933594 243.269531 251.136719 243.046875 251.324219 242.816406 C 251.382812 242.746094 251.4375 242.675781 251.492188 242.605469 C 251.535156 242.546875 251.574219 242.480469 251.613281 242.417969 C 251.824219 242.074219 251.945312 241.679688 251.945312 241.273438 L 251.957031 239.390625 L 251.960938 238.167969 L 251.097656 237.4375 C 251.027344 237.4375 250.980469 237.386719 250.96875 237.316406 L 248.695312 187.933594 C 248.683594 187.804688 248.585938 187.695312 248.445312 187.664062 L 245.476562 187.214844 C 245.316406 187.183594 245.164062 187.285156 245.125 187.445312 L 239.503906 209.96875 L 234.246094 237.554688 C 234.222656 237.613281 234.175781 237.652344 234.125 237.652344 L 233.199219 238.164062 L 233.195312 238.167969 L 232.210938 242.054688 C 232.140625 242.382812 232.101562 242.703125 232.089844 243.042969 C 232.089844 243.253906 231.882812 243.714844 231.902344 243.925781 C 232.003906 244.777344 231.808594 245.269531 231.789062 246.167969 C 231.777344 246.300781 231.769531 246.441406 231.769531 246.570312 C 231.738281 247.351562 231.835938 248.085938 231.738281 248.898438 C 231.726562 248.988281 231.636719 249.066406 231.546875 249.066406 L 229.25 249.070312 C 229.148438 249.070312 229.058594 248.980469 229.058594 248.878906 L 228.90625 245.734375 L 226.3125 248.730469 C 226.25 248.8125 226.140625 248.871094 226.042969 248.871094 L 226.027344 248.871094 L 217.796875 249.039062 C 217.605469 249.039062 217.457031 248.886719 217.457031 248.695312 L 217.519531 247.5 C 217.519531 247.441406 217.539062 247.378906 217.570312 247.320312 C 217.570312 247.320312 217.578125 247.320312 217.578125 247.308594 C 217.609375 247.269531 217.640625 247.230469 217.691406 247.199219 L 217.699219 247.1875 L 222.183594 244.621094 C 222.632812 244.378906 223.117188 243.746094 223.488281 243.414062 C 224.417969 242.574219 225.089844 241.492188 225.417969 240.261719 L 225.980469 238.167969 L 224.59375 237.851562 C 224.511719 237.851562 224.453125 237.78125 224.464844 237.699219 L 229.84375 209.367188 L 234.613281 184.726562 L 230.410156 184.871094 C 230.261719 184.863281 230.160156 184.722656 230.191406 184.582031 L 234.125 171.78125 L 220.253906 171.53125 C 220.144531 171.53125 220.046875 171.460938 220.003906 171.347656 L 218.1875 166.953125 L 218.183594 166.953125 L 217.890625 166.96875 L 217.4375 167 C 217.335938 167.003906 217.242188 166.984375 217.152344 166.953125 C 216.949219 166.882812 216.777344 166.730469 216.695312 166.519531 L 215.171875 162.542969 C 215.125 162.421875 215.101562 162.296875 215.101562 162.171875 C 215.097656 162.046875 215.117188 161.925781 215.160156 161.808594 L 215.835938 159.867188 L 216.003906 159.378906 L 216.003906 159.367188 L 215.046875 153.527344 C 215 153.367188 215.128906 153.207031 215.300781 153.207031 L 227.765625 153.097656 L 234.117188 141.960938 L 238.914062 139.597656 L 241.84375 136.792969 L 241.9375 136.363281 L 241.9375 136.359375 L 236.90625 134.339844 C 235.792969 134.046875 235.515625 133.417969 236.054688 132.40625 L 238.308594 128.324219 C 238.589844 127.800781 238.800781 127.230469 238.851562 126.648438 C 239.222656 122.835938 241.78125 120.160156 245.699219 120.160156 C 249.625 120.160156 252.609375 122.984375 252.949219 126.820312 C 253 127.351562 253.21875 127.84375 253.519531 128.273438 L 255.53125 131.597656 C 256.199219 132.558594 255.769531 133.898438 254.667969 134.289062 L 251.121094 136.21875 L 251.273438 136.710938 L 254.609375 140.03125 L 259.503906 142.417969 Z M 235.457031 165.382812 L 235.128906 157.300781 L 230.996094 159.386719 L 233.65625 168.683594 Z M 450.042969 211.96875 L 447.945312 215.832031 C 447.527344 216.644531 446.703125 217.15625 445.800781 217.207031 L 445.640625 217.835938 C 445.746094 218.042969 445.820312 218.25 445.910156 218.453125 C 445.910156 218.453125 445.910156 218.453125 445.910156 218.457031 C 447.261719 221.582031 446.757812 224.707031 445.820312 228.703125 C 445.457031 230.234375 444.175781 231.367188 442.605469 231.507812 L 421.746094 233.734375 L 422.585938 259.425781 C 421.492188 259.648438 421.113281 260.722656 419.859375 260.804688 C 419.859375 260.804688 419.859375 260.804688 419.859375 260.808594 C 419.699219 261.382812 419.550781 261.910156 419.425781 262.355469 C 419.191406 263.1875 419.039062 263.746094 419.019531 263.820312 C 419.097656 265.933594 418.40625 268.613281 418.195312 271.878906 C 418.195312 272.140625 417.984375 272.347656 417.722656 272.347656 L 416.164062 272.421875 C 415.902344 272.421875 415.691406 272.210938 415.691406 271.953125 L 415.472656 268.941406 C 415.472656 268.828125 415.339844 268.78125 415.261719 268.859375 L 411.789062 271.878906 C 411.589844 272.078125 411.308594 272.199219 411.019531 272.199219 L 404.28125 271.902344 C 404.273438 272.195312 404.253906 272.484375 404.230469 272.773438 C 404.230469 273.035156 404.023438 273.246094 403.761719 273.246094 L 401.5625 273.476562 C 401.300781 273.476562 401.09375 273.269531 401.09375 273.007812 L 401.019531 270.40625 C 401.019531 270.296875 400.886719 270.246094 400.808594 270.328125 L 397.363281 272.984375 C 397.164062 273.183594 396.882812 273.304688 396.589844 273.304688 L 387.976562 273.535156 C 387.675781 273.535156 387.425781 273.292969 387.425781 272.984375 L 387.484375 270.765625 C 387.484375 270.523438 387.636719 270.316406 387.867188 270.234375 L 390.027344 269.570312 C 390.527344 269.390625 390.871094 268.808594 391.332031 268.554688 C 392.003906 268.214844 392.644531 267.804688 393.234375 267.335938 L 393.234375 267.324219 C 395.578125 265.460938 397.261719 262.886719 398.042969 259.992188 L 398.792969 257.21875 C 398.792969 257.21875 398.792969 257.21875 398.792969 257.222656 L 398.792969 257.21875 C 397.671875 256.304688 397.777344 255.253906 396.714844 254.292969 L 408.757812 230.332031 C 409.609375 228.539062 411.113281 227.128906 412.964844 226.394531 L 429.949219 218.886719 L 429.875 218.453125 L 429.542969 216.472656 L 424.503906 216.515625 C 424.292969 216.515625 424.132812 216.335938 424.144531 216.125 L 423.234375 216.011719 L 420.492188 215.972656 L 417.332031 215.933594 C 417.214844 215.929688 417.101562 215.902344 416.984375 215.878906 C 416.71875 215.835938 416.460938 215.753906 416.234375 215.609375 L 411.777344 212.785156 L 411.773438 212.785156 C 411.722656 212.75 411.679688 212.710938 411.640625 212.664062 C 411.640625 212.664062 411.636719 212.660156 411.632812 212.65625 C 411.605469 212.621094 411.585938 212.582031 411.566406 212.542969 C 411.558594 212.523438 411.542969 212.511719 411.539062 212.492188 C 411.527344 212.46875 411.527344 212.445312 411.523438 212.421875 C 411.507812 212.351562 411.503906 212.28125 411.511719 212.210938 C 411.515625 212.179688 411.515625 212.148438 411.523438 212.117188 L 411.527344 212.113281 L 411.574219 211.945312 L 405.53125 197.691406 L 407.769531 198.335938 L 413.1875 197.863281 L 418.6875 207.667969 L 420.351562 208.144531 C 420.421875 208.164062 420.488281 208.207031 420.554688 208.234375 C 420.65625 208.273438 420.757812 208.304688 420.851562 208.359375 L 423.523438 209.941406 L 423.824219 209.347656 C 423.832031 209.148438 423.992188 208.988281 424.195312 208.988281 L 428.96875 208.859375 L 429.289062 203.027344 C 429.238281 201.375 429.628906 199.734375 430.421875 198.269531 L 434.300781 190.515625 L 433.710938 189.777344 L 433.882812 185.921875 L 433.441406 185.90625 L 432.742188 185.882812 C 432.027344 185.851562 431.417969 185.359375 431.308594 184.691406 C 431.28125 184.519531 431.261719 184.347656 431.242188 184.175781 C 431.203125 183.839844 431.175781 183.503906 431.171875 183.15625 C 431.167969 182.636719 431.203125 182.097656 431.277344 181.503906 L 429.996094 180.933594 C 429.820312 180.847656 429.710938 180.691406 429.683594 180.523438 C 429.671875 180.441406 429.675781 180.359375 429.699219 180.277344 C 429.726562 180.191406 429.773438 180.109375 429.84375 180.039062 L 431.527344 177.878906 C 431.667969 177.703125 431.753906 177.5 431.820312 177.289062 C 431.847656 177.199219 431.882812 177.109375 431.898438 177.015625 C 431.523438 174.328125 432.050781 173.226562 433.691406 172.183594 C 436.425781 170.132812 441.699219 170.566406 443.753906 173 C 445.175781 174.492188 446.144531 176.28125 446.324219 178.144531 L 446.453125 179.835938 C 446.496094 180.335938 446.664062 180.828125 446.933594 181.257812 L 448.8125 184.058594 C 449.0625 184.570312 448.554688 185.1875 448.082031 185.515625 C 446.441406 186.679688 444.8125 186.484375 442.359375 187.488281 L 442.972656 189.375 L 445.195312 191.910156 C 446.316406 193.183594 446.828125 193.9375 447.167969 195.589844 L 450.261719 210.277344 C 450.382812 210.855469 450.304688 211.449219 450.042969 211.96875 Z M 405.601562 267.351562 L 405.59375 267.351562 C 406.265625 267.011719 406.90625 266.597656 407.5 266.128906 L 407.5 266.117188 C 407.929688 265.777344 408.332031 265.410156 408.710938 265.019531 C 408.972656 264.753906 409.214844 264.464844 409.453125 264.179688 C 409.546875 264.066406 409.648438 263.957031 409.738281 263.84375 C 409.789062 263.78125 409.828125 263.710938 409.878906 263.644531 C 410.121094 263.320312 410.359375 262.992188 410.574219 262.648438 C 410.585938 262.628906 410.601562 262.609375 410.613281 262.589844 C 410.769531 262.332031 410.90625 262.0625 411.046875 261.792969 C 411.148438 261.605469 411.265625 261.425781 411.359375 261.230469 C 411.464844 261.007812 411.589844 260.792969 411.6875 260.5625 C 410.785156 260.453125 409.757812 259.390625 409.019531 259.242188 L 407.984375 260.859375 C 407.304688 260.761719 407.097656 261.496094 406.476562 261.335938 L 405.394531 263.367188 C 405.273438 263.589844 405.164062 263.820312 405.074219 264.058594 C 404.945312 264.371094 404.835938 264.699219 404.753906 265.019531 C 404.785156 265.8125 404.785156 266.734375 404.753906 267.746094 C 404.753906 267.746094 404.757812 267.742188 404.757812 267.742188 C 404.835938 267.710938 404.910156 267.671875 404.988281 267.636719 C 405.191406 267.546875 405.398438 267.457031 405.597656 267.355469 C 405.597656 267.351562 405.601562 267.351562 405.601562 267.351562 Z M 405.601562 267.351562 " fill-opacity="1" fill-rule="nonzero"/><path fill="#e67d22" d="M 518.359375 211.234375 L 517.230469 196.035156 C 517.132812 194.71875 516.714844 193.445312 516.015625 192.328125 L 513.09375 186.933594 C 512.945312 186.699219 512.667969 186.578125 512.394531 186.628906 L 512.320312 186.101562 L 511.289062 182.910156 L 512.171875 182.335938 C 513.554688 181.425781 514.289062 180.152344 514.367188 179.066406 C 514.746094 178.066406 514.84375 177.339844 515 176.351562 C 515.640625 172.144531 512.628906 169.605469 508.421875 168.992188 C 505.945312 168.632812 504.152344 168.71875 502.558594 170.203125 C 502.160156 170.5625 501.808594 170.972656 501.519531 171.421875 C 500.9375 172.273438 500.824219 173.542969 500.875 174.8125 C 500.875 174.828125 500.882812 174.84375 500.886719 174.859375 C 500.746094 175.636719 500.636719 176.445312 500.578125 177.269531 L 500.5625 177.269531 C 498.421875 178.628906 498.445312 180.640625 500.585938 181.261719 L 500.59375 181.261719 C 500.667969 182.121094 500.78125 182.953125 500.945312 183.730469 C 501.050781 184.238281 501.472656 184.617188 501.988281 184.648438 L 502.699219 184.691406 L 502.796875 187.917969 L 502.738281 188.476562 C 502.539062 188.515625 502.371094 188.636719 502.273438 188.816406 L 498.757812 196.8125 C 498.449219 197.382812 498.285156 198.023438 498.285156 198.671875 L 498.390625 210.007812 L 490.359375 208.75 C 490.304688 208.800781 490.273438 208.828125 490.21875 208.875 L 489.5 209.5625 L 487.46875 207.957031 C 487.136719 207.699219 486.765625 207.496094 486.371094 207.355469 L 483.074219 206.195312 L 478.59375 199.199219 C 478.539062 199.097656 478.421875 199.035156 478.304688 199.050781 L 469.972656 199.980469 C 469.773438 200.003906 469.660156 200.222656 469.753906 200.398438 L 477.515625 214.886719 C 477.570312 214.992188 477.6875 215.054688 477.804688 215.039062 L 480.628906 215.257812 L 481.59375 215.675781 C 482.007812 215.855469 482.457031 215.941406 482.90625 215.921875 L 489.28125 215.664062 L 490 216.785156 C 490.050781 216.839844 490.078125 216.867188 490.128906 216.921875 L 498.164062 216.96875 L 498.53125 220.226562 L 478.742188 228.214844 C 477.339844 228.757812 476.148438 229.757812 475.386719 231.050781 L 474.574219 232.421875 C 474.207031 233.042969 473.945312 233.714844 473.792969 234.414062 L 467.328125 264.425781 C 467.300781 264.535156 467.378906 264.65625 467.488281 264.675781 L 472.019531 265.945312 L 462.277344 271.414062 C 461.886719 271.632812 461.648438 272.054688 461.65625 272.503906 L 461.8125 273.304688 C 461.8125 273.453125 461.933594 273.574219 462.082031 273.574219 L 472.65625 273.222656 C 472.835938 273.222656 473.027344 273.171875 473.195312 273.089844 L 475.539062 272.097656 L 475.929688 273.417969 L 477.710938 273.199219 C 477.863281 273.199219 477.980469 273.078125 477.980469 272.929688 L 477.980469 272.839844 L 489.730469 272.035156 C 489.96875 272.015625 490.210938 271.933594 490.410156 271.804688 L 492.542969 270.800781 L 493.179688 272 L 494.734375 271.628906 C 494.925781 271.597656 495.066406 271.417969 495.035156 271.21875 L 493.667969 265.355469 L 494.550781 265.253906 C 494.667969 265.234375 494.75 265.132812 494.730469 265.023438 L 491.550781 236.15625 L 512.164062 234.09375 C 513.949219 233.941406 515.332031 232.449219 515.332031 230.644531 L 515.285156 219.425781 L 515.769531 215.546875 L 516.925781 214.597656 C 517.921875 213.777344 518.457031 212.523438 518.359375 211.234375 Z M 477.839844 271.605469 L 477.449219 266.921875 L 477.992188 267.011719 C 478.101562 267.03125 478.199219 266.960938 478.230469 266.863281 L 480.710938 261.085938 L 480.710938 261.117188 L 481.023438 266.238281 C 481.011719 266.367188 481.121094 266.46875 481.253906 266.449219 L 483.984375 266.871094 L 483.992188 266.875 L 483.996094 266.875 Z M 372.84375 158.277344 C 373.109375 158.953125 373.050781 159.710938 372.679688 160.335938 L 370.730469 163.527344 C 370.480469 163.9375 370.078125 164.226562 369.609375 164.328125 L 362.90625 166.324219 L 362.441406 166.546875 C 362.460938 166.582031 362.449219 166.628906 362.417969 166.65625 L 351.804688 175.5625 C 351.058594 176.179688 350.125 176.515625 349.15625 176.515625 L 346.675781 176.515625 C 345.488281 176.515625 344.359375 176.007812 343.574219 175.121094 L 338.820312 170.777344 L 338.382812 188 L 348.957031 220.945312 L 355.867188 252.703125 C 355.894531 252.835938 355.792969 252.957031 355.65625 252.957031 L 355.121094 252.964844 L 360.714844 257.386719 C 361.101562 257.664062 361.328125 258.109375 361.328125 258.582031 L 361.441406 259.570312 C 361.441406 259.691406 361.34375 259.792969 361.21875 259.792969 L 352.058594 259.371094 C 352.023438 259.371094 351.992188 259.363281 351.960938 259.347656 L 349.621094 258.621094 L 349.621094 259.554688 L 347.285156 259.632812 C 347.164062 259.632812 347.0625 259.535156 347.0625 259.410156 L 347.316406 253.121094 L 346.648438 253.128906 C 346.546875 253.128906 346.457031 253.0625 346.4375 252.960938 L 339.996094 221.164062 L 330.296875 198.269531 C 330.246094 198.128906 330.105469 198.042969 329.957031 198.054688 L 327.605469 197.898438 C 327.449219 197.914062 327.324219 198.039062 327.308594 198.199219 L 322.347656 252.792969 C 322.339844 252.84375 322.296875 252.886719 322.242188 252.886719 L 321.515625 252.886719 L 322.050781 259.609375 C 322.050781 259.714844 321.96875 259.796875 321.867188 259.796875 L 319.824219 259.941406 L 319.71875 258.6875 L 317.355469 259.6875 C 317.328125 259.703125 317.300781 259.710938 317.269531 259.710938 L 308.089844 259.769531 C 307.988281 259.769531 307.902344 259.683594 307.902344 259.582031 L 307.792969 258.582031 C 307.792969 258.148438 308.027344 257.753906 308.40625 257.542969 L 316.011719 253.101562 L 314.847656 253.101562 C 314.789062 253.101562 314.738281 253.054688 314.742188 252.996094 L 316.179688 187.222656 L 315.34375 179.578125 L 310.066406 181.761719 C 308.277344 182.375 306.300781 181.789062 305.132812 180.304688 L 303.667969 178.402344 C 302.535156 176.957031 302.40625 174.960938 303.347656 173.386719 C 307.5625 165.832031 310.074219 159.097656 313.605469 156.058594 L 317.835938 153.179688 L 321.351562 149.21875 L 322.003906 147.160156 L 321.054688 145.398438 C 321.046875 145.382812 321.027344 145.371094 321.003906 145.371094 C 317.246094 145.449219 316.597656 140.964844 319.105469 140.035156 L 319.019531 140.050781 C 318.078125 138.335938 318.378906 137.324219 318.382812 134.960938 C 318.503906 133.867188 319.199219 133.398438 320.179688 133.773438 C 320.527344 133.90625 320.894531 133.75 321.09375 133.4375 C 321.707031 132.472656 322.761719 132.089844 323.867188 132.769531 C 324.167969 132.957031 324.542969 132.875 324.75 132.589844 C 325.488281 131.589844 326.503906 131.40625 327.480469 132.203125 C 327.722656 132.398438 328.078125 132.425781 328.308594 132.21875 C 329.167969 131.4375 330.292969 131.113281 331.050781 132.757812 C 332.003906 134.917969 332.375 136.1875 331.882812 137.960938 C 332.554688 140.972656 332.691406 143.96875 332.113281 147.171875 C 332.027344 147.648438 331.613281 148.003906 331.132812 148.03125 L 330.582031 148.0625 L 330.980469 149.519531 L 335.21875 153.261719 L 339.460938 155.238281 L 339.5625 155.289062 L 339.5625 155.296875 C 341.980469 158.167969 345.601562 163.585938 347.886719 166.828125 C 348.144531 167.195312 348.648438 167.296875 349.027344 167.050781 L 358.96875 160.035156 C 359.015625 160.003906 359.078125 160.023438 359.101562 160.070312 L 359.863281 160.300781 L 362.367188 157.550781 C 362.597656 157.296875 362.855469 157.066406 363.132812 156.859375 L 365.03125 155.453125 C 365.390625 155.183594 365.90625 155.394531 365.984375 155.835938 C 366.023438 156.039062 366.019531 156.230469 366 156.410156 C 366 156.429688 365.992188 156.445312 365.992188 156.464844 C 365.96875 156.636719 365.921875 156.796875 365.855469 156.953125 C 365.804688 157.0625 365.753906 157.175781 365.6875 157.277344 C 365.621094 157.386719 365.546875 157.492188 365.460938 157.59375 C 365.320312 157.757812 365.1875 158.082031 365.148438 158.292969 L 364.976562 159.238281 L 367.679688 158.078125 C 368.050781 157.921875 368.347656 157.632812 368.523438 157.269531 C 368.824219 156.644531 369.429688 155.609375 370.394531 154.867188 C 370.507812 154.777344 370.625 154.722656 370.742188 154.691406 C 370.984375 154.628906 371.214844 154.683594 371.394531 154.847656 C 371.394531 154.847656 371.398438 154.847656 371.402344 154.851562 C 371.496094 154.9375 371.574219 155.046875 371.628906 155.191406 L 372.324219 156.953125 Z M 449.539062 184.234375 C 449.789062 184.75 449.636719 185.367188 449.167969 185.699219 C 447.527344 186.859375 445.058594 187.429688 442.71875 187.765625 L 442.515625 187.429688 L 442.375 187.203125 L 442.363281 187.207031 L 441.457031 184 C 444.800781 183.128906 444.890625 178.925781 441.679688 179.765625 C 438.542969 178.953125 435.550781 176.625 433.113281 173.988281 C 432.5625 174.789062 432.078125 175.78125 431.925781 176.882812 C 431.921875 176.925781 431.90625 176.964844 431.898438 177.003906 C 431.898438 177.007812 431.894531 177.011719 431.894531 177.015625 C 430.882812 174.695312 432.082031 172.722656 433.722656 171.671875 C 436.460938 169.628906 442.433594 170.207031 444.488281 172.644531 C 445.910156 174.132812 446.574219 175.804688 446.753906 177.664062 L 446.886719 179.359375 C 446.929688 179.863281 447.089844 180.347656 447.363281 180.78125 Z M 151.6875 116.648438 C 151.777344 117.476562 151.867188 118.328125 151.9375 119.179688 C 151.980469 119.691406 151.6875 120.183594 151.226562 120.371094 C 151.15625 120.402344 151.085938 120.421875 151.007812 120.441406 L 144.457031 121.90625 C 143.523438 122.105469 142.554688 121.925781 141.773438 121.40625 L 140.210938 120.363281 L 140 120.222656 L 138.558594 115.304688 L 138.367188 114.644531 C 138.003906 114.691406 137.691406 114.808594 137.414062 114.964844 C 136.773438 115.335938 136.359375 115.953125 136.214844 116.648438 C 133.570312 115.09375 131.835938 109.914062 135.683594 108.28125 C 135.984375 108.152344 136.234375 107.941406 136.394531 107.660156 C 141.511719 98.757812 152.871094 100.128906 150.175781 108.644531 L 150.167969 108.652344 C 150.105469 108.464844 150.066406 108.273438 150.007812 108.09375 L 140.992188 110.304688 C 140.714844 110.375 140.472656 110.503906 140.269531 110.675781 C 139.664062 111.1875 139.441406 112.082031 139.835938 112.847656 L 140.519531 114.179688 L 141.6875 116.457031 C 141.734375 116.546875 141.796875 116.621094 141.863281 116.691406 C 141.949219 116.78125 142.042969 116.859375 142.15625 116.910156 C 142.285156 116.972656 142.433594 116.996094 142.582031 116.996094 C 142.65625 116.996094 142.730469 117.003906 142.804688 116.988281 L 151.5 115.132812 C 151.570312 115.625 151.628906 116.136719 151.6875 116.648438 Z M 151.6875 116.648438 " fill-opacity="1" fill-rule="nonzero"/><path fill="#e3efd1" d="M 256.425781 77.867188 L 220.902344 77.867188 C 220.273438 77.867188 219.769531 78.375 219.769531 79 L 219.769531 99.175781 C 219.769531 99.804688 220.273438 100.308594 220.902344 100.308594 L 231.308594 100.308594 L 240.253906 108.835938 C 240.417969 108.988281 240.683594 108.878906 240.691406 108.65625 L 240.9375 100.308594 L 256.425781 100.308594 C 257.050781 100.308594 257.558594 99.804688 257.558594 99.175781 L 257.558594 79 C 257.558594 78.375 257.050781 77.867188 256.425781 77.867188 Z M 230.25 91.027344 C 229.179688 91.027344 228.308594 90.160156 228.308594 89.089844 C 228.308594 88.015625 229.179688 87.148438 230.25 87.148438 C 231.320312 87.148438 232.191406 88.015625 232.191406 89.089844 C 232.191406 90.160156 231.320312 91.027344 230.25 91.027344 Z M 238.664062 91.027344 C 237.589844 91.027344 236.722656 90.160156 236.722656 89.089844 C 236.722656 88.015625 237.589844 87.148438 238.664062 87.148438 C 239.734375 87.148438 240.601562 88.015625 240.601562 89.089844 C 240.601562 90.160156 239.734375 91.027344 238.664062 91.027344 Z M 247.074219 91.027344 C 246.003906 91.027344 245.136719 90.160156 245.136719 89.089844 C 245.136719 88.015625 246.003906 87.148438 247.074219 87.148438 C 248.148438 87.148438 249.015625 88.015625 249.015625 89.089844 C 249.015625 90.160156 248.148438 91.027344 247.074219 91.027344 Z M 366.175781 172.214844 L 366.175781 179.714844 C 366.175781 179.804688 366.105469 179.878906 366.015625 179.878906 L 358.515625 179.878906 C 358.425781 179.878906 358.355469 179.804688 358.355469 179.714844 L 358.355469 172.214844 C 358.355469 172.125 358.425781 172.054688 358.515625 172.054688 L 366.015625 172.054688 C 366.105469 172.054688 366.175781 172.125 366.175781 172.214844 Z M 366.175781 149.292969 L 366.175781 156.789062 C 366.175781 156.878906 366.105469 156.953125 366.015625 156.953125 L 365.855469 156.953125 C 365.996094 156.617188 366.058594 156.257812 365.984375 155.835938 C 365.90625 155.394531 365.390625 155.183594 365.03125 155.453125 L 363.132812 156.859375 C 363.09375 156.886719 363.066406 156.925781 363.027344 156.953125 L 358.515625 156.953125 C 358.425781 156.953125 358.355469 156.878906 358.355469 156.789062 L 358.355469 149.292969 C 358.355469 149.203125 358.425781 149.128906 358.515625 149.128906 L 366.015625 149.128906 C 366.105469 149.128906 366.175781 149.203125 366.175781 149.292969 Z M 366.175781 137.988281 L 366.175781 145.488281 C 366.175781 145.578125 366.105469 145.652344 366.015625 145.652344 L 358.515625 145.652344 C 358.425781 145.652344 358.355469 145.578125 358.355469 145.488281 L 358.355469 137.988281 C 358.355469 137.902344 358.425781 137.828125 358.515625 137.828125 L 366.015625 137.828125 C 366.105469 137.828125 366.175781 137.902344 366.175781 137.988281 Z M 378.90625 172.214844 L 378.90625 179.714844 C 378.90625 179.804688 378.835938 179.878906 378.746094 179.878906 L 371.246094 179.878906 C 371.15625 179.878906 371.085938 179.804688 371.085938 179.714844 L 371.085938 172.214844 C 371.085938 172.125 371.15625 172.054688 371.246094 172.054688 L 378.746094 172.054688 C 378.835938 172.054688 378.90625 172.125 378.90625 172.214844 Z M 378.90625 160.878906 L 378.90625 168.378906 C 378.90625 168.46875 378.835938 168.539062 378.746094 168.539062 L 371.246094 168.539062 C 371.15625 168.539062 371.085938 168.46875 371.085938 168.378906 L 371.085938 162.949219 L 372.449219 160.71875 L 378.746094 160.71875 C 378.835938 160.71875 378.90625 160.789062 378.90625 160.878906 Z M 391.148438 160.878906 L 391.148438 168.378906 C 391.148438 168.46875 391.078125 168.539062 390.988281 168.539062 L 383.488281 168.539062 C 383.398438 168.539062 383.328125 168.46875 383.328125 168.378906 L 383.328125 160.878906 C 383.328125 160.789062 383.398438 160.71875 383.488281 160.71875 L 390.988281 160.71875 C 391.078125 160.71875 391.148438 160.789062 391.148438 160.878906 Z M 378.90625 149.292969 L 378.90625 156.789062 C 378.90625 156.878906 378.835938 156.953125 378.746094 156.953125 L 372.324219 156.953125 L 371.628906 155.191406 C 371.515625 154.90625 371.316406 154.738281 371.085938 154.683594 L 371.085938 149.292969 C 371.085938 149.203125 371.15625 149.128906 371.246094 149.128906 L 378.746094 149.128906 C 378.835938 149.128906 378.90625 149.203125 378.90625 149.292969 Z M 391.148438 149.292969 L 391.148438 156.789062 C 391.148438 156.878906 391.078125 156.953125 390.988281 156.953125 L 383.488281 156.953125 C 383.398438 156.953125 383.328125 156.878906 383.328125 156.789062 L 383.328125 149.292969 C 383.328125 149.203125 383.398438 149.128906 383.488281 149.128906 L 390.988281 149.128906 C 391.078125 149.128906 391.148438 149.203125 391.148438 149.292969 Z M 378.90625 137.988281 L 378.90625 145.488281 C 378.90625 145.578125 378.835938 145.652344 378.746094 145.652344 L 371.246094 145.652344 C 371.15625 145.652344 371.085938 145.578125 371.085938 145.488281 L 371.085938 137.988281 C 371.085938 137.902344 371.15625 137.828125 371.246094 137.828125 L 378.746094 137.828125 C 378.835938 137.828125 378.90625 137.902344 378.90625 137.988281 Z M 391.148438 137.988281 L 391.148438 145.488281 C 391.148438 145.578125 391.078125 145.652344 390.988281 145.652344 L 383.488281 145.652344 C 383.398438 145.652344 383.328125 145.578125 383.328125 145.488281 L 383.328125 137.988281 C 383.328125 137.902344 383.398438 137.828125 383.488281 137.828125 L 390.988281 137.828125 C 391.078125 137.828125 391.148438 137.902344 391.148438 137.988281 Z M 359.355469 131.667969 L 359.355469 129.488281 C 359.355469 129.398438 359.429688 129.324219 359.515625 129.324219 L 389.984375 129.324219 C 390.074219 129.324219 390.148438 129.398438 390.148438 129.488281 L 390.148438 131.667969 C 390.148438 131.757812 390.074219 131.828125 389.984375 131.828125 L 359.515625 131.828125 C 359.429688 131.828125 359.355469 131.757812 359.355469 131.667969 Z M 198.828125 60.621094 L 146.65625 60.621094 C 146.296875 60.621094 146.003906 60.914062 146.003906 61.277344 L 146.003906 83 C 146.003906 83.363281 146.296875 83.65625 146.65625 83.65625 L 165.9375 83.65625 L 164.414062 92.28125 C 164.335938 92.738281 164.859375 93.046875 165.222656 92.757812 L 176.527344 83.65625 L 198.828125 83.65625 C 199.191406 83.65625 199.484375 83.363281 199.484375 83 L 199.484375 61.277344 C 199.484375 60.914062 199.191406 60.621094 198.828125 60.621094 Z M 156.535156 74.078125 C 155.464844 74.078125 154.59375 73.210938 154.59375 72.140625 C 154.59375 71.066406 155.464844 70.199219 156.535156 70.199219 C 157.605469 70.199219 158.472656 71.066406 158.472656 72.140625 C 158.472656 73.210938 157.605469 74.078125 156.535156 74.078125 Z M 166.882812 74.078125 C 165.8125 74.078125 164.941406 73.210938 164.941406 72.140625 C 164.941406 71.066406 165.8125 70.199219 166.882812 70.199219 C 167.953125 70.199219 168.824219 71.066406 168.824219 72.140625 C 168.824219 73.210938 167.953125 74.078125 166.882812 74.078125 Z M 177.230469 74.078125 C 176.160156 74.078125 175.292969 73.210938 175.292969 72.140625 C 175.292969 71.066406 176.160156 70.199219 177.230469 70.199219 C 178.300781 70.199219 179.171875 71.066406 179.171875 72.140625 C 179.171875 73.210938 178.300781 74.078125 177.230469 74.078125 Z M 187.578125 74.078125 C 186.507812 74.078125 185.640625 73.210938 185.640625 72.140625 C 185.640625 71.066406 186.507812 70.199219 187.578125 70.199219 C 188.648438 70.199219 189.519531 71.066406 189.519531 72.140625 C 189.519531 73.210938 188.648438 74.078125 187.578125 74.078125 Z M 363.238281 167.140625 L 351.601562 176.800781 C 351.324219 177.03125 351.015625 177.207031 350.695312 177.355469 C 350.152344 177.609375 349.5625 177.757812 348.953125 177.757812 L 346.472656 177.757812 C 345.289062 177.757812 344.15625 177.25 343.371094 176.359375 L 339.742188 172.261719 L 339.296875 187.273438 L 339.695312 172.207031 L 339.710938 171.589844 L 340.125 155.984375 L 340.164062 154.390625 L 340.167969 154.277344 L 340.269531 154.328125 L 340.269531 154.335938 C 342.6875 157.207031 345.828125 162.246094 348.113281 165.488281 C 348.371094 165.855469 348.871094 165.957031 349.25 165.710938 L 350.695312 164.777344 L 359.226562 159.265625 C 359.273438 159.238281 359.332031 159.253906 359.359375 159.304688 L 359.863281 160.300781 L 362.90625 166.324219 L 363.261719 167.027344 C 363.28125 167.066406 363.273438 167.113281 363.238281 167.140625 Z M 330.980469 149.519531 L 335.925781 152.300781 L 335.507812 153.398438 L 333.828125 157.804688 C 333.789062 157.898438 333.671875 157.933594 333.59375 157.871094 L 331.476562 156.265625 C 331.253906 156.097656 330.960938 156.050781 330.699219 156.144531 L 328 157.089844 L 327.976562 157.101562 L 327.964844 157.09375 L 325.320312 156.285156 C 325.078125 156.214844 324.816406 156.253906 324.605469 156.398438 L 321.699219 158.410156 C 321.628906 158.457031 321.539062 158.441406 321.488281 158.375 L 317.726562 153.253906 L 317.070312 152.359375 L 321.351562 149.21875 L 322.058594 150.0625 L 327.980469 157.097656 L 330.765625 150.0625 Z M 324.21875 176.246094 L 324.339844 177.671875 C 324.3125 177.714844 324.292969 177.742188 324.265625 177.785156 L 315.476562 180.796875 L 314.054688 181.285156 L 309.414062 182.875 C 307.628906 183.488281 305.648438 182.902344 304.484375 181.414062 L 302.105469 178.386719 C 300.972656 176.941406 300.84375 174.945312 301.785156 173.367188 C 306 165.816406 309.382812 157.769531 312.914062 154.726562 L 312.914062 154.730469 L 312.992188 156.261719 L 313.011719 156.617188 L 313.566406 167.480469 L 313.367188 170.46875 L 323.46875 168.785156 C 323.53125 168.777344 323.585938 168.820312 323.59375 168.882812 L 323.652344 169.605469 Z M 419.90625 210.21875 L 420.171875 210.769531 L 416.765625 210.523438 C 416.539062 210.507812 416.328125 210.433594 416.128906 210.332031 C 416.019531 210.277344 415.90625 210.226562 415.808594 210.152344 C 415.769531 210.121094 415.722656 210.085938 415.679688 210.054688 C 415.078125 209.617188 414.027344 209.007812 412.835938 209.046875 C 412.59375 209.054688 412.390625 209.234375 412.320312 209.464844 L 411.964844 210.65625 L 411.578125 211.945312 L 411.570312 211.929688 L 404.335938 197.191406 C 404.234375 196.984375 404.4375 196.757812 404.652344 196.839844 L 406.710938 197.601562 C 406.746094 197.617188 406.78125 197.621094 406.820312 197.617188 L 413.484375 197.09375 C 413.589844 197.085938 413.691406 197.140625 413.734375 197.238281 L 418.6875 207.667969 Z M 152.496094 141.648438 L 153.109375 158.636719 L 144.699219 158.636719 L 144.589844 157.863281 L 144.226562 155.222656 L 145.453125 154.984375 L 148.351562 154.429688 C 148.535156 154.390625 148.707031 154.324219 148.871094 154.242188 C 149.140625 154.109375 149.382812 153.925781 149.574219 153.691406 L 152.203125 150.457031 C 152.320312 150.3125 152.398438 150.144531 152.441406 149.96875 C 152.488281 149.769531 152.492188 149.5625 152.441406 149.359375 L 151.660156 146.414062 C 151.546875 146.015625 151.078125 145.824219 150.71875 146.035156 C 149.925781 146.503906 149.273438 147.085938 148.789062 147.8125 C 148.765625 147.847656 148.738281 147.878906 148.714844 147.914062 C 148.5625 148.152344 148.328125 148.328125 148.046875 148.363281 L 144.335938 149.101562 C 144.335938 149.101562 145.492188 147.386719 145.496094 147.378906 C 145.550781 147.300781 145.625 147.25 145.710938 147.210938 C 146.964844 146.675781 147.433594 145.898438 147.527344 145.417969 C 147.59375 145.074219 147.296875 144.984375 147.296875 144.984375 C 147.0625 144.90625 145.695312 145.304688 144.730469 145.550781 L 144.667969 145.5625 C 144.398438 145.625 144.136719 145.714844 143.875 145.824219 L 143.375 146.003906 L 143.1875 146.070312 L 142.957031 146.152344 L 141.730469 137.359375 L 140.078125 125.472656 L 147.222656 131.070312 C 147.492188 131.28125 147.890625 131.199219 148.0625 130.898438 L 151.867188 124.421875 Z M 255.515625 139.003906 L 254.757812 140.105469 L 251.992188 144.117188 C 251.945312 144.1875 251.847656 144.203125 251.785156 144.144531 L 251.421875 143.824219 L 250.878906 143.339844 L 250.296875 142.824219 C 250.214844 142.75 250.085938 142.742188 249.996094 142.808594 L 244.046875 147.125 L 250.339844 138.046875 L 251.269531 136.710938 L 251.269531 136.707031 L 251.277344 136.714844 Z M 241.917969 137.136719 L 244.046875 147.125 L 241.695312 142.53125 C 241.664062 142.46875 241.605469 142.4375 241.546875 142.417969 C 241.46875 142.394531 241.386719 142.398438 241.316406 142.457031 L 239.476562 144.082031 C 239.394531 144.152344 239.265625 144.105469 239.253906 143.996094 L 238.851562 140.84375 L 238.707031 139.699219 L 238.582031 138.695312 L 241.835938 136.800781 L 241.84375 136.792969 L 241.84375 136.796875 Z M 235.121094 172.105469 C 235.132812 172.148438 235.132812 172.1875 235.125 172.226562 C 235.101562 172.339844 235 172.429688 234.871094 172.429688 L 219.953125 172.429688 C 219.835938 172.429688 219.734375 172.355469 219.703125 172.242188 L 218.183594 166.953125 L 220.617188 166.804688 C 220.875 166.789062 221.117188 166.660156 221.277344 166.457031 L 223.898438 163.097656 C 224.0625 162.882812 224.097656 162.589844 223.984375 162.34375 L 222.863281 159.9375 C 222.75 159.695312 222.515625 159.535156 222.25 159.527344 C 221.589844 159.511719 220.347656 159.636719 219.550781 160.691406 C 219.339844 160.972656 219.015625 161.148438 218.667969 161.203125 L 216.625 161.527344 L 216.003906 159.367188 L 214.09375 152.71875 C 214.042969 152.554688 214.167969 152.390625 214.339844 152.390625 L 229.640625 152.390625 C 229.757812 152.390625 229.859375 152.46875 229.890625 152.582031 L 231.628906 159.066406 L 231.628906 159.070312 L 231.851562 159.910156 L 233.882812 167.484375 L 234.023438 168.011719 Z M 485.367188 210.429688 L 482.601562 210.429688 C 482.242188 210.429688 481.886719 210.355469 481.554688 210.230469 C 481.527344 210.21875 481.488281 210.207031 481.464844 210.199219 C 481.351562 210.15625 481.226562 210.117188 481.085938 210.070312 C 481.011719 210.050781 480.945312 210.03125 480.867188 210.007812 C 480.710938 209.964844 480.542969 209.929688 480.363281 209.894531 C 480.289062 209.878906 480.21875 209.863281 480.140625 209.847656 C 479.882812 209.808594 479.609375 209.777344 479.324219 209.769531 C 479.277344 209.765625 479.230469 209.773438 479.1875 209.773438 C 478.945312 209.773438 478.699219 209.789062 478.449219 209.824219 C 478.410156 209.828125 478.371094 209.824219 478.332031 209.832031 C 478.292969 209.835938 478.261719 209.855469 478.230469 209.867188 C 477.984375 209.949219 477.804688 210.167969 477.804688 210.4375 L 477.804688 213.636719 C 477.804688 213.878906 477.949219 214.097656 478.171875 214.195312 L 480.628906 215.257812 L 477.5 215.625 C 477.382812 215.640625 477.269531 215.578125 477.214844 215.472656 L 468.996094 199.84375 C 468.902344 199.664062 469.015625 199.449219 469.214844 199.425781 L 478.582031 198.253906 C 478.699219 198.242188 478.8125 198.300781 478.871094 198.402344 L 483.074219 206.195312 Z M 485.367188 210.429688 " fill-opacity="1" fill-rule="nonzero"/><path fill="#000000" d="M 361.9375 258.359375 L 361.9375 260.050781 C 361.9375 260.171875 361.839844 260.273438 361.714844 260.273438 L 352.109375 260.273438 C 352.078125 260.273438 352.042969 260.265625 352.011719 260.25 L 350.109375 259.339844 L 350.109375 260.273438 L 346.890625 260.273438 C 346.765625 260.273438 346.667969 260.171875 346.667969 260.050781 L 346.667969 253.496094 L 347.300781 253.492188 L 355.675781 253.402344 L 356.078125 253.398438 L 361.324219 257.164062 C 361.710938 257.441406 361.9375 257.882812 361.9375 258.359375 Z M 335.507812 153.398438 L 333.828125 157.804688 C 333.789062 157.898438 333.671875 157.933594 333.59375 157.871094 L 331.476562 156.265625 C 331.253906 156.097656 330.960938 156.050781 330.699219 156.144531 L 328 157.089844 L 327.976562 157.101562 L 327.964844 157.09375 L 325.320312 156.285156 C 325.078125 156.214844 324.816406 156.253906 324.605469 156.398438 L 321.699219 158.410156 C 321.628906 158.457031 321.539062 158.441406 321.488281 158.375 L 317.726562 153.253906 L 317.070312 152.359375 L 312.914062 154.730469 L 312.992188 156.261719 L 313.011719 156.617188 L 313.566406 167.480469 L 313.367188 170.46875 L 323.46875 168.785156 C 323.53125 168.777344 323.585938 168.820312 323.59375 168.882812 L 323.652344 169.605469 L 326.644531 167.691406 C 326.902344 167.527344 327.171875 167.386719 327.453125 167.273438 L 329.46875 166.453125 C 329.871094 166.289062 330.324219 166.640625 330.21875 167.058594 C 330.042969 167.761719 329.488281 168.492188 328.789062 168.996094 C 328.605469 169.128906 328.429688 169.273438 328.277344 169.445312 L 327.359375 170.503906 L 331.117188 170.035156 C 331.363281 170.003906 331.585938 169.882812 331.746094 169.6875 C 332.160156 169.175781 333.449219 167.8125 334.875 167.1875 C 335.320312 166.992188 335.820312 167.292969 335.832031 167.777344 L 336.140625 170.351562 C 336.214844 170.976562 336.039062 171.605469 335.648438 172.097656 L 333.117188 175.292969 C 332.636719 175.894531 331.910156 176.246094 331.140625 176.246094 L 324.21875 176.246094 L 324.339844 177.671875 C 324.3125 177.714844 324.292969 177.742188 324.265625 177.785156 L 315.476562 180.796875 L 314.054688 181.285156 L 314.496094 187.273438 L 339.296875 187.273438 L 339.695312 172.207031 L 339.710938 171.589844 L 340.125 155.984375 L 340.164062 154.390625 L 340.167969 154.277344 L 335.925781 152.300781 Z M 319.105469 140.035156 C 319.355469 139.945312 319.625 139.875 319.9375 139.863281 L 319.960938 139.902344 L 321.007812 141.726562 C 321.039062 141.78125 321.105469 141.816406 321.171875 141.8125 L 322.601562 141.683594 C 322.691406 141.675781 322.757812 141.597656 322.757812 141.507812 L 322.789062 139.453125 L 322.8125 137.800781 C 322.824219 137.246094 323.253906 136.789062 323.808594 136.75 L 331.4375 136.210938 C 331.609375 136.796875 331.753906 137.378906 331.882812 137.960938 C 332.375 136.1875 332.472656 134.464844 331.519531 132.308594 C 330.761719 130.660156 329.136719 130.671875 328.277344 131.453125 C 328.046875 131.660156 327.691406 131.632812 327.449219 131.4375 C 326.472656 130.640625 325.191406 130.792969 324.457031 131.792969 C 324.246094 132.078125 323.871094 132.160156 323.570312 131.976562 C 322.464844 131.296875 321.386719 131.726562 320.769531 132.691406 C 320.574219 133.003906 320.203125 133.164062 319.859375 133.03125 C 318.875 132.65625 317.71875 133.410156 317.601562 134.507812 C 317.59375 136.871094 318.078125 138.335938 319.019531 140.050781 Z M 315.519531 253.390625 L 314.742188 253.390625 L 307.746094 257.300781 C 307.367188 257.511719 307.136719 257.910156 307.136719 258.34375 L 307.136719 260.085938 C 307.136719 260.1875 307.21875 260.273438 307.320312 260.273438 L 317.464844 260.273438 C 317.496094 260.273438 317.523438 260.265625 317.550781 260.25 L 319.304688 259.339844 L 319.304688 260.273438 L 322.160156 260.273438 C 322.261719 260.273438 322.347656 260.1875 322.347656 260.085938 L 322.347656 253.390625 Z M 419.015625 263.816406 L 412.546875 266.480469 C 411.464844 267.050781 410.261719 267.351562 409.042969 267.351562 L 405.59375 267.351562 C 405.464844 267.421875 405.324219 267.480469 405.1875 267.542969 C 405.042969 267.613281 404.902344 267.6875 404.757812 267.746094 C 404.757812 267.746094 404.757812 267.746094 404.757812 267.742188 C 404.785156 266.730469 404.785156 265.808594 404.753906 265.019531 L 398.285156 267.683594 C 397.203125 268.257812 396 268.554688 394.777344 268.554688 L 391.332031 268.554688 C 390.871094 268.808594 390.378906 269.015625 389.878906 269.199219 L 387.347656 270.089844 C 387.117188 270.167969 386.964844 270.378906 386.964844 270.621094 L 386.964844 273.253906 C 386.964844 273.566406 387.214844 273.804688 387.515625 273.804688 L 397 273.804688 C 397.292969 273.804688 397.574219 273.683594 397.773438 273.484375 L 400.539062 270.71875 C 400.617188 270.640625 400.746094 270.691406 400.746094 270.800781 L 400.746094 273.472656 C 400.746094 273.734375 400.957031 273.945312 401.21875 273.945312 L 404.003906 273.945312 C 404.265625 273.945312 404.472656 273.734375 404.472656 273.472656 C 404.492188 273.179688 404.511719 272.890625 404.527344 272.597656 L 411.265625 272.597656 C 411.546875 272.597656 411.816406 272.480469 412.015625 272.292969 C 412.023438 272.285156 412.03125 272.285156 412.035156 272.277344 L 414.800781 269.515625 C 414.878906 269.433594 415.011719 269.484375 415.011719 269.59375 L 415.011719 272.269531 C 415.011719 272.277344 415.015625 272.285156 415.015625 272.292969 C 415.027344 272.539062 415.230469 272.738281 415.480469 272.738281 L 418.265625 272.738281 C 418.519531 272.738281 418.71875 272.539062 418.730469 272.292969 C 418.734375 272.285156 418.738281 272.277344 418.738281 272.269531 C 418.941406 269.019531 419.101562 265.949219 419.019531 263.832031 C 419.019531 263.824219 419.019531 263.820312 419.015625 263.816406 Z M 445.910156 218.457031 L 428.851562 218.457031 L 421.386719 221.425781 L 421.386719 222.679688 L 421.378906 222.679688 L 422.828125 231.742188 L 446.253906 231.742188 C 446.574219 231.429688 446.835938 231.0625 447.027344 230.644531 L 447.488281 228.894531 C 448.246094 225.050781 448.121094 221.507812 446.554688 218.457031 Z M 421.03125 233.101562 L 405.699219 233.101562 L 395.546875 254.375 C 396.609375 255.339844 397.671875 256.308594 398.792969 257.21875 C 398.792969 257.21875 398.792969 257.21875 398.792969 257.222656 C 400.972656 258.988281 403.378906 260.527344 406.480469 261.332031 C 406.488281 261.335938 406.5 261.335938 406.507812 261.339844 C 407.121094 261.496094 407.753906 261.628906 408.417969 261.726562 L 409.214844 260.175781 C 409.949219 260.320312 410.773438 260.449219 411.664062 260.558594 C 411.671875 260.558594 411.679688 260.558594 411.6875 260.5625 C 414.160156 260.855469 417.117188 260.980469 419.859375 260.808594 C 421.113281 260.726562 422.324219 260.589844 423.414062 260.375 L 423.414062 247.929688 L 421.902344 238.515625 Z M 420.738281 231.28125 L 419.492188 223.511719 L 419.355469 222.679688 L 418.242188 222.679688 L 411.773438 225.253906 C 409.925781 225.988281 408.421875 227.394531 407.566406 229.191406 L 406.566406 231.28125 Z M 434.996094 190.1875 L 435.695312 191.910156 L 442.953125 189.316406 L 443.539062 189.105469 L 442.71875 187.765625 L 442.515625 187.429688 L 442.375 187.203125 L 442.363281 187.207031 L 433.710938 189.777344 L 433.691406 190.1875 Z M 191.777344 138.082031 L 191.777344 138.078125 L 188.359375 131.253906 L 188.355469 131.25 L 187.859375 130.257812 C 187.777344 130.09375 187.566406 130.039062 187.414062 130.140625 L 175.277344 138.292969 C 175.210938 138.335938 175.125 138.320312 175.074219 138.257812 L 167.980469 129.027344 C 165.578125 125.898438 162.0625 123.820312 158.160156 123.226562 L 151.792969 122.253906 L 151.789062 122.253906 L 151.84375 123.824219 L 151.867188 124.421875 L 152.496094 141.648438 L 153.113281 158.636719 L 144.699219 158.636719 L 144.589844 157.863281 L 144.222656 155.222656 L 143.183594 155.425781 C 142.949219 155.46875 142.707031 155.492188 142.464844 155.492188 L 137.140625 155.492188 L 136.339844 148.496094 L 139.425781 147.402344 L 140.734375 146.941406 L 142.953125 146.152344 L 142.957031 146.152344 L 141.730469 137.359375 L 140.074219 125.464844 L 140.027344 125.136719 L 139.839844 123.785156 L 139.839844 123.777344 L 133.375 126.542969 C 129.796875 128.070312 126.9375 130.90625 125.378906 134.46875 L 117.078125 153.417969 C 116.59375 154.503906 116.691406 155.761719 117.339844 156.757812 L 120.296875 161.308594 C 121.214844 162.722656 123.011719 163.28125 124.570312 162.636719 L 130.832031 160.054688 L 130.40625 174.828125 C 130.402344 175.089844 130.617188 175.300781 130.875 175.285156 L 133.367188 175.15625 L 117.011719 234.535156 C 116.976562 234.667969 117.0625 234.804688 117.199219 234.824219 L 118.101562 234.972656 L 117.507812 235.613281 C 117.304688 235.832031 117.058594 236.007812 116.785156 236.128906 L 110.539062 238.867188 C 110.445312 238.910156 110.382812 239.003906 110.382812 239.109375 L 110.382812 242.074219 C 110.382812 242.21875 110.5 242.335938 110.644531 242.335938 L 117.875 242.335938 C 118.449219 242.335938 119.019531 242.273438 119.582031 242.148438 L 123.054688 241.386719 L 123.054688 242.335938 L 126.703125 242.335938 C 126.753906 241.976562 126.785156 241.609375 126.816406 241.242188 C 126.945312 239.703125 126.933594 238.085938 126.820312 236.410156 L 127.617188 236.542969 C 127.726562 236.5625 127.835938 236.496094 127.871094 236.390625 L 138.203125 204.351562 C 138.453125 203.585938 138.71875 202.828125 139.011719 202.078125 L 148.070312 178.660156 C 148.101562 178.574219 148.171875 178.507812 148.261719 178.488281 L 150.117188 178.054688 C 150.261719 178.019531 150.40625 178.113281 150.433594 178.257812 L 155.453125 200.320312 C 155.742188 201.394531 155.957031 202.488281 156.097656 203.59375 L 161.0625 236.429688 C 161.078125 236.511719 161.148438 236.570312 161.234375 236.5625 L 161.746094 236.527344 C 161.652344 238.121094 161.667969 239.695312 161.785156 241.242188 C 161.808594 241.574219 161.832031 241.910156 161.867188 242.242188 C 161.90625 242.277344 161.933594 242.300781 161.972656 242.335938 L 165.324219 242.335938 L 165.324219 241.386719 L 167.996094 242.082031 C 168.648438 242.25 169.320312 242.335938 169.996094 242.335938 L 176.96875 242.335938 C 177.113281 242.335938 177.230469 242.21875 177.230469 242.074219 L 177.230469 239.101562 C 177.230469 239 177.171875 238.910156 177.082031 238.867188 L 172.453125 236.660156 C 172.074219 236.480469 171.75 236.207031 171.503906 235.863281 L 171.460938 235.804688 L 172.324219 235.738281 C 172.417969 235.734375 172.484375 235.648438 172.472656 235.558594 L 163.972656 173.148438 L 166.71875 172.96875 C 166.972656 172.953125 167.164062 172.726562 167.132812 172.472656 L 164.238281 148.695312 L 164.238281 145.105469 L 168.863281 150.136719 C 169.644531 150.984375 170.742188 151.464844 171.890625 151.464844 L 176.21875 151.464844 C 177.1875 151.464844 178.125 151.125 178.863281 150.503906 L 192.261719 139.585938 C 192.375 139.496094 192.410156 139.339844 192.34375 139.210938 Z M 236.617188 134.949219 L 241.9375 136.363281 L 242.125 135.464844 C 240.191406 134.257812 238.964844 131.410156 239.554688 127.242188 C 241.277344 126.96875 244.316406 126.269531 246.410156 124.808594 C 246.550781 124.710938 246.726562 124.746094 246.820312 124.886719 C 247.46875 125.839844 248.800781 127.261719 249.402344 127.890625 C 249.554688 128.046875 249.808594 128 249.898438 127.804688 L 250.210938 127.128906 C 253.304688 126.710938 253.890625 131.21875 250.011719 132.503906 L 251.121094 136.214844 L 251.136719 136.210938 L 255.714844 134.578125 C 256.820312 134.183594 257.25 132.847656 256.578125 131.886719 L 253.878906 128.011719 C 253.574219 127.578125 253.355469 127.082031 253.308594 126.554688 C 252.964844 122.71875 249.738281 119.710938 245.8125 119.710938 C 241.898438 119.710938 238.683594 122.695312 238.316406 126.507812 C 238.257812 127.097656 238.054688 127.660156 237.773438 128.179688 L 235.507812 132.386719 C 234.964844 133.398438 235.507812 134.652344 236.617188 134.949219 Z M 261.953125 144.597656 C 261.265625 142.363281 259.589844 140.570312 257.410156 139.730469 L 255.515625 139.003906 L 254.757812 140.105469 L 251.992188 144.117188 C 251.945312 144.1875 251.847656 144.203125 251.785156 144.144531 L 251.421875 143.824219 L 250.878906 143.339844 L 249.675781 154.972656 L 248.542969 154.742188 C 248.425781 154.71875 248.308594 154.792969 248.28125 154.910156 L 248.085938 155.769531 L 246.734375 161.605469 L 246.335938 163.332031 C 246.324219 163.382812 246.332031 163.4375 246.355469 163.480469 C 246.363281 163.496094 246.382812 163.5 246.390625 163.515625 C 246.414062 163.539062 246.433594 163.570312 246.46875 163.585938 L 248.6875 164.488281 L 248.542969 165.886719 L 248.613281 168.6875 L 240.40625 168.6875 L 240.78125 160.097656 C 240.085938 160.171875 239.480469 160.011719 239.152344 159.863281 C 238.972656 159.785156 238.875 159.597656 238.910156 159.40625 L 239.335938 157.164062 C 239.378906 156.925781 239.527344 156.722656 239.742188 156.605469 L 240.953125 156.0625 L 241.546875 142.417969 C 241.46875 142.394531 241.386719 142.398438 241.316406 142.457031 L 239.476562 144.082031 C 239.394531 144.152344 239.265625 144.105469 239.253906 143.996094 L 238.851562 140.84375 L 238.707031 139.699219 L 238.582031 138.695312 L 235.824219 140.054688 C 234.492188 140.710938 233.382812 141.742188 232.628906 143.015625 L 227.097656 152.390625 L 229.640625 152.390625 C 229.757812 152.390625 229.859375 152.46875 229.890625 152.582031 L 231.628906 159.066406 L 231.628906 159.070312 L 231.851562 159.910156 L 234.253906 158.25 L 234.441406 165.1875 L 233.882812 167.484375 L 234.023438 168.011719 L 235.121094 172.105469 C 235.132812 172.148438 235.132812 172.1875 235.125 172.226562 C 235.101562 172.339844 235 172.429688 234.871094 172.429688 L 232.679688 172.429688 L 229.527344 185.40625 C 229.492188 185.550781 229.597656 185.691406 229.746094 185.695312 L 232.953125 185.828125 L 228.742188 208.601562 L 223.980469 238.019531 C 223.96875 238.097656 224.027344 238.164062 224.105469 238.164062 L 234.339844 238.164062 C 234.398438 238.164062 234.449219 238.125 234.460938 238.066406 L 240.636719 208.898438 L 245.734375 188.421875 C 245.773438 188.265625 245.925781 188.167969 246.082031 188.199219 L 247.28125 188.417969 C 247.410156 188.445312 247.511719 188.550781 247.523438 188.6875 L 250.546875 238.046875 C 250.59375 238.089844 250.625 238.117188 250.671875 238.164062 L 260.769531 238.164062 C 260.835938 238.164062 260.894531 238.109375 260.894531 238.039062 L 260.894531 185.78125 L 263.082031 185.640625 C 263.230469 185.628906 263.332031 185.492188 263.296875 185.351562 L 259.429688 168.867188 L 259.734375 168.988281 C 261.339844 169.761719 263.269531 169.339844 264.402344 167.960938 L 266.53125 165.382812 C 267.359375 164.375 267.628906 163.019531 267.246094 161.773438 Z M 259.457031 242.242188 L 254.785156 245.035156 C 254.25 245.355469 253.585938 245.234375 253.152344 244.789062 C 252.332031 243.949219 251.46875 243.558594 250.773438 243.386719 C 250.742188 243.414062 250.710938 243.433594 250.679688 243.457031 L 244.992188 246.949219 C 244.863281 247.042969 244.78125 247.179688 244.78125 247.339844 L 244.78125 248.84375 C 244.78125 249.027344 244.890625 249.183594 245.046875 249.253906 C 245.105469 249.277344 245.167969 249.292969 245.230469 249.292969 L 253.902344 249.292969 C 253.960938 249.292969 254.019531 249.273438 254.074219 249.253906 C 254.1875 249.21875 254.292969 249.160156 254.367188 249.0625 L 256.480469 246.300781 L 256.480469 249.085938 C 256.480469 249.160156 256.53125 249.21875 256.59375 249.253906 C 256.625 249.273438 256.652344 249.292969 256.691406 249.292969 L 259.445312 249.292969 C 259.484375 249.292969 259.511719 249.269531 259.542969 249.253906 C 259.605469 249.214844 259.65625 249.160156 259.65625 249.085938 C 259.917969 246.929688 259.976562 244.816406 259.527344 242.695312 C 259.496094 242.542969 259.476562 242.394531 259.457031 242.242188 Z M 232.089844 243.042969 C 230.519531 244.140625 228.863281 244.929688 227.132812 245.378906 C 226.824219 245.457031 226.507812 245.34375 226.28125 245.117188 C 225.519531 244.351562 224.585938 243.785156 223.488281 243.414062 C 223.117188 243.746094 222.707031 244.046875 222.253906 244.285156 L 217.316406 246.984375 C 217.265625 247.011719 217.226562 247.054688 217.195312 247.101562 C 217.195312 247.105469 217.1875 247.109375 217.183594 247.113281 C 217.152344 247.167969 217.136719 247.226562 217.136719 247.292969 L 217.136719 248.953125 C 217.136719 249.085938 217.214844 249.199219 217.324219 249.253906 C 217.371094 249.277344 217.421875 249.292969 217.476562 249.292969 L 226.367188 249.292969 C 226.417969 249.292969 226.472656 249.277344 226.523438 249.253906 C 226.574219 249.226562 226.621094 249.195312 226.652344 249.15625 L 228.835938 246.300781 L 228.835938 249.105469 C 228.835938 249.171875 228.875 249.21875 228.925781 249.253906 C 228.957031 249.273438 228.988281 249.292969 229.027344 249.292969 L 231.839844 249.292969 C 231.878906 249.292969 231.910156 249.273438 231.941406 249.253906 C 231.988281 249.222656 232.023438 249.179688 232.03125 249.125 C 232.128906 248.308594 232.1875 247.511719 232.21875 246.726562 C 232.222656 246.597656 232.234375 246.464844 232.238281 246.332031 C 232.257812 245.425781 232.222656 244.542969 232.121094 243.6875 C 232.101562 243.476562 232.089844 243.253906 232.089844 243.042969 Z M 500.886719 174.859375 C 501.003906 174.21875 501.144531 173.597656 501.316406 173.019531 L 509.226562 173.710938 L 509.226562 177.988281 L 510.71875 178.488281 L 511.5 176.988281 C 513.511719 176.664062 514.457031 177.710938 514.367188 179.066406 C 514.84375 178.25 515.183594 177.335938 515.335938 176.34375 C 515.976562 172.136719 512.820312 168.722656 508.613281 168.113281 C 506.140625 167.75 503.855469 168.433594 502.265625 169.914062 C 501.863281 170.273438 501.511719 170.6875 501.222656 171.136719 C 500.640625 171.988281 500.648438 173.800781 500.875 174.8125 C 500.875 174.828125 500.882812 174.84375 500.886719 174.859375 Z M 515.285156 219.785156 L 497.035156 219.785156 L 494.683594 220.679688 L 494.683594 221.855469 L 496.265625 231.742188 L 515.050781 231.742188 C 515.085938 231.742188 515.113281 231.734375 515.144531 231.726562 C 515.390625 231.691406 515.601562 231.519531 515.664062 231.269531 L 516.335938 228.726562 L 516.335938 219.785156 Z M 492.636719 237.210938 L 495.636719 265.332031 C 495.652344 265.445312 495.570312 265.546875 495.457031 265.558594 L 494.566406 265.660156 L 495.480469 271.675781 C 495.511719 271.867188 495.378906 272.050781 495.183594 272.078125 L 493.785156 272.292969 L 492.527344 272.484375 L 492.5 272.292969 L 492.386719 271.5625 L 491.238281 272.292969 L 491.046875 272.414062 C 490.84375 272.542969 490.605469 272.621094 490.363281 272.640625 L 478.308594 273.507812 L 478.304688 273.46875 L 478.304688 273.589844 C 478.304688 273.742188 478.183594 273.863281 478.03125 273.863281 L 475.261719 273.863281 L 475.257812 272.945312 L 473.722656 273.734375 C 473.558594 273.820312 473.371094 273.863281 473.183594 273.863281 L 461.359375 273.863281 C 461.210938 273.863281 461.089844 273.742188 461.089844 273.59375 L 461.082031 272.292969 L 461.082031 272.046875 C 461.082031 271.59375 461.320312 271.171875 461.710938 270.945312 L 470.042969 266.113281 L 466.269531 265.46875 C 466.152344 265.449219 466.074219 265.335938 466.101562 265.21875 L 472.945312 233.25 C 472.957031 233.199219 472.980469 233.152344 472.992188 233.101562 L 492.4375 233.101562 L 492.4375 236.75 C 492.4375 236.933594 492.515625 237.09375 492.636719 237.210938 Z M 484 266.871094 L 483.984375 266.871094 L 480.789062 267.238281 C 480.664062 267.25 480.554688 267.152344 480.558594 267.027344 L 480.710938 261.117188 L 480.710938 261.085938 L 480.710938 261.09375 L 479.054688 267.460938 C 479.027344 267.566406 478.925781 267.632812 478.820312 267.613281 L 478.277344 267.519531 L 478.289062 270.800781 L 483.992188 266.875 Z M 494.175781 231.28125 L 492.792969 222.671875 L 489.441406 222.671875 L 477.898438 227.054688 C 476.488281 227.589844 475.304688 228.585938 474.535156 229.882812 L 473.722656 231.261719 C 473.71875 231.265625 473.71875 231.273438 473.714844 231.28125 Z M 494.175781 231.28125 " fill-opacity="1" fill-rule="nonzero"/><g clip-path="url(#efca89ba26)"><path fill="#097575" d="M 371.746094 261.417969 L 371.746094 371.734375 C 371.746094 372.371094 371.234375 372.882812 370.597656 372.882812 L 290.785156 372.882812 C 290.152344 372.882812 289.636719 372.371094 289.636719 371.734375 L 289.636719 261.417969 C 289.636719 260.785156 290.152344 260.273438 290.785156 260.273438 L 370.597656 260.273438 C 371.234375 260.273438 371.746094 260.785156 371.746094 261.417969 Z M 528.476562 273.4375 L 528.476562 371.734375 C 528.476562 372.371094 527.964844 372.882812 527.332031 372.882812 L 379.992188 372.882812 C 379.359375 372.882812 378.847656 372.371094 378.847656 371.734375 L 378.847656 273.4375 C 378.847656 272.804688 379.359375 272.292969 379.992188 272.292969 L 380.226562 272.292969 L 388.957031 222.636719 L 388.957031 218.496094 C 388.957031 218.34375 389.082031 218.21875 389.234375 218.21875 L 421.109375 218.230469 C 421.261719 218.230469 421.386719 218.355469 421.386719 218.507812 L 421.386719 222.679688 L 421.378906 222.679688 L 422.828125 231.742188 L 446.34375 231.742188 C 446.574219 231.742188 446.777344 231.589844 446.835938 231.363281 L 447.027344 230.644531 L 447.488281 228.894531 L 454.925781 200.734375 C 454.984375 200.511719 455.1875 200.355469 455.417969 200.355469 L 459.027344 200.355469 C 459.355469 200.355469 459.597656 200.664062 459.519531 200.984375 L 450.78125 237 C 450.726562 237.226562 450.523438 237.386719 450.289062 237.386719 L 439.203125 237.386719 L 439.203125 269.285156 C 441.019531 269.691406 442.570312 270.785156 443.566406 272.292969 L 453.660156 272.292969 L 462.550781 221.742188 L 462.550781 218.4375 C 462.550781 218.316406 462.648438 218.21875 462.769531 218.21875 L 494.464844 218.21875 C 494.585938 218.21875 494.683594 218.316406 494.683594 218.4375 L 494.683594 221.855469 L 496.265625 231.742188 L 515.050781 231.742188 C 515.085938 231.742188 515.113281 231.734375 515.144531 231.726562 C 515.390625 231.691406 515.601562 231.519531 515.664062 231.269531 L 516.335938 228.726562 L 523.707031 200.828125 C 523.78125 200.550781 524.035156 200.355469 524.320312 200.355469 L 527.671875 200.355469 C 528.082031 200.355469 528.382812 200.742188 528.289062 201.140625 L 519.609375 236.902344 C 519.542969 237.1875 519.285156 237.386719 518.992188 237.386719 L 508.007812 237.386719 L 508.007812 269.285156 C 509.828125 269.691406 511.375 270.785156 512.371094 272.292969 L 527.332031 272.292969 C 527.964844 272.292969 528.476562 272.804688 528.476562 273.4375 Z M 389.457031 231.28125 L 420.738281 231.28125 L 419.492188 223.511719 L 419.355469 222.679688 L 418.242188 222.679688 L 390.976562 222.671875 Z M 427.328125 272.292969 L 423.414062 247.929688 L 421.902344 238.515625 L 421.03125 233.101562 L 389.132812 233.101562 L 382.203125 272.292969 L 386.964844 272.292969 L 386.964844 273.253906 C 386.964844 273.566406 387.214844 273.804688 387.515625 273.804688 L 397 273.804688 C 397.292969 273.804688 397.574219 273.683594 397.773438 273.484375 L 398.964844 272.292969 L 400.746094 272.292969 L 400.746094 273.472656 C 400.746094 273.734375 400.957031 273.945312 401.21875 273.945312 L 404.003906 273.945312 C 404.265625 273.945312 404.472656 273.734375 404.472656 273.472656 C 404.492188 273.179688 404.511719 272.890625 404.527344 272.597656 L 411.265625 272.597656 C 411.546875 272.597656 411.816406 272.480469 412.015625 272.292969 L 415.015625 272.292969 C 415.027344 272.539062 415.230469 272.738281 415.480469 272.738281 L 418.265625 272.738281 C 418.519531 272.738281 418.71875 272.539062 418.730469 272.292969 Z M 436.117188 237.386719 L 423.730469 237.386719 L 429.3125 272.292969 L 431.753906 272.292969 C 432.75 270.785156 434.296875 269.691406 436.117188 269.285156 Z M 462.890625 231.28125 L 494.175781 231.28125 L 492.792969 222.671875 L 464.414062 222.671875 Z M 500.722656 272.027344 L 495.15625 237.386719 L 493.070312 237.386719 C 492.902344 237.386719 492.75 237.316406 492.636719 237.210938 C 492.515625 237.09375 492.4375 236.933594 492.4375 236.75 L 492.4375 233.101562 L 462.570312 233.101562 L 455.640625 272.292969 L 461.082031 272.292969 L 461.089844 273.59375 C 461.089844 273.742188 461.210938 273.863281 461.359375 273.863281 L 473.183594 273.863281 C 473.371094 273.863281 473.558594 273.820312 473.722656 273.734375 L 475.257812 272.945312 L 475.261719 273.863281 L 478.03125 273.863281 C 478.183594 273.863281 478.304688 273.742188 478.304688 273.589844 L 478.304688 273.46875 L 478.308594 273.507812 L 490.363281 272.640625 C 490.605469 272.621094 490.84375 272.542969 491.046875 272.414062 L 491.238281 272.292969 L 492.5 272.292969 L 492.527344 272.484375 L 493.785156 272.292969 L 500.558594 272.292969 C 500.617188 272.207031 500.664062 272.113281 500.722656 272.027344 Z M 504.921875 237.386719 L 497.167969 237.386719 L 502.441406 270.367188 C 503.179688 269.855469 504.019531 269.488281 504.921875 269.285156 Z M 279.3125 249.253906 L 259.542969 249.253906 C 259.511719 249.269531 259.484375 249.292969 259.445312 249.292969 L 256.691406 249.292969 C 256.652344 249.292969 256.625 249.273438 256.59375 249.253906 L 254.074219 249.253906 C 254.019531 249.273438 253.960938 249.292969 253.902344 249.292969 L 245.230469 249.292969 C 245.167969 249.292969 245.105469 249.277344 245.046875 249.253906 L 231.941406 249.253906 C 231.910156 249.273438 231.878906 249.292969 231.839844 249.292969 L 229.027344 249.292969 C 228.988281 249.292969 228.957031 249.273438 228.925781 249.253906 L 226.523438 249.253906 C 226.472656 249.277344 226.417969 249.292969 226.367188 249.292969 L 217.476562 249.292969 C 217.421875 249.292969 217.371094 249.277344 217.324219 249.253906 L 199.5 249.253906 C 198.863281 249.253906 198.351562 249.765625 198.351562 250.402344 L 198.351562 371.734375 C 198.351562 372.371094 198.863281 372.882812 199.5 372.882812 L 279.3125 372.882812 C 279.945312 372.882812 280.460938 372.371094 280.460938 371.734375 L 280.460938 250.402344 C 280.460938 249.765625 279.945312 249.253906 279.3125 249.253906 Z M 182.449219 241.242188 L 177.230469 241.242188 L 177.230469 242.074219 C 177.230469 242.21875 177.113281 242.335938 176.96875 242.335938 L 169.996094 242.335938 C 169.320312 242.335938 168.648438 242.25 167.996094 242.082031 L 165.324219 241.386719 L 165.324219 242.335938 L 161.972656 242.335938 C 161.933594 242.300781 161.90625 242.277344 161.867188 242.242188 C 161.832031 241.910156 161.808594 241.574219 161.785156 241.242188 L 126.816406 241.242188 C 126.785156 241.609375 126.753906 241.976562 126.703125 242.335938 L 123.054688 242.335938 L 123.054688 241.386719 L 119.582031 242.148438 C 119.019531 242.273438 118.449219 242.335938 117.875 242.335938 L 110.644531 242.335938 C 110.5 242.335938 110.382812 242.21875 110.382812 242.074219 L 110.382812 241.242188 L 102.636719 241.242188 C 102.003906 241.242188 101.488281 241.753906 101.488281 242.386719 L 101.488281 371.734375 C 101.488281 372.371094 102.003906 372.882812 102.636719 372.882812 L 182.449219 372.882812 C 183.085938 372.882812 183.597656 372.371094 183.597656 371.734375 L 183.597656 242.386719 C 183.597656 241.753906 183.085938 241.242188 182.449219 241.242188 Z M 350.695312 189.890625 L 350.695312 177.355469 C 351.015625 177.207031 351.324219 177.03125 351.601562 176.800781 L 363.238281 167.140625 C 363.273438 167.113281 363.28125 167.066406 363.261719 167.027344 L 362.90625 166.324219 L 369.609375 164.328125 C 370.078125 164.226562 370.480469 163.9375 370.730469 163.527344 L 371.085938 162.949219 L 371.085938 168.378906 C 371.085938 168.46875 371.15625 168.539062 371.246094 168.539062 L 378.746094 168.539062 C 378.835938 168.539062 378.90625 168.46875 378.90625 168.378906 L 378.90625 160.878906 C 378.90625 160.789062 378.835938 160.71875 378.746094 160.71875 L 372.449219 160.71875 L 372.679688 160.335938 C 373.050781 159.710938 373.109375 158.953125 372.84375 158.277344 L 372.324219 156.953125 L 378.746094 156.953125 C 378.835938 156.953125 378.90625 156.878906 378.90625 156.789062 L 378.90625 149.292969 C 378.90625 149.203125 378.835938 149.128906 378.746094 149.128906 L 371.246094 149.128906 C 371.15625 149.128906 371.085938 149.203125 371.085938 149.292969 L 371.085938 154.683594 C 370.867188 154.636719 370.621094 154.691406 370.394531 154.867188 C 369.429688 155.609375 368.824219 156.644531 368.523438 157.269531 C 368.347656 157.632812 368.050781 157.921875 367.679688 158.078125 L 364.976562 159.238281 L 365.148438 158.292969 C 365.1875 158.082031 365.320312 157.757812 365.460938 157.59375 C 365.628906 157.390625 365.757812 157.179688 365.855469 156.953125 L 366.015625 156.953125 C 366.105469 156.953125 366.175781 156.878906 366.175781 156.789062 L 366.175781 149.292969 C 366.175781 149.203125 366.105469 149.128906 366.015625 149.128906 L 358.515625 149.128906 C 358.425781 149.128906 358.355469 149.203125 358.355469 149.292969 L 358.355469 156.789062 C 358.355469 156.878906 358.425781 156.953125 358.515625 156.953125 L 363.027344 156.953125 C 362.792969 157.136719 362.566406 157.332031 362.367188 157.550781 L 359.863281 160.300781 L 359.359375 159.304688 C 359.332031 159.253906 359.273438 159.238281 359.226562 159.265625 L 350.695312 164.777344 L 350.695312 120.96875 C 350.695312 120.875 350.773438 120.800781 350.867188 120.800781 L 398.242188 120.800781 C 398.335938 120.800781 398.414062 120.875 398.414062 120.96875 L 398.414062 189.890625 C 398.414062 189.984375 398.335938 190.0625 398.242188 190.0625 L 350.867188 190.0625 C 350.773438 190.0625 350.695312 189.984375 350.695312 189.890625 Z M 391.148438 160.878906 C 391.148438 160.789062 391.078125 160.71875 390.988281 160.71875 L 383.488281 160.71875 C 383.398438 160.71875 383.328125 160.789062 383.328125 160.878906 L 383.328125 168.378906 C 383.328125 168.46875 383.398438 168.539062 383.488281 168.539062 L 390.988281 168.539062 C 391.078125 168.539062 391.148438 168.46875 391.148438 168.378906 Z M 391.148438 149.292969 C 391.148438 149.203125 391.078125 149.128906 390.988281 149.128906 L 383.488281 149.128906 C 383.398438 149.128906 383.328125 149.203125 383.328125 149.292969 L 383.328125 156.789062 C 383.328125 156.878906 383.398438 156.953125 383.488281 156.953125 L 390.988281 156.953125 C 391.078125 156.953125 391.148438 156.878906 391.148438 156.789062 Z M 390.988281 137.828125 L 383.488281 137.828125 C 383.398438 137.828125 383.328125 137.902344 383.328125 137.988281 L 383.328125 145.488281 C 383.328125 145.578125 383.398438 145.652344 383.488281 145.652344 L 390.988281 145.652344 C 391.078125 145.652344 391.148438 145.578125 391.148438 145.488281 L 391.148438 137.988281 C 391.148438 137.902344 391.078125 137.828125 390.988281 137.828125 Z M 366.175781 137.988281 C 366.175781 137.902344 366.105469 137.828125 366.015625 137.828125 L 358.515625 137.828125 C 358.425781 137.828125 358.355469 137.902344 358.355469 137.988281 L 358.355469 145.488281 C 358.355469 145.578125 358.425781 145.652344 358.515625 145.652344 L 366.015625 145.652344 C 366.105469 145.652344 366.175781 145.578125 366.175781 145.488281 Z M 389.984375 131.828125 C 390.074219 131.828125 390.148438 131.757812 390.148438 131.667969 L 390.148438 129.488281 C 390.148438 129.398438 390.074219 129.324219 389.984375 129.324219 L 359.515625 129.324219 C 359.429688 129.324219 359.355469 129.398438 359.355469 129.488281 L 359.355469 131.667969 C 359.355469 131.757812 359.429688 131.828125 359.515625 131.828125 Z M 378.90625 145.488281 L 378.90625 137.988281 C 378.90625 137.902344 378.835938 137.828125 378.746094 137.828125 L 371.246094 137.828125 C 371.15625 137.828125 371.085938 137.902344 371.085938 137.988281 L 371.085938 145.488281 C 371.085938 145.578125 371.15625 145.652344 371.246094 145.652344 L 378.746094 145.652344 C 378.835938 145.652344 378.90625 145.578125 378.90625 145.488281 Z M 371.085938 179.714844 C 371.085938 179.804688 371.15625 179.878906 371.246094 179.878906 L 378.746094 179.878906 C 378.835938 179.878906 378.90625 179.804688 378.90625 179.714844 L 378.90625 172.214844 C 378.90625 172.125 378.835938 172.054688 378.746094 172.054688 L 371.246094 172.054688 C 371.15625 172.054688 371.085938 172.125 371.085938 172.214844 Z M 358.355469 179.714844 C 358.355469 179.804688 358.425781 179.878906 358.515625 179.878906 L 366.015625 179.878906 C 366.105469 179.878906 366.175781 179.804688 366.175781 179.714844 L 366.175781 172.214844 C 366.175781 172.125 366.105469 172.054688 366.015625 172.054688 L 358.515625 172.054688 C 358.425781 172.054688 358.355469 172.125 358.355469 172.214844 Z M 426.898438 81.855469 L 431.855469 76.898438 L 438.613281 83.65625 C 442.492188 80.640625 447.179688 78.621094 452.292969 77.980469 L 452.292969 68.425781 L 459.304688 68.425781 L 459.304688 77.980469 C 464.417969 78.621094 469.101562 80.640625 472.980469 83.660156 L 479.742188 76.898438 L 484.699219 81.855469 L 477.9375 88.617188 C 480.953125 92.496094 482.972656 97.179688 483.613281 102.292969 L 493.160156 102.292969 L 493.160156 109.304688 L 483.613281 109.304688 C 482.972656 114.417969 480.953125 119.101562 477.9375 122.980469 L 484.699219 129.742188 L 479.742188 134.703125 L 472.980469 127.9375 C 469.101562 130.957031 464.417969 132.976562 459.304688 133.617188 L 459.304688 143.171875 L 452.292969 143.171875 L 452.292969 133.617188 C 447.179688 132.976562 442.492188 130.957031 438.613281 127.941406 L 431.855469 134.699219 L 426.898438 129.742188 L 433.65625 122.984375 C 430.640625 119.105469 428.621094 114.417969 427.980469 109.304688 L 418.425781 109.304688 L 418.425781 102.292969 L 427.980469 102.292969 C 428.621094 97.179688 430.640625 92.496094 433.65625 88.617188 Z M 457.949219 126.722656 C 467.785156 125.742188 475.738281 117.789062 476.722656 107.953125 C 478.050781 94.667969 466.925781 83.542969 453.640625 84.875 C 443.808594 85.859375 435.855469 93.8125 434.871094 103.644531 C 433.542969 116.929688 444.664062 128.050781 457.949219 126.722656 Z M 383.105469 71.933594 L 377.21875 71.933594 L 377.21875 64.921875 L 383.105469 64.921875 C 383.640625 61.78125 384.871094 58.882812 386.644531 56.382812 L 382.484375 52.222656 L 387.441406 47.261719 L 391.605469 51.425781 C 394.101562 49.652344 397 48.421875 400.140625 47.886719 L 400.140625 42 L 407.152344 42 L 407.152344 47.886719 C 410.292969 48.421875 413.191406 49.652344 415.691406 51.425781 L 419.855469 47.261719 L 424.8125 52.21875 L 420.648438 56.386719 C 422.421875 58.882812 423.652344 61.78125 424.1875 64.921875 L 430.066406 64.921875 L 430.066406 71.933594 L 424.1875 71.933594 C 423.652344 75.074219 422.421875 77.972656 420.648438 80.46875 L 424.8125 84.632812 L 419.855469 89.59375 L 415.691406 85.429688 C 413.191406 87.203125 410.292969 88.433594 407.152344 88.96875 L 407.152344 94.855469 L 400.140625 94.855469 L 400.140625 88.96875 C 397 88.433594 394.101562 87.203125 391.605469 85.429688 L 387.441406 89.59375 L 382.484375 84.632812 L 386.644531 80.472656 C 384.871094 77.972656 383.640625 75.074219 383.105469 71.933594 Z M 389.800781 68.425781 C 389.800781 76.0625 396.011719 82.273438 403.648438 82.273438 C 411.28125 82.273438 417.492188 76.0625 417.492188 68.425781 C 417.492188 60.792969 411.28125 54.582031 403.648438 54.582031 C 396.011719 54.582031 389.800781 60.792969 389.800781 68.425781 Z M 492.386719 124.035156 L 497.34375 119.078125 L 501.144531 122.878906 C 502.203125 122.257812 503.355469 121.777344 504.570312 121.457031 L 504.570312 116.082031 L 511.582031 116.082031 L 511.582031 121.457031 C 512.800781 121.777344 513.953125 122.257812 515.011719 122.878906 L 518.8125 119.078125 L 523.769531 124.035156 L 519.96875 127.835938 C 520.589844 128.898438 521.070312 130.046875 521.390625 131.265625 L 526.761719 131.265625 L 526.761719 138.277344 L 521.390625 138.277344 C 521.070312 139.492188 520.59375 140.644531 519.96875 141.707031 L 523.769531 145.507812 L 518.8125 150.464844 L 515.011719 146.664062 C 513.953125 147.285156 512.800781 147.765625 511.582031 148.085938 L 511.582031 153.460938 L 504.570312 153.460938 L 504.570312 148.085938 C 503.355469 147.765625 502.203125 147.285156 501.144531 146.664062 L 497.34375 150.464844 L 492.386719 145.507812 L 496.183594 141.707031 C 495.5625 140.644531 495.082031 139.492188 494.761719 138.277344 L 489.390625 138.277344 L 489.390625 131.265625 L 494.761719 131.265625 C 495.082031 130.046875 495.5625 128.898438 496.183594 127.835938 Z M 501.304688 134.769531 C 501.304688 138.503906 504.34375 141.542969 508.078125 141.542969 C 511.8125 141.542969 514.851562 138.503906 514.851562 134.769531 C 514.851562 131.035156 511.8125 128 508.078125 128 C 504.34375 128 501.304688 131.035156 501.304688 134.769531 Z M 454.992188 110.023438 C 455.222656 110.21875 455.507812 110.320312 455.796875 110.320312 C 455.980469 110.320312 456.160156 110.28125 456.328125 110.203125 C 456.769531 109.996094 457.050781 109.554688 457.050781 109.066406 L 457.050781 93.644531 C 457.050781 92.953125 456.488281 92.394531 455.796875 92.394531 C 455.105469 92.394531 454.546875 92.953125 454.546875 93.644531 L 454.546875 106.378906 L 447.425781 100.398438 C 446.898438 99.953125 446.105469 100.023438 445.664062 100.550781 C 445.21875 101.078125 445.285156 101.871094 445.816406 102.3125 Z M 238.664062 91.027344 C 239.734375 91.027344 240.601562 90.160156 240.601562 89.089844 C 240.601562 88.015625 239.734375 87.148438 238.664062 87.148438 C 237.589844 87.148438 236.722656 88.015625 236.722656 89.089844 C 236.722656 90.160156 237.589844 91.027344 238.664062 91.027344 Z M 230.25 91.027344 C 231.320312 91.027344 232.191406 90.160156 232.191406 89.089844 C 232.191406 88.015625 231.320312 87.148438 230.25 87.148438 C 229.179688 87.148438 228.308594 88.015625 228.308594 89.089844 C 228.308594 90.160156 229.179688 91.027344 230.25 91.027344 Z M 247.074219 91.027344 C 248.148438 91.027344 249.015625 90.160156 249.015625 89.089844 C 249.015625 88.015625 248.148438 87.148438 247.074219 87.148438 C 246.003906 87.148438 245.136719 88.015625 245.136719 89.089844 C 245.136719 90.160156 246.003906 91.027344 247.074219 91.027344 Z M 166.882812 74.078125 C 167.953125 74.078125 168.824219 73.210938 168.824219 72.140625 C 168.824219 71.066406 167.953125 70.199219 166.882812 70.199219 C 165.8125 70.199219 164.941406 71.066406 164.941406 72.140625 C 164.941406 73.210938 165.8125 74.078125 166.882812 74.078125 Z M 156.535156 74.078125 C 157.605469 74.078125 158.472656 73.210938 158.472656 72.140625 C 158.472656 71.066406 157.605469 70.199219 156.535156 70.199219 C 155.464844 70.199219 154.59375 71.066406 154.59375 72.140625 C 154.59375 73.210938 155.464844 74.078125 156.535156 74.078125 Z M 177.230469 74.078125 C 178.300781 74.078125 179.171875 73.210938 179.171875 72.140625 C 179.171875 71.066406 178.300781 70.199219 177.230469 70.199219 C 176.160156 70.199219 175.292969 71.066406 175.292969 72.140625 C 175.292969 73.210938 176.160156 74.078125 177.230469 74.078125 Z M 187.578125 74.078125 C 188.648438 74.078125 189.519531 73.210938 189.519531 72.140625 C 189.519531 71.066406 188.648438 70.199219 187.578125 70.199219 C 186.507812 70.199219 185.640625 71.066406 185.640625 72.140625 C 185.640625 73.210938 186.507812 74.078125 187.578125 74.078125 Z M 313.574219 253.390625 L 323.070312 253.390625 C 323.125 253.390625 323.171875 253.347656 323.175781 253.296875 L 328.085938 199.207031 C 328.101562 199.050781 328.226562 198.925781 328.382812 198.910156 L 329.480469 198.800781 C 329.628906 198.785156 329.769531 198.871094 329.824219 199.011719 L 337.613281 219.460938 C 338.160156 220.894531 338.609375 222.367188 338.957031 223.863281 L 345.789062 253.339844 C 345.808594 253.4375 345.898438 253.507812 346 253.503906 L 346.667969 253.496094 L 347.300781 253.492188 L 355.675781 253.402344 L 356.078125 253.398438 L 356.613281 253.394531 C 356.75 253.390625 356.851562 253.269531 356.824219 253.136719 L 350.855469 222.527344 C 350.570312 221.066406 350.1875 219.625 349.714844 218.210938 L 339.296875 187.273438 L 314.496094 187.273438 L 313.46875 253.285156 C 313.46875 253.34375 313.515625 253.390625 313.574219 253.390625 Z M 423.566406 209.007812 L 423.523438 209.941406 L 423.484375 210.652344 L 423.464844 211.082031 L 423.234375 216.011719 L 423.203125 216.589844 C 423.195312 216.800781 423.355469 216.980469 423.566406 216.980469 L 428.8125 217.183594 L 428.855469 218.453125 L 446.554688 218.453125 L 446.714844 217.824219 C 447.613281 217.773438 448.4375 217.261719 448.855469 216.449219 L 450.871094 212.484375 C 451.128906 211.964844 451.210938 211.371094 451.089844 210.792969 L 447.996094 196.105469 C 447.65625 194.453125 446.882812 192.914062 445.761719 191.640625 L 443.539062 189.105469 L 442.953125 189.316406 L 435.695312 191.910156 L 434.996094 190.1875 L 433.691406 190.1875 L 429.496094 197.960938 C 428.703125 199.421875 428.3125 201.066406 428.363281 202.71875 L 428.542969 208.609375 L 423.9375 208.648438 C 423.734375 208.648438 423.574219 208.808594 423.566406 209.007812 Z M 217.785156 134.667969 L 207.21875 103.472656 C 207.167969 103.328125 207.011719 103.246094 206.863281 103.292969 L 186.03125 109.835938 C 185.875 109.882812 185.792969 110.050781 185.84375 110.203125 L 192.019531 128.066406 L 192.027344 128.082031 L 194.871094 125.988281 C 195.320312 125.652344 195.976562 125.980469 195.953125 126.539062 C 195.925781 127.191406 195.695312 127.980469 194.910156 128.601562 C 194.707031 128.765625 194.53125 128.964844 194.445312 129.214844 L 193.382812 132 L 194.949219 136.535156 L 195.003906 136.695312 L 196.703125 141.605469 C 196.753906 141.753906 196.914062 141.835938 197.058594 141.785156 L 217.601562 135.03125 C 217.753906 134.980469 217.835938 134.816406 217.785156 134.667969 Z M 248.613281 168.6875 L 248.542969 165.886719 L 248.6875 164.488281 L 246.464844 163.582031 C 246.433594 163.570312 246.414062 163.539062 246.390625 163.515625 C 246.382812 163.5 246.363281 163.496094 246.355469 163.480469 C 246.332031 163.4375 246.324219 163.382812 246.335938 163.332031 L 246.734375 161.605469 C 245.757812 161.410156 245.050781 160.914062 244.671875 160.574219 C 244.429688 160.355469 244.140625 160.199219 243.816406 160.140625 L 242.265625 159.847656 C 242.007812 159.800781 241.75 159.847656 241.503906 159.933594 C 241.257812 160.023438 241.011719 160.074219 240.78125 160.097656 L 240.40625 168.6875 Z M 245.789062 154.816406 L 248.085938 155.769531 L 248.28125 154.910156 C 248.308594 154.792969 248.425781 154.71875 248.542969 154.742188 L 249.675781 154.972656 L 250.878906 143.339844 L 250.296875 142.824219 C 250.214844 142.75 250.085938 142.742188 249.996094 142.808594 L 244.046875 147.125 L 241.695312 142.53125 C 241.664062 142.46875 241.605469 142.4375 241.546875 142.417969 L 240.953125 156.0625 L 243.675781 154.847656 C 244.347656 154.546875 245.109375 154.535156 245.789062 154.816406 Z M 516.339844 219.789062 L 516.542969 216.054688 L 517.695312 215.101562 C 518.691406 214.28125 519.230469 213.03125 519.132812 211.742188 L 517.925781 195.585938 C 517.828125 194.269531 517.410156 193 516.707031 191.878906 L 513.246094 186.363281 C 513.097656 186.125 512.824219 186.007812 512.550781 186.058594 L 512.320312 186.101562 L 502.796875 187.917969 L 502.539062 187.964844 C 502.339844 188.003906 502.171875 188.128906 502.074219 188.304688 L 497.511719 196.628906 C 497.203125 197.195312 497.039062 197.835938 497.039062 198.484375 L 497.039062 208.675781 L 489.679688 208.296875 C 489.625 208.347656 489.597656 208.375 489.542969 208.425781 L 489.5 209.5625 L 489.28125 215.664062 L 489.21875 217.324219 C 489.269531 217.375 489.300781 217.40625 489.351562 217.460938 L 497.039062 217.578125 L 497.039062 219.785156 L 516.335938 219.785156 L 516.335938 219.789062 Z M 516.339844 219.789062 " fill-opacity="1" fill-rule="nonzero"/></g></svg>